<?xml version="1.0" encoding="UTF-8" standalone="no"?>
<!DOCTYPE svg PUBLIC "-//W3C//DTD SVG 1.1//EN"
 "http://www.w3.org/Graphics/SVG/1.1/DTD/svg11.dtd">
<!-- Generated by graphviz version 2.43.0 (0)
 -->
<!-- Title: ResultMonad Pages: 1 -->
<svg width="1243pt" height="626pt"
 viewBox="0.00 0.00 1243.00 625.50" xmlns="http://www.w3.org/2000/svg" xmlns:xlink="http://www.w3.org/1999/xlink">
<g id="graph0" class="graph" transform="scale(1 1) rotate(0) translate(4 621.5)">
<title>ResultMonad</title>
<polygon fill="white" stroke="transparent" points="-4,4 -4,-621.5 1239,-621.5 1239,4 -4,4"/>
<g id="clust1" class="cluster">
<title>cluster_ResultMonad</title>
<polygon fill="#ffffc3" stroke="black" points="8,-18.5 8,-599 1227,-599 1227,-18.5 8,-18.5"/>
<text text-anchor="middle" x="63.5" y="-583.8" font-family="Times,serif" font-size="14.00">ResultMonad</text>
</g>
<!-- ResultMonad_unpack_result -->
<g id="node1" class="node">
<title>ResultMonad_unpack_result</title>
<g id="a_node1"><a xlink:href="ResultMonad.html#unpack_result" xlink:title="unpack_result">
<ellipse fill="#f070d1" stroke="black" cx="1136" cy="-263.5" rx="75.3" ry="18"/>
<ellipse fill="none" stroke="black" cx="1136" cy="-263.5" rx="79.29" ry="22"/>
<ellipse fill="none" stroke="black" cx="1136" cy="-263.5" rx="83.29" ry="26"/>
<text text-anchor="middle" x="1136" y="-259.8" font-family="Times,serif" font-size="14.00">unpack_result</text>
</a>
</g>
</g>
<!-- ResultMonad_result -->
<g id="node11" class="node">
<title>ResultMonad_result</title>
<g id="a_node11"><a xlink:href="ResultMonad.html#result" xlink:title="result">
<ellipse fill="#e2cdfa" stroke="black" cx="589" cy="-78.5" rx="38.19" ry="18"/>
<text text-anchor="middle" x="589" y="-74.8" font-family="Times,serif" font-size="14.00">result</text>
</a>
</g>
</g>
<!-- ResultMonad_unpack_result&#45;&gt;ResultMonad_result -->
<g id="edge1" class="edge">
<title>ResultMonad_unpack_result&#45;&gt;ResultMonad_result</title>
<path fill="none" stroke="black" d="M1080.54,-243.95C970.1,-207 725.06,-125.02 628.87,-92.84"/>
<polygon fill="black" stroke="black" points="629.82,-89.47 619.23,-89.61 627.6,-96.11 629.82,-89.47"/>
</g>
<!-- ResultMonad_option_of_result -->
<g id="node2" class="node">
<title>ResultMonad_option_of_result</title>
<g id="a_node2"><a xlink:href="ResultMonad.html#option_of_result" xlink:title="option_of_result">
<ellipse fill="#f070d1" stroke="black" cx="941" cy="-263.5" rx="85.27" ry="18"/>
<ellipse fill="none" stroke="black" cx="941" cy="-263.5" rx="89.28" ry="22"/>
<ellipse fill="none" stroke="black" cx="941" cy="-263.5" rx="93.29" ry="26"/>
<text text-anchor="middle" x="941" y="-259.8" font-family="Times,serif" font-size="14.00">option_of_result</text>
</a>
</g>
</g>
<!-- ResultMonad_option_of_result&#45;&gt;ResultMonad_result -->
<g id="edge2" class="edge">
<title>ResultMonad_option_of_result&#45;&gt;ResultMonad_result</title>
<path fill="none" stroke="black" d="M898.19,-240.25C827.29,-203.39 686.94,-130.42 622.63,-96.98"/>
<polygon fill="black" stroke="black" points="624.19,-93.85 613.7,-92.35 620.96,-100.06 624.19,-93.85"/>
</g>
<!-- ResultMonad_result_of_option -->
<g id="node3" class="node">
<title>ResultMonad_result_of_option</title>
<g id="a_node3"><a xlink:href="ResultMonad.html#result_of_option" xlink:title="result_of_option">
<ellipse fill="#f070d1" stroke="black" cx="589" cy="-263.5" rx="85.27" ry="18"/>
<ellipse fill="none" stroke="black" cx="589" cy="-263.5" rx="89.28" ry="22"/>
<ellipse fill="none" stroke="black" cx="589" cy="-263.5" rx="93.29" ry="26"/>
<text text-anchor="middle" x="589" y="-259.8" font-family="Times,serif" font-size="14.00">result_of_option</text>
</a>
</g>
</g>
<!-- ResultMonad_Err -->
<g id="node9" class="node">
<title>ResultMonad_Err</title>
<g id="a_node9"><a xlink:href="ResultMonad.html#Err" xlink:title="Err">
<ellipse fill="#7faaff" stroke="black" cx="360" cy="-78.5" rx="27" ry="18"/>
<text text-anchor="middle" x="360" y="-74.8" font-family="Times,serif" font-size="14.00">Err</text>
</a>
</g>
</g>
<!-- ResultMonad_result_of_option&#45;&gt;ResultMonad_Err -->
<g id="edge3" class="edge">
<title>ResultMonad_result_of_option&#45;&gt;ResultMonad_Err</title>
<path fill="none" stroke="black" d="M559.06,-238.58C513.26,-201.97 426.66,-132.77 384.41,-99.01"/>
<polygon fill="black" stroke="black" points="386.58,-96.26 376.58,-92.75 382.21,-101.73 386.58,-96.26"/>
</g>
<!-- ResultMonad_Ok -->
<g id="node10" class="node">
<title>ResultMonad_Ok</title>
<g id="a_node10"><a xlink:href="ResultMonad.html#Ok" xlink:title="Ok">
<ellipse fill="#7faaff" stroke="black" cx="432" cy="-78.5" rx="27" ry="18"/>
<text text-anchor="middle" x="432" y="-74.8" font-family="Times,serif" font-size="14.00">Ok</text>
</a>
</g>
</g>
<!-- ResultMonad_result_of_option&#45;&gt;ResultMonad_Ok -->
<g id="edge4" class="edge">
<title>ResultMonad_result_of_option&#45;&gt;ResultMonad_Ok</title>
<path fill="none" stroke="black" d="M567.83,-237.82C537.3,-202.24 481.33,-137 451.66,-102.42"/>
<polygon fill="black" stroke="black" points="454.23,-100.04 445.06,-94.73 448.92,-104.6 454.23,-100.04"/>
</g>
<!-- ResultMonad_result_of_option&#45;&gt;ResultMonad_result -->
<g id="edge5" class="edge">
<title>ResultMonad_result_of_option&#45;&gt;ResultMonad_result</title>
<path fill="none" stroke="black" d="M589,-237.44C589,-203.2 589,-142.02 589,-106.7"/>
<polygon fill="black" stroke="black" points="592.5,-106.62 589,-96.62 585.5,-106.62 592.5,-106.62"/>
</g>
<!-- ResultMonad_Monad_result -->
<g id="node4" class="node">
<title>ResultMonad_Monad_result</title>
<g id="a_node4"><a xlink:href="ResultMonad.html#Monad_result" xlink:title="Monad_result">
<ellipse fill="#f070d1" stroke="black" cx="396" cy="-263.5" rx="74.18" ry="18"/>
<ellipse fill="none" stroke="black" cx="396" cy="-263.5" rx="78.18" ry="22"/>
<ellipse fill="none" stroke="black" cx="396" cy="-263.5" rx="82.19" ry="26"/>
<text text-anchor="middle" x="396" y="-259.8" font-family="Times,serif" font-size="14.00">Monad_result</text>
</a>
</g>
</g>
<!-- ResultMonad_Monad_result&#45;&gt;ResultMonad_Err -->
<g id="edge6" class="edge">
<title>ResultMonad_Monad_result&#45;&gt;ResultMonad_Err</title>
<path fill="none" stroke="black" d="M391.07,-237.44C384.32,-203.11 372.24,-141.7 365.3,-106.42"/>
<polygon fill="black" stroke="black" points="368.68,-105.51 363.32,-96.37 361.81,-106.86 368.68,-105.51"/>
</g>
<!-- ResultMonad_Monad_result&#45;&gt;ResultMonad_Ok -->
<g id="edge7" class="edge">
<title>ResultMonad_Monad_result&#45;&gt;ResultMonad_Ok</title>
<path fill="none" stroke="black" d="M400.93,-237.44C407.68,-203.11 419.76,-141.7 426.7,-106.42"/>
<polygon fill="black" stroke="black" points="430.19,-106.86 428.68,-96.37 423.32,-105.51 430.19,-106.86"/>
</g>
<!-- ResultMonad_Monad_result&#45;&gt;ResultMonad_result -->
<g id="edge8" class="edge">
<title>ResultMonad_Monad_result&#45;&gt;ResultMonad_result</title>
<path fill="none" stroke="black" d="M421.23,-238.58C458.82,-202.94 528.99,-136.4 565.53,-101.76"/>
<polygon fill="black" stroke="black" points="567.94,-104.29 572.79,-94.87 563.12,-99.21 567.94,-104.29"/>
</g>
<!-- ResultMonad_result_sind -->
<g id="node5" class="node">
<title>ResultMonad_result_sind</title>
<g id="a_node5"><a xlink:href="ResultMonad.html#result_sind" xlink:title="result_sind">
<ellipse fill="#f070d1" stroke="black" cx="226" cy="-263.5" rx="61.96" ry="18"/>
<ellipse fill="none" stroke="black" cx="226" cy="-263.5" rx="65.98" ry="22"/>
<ellipse fill="none" stroke="black" cx="226" cy="-263.5" rx="69.99" ry="26"/>
<text text-anchor="middle" x="226" y="-259.8" font-family="Times,serif" font-size="14.00">result_sind</text>
</a>
</g>
</g>
<!-- ResultMonad_result_sind&#45;&gt;ResultMonad_Err -->
<g id="edge9" class="edge">
<title>ResultMonad_result_sind&#45;&gt;ResultMonad_Err</title>
<path fill="none" stroke="black" d="M243.79,-238.2C269.52,-203.07 316.82,-138.47 342.43,-103.5"/>
<polygon fill="black" stroke="black" points="345.36,-105.42 348.44,-95.29 339.71,-101.29 345.36,-105.42"/>
</g>
<!-- ResultMonad_result_sind&#45;&gt;ResultMonad_Ok -->
<g id="edge10" class="edge">
<title>ResultMonad_result_sind&#45;&gt;ResultMonad_Ok</title>
<path fill="none" stroke="black" d="M252.09,-239.32C292.62,-203.32 370.07,-134.52 408.78,-100.13"/>
<polygon fill="black" stroke="black" points="411.27,-102.6 416.42,-93.34 406.62,-97.37 411.27,-102.6"/>
</g>
<!-- ResultMonad_result_sind&#45;&gt;ResultMonad_result -->
<g id="edge11" class="edge">
<title>ResultMonad_result_sind&#45;&gt;ResultMonad_result</title>
<path fill="none" stroke="black" d="M266.23,-242.22C338.16,-205.96 487.56,-130.64 554.85,-96.72"/>
<polygon fill="black" stroke="black" points="556.43,-99.84 563.78,-92.22 553.28,-93.59 556.43,-99.84"/>
</g>
<!-- ResultMonad_result_rec -->
<g id="node6" class="node">
<title>ResultMonad_result_rec</title>
<g id="a_node6"><a xlink:href="ResultMonad.html#result_rec" xlink:title="result_rec">
<ellipse fill="#f070d1" stroke="black" cx="81" cy="-467.5" rx="57.37" ry="18"/>
<ellipse fill="none" stroke="black" cx="81" cy="-467.5" rx="61.38" ry="22"/>
<ellipse fill="none" stroke="black" cx="81" cy="-467.5" rx="65.39" ry="26"/>
<text text-anchor="middle" x="81" y="-463.8" font-family="Times,serif" font-size="14.00">result_rec</text>
</a>
</g>
</g>
<!-- ResultMonad_result_rect -->
<g id="node8" class="node">
<title>ResultMonad_result_rect</title>
<g id="a_node8"><a xlink:href="ResultMonad.html#result_rect" xlink:title="result_rect">
<ellipse fill="#f070d1" stroke="black" cx="77" cy="-263.5" rx="61.19" ry="18"/>
<text text-anchor="middle" x="77" y="-259.8" font-family="Times,serif" font-size="14.00">result_rect</text>
</a>
</g>
</g>
<!-- ResultMonad_result_rec&#45;&gt;ResultMonad_result_rect -->
<g id="edge12" class="edge">
<title>ResultMonad_result_rec&#45;&gt;ResultMonad_result_rect</title>
<path fill="none" stroke="black" d="M80.5,-441.33C79.75,-403.24 78.32,-331.24 77.54,-291.89"/>
<polygon fill="black" stroke="black" points="81.04,-291.64 77.34,-281.71 74.04,-291.78 81.04,-291.64"/>
</g>
<!-- ResultMonad_result_ind -->
<g id="node7" class="node">
<title>ResultMonad_result_ind</title>
<g id="a_node7"><a xlink:href="ResultMonad.html#result_ind" xlink:title="result_ind">
<ellipse fill="#7fffd4" stroke="black" cx="765" cy="-263.5" rx="57.37" ry="18"/>
<ellipse fill="none" stroke="black" cx="765" cy="-263.5" rx="61.38" ry="22"/>
<ellipse fill="none" stroke="black" cx="765" cy="-263.5" rx="65.39" ry="26"/>
<text text-anchor="middle" x="765" y="-259.8" font-family="Times,serif" font-size="14.00">result_ind</text>
</a>
</g>
</g>
<!-- ResultMonad_result_ind&#45;&gt;ResultMonad_Err -->
<g id="edge13" class="edge">
<title>ResultMonad_result_ind&#45;&gt;ResultMonad_Err</title>
<path fill="none" stroke="black" d="M722.55,-243.71C653.79,-213.2 513.86,-150.83 396,-96.5 394.21,-95.68 392.37,-94.83 390.52,-93.96"/>
<polygon fill="black" stroke="black" points="391.83,-90.71 381.29,-89.63 388.86,-97.05 391.83,-90.71"/>
</g>
<!-- ResultMonad_result_ind&#45;&gt;ResultMonad_Ok -->
<g id="edge14" class="edge">
<title>ResultMonad_result_ind&#45;&gt;ResultMonad_Ok</title>
<path fill="none" stroke="black" d="M727.77,-242.04C660.91,-205.3 521.85,-128.88 461.27,-95.59"/>
<polygon fill="black" stroke="black" points="462.69,-92.37 452.24,-90.63 459.32,-98.51 462.69,-92.37"/>
</g>
<!-- ResultMonad_result_ind&#45;&gt;ResultMonad_result -->
<g id="edge15" class="edge">
<title>ResultMonad_result_ind&#45;&gt;ResultMonad_result</title>
<path fill="none" stroke="black" d="M742.35,-238.95C708.52,-203.77 645.15,-137.89 611.44,-102.83"/>
<polygon fill="black" stroke="black" points="613.78,-100.22 604.33,-95.44 608.73,-105.07 613.78,-100.22"/>
</g>
<!-- ResultMonad_result_rect&#45;&gt;ResultMonad_Err -->
<g id="edge16" class="edge">
<title>ResultMonad_result_rect&#45;&gt;ResultMonad_Err</title>
<path fill="none" stroke="black" d="M101.13,-246.9C153.55,-213 277.54,-132.82 332.71,-97.15"/>
<polygon fill="black" stroke="black" points="334.76,-99.99 341.26,-91.62 330.96,-94.11 334.76,-99.99"/>
</g>
<!-- ResultMonad_result_rect&#45;&gt;ResultMonad_Ok -->
<g id="edge17" class="edge">
<title>ResultMonad_result_rect&#45;&gt;ResultMonad_Ok</title>
<path fill="none" stroke="black" d="M106.05,-247.53C172.5,-213.27 335,-129.51 402.18,-94.87"/>
<polygon fill="black" stroke="black" points="404.09,-97.83 411.38,-90.13 400.89,-91.6 404.09,-97.83"/>
</g>
<!-- ResultMonad_result_rect&#45;&gt;ResultMonad_result -->
<g id="edge18" class="edge">
<title>ResultMonad_result_rect&#45;&gt;ResultMonad_result</title>
<path fill="none" stroke="black" d="M114.23,-249.19C208.14,-215.63 453.93,-127.78 549.85,-93.49"/>
<polygon fill="black" stroke="black" points="551.22,-96.72 559.46,-90.06 548.87,-90.13 551.22,-96.72"/>
</g>
</g>
</svg>
