<?xml version="1.0" encoding="UTF-8" standalone="no"?>
<!DOCTYPE svg PUBLIC "-//W3C//DTD SVG 1.1//EN"
 "http://www.w3.org/Graphics/SVG/1.1/DTD/svg11.dtd">
<!-- Generated by graphviz version 2.43.0 (0)
 -->
<!-- Title: CertifyingBeta Pages: 1 -->
<svg width="1448pt" height="728pt"
 viewBox="0.00 0.00 1448.00 728.00" xmlns="http://www.w3.org/2000/svg" xmlns:xlink="http://www.w3.org/1999/xlink">
<g id="graph0" class="graph" transform="scale(1 1) rotate(0) translate(4 724)">
<title>CertifyingBeta</title>
<polygon fill="white" stroke="transparent" points="-4,4 -4,-724 1444,-724 1444,4 -4,4"/>
<g id="clust1" class="cluster">
<title>cluster_CertifyingBeta</title>
<polygon fill="#ffffc3" stroke="black" points="8,-9.83 8,-710.17 1432,-710.17 1432,-9.83 8,-9.83"/>
<text text-anchor="middle" x="69" y="-694.97" font-family="Times,serif" font-size="14.00">CertifyingBeta</text>
</g>
<g id="clust2" class="cluster">
<title>cluster_CertifyingBeta_Ex1</title>
<polygon fill="#ffffa3" stroke="black" points="504,-461.98 504,-672.08 1424,-672.08 1424,-461.98 504,-461.98"/>
<text text-anchor="middle" x="526" y="-656.88" font-family="Times,serif" font-size="14.00">Ex1</text>
</g>
<!-- CertifyingBeta_Ex1_after_not_before -->
<g id="node1" class="node">
<title>CertifyingBeta_Ex1_after_not_before</title>
<g id="a_node1"><a xlink:href="CertifyingBeta.html#Ex1.after_not_before" xlink:title="after_not_before">
<ellipse fill="#7fffd4" stroke="black" cx="1321" cy="-601.83" rx="87.18" ry="18"/>
<ellipse fill="none" stroke="black" cx="1321" cy="-601.83" rx="91.18" ry="22"/>
<ellipse fill="none" stroke="black" cx="1321" cy="-601.83" rx="95.18" ry="26"/>
<text text-anchor="middle" x="1321" y="-598.13" font-family="Times,serif" font-size="14.00">after_not_before</text>
</a>
</g>
</g>
<!-- CertifyingBeta_Ex1_foo_before -->
<g id="node2" class="node">
<title>CertifyingBeta_Ex1_foo_before</title>
<g id="a_node2"><a xlink:href="CertifyingBeta.html#Ex1.foo_before" xlink:title="foo_before">
<ellipse fill="#f070d1" stroke="black" cx="1233" cy="-493.83" rx="59.29" ry="18"/>
<text text-anchor="middle" x="1233" y="-490.13" font-family="Times,serif" font-size="14.00">foo_before</text>
</a>
</g>
</g>
<!-- CertifyingBeta_Ex1_after_not_before&#45;&gt;CertifyingBeta_Ex1_foo_before -->
<g id="edge1" class="edge">
<title>CertifyingBeta_Ex1_after_not_before&#45;&gt;CertifyingBeta_Ex1_foo_before</title>
<path fill="none" stroke="black" d="M1300.59,-576.24C1286.37,-559.11 1267.47,-536.35 1253.28,-519.25"/>
<polygon fill="black" stroke="black" points="1255.81,-516.82 1246.73,-511.36 1250.42,-521.29 1255.81,-516.82"/>
</g>
<!-- CertifyingBeta_Ex1_foo_after -->
<g id="node3" class="node">
<title>CertifyingBeta_Ex1_foo_after</title>
<g id="a_node3"><a xlink:href="CertifyingBeta.html#Ex1.foo_after" xlink:title="foo_after">
<ellipse fill="#f070d1" stroke="black" cx="1362" cy="-493.83" rx="51.99" ry="18"/>
<text text-anchor="middle" x="1362" y="-490.13" font-family="Times,serif" font-size="14.00">foo_after</text>
</a>
</g>
</g>
<!-- CertifyingBeta_Ex1_after_not_before&#45;&gt;CertifyingBeta_Ex1_foo_after -->
<g id="edge2" class="edge">
<title>CertifyingBeta_Ex1_after_not_before&#45;&gt;CertifyingBeta_Ex1_foo_after</title>
<path fill="none" stroke="black" d="M1330.72,-575.71C1337.03,-559.38 1345.25,-538.12 1351.68,-521.5"/>
<polygon fill="black" stroke="black" points="1355.08,-522.42 1355.42,-511.83 1348.55,-519.9 1355.08,-522.42"/>
</g>
<!-- CertifyingBeta_Ex1_ConCert_Extraction_CertifyingBeta_Ex1_foo_after_betared_convertible -->
<g id="node4" class="node">
<title>CertifyingBeta_Ex1_ConCert_Extraction_CertifyingBeta_Ex1_foo_after_betared_convertible</title>
<g id="a_node4"><a xlink:href="CertifyingBeta.html#Ex1.ConCert_Extraction_CertifyingBeta_Ex1_foo_after_betared_convertible" xlink:title="ConCert_Extraction_CertifyingBeta_Ex1_foo_after_betared_convertible">
<ellipse fill="#7fffd4" stroke="black" cx="860" cy="-601.83" rx="339.84" ry="18"/>
<ellipse fill="none" stroke="black" cx="860" cy="-601.83" rx="343.84" ry="22"/>
<ellipse fill="none" stroke="black" cx="860" cy="-601.83" rx="347.84" ry="26"/>
<text text-anchor="middle" x="860" y="-598.13" font-family="Times,serif" font-size="14.00">ConCert_Extraction_CertifyingBeta_Ex1_foo_after_betared_convertible</text>
</a>
</g>
</g>
<!-- CertifyingBeta_Ex1_ConCert_Extraction_CertifyingBeta_Ex1_foo_after_betared -->
<g id="node5" class="node">
<title>CertifyingBeta_Ex1_ConCert_Extraction_CertifyingBeta_Ex1_foo_after_betared</title>
<g id="a_node5"><a xlink:href="CertifyingBeta.html#Ex1.ConCert_Extraction_CertifyingBeta_Ex1_foo_after_betared" xlink:title="ConCert_Extraction_CertifyingBeta_Ex1_foo_after_betared">
<ellipse fill="#f070d1" stroke="black" cx="800" cy="-493.83" rx="283.25" ry="18"/>
<text text-anchor="middle" x="800" y="-490.13" font-family="Times,serif" font-size="14.00">ConCert_Extraction_CertifyingBeta_Ex1_foo_after_betared</text>
</a>
</g>
</g>
<!-- CertifyingBeta_Ex1_ConCert_Extraction_CertifyingBeta_Ex1_foo_after_betared_convertible&#45;&gt;CertifyingBeta_Ex1_ConCert_Extraction_CertifyingBeta_Ex1_foo_after_betared -->
<g id="edge3" class="edge">
<title>CertifyingBeta_Ex1_ConCert_Extraction_CertifyingBeta_Ex1_foo_after_betared_convertible&#45;&gt;CertifyingBeta_Ex1_ConCert_Extraction_CertifyingBeta_Ex1_foo_after_betared</title>
<path fill="none" stroke="black" d="M845.78,-575.71C836.37,-559.08 824.05,-537.32 814.57,-520.56"/>
<polygon fill="black" stroke="black" points="817.6,-518.81 809.62,-511.83 811.5,-522.26 817.6,-518.81"/>
</g>
<!-- CertifyingBeta_Ex1_foo -->
<g id="node6" class="node">
<title>CertifyingBeta_Ex1_foo</title>
<g id="a_node6"><a xlink:href="CertifyingBeta.html#Ex1.foo" xlink:title="foo">
<ellipse fill="#f070d1" stroke="black" cx="1128" cy="-493.83" rx="27" ry="18"/>
<text text-anchor="middle" x="1128" y="-490.13" font-family="Times,serif" font-size="14.00">foo</text>
</a>
</g>
</g>
<!-- CertifyingBeta_Ex1_ConCert_Extraction_CertifyingBeta_Ex1_foo_after_betared_convertible&#45;&gt;CertifyingBeta_Ex1_foo -->
<g id="edge4" class="edge">
<title>CertifyingBeta_Ex1_ConCert_Extraction_CertifyingBeta_Ex1_foo_after_betared_convertible&#45;&gt;CertifyingBeta_Ex1_foo</title>
<path fill="none" stroke="black" d="M947.14,-576.57C991.67,-562.65 1046.01,-543.27 1092,-519.83 1095.56,-518.01 1099.17,-515.89 1102.67,-513.67"/>
<polygon fill="black" stroke="black" points="1104.69,-516.53 1111.02,-508.03 1100.77,-510.72 1104.69,-516.53"/>
</g>
<!-- CertifyingBeta_template_betared -->
<g id="node7" class="node">
<title>CertifyingBeta_template_betared</title>
<g id="a_node7"><a xlink:href="CertifyingBeta.html#template_betared" xlink:title="template_betared">
<ellipse fill="#f070d1" stroke="black" cx="395" cy="-493.83" rx="92.89" ry="18"/>
<ellipse fill="none" stroke="black" cx="395" cy="-493.83" rx="96.89" ry="22"/>
<ellipse fill="none" stroke="black" cx="395" cy="-493.83" rx="100.88" ry="26"/>
<text text-anchor="middle" x="395" y="-490.13" font-family="Times,serif" font-size="14.00">template_betared</text>
</a>
</g>
</g>
<!-- CertifyingBeta_betared_globals -->
<g id="node10" class="node">
<title>CertifyingBeta_betared_globals</title>
<g id="a_node10"><a xlink:href="CertifyingBeta.html#betared_globals" xlink:title="betared_globals">
<ellipse fill="#f070d1" stroke="black" cx="271" cy="-395.83" rx="84.49" ry="18"/>
<text text-anchor="middle" x="271" y="-392.13" font-family="Times,serif" font-size="14.00">betared_globals</text>
</a>
</g>
</g>
<!-- CertifyingBeta_template_betared&#45;&gt;CertifyingBeta_betared_globals -->
<g id="edge5" class="edge">
<title>CertifyingBeta_template_betared&#45;&gt;CertifyingBeta_betared_globals</title>
<path fill="none" stroke="black" d="M364.03,-468.85C344.53,-453.76 319.52,-434.39 300.34,-419.55"/>
<polygon fill="black" stroke="black" points="302.3,-416.64 292.25,-413.28 298.01,-422.17 302.3,-416.64"/>
</g>
<!-- CertifyingBeta_betared_def -->
<g id="node8" class="node">
<title>CertifyingBeta_betared_def</title>
<g id="a_node8"><a xlink:href="CertifyingBeta.html#betared_def" xlink:title="betared_def">
<ellipse fill="#7fffd4" stroke="black" cx="291" cy="-601.83" rx="65.77" ry="18"/>
<ellipse fill="none" stroke="black" cx="291" cy="-601.83" rx="69.78" ry="22"/>
<ellipse fill="none" stroke="black" cx="291" cy="-601.83" rx="73.79" ry="26"/>
<text text-anchor="middle" x="291" y="-598.13" font-family="Times,serif" font-size="14.00">betared_def</text>
</a>
</g>
</g>
<!-- CertifyingBeta_betared_globals_template -->
<g id="node9" class="node">
<title>CertifyingBeta_betared_globals_template</title>
<g id="a_node9"><a xlink:href="CertifyingBeta.html#betared_globals_template" xlink:title="betared_globals_template">
<ellipse fill="#7fffd4" stroke="black" cx="146" cy="-493.83" rx="129.98" ry="18"/>
<text text-anchor="middle" x="146" y="-490.13" font-family="Times,serif" font-size="14.00">betared_globals_template</text>
</a>
</g>
</g>
<!-- CertifyingBeta_betared_def&#45;&gt;CertifyingBeta_betared_globals_template -->
<g id="edge6" class="edge">
<title>CertifyingBeta_betared_def&#45;&gt;CertifyingBeta_betared_globals_template</title>
<path fill="none" stroke="black" d="M259.89,-578.09C235.48,-560.24 201.64,-535.51 177.2,-517.64"/>
<polygon fill="black" stroke="black" points="179.12,-514.71 168.98,-511.63 174.99,-520.36 179.12,-514.71"/>
</g>
<!-- CertifyingBeta_betared_globals_template&#45;&gt;CertifyingBeta_betared_globals -->
<g id="edge7" class="edge">
<title>CertifyingBeta_betared_globals_template&#45;&gt;CertifyingBeta_betared_globals</title>
<path fill="none" stroke="black" d="M168.06,-475.89C188.44,-460.23 218.89,-436.85 241.38,-419.58"/>
<polygon fill="black" stroke="black" points="243.78,-422.15 249.58,-413.28 239.52,-416.6 243.78,-422.15"/>
</g>
<!-- CertifyingBeta_betared_in_decl -->
<g id="node11" class="node">
<title>CertifyingBeta_betared_in_decl</title>
<g id="a_node11"><a xlink:href="CertifyingBeta.html#betared_in_decl" xlink:title="betared_in_decl">
<ellipse fill="#f070d1" stroke="black" cx="271" cy="-306.83" rx="83.39" ry="18"/>
<text text-anchor="middle" x="271" y="-303.13" font-family="Times,serif" font-size="14.00">betared_in_decl</text>
</a>
</g>
</g>
<!-- CertifyingBeta_betared_globals&#45;&gt;CertifyingBeta_betared_in_decl -->
<g id="edge8" class="edge">
<title>CertifyingBeta_betared_globals&#45;&gt;CertifyingBeta_betared_in_decl</title>
<path fill="none" stroke="black" d="M271,-377.64C271,-365.49 271,-348.94 271,-335.01"/>
<polygon fill="black" stroke="black" points="274.5,-334.98 271,-324.98 267.5,-334.98 274.5,-334.98"/>
</g>
<!-- CertifyingBeta_betared_in_constant_body -->
<g id="node12" class="node">
<title>CertifyingBeta_betared_in_constant_body</title>
<g id="a_node12"><a xlink:href="CertifyingBeta.html#betared_in_constant_body" xlink:title="betared_in_constant_body">
<ellipse fill="#f070d1" stroke="black" cx="271" cy="-218.83" rx="131.08" ry="18"/>
<text text-anchor="middle" x="271" y="-215.13" font-family="Times,serif" font-size="14.00">betared_in_constant_body</text>
</a>
</g>
</g>
<!-- CertifyingBeta_betared_in_decl&#45;&gt;CertifyingBeta_betared_in_constant_body -->
<g id="edge9" class="edge">
<title>CertifyingBeta_betared_in_decl&#45;&gt;CertifyingBeta_betared_in_constant_body</title>
<path fill="none" stroke="black" d="M271,-288.43C271,-276.58 271,-260.65 271,-247.12"/>
<polygon fill="black" stroke="black" points="274.5,-246.91 271,-236.91 267.5,-246.91 274.5,-246.91"/>
</g>
<!-- CertifyingBeta_betared -->
<g id="node13" class="node">
<title>CertifyingBeta_betared</title>
<g id="a_node13"><a xlink:href="CertifyingBeta.html#betared" xlink:title="betared">
<ellipse fill="#f070d1" stroke="black" cx="271" cy="-129.83" rx="46.59" ry="18"/>
<text text-anchor="middle" x="271" y="-126.13" font-family="Times,serif" font-size="14.00">betared</text>
</a>
</g>
</g>
<!-- CertifyingBeta_betared_in_constant_body&#45;&gt;CertifyingBeta_betared -->
<g id="edge10" class="edge">
<title>CertifyingBeta_betared_in_constant_body&#45;&gt;CertifyingBeta_betared</title>
<path fill="none" stroke="black" d="M271,-200.64C271,-188.49 271,-171.94 271,-158.01"/>
<polygon fill="black" stroke="black" points="274.5,-157.98 271,-147.98 267.5,-157.98 274.5,-157.98"/>
</g>
<!-- CertifyingBeta_betared_aux -->
<g id="node14" class="node">
<title>CertifyingBeta_betared_aux</title>
<g id="a_node14"><a xlink:href="CertifyingBeta.html#betared_aux" xlink:title="betared_aux">
<ellipse fill="#f070d1" stroke="black" cx="271" cy="-41.83" rx="67.69" ry="18"/>
<text text-anchor="middle" x="271" y="-38.13" font-family="Times,serif" font-size="14.00">betared_aux</text>
</a>
</g>
</g>
<!-- CertifyingBeta_betared&#45;&gt;CertifyingBeta_betared_aux -->
<g id="edge11" class="edge">
<title>CertifyingBeta_betared&#45;&gt;CertifyingBeta_betared_aux</title>
<path fill="none" stroke="black" d="M271,-111.43C271,-99.58 271,-83.65 271,-70.12"/>
<polygon fill="black" stroke="black" points="274.5,-69.91 271,-59.91 267.5,-69.91 274.5,-69.91"/>
</g>
<!-- CertifyingBeta_decompose_lam -->
<g id="node15" class="node">
<title>CertifyingBeta_decompose_lam</title>
<g id="a_node15"><a xlink:href="CertifyingBeta.html#decompose_lam" xlink:title="decompose_lam">
<ellipse fill="#f070d1" stroke="black" cx="108" cy="-601.83" rx="83.7" ry="18"/>
<ellipse fill="none" stroke="black" cx="108" cy="-601.83" rx="87.69" ry="22"/>
<ellipse fill="none" stroke="black" cx="108" cy="-601.83" rx="91.69" ry="26"/>
<text text-anchor="middle" x="108" y="-598.13" font-family="Times,serif" font-size="14.00">decompose_lam</text>
</a>
</g>
</g>
</g>
</svg>
