<?xml version="1.0" encoding="UTF-8" standalone="no"?>
<!DOCTYPE svg PUBLIC "-//W3C//DTD SVG 1.1//EN"
 "http://www.w3.org/Graphics/SVG/1.1/DTD/svg11.dtd">
<!-- Generated by graphviz version 2.43.0 (0)
 -->
<!-- Title: LocalBlockchainTests Pages: 1 -->
<svg width="1982pt" height="995pt"
 viewBox="0.00 0.00 1982.00 995.00" xmlns="http://www.w3.org/2000/svg" xmlns:xlink="http://www.w3.org/1999/xlink">
<g id="graph0" class="graph" transform="scale(1 1) rotate(0) translate(4 991)">
<title>LocalBlockchainTests</title>
<polygon fill="white" stroke="transparent" points="-4,4 -4,-991 1978,-991 1978,4 -4,4"/>
<g id="clust1" class="cluster">
<title>cluster_LocalBlockchainTests</title>
<polygon fill="#ffffc3" stroke="black" points="16.59,-8 16.59,-979 1957.41,-979 1957.41,-8 16.59,-8"/>
<text text-anchor="middle" x="101.09" y="-963.8" font-family="Times,serif" font-size="14.00">LocalBlockchainTests</text>
</g>
<!-- LocalBlockchainTests_congress_txs_after_local_chain_bf_block -->
<g id="node1" class="node">
<title>LocalBlockchainTests_congress_txs_after_local_chain_bf_block</title>
<g id="a_node1"><a xlink:href="LocalBlockchainTests.html#congress_txs_after_local_chain_bf_block" xlink:title="congress_txs_after_local_chain_bf_block">
<ellipse fill="#7fffd4" stroke="black" cx="1519.78" cy="-922" rx="194.97" ry="18"/>
<ellipse fill="none" stroke="black" cx="1519.78" cy="-922" rx="198.97" ry="22"/>
<ellipse fill="none" stroke="black" cx="1519.78" cy="-922" rx="202.97" ry="26"/>
<text text-anchor="middle" x="1519.78" y="-918.3" font-family="Times,serif" font-size="14.00">congress_txs_after_local_chain_bf_block</text>
</a>
</g>
</g>
<!-- LocalBlockchainTests_BuilderBF -->
<g id="node2" class="node">
<title>LocalBlockchainTests_BuilderBF</title>
<g id="a_node2"><a xlink:href="LocalBlockchainTests.html#BuilderBF" xlink:title="BuilderBF">
<ellipse fill="#f070d1" stroke="black" cx="1519.78" cy="-842" rx="57.69" ry="18"/>
<text text-anchor="middle" x="1519.78" y="-838.3" font-family="Times,serif" font-size="14.00">BuilderBF</text>
</a>
</g>
</g>
<!-- LocalBlockchainTests_congress_txs_after_local_chain_bf_block&#45;&gt;LocalBlockchainTests_BuilderBF -->
<g id="edge1" class="edge">
<title>LocalBlockchainTests_congress_txs_after_local_chain_bf_block&#45;&gt;LocalBlockchainTests_BuilderBF</title>
<path fill="none" stroke="black" d="M1519.78,-895.89C1519.78,-887.84 1519.78,-878.88 1519.78,-870.66"/>
<polygon fill="black" stroke="black" points="1523.28,-870.41 1519.78,-860.41 1516.28,-870.41 1523.28,-870.41"/>
</g>
<!-- LocalBlockchainTests_congress_txs_after_local_chain_block -->
<g id="node3" class="node">
<title>LocalBlockchainTests_congress_txs_after_local_chain_block</title>
<g id="a_node3"><a xlink:href="LocalBlockchainTests.html#congress_txs_after_local_chain_block" xlink:title="congress_txs_after_local_chain_block">
<ellipse fill="#7fffd4" stroke="black" cx="669.78" cy="-922" rx="181.17" ry="18"/>
<ellipse fill="none" stroke="black" cx="669.78" cy="-922" rx="185.17" ry="22"/>
<ellipse fill="none" stroke="black" cx="669.78" cy="-922" rx="189.17" ry="26"/>
<text text-anchor="middle" x="669.78" y="-918.3" font-family="Times,serif" font-size="14.00">congress_txs_after_local_chain_block</text>
</a>
</g>
</g>
<!-- LocalBlockchainTests_BuilderDF -->
<g id="node4" class="node">
<title>LocalBlockchainTests_BuilderDF</title>
<g id="a_node4"><a xlink:href="LocalBlockchainTests.html#BuilderDF" xlink:title="BuilderDF">
<ellipse fill="#f070d1" stroke="black" cx="669.78" cy="-842" rx="58.49" ry="18"/>
<text text-anchor="middle" x="669.78" y="-838.3" font-family="Times,serif" font-size="14.00">BuilderDF</text>
</a>
</g>
</g>
<!-- LocalBlockchainTests_congress_txs_after_local_chain_block&#45;&gt;LocalBlockchainTests_BuilderDF -->
<g id="edge2" class="edge">
<title>LocalBlockchainTests_congress_txs_after_local_chain_block&#45;&gt;LocalBlockchainTests_BuilderDF</title>
<path fill="none" stroke="black" d="M669.78,-895.89C669.78,-887.84 669.78,-878.88 669.78,-870.66"/>
<polygon fill="black" stroke="black" points="673.28,-870.41 669.78,-860.41 666.28,-870.41 673.28,-870.41"/>
</g>
<!-- LocalBlockchainTests_chain8 -->
<g id="node5" class="node">
<title>LocalBlockchainTests_chain8</title>
<g id="a_node5"><a xlink:href="LocalBlockchainTests.html#chain8" xlink:title="chain8">
<ellipse fill="#f070d1" stroke="black" cx="136.78" cy="-922" rx="41.68" ry="18"/>
<ellipse fill="none" stroke="black" cx="136.78" cy="-922" rx="45.69" ry="22"/>
<ellipse fill="none" stroke="black" cx="136.78" cy="-922" rx="49.69" ry="26"/>
<text text-anchor="middle" x="136.78" y="-918.3" font-family="Times,serif" font-size="14.00">chain8</text>
</a>
</g>
</g>
<!-- LocalBlockchainTests_finish_proposal -->
<g id="node6" class="node">
<title>LocalBlockchainTests_finish_proposal</title>
<g id="a_node6"><a xlink:href="LocalBlockchainTests.html#finish_proposal" xlink:title="finish_proposal">
<ellipse fill="#f070d1" stroke="black" cx="202.78" cy="-698" rx="80.69" ry="18"/>
<text text-anchor="middle" x="202.78" y="-694.3" font-family="Times,serif" font-size="14.00">finish_proposal</text>
</a>
</g>
</g>
<!-- LocalBlockchainTests_chain8&#45;&gt;LocalBlockchainTests_finish_proposal -->
<g id="edge3" class="edge">
<title>LocalBlockchainTests_chain8&#45;&gt;LocalBlockchainTests_finish_proposal</title>
<path fill="none" stroke="black" d="M144.22,-895.97C156.74,-853.85 181.91,-769.2 194.79,-725.88"/>
<polygon fill="black" stroke="black" points="198.21,-726.64 197.71,-716.06 191.5,-724.64 198.21,-726.64"/>
</g>
<!-- LocalBlockchainTests_chain7 -->
<g id="node7" class="node">
<title>LocalBlockchainTests_chain7</title>
<g id="a_node7"><a xlink:href="LocalBlockchainTests.html#chain7" xlink:title="chain7">
<ellipse fill="#f070d1" stroke="black" cx="414.78" cy="-842" rx="41.69" ry="18"/>
<text text-anchor="middle" x="414.78" y="-838.3" font-family="Times,serif" font-size="14.00">chain7</text>
</a>
</g>
</g>
<!-- LocalBlockchainTests_chain8&#45;&gt;LocalBlockchainTests_chain7 -->
<g id="edge4" class="edge">
<title>LocalBlockchainTests_chain8&#45;&gt;LocalBlockchainTests_chain7</title>
<path fill="none" stroke="black" d="M179.91,-908.9C231.92,-894.31 318.84,-869.92 371.1,-855.26"/>
<polygon fill="black" stroke="black" points="372.07,-858.62 380.75,-852.55 370.18,-851.88 372.07,-858.62"/>
</g>
<!-- LocalBlockchainTests_congress_ifc -->
<g id="node14" class="node">
<title>LocalBlockchainTests_congress_ifc</title>
<g id="a_node14"><a xlink:href="LocalBlockchainTests.html#congress_ifc" xlink:title="congress_ifc">
<ellipse fill="#f070d1" stroke="black" cx="455.78" cy="-546" rx="67.69" ry="18"/>
<text text-anchor="middle" x="455.78" y="-542.3" font-family="Times,serif" font-size="14.00">congress_ifc</text>
</a>
</g>
</g>
<!-- LocalBlockchainTests_finish_proposal&#45;&gt;LocalBlockchainTests_congress_ifc -->
<g id="edge5" class="edge">
<title>LocalBlockchainTests_finish_proposal&#45;&gt;LocalBlockchainTests_congress_ifc</title>
<path fill="none" stroke="black" d="M229.85,-680.95C275.91,-653.64 369.47,-598.17 420.56,-567.88"/>
<polygon fill="black" stroke="black" points="422.46,-570.82 429.28,-562.71 418.89,-564.8 422.46,-570.82"/>
</g>
<!-- LocalBlockchainTests_vote_proposal -->
<g id="node8" class="node">
<title>LocalBlockchainTests_vote_proposal</title>
<g id="a_node8"><a xlink:href="LocalBlockchainTests.html#vote_proposal" xlink:title="vote_proposal">
<ellipse fill="#f070d1" stroke="black" cx="414.78" cy="-770" rx="75.29" ry="18"/>
<text text-anchor="middle" x="414.78" y="-766.3" font-family="Times,serif" font-size="14.00">vote_proposal</text>
</a>
</g>
</g>
<!-- LocalBlockchainTests_chain7&#45;&gt;LocalBlockchainTests_vote_proposal -->
<g id="edge6" class="edge">
<title>LocalBlockchainTests_chain7&#45;&gt;LocalBlockchainTests_vote_proposal</title>
<path fill="none" stroke="black" d="M414.78,-823.7C414.78,-815.98 414.78,-806.71 414.78,-798.11"/>
<polygon fill="black" stroke="black" points="418.28,-798.1 414.78,-788.1 411.28,-798.1 418.28,-798.1"/>
</g>
<!-- LocalBlockchainTests_chain6 -->
<g id="node9" class="node">
<title>LocalBlockchainTests_chain6</title>
<g id="a_node9"><a xlink:href="LocalBlockchainTests.html#chain6" xlink:title="chain6">
<ellipse fill="#f070d1" stroke="black" cx="769.78" cy="-770" rx="41.69" ry="18"/>
<text text-anchor="middle" x="769.78" y="-766.3" font-family="Times,serif" font-size="14.00">chain6</text>
</a>
</g>
</g>
<!-- LocalBlockchainTests_chain7&#45;&gt;LocalBlockchainTests_chain6 -->
<g id="edge7" class="edge">
<title>LocalBlockchainTests_chain7&#45;&gt;LocalBlockchainTests_chain6</title>
<path fill="none" stroke="black" d="M451.77,-833.71C516.68,-820.91 650.99,-794.42 722.53,-780.32"/>
<polygon fill="black" stroke="black" points="723.48,-783.7 732.61,-778.33 722.12,-776.83 723.48,-783.7"/>
</g>
<!-- LocalBlockchainTests_vote_proposal&#45;&gt;LocalBlockchainTests_congress_ifc -->
<g id="edge8" class="edge">
<title>LocalBlockchainTests_vote_proposal&#45;&gt;LocalBlockchainTests_congress_ifc</title>
<path fill="none" stroke="black" d="M417.93,-751.95C425.01,-713.61 442.23,-620.35 450.79,-574.03"/>
<polygon fill="black" stroke="black" points="454.25,-574.58 452.62,-564.11 447.36,-573.31 454.25,-574.58"/>
</g>
<!-- LocalBlockchainTests_create_proposal_call -->
<g id="node10" class="node">
<title>LocalBlockchainTests_create_proposal_call</title>
<g id="a_node10"><a xlink:href="LocalBlockchainTests.html#create_proposal_call" xlink:title="create_proposal_call">
<ellipse fill="#f070d1" stroke="black" cx="972.78" cy="-626" rx="104.78" ry="18"/>
<text text-anchor="middle" x="972.78" y="-622.3" font-family="Times,serif" font-size="14.00">create_proposal_call</text>
</a>
</g>
</g>
<!-- LocalBlockchainTests_chain6&#45;&gt;LocalBlockchainTests_create_proposal_call -->
<g id="edge9" class="edge">
<title>LocalBlockchainTests_chain6&#45;&gt;LocalBlockchainTests_create_proposal_call</title>
<path fill="none" stroke="black" d="M790.74,-754.34C826.37,-729.41 898.97,-678.63 940.92,-649.29"/>
<polygon fill="black" stroke="black" points="942.94,-652.14 949.13,-643.54 938.93,-646.4 942.94,-652.14"/>
</g>
<!-- LocalBlockchainTests_chain5 -->
<g id="node11" class="node">
<title>LocalBlockchainTests_chain5</title>
<g id="a_node11"><a xlink:href="LocalBlockchainTests.html#chain5" xlink:title="chain5">
<ellipse fill="#f070d1" stroke="black" cx="769.78" cy="-698" rx="41.69" ry="18"/>
<text text-anchor="middle" x="769.78" y="-694.3" font-family="Times,serif" font-size="14.00">chain5</text>
</a>
</g>
</g>
<!-- LocalBlockchainTests_chain6&#45;&gt;LocalBlockchainTests_chain5 -->
<g id="edge10" class="edge">
<title>LocalBlockchainTests_chain6&#45;&gt;LocalBlockchainTests_chain5</title>
<path fill="none" stroke="black" d="M769.78,-751.7C769.78,-743.98 769.78,-734.71 769.78,-726.11"/>
<polygon fill="black" stroke="black" points="773.28,-726.1 769.78,-716.1 766.28,-726.1 773.28,-726.1"/>
</g>
<!-- LocalBlockchainTests_create_proposal_call&#45;&gt;LocalBlockchainTests_congress_ifc -->
<g id="edge11" class="edge">
<title>LocalBlockchainTests_create_proposal_call&#45;&gt;LocalBlockchainTests_congress_ifc</title>
<path fill="none" stroke="black" d="M897.05,-613.57C796.14,-598.35 619.17,-571.65 522.85,-557.12"/>
<polygon fill="black" stroke="black" points="523.35,-553.65 512.93,-555.62 522.3,-560.58 523.35,-553.65"/>
</g>
<!-- LocalBlockchainTests_person_3 -->
<g id="node24" class="node">
<title>LocalBlockchainTests_person_3</title>
<g id="a_node24"><a xlink:href="LocalBlockchainTests.html#person_3" xlink:title="person_3">
<ellipse fill="#f070d1" stroke="black" cx="1071.78" cy="-394" rx="52.79" ry="18"/>
<text text-anchor="middle" x="1071.78" y="-390.3" font-family="Times,serif" font-size="14.00">person_3</text>
</a>
</g>
</g>
<!-- LocalBlockchainTests_create_proposal_call&#45;&gt;LocalBlockchainTests_person_3 -->
<g id="edge12" class="edge">
<title>LocalBlockchainTests_create_proposal_call&#45;&gt;LocalBlockchainTests_person_3</title>
<path fill="none" stroke="black" d="M980.22,-607.71C997.43,-567.72 1040.08,-468.64 1060.52,-421.17"/>
<polygon fill="black" stroke="black" points="1063.78,-422.43 1064.52,-411.86 1057.35,-419.66 1063.78,-422.43"/>
</g>
<!-- LocalBlockchainTests_add_person -->
<g id="node12" class="node">
<title>LocalBlockchainTests_add_person</title>
<g id="a_node12"><a xlink:href="LocalBlockchainTests.html#add_person" xlink:title="add_person">
<ellipse fill="#f070d1" stroke="black" cx="586.78" cy="-626" rx="63.89" ry="18"/>
<text text-anchor="middle" x="586.78" y="-622.3" font-family="Times,serif" font-size="14.00">add_person</text>
</a>
</g>
</g>
<!-- LocalBlockchainTests_chain5&#45;&gt;LocalBlockchainTests_add_person -->
<g id="edge13" class="edge">
<title>LocalBlockchainTests_chain5&#45;&gt;LocalBlockchainTests_add_person</title>
<path fill="none" stroke="black" d="M739.56,-685.44C710.46,-674.31 666.04,-657.32 632.59,-644.52"/>
<polygon fill="black" stroke="black" points="633.62,-641.17 623.03,-640.87 631.12,-647.71 633.62,-641.17"/>
</g>
<!-- LocalBlockchainTests_person_2 -->
<g id="node25" class="node">
<title>LocalBlockchainTests_person_2</title>
<g id="a_node25"><a xlink:href="LocalBlockchainTests.html#person_2" xlink:title="person_2">
<ellipse fill="#f070d1" stroke="black" cx="1231.78" cy="-466" rx="52.79" ry="18"/>
<text text-anchor="middle" x="1231.78" y="-462.3" font-family="Times,serif" font-size="14.00">person_2</text>
</a>
</g>
</g>
<!-- LocalBlockchainTests_chain5&#45;&gt;LocalBlockchainTests_person_2 -->
<g id="edge14" class="edge">
<title>LocalBlockchainTests_chain5&#45;&gt;LocalBlockchainTests_person_2</title>
<path fill="none" stroke="black" d="M810.33,-693.78C884.89,-687.28 1040.37,-670.89 1086.78,-644 1149.68,-607.56 1196.74,-532.78 1218.47,-493.09"/>
<polygon fill="black" stroke="black" points="1221.81,-494.26 1223.45,-483.8 1215.64,-490.96 1221.81,-494.26"/>
</g>
<!-- LocalBlockchainTests_add_person&#45;&gt;LocalBlockchainTests_congress_ifc -->
<g id="edge15" class="edge">
<title>LocalBlockchainTests_add_person&#45;&gt;LocalBlockchainTests_congress_ifc</title>
<path fill="none" stroke="black" d="M560.58,-609.4C540.63,-597.52 512.97,-581.05 491.07,-568.01"/>
<polygon fill="black" stroke="black" points="492.76,-564.95 482.38,-562.84 489.18,-570.96 492.76,-564.95"/>
</g>
<!-- LocalBlockchainTests_congress_state -->
<g id="node13" class="node">
<title>LocalBlockchainTests_congress_state</title>
<g id="a_node13"><a xlink:href="LocalBlockchainTests.html#congress_state" xlink:title="congress_state">
<ellipse fill="#f070d1" stroke="black" cx="816.78" cy="-546" rx="79.89" ry="18"/>
<ellipse fill="none" stroke="black" cx="816.78" cy="-546" rx="83.89" ry="22"/>
<ellipse fill="none" stroke="black" cx="816.78" cy="-546" rx="87.89" ry="26"/>
<text text-anchor="middle" x="816.78" y="-542.3" font-family="Times,serif" font-size="14.00">congress_state</text>
</a>
</g>
</g>
<!-- LocalBlockchainTests_congress_1 -->
<g id="node15" class="node">
<title>LocalBlockchainTests_congress_1</title>
<g id="a_node15"><a xlink:href="LocalBlockchainTests.html#congress_1" xlink:title="congress_1">
<ellipse fill="#f070d1" stroke="black" cx="578.78" cy="-466" rx="62.29" ry="18"/>
<text text-anchor="middle" x="578.78" y="-462.3" font-family="Times,serif" font-size="14.00">congress_1</text>
</a>
</g>
</g>
<!-- LocalBlockchainTests_congress_state&#45;&gt;LocalBlockchainTests_congress_1 -->
<g id="edge16" class="edge">
<title>LocalBlockchainTests_congress_state&#45;&gt;LocalBlockchainTests_congress_1</title>
<path fill="none" stroke="black" d="M759.47,-526.22C719.44,-513.1 666.55,-495.76 628.34,-483.24"/>
<polygon fill="black" stroke="black" points="629.06,-479.8 618.47,-480.01 626.88,-486.45 629.06,-479.8"/>
</g>
<!-- LocalBlockchainTests_congress_ifc&#45;&gt;LocalBlockchainTests_congress_1 -->
<g id="edge17" class="edge">
<title>LocalBlockchainTests_congress_ifc&#45;&gt;LocalBlockchainTests_congress_1</title>
<path fill="none" stroke="black" d="M480.67,-529.22C499.26,-517.43 524.86,-501.19 545.26,-488.26"/>
<polygon fill="black" stroke="black" points="547.35,-491.07 553.93,-482.76 543.61,-485.16 547.35,-491.07"/>
</g>
<!-- LocalBlockchainTests_chain4 -->
<g id="node16" class="node">
<title>LocalBlockchainTests_chain4</title>
<g id="a_node16"><a xlink:href="LocalBlockchainTests.html#chain4" xlink:title="chain4">
<ellipse fill="#f070d1" stroke="black" cx="578.78" cy="-394" rx="41.69" ry="18"/>
<text text-anchor="middle" x="578.78" y="-390.3" font-family="Times,serif" font-size="14.00">chain4</text>
</a>
</g>
</g>
<!-- LocalBlockchainTests_congress_1&#45;&gt;LocalBlockchainTests_chain4 -->
<g id="edge18" class="edge">
<title>LocalBlockchainTests_congress_1&#45;&gt;LocalBlockchainTests_chain4</title>
<path fill="none" stroke="black" d="M578.78,-447.7C578.78,-439.98 578.78,-430.71 578.78,-422.11"/>
<polygon fill="black" stroke="black" points="582.28,-422.1 578.78,-412.1 575.28,-422.1 582.28,-422.1"/>
</g>
<!-- LocalBlockchainTests_deploy_congress -->
<g id="node17" class="node">
<title>LocalBlockchainTests_deploy_congress</title>
<g id="a_node17"><a xlink:href="LocalBlockchainTests.html#deploy_congress" xlink:title="deploy_congress">
<ellipse fill="#f070d1" stroke="black" cx="337.78" cy="-322" rx="87.18" ry="18"/>
<text text-anchor="middle" x="337.78" y="-318.3" font-family="Times,serif" font-size="14.00">deploy_congress</text>
</a>
</g>
</g>
<!-- LocalBlockchainTests_chain4&#45;&gt;LocalBlockchainTests_deploy_congress -->
<g id="edge19" class="edge">
<title>LocalBlockchainTests_chain4&#45;&gt;LocalBlockchainTests_deploy_congress</title>
<path fill="none" stroke="black" d="M545.27,-383.27C506.63,-372.04 442.44,-353.4 395.67,-339.81"/>
<polygon fill="black" stroke="black" points="396.55,-336.43 385.97,-337 394.6,-343.15 396.55,-336.43"/>
</g>
<!-- LocalBlockchainTests_chain3 -->
<g id="node20" class="node">
<title>LocalBlockchainTests_chain3</title>
<g id="a_node20"><a xlink:href="LocalBlockchainTests.html#chain3" xlink:title="chain3">
<ellipse fill="#f070d1" stroke="black" cx="702.78" cy="-322" rx="41.69" ry="18"/>
<text text-anchor="middle" x="702.78" y="-318.3" font-family="Times,serif" font-size="14.00">chain3</text>
</a>
</g>
</g>
<!-- LocalBlockchainTests_chain4&#45;&gt;LocalBlockchainTests_chain3 -->
<g id="edge20" class="edge">
<title>LocalBlockchainTests_chain4&#45;&gt;LocalBlockchainTests_chain3</title>
<path fill="none" stroke="black" d="M602.98,-379.34C621.89,-368.66 648.39,-353.71 669.33,-341.89"/>
<polygon fill="black" stroke="black" points="671.23,-344.83 678.21,-336.87 667.79,-338.74 671.23,-344.83"/>
</g>
<!-- LocalBlockchainTests_setup -->
<g id="node18" class="node">
<title>LocalBlockchainTests_setup</title>
<g id="a_node18"><a xlink:href="LocalBlockchainTests.html#setup" xlink:title="setup">
<ellipse fill="#f070d1" stroke="black" cx="194.78" cy="-250" rx="36.29" ry="18"/>
<text text-anchor="middle" x="194.78" y="-246.3" font-family="Times,serif" font-size="14.00">setup</text>
</a>
</g>
</g>
<!-- LocalBlockchainTests_deploy_congress&#45;&gt;LocalBlockchainTests_setup -->
<g id="edge21" class="edge">
<title>LocalBlockchainTests_deploy_congress&#45;&gt;LocalBlockchainTests_setup</title>
<path fill="none" stroke="black" d="M305.33,-305.12C282.59,-293.98 252.24,-279.13 229.1,-267.8"/>
<polygon fill="black" stroke="black" points="230.5,-264.59 219.98,-263.34 227.43,-270.88 230.5,-264.59"/>
</g>
<!-- LocalBlockchainTests_Base -->
<g id="node29" class="node">
<title>LocalBlockchainTests_Base</title>
<g id="a_node29"><a xlink:href="LocalBlockchainTests.html#Base" xlink:title="Base">
<ellipse fill="#f070d1" stroke="black" cx="920.78" cy="-34" rx="33.29" ry="18"/>
<text text-anchor="middle" x="920.78" y="-30.3" font-family="Times,serif" font-size="14.00">Base</text>
</a>
</g>
</g>
<!-- LocalBlockchainTests_deploy_congress&#45;&gt;LocalBlockchainTests_Base -->
<g id="edge22" class="edge">
<title>LocalBlockchainTests_deploy_congress&#45;&gt;LocalBlockchainTests_Base</title>
<path fill="none" stroke="black" d="M339.92,-303.95C346.46,-259.85 370.45,-141.7 444.78,-88 513.28,-38.51 773.1,-34.2 877.23,-34.52"/>
<polygon fill="black" stroke="black" points="877.38,-38.02 887.4,-34.57 877.41,-31.02 877.38,-38.02"/>
</g>
<!-- LocalBlockchainTests_setup_rules -->
<g id="node19" class="node">
<title>LocalBlockchainTests_setup_rules</title>
<g id="a_node19"><a xlink:href="LocalBlockchainTests.html#setup_rules" xlink:title="setup_rules">
<ellipse fill="#f070d1" stroke="black" cx="165.78" cy="-178" rx="64.19" ry="18"/>
<text text-anchor="middle" x="165.78" y="-174.3" font-family="Times,serif" font-size="14.00">setup_rules</text>
</a>
</g>
</g>
<!-- LocalBlockchainTests_setup&#45;&gt;LocalBlockchainTests_setup_rules -->
<g id="edge23" class="edge">
<title>LocalBlockchainTests_setup&#45;&gt;LocalBlockchainTests_setup_rules</title>
<path fill="none" stroke="black" d="M187.76,-232.05C184.5,-224.18 180.53,-214.62 176.88,-205.79"/>
<polygon fill="black" stroke="black" points="180,-204.17 172.94,-196.28 173.53,-206.85 180,-204.17"/>
</g>
<!-- LocalBlockchainTests_chain2 -->
<g id="node21" class="node">
<title>LocalBlockchainTests_chain2</title>
<g id="a_node21"><a xlink:href="LocalBlockchainTests.html#chain2" xlink:title="chain2">
<ellipse fill="#f070d1" stroke="black" cx="702.78" cy="-250" rx="41.69" ry="18"/>
<text text-anchor="middle" x="702.78" y="-246.3" font-family="Times,serif" font-size="14.00">chain2</text>
</a>
</g>
</g>
<!-- LocalBlockchainTests_chain3&#45;&gt;LocalBlockchainTests_chain2 -->
<g id="edge24" class="edge">
<title>LocalBlockchainTests_chain3&#45;&gt;LocalBlockchainTests_chain2</title>
<path fill="none" stroke="black" d="M702.78,-303.7C702.78,-295.98 702.78,-286.71 702.78,-278.11"/>
<polygon fill="black" stroke="black" points="706.28,-278.1 702.78,-268.1 699.28,-278.1 706.28,-278.1"/>
</g>
<!-- LocalBlockchainTests_person_1 -->
<g id="node26" class="node">
<title>LocalBlockchainTests_person_1</title>
<g id="a_node26"><a xlink:href="LocalBlockchainTests.html#person_1" xlink:title="person_1">
<ellipse fill="#f070d1" stroke="black" cx="1040.78" cy="-106" rx="52.79" ry="18"/>
<text text-anchor="middle" x="1040.78" y="-102.3" font-family="Times,serif" font-size="14.00">person_1</text>
</a>
</g>
</g>
<!-- LocalBlockchainTests_chain3&#45;&gt;LocalBlockchainTests_person_1 -->
<g id="edge25" class="edge">
<title>LocalBlockchainTests_chain3&#45;&gt;LocalBlockchainTests_person_1</title>
<path fill="none" stroke="black" d="M725.22,-306.79C783.5,-269.9 939.85,-170.9 1008.13,-127.67"/>
<polygon fill="black" stroke="black" points="1010.2,-130.5 1016.78,-122.2 1006.46,-124.59 1010.2,-130.5"/>
</g>
<!-- LocalBlockchainTests_add_block -->
<g id="node22" class="node">
<title>LocalBlockchainTests_add_block</title>
<g id="a_node22"><a xlink:href="LocalBlockchainTests.html#add_block" xlink:title="add_block">
<ellipse fill="#f070d1" stroke="black" cx="764.78" cy="-178" rx="56.59" ry="18"/>
<text text-anchor="middle" x="764.78" y="-174.3" font-family="Times,serif" font-size="14.00">add_block</text>
</a>
</g>
</g>
<!-- LocalBlockchainTests_chain2&#45;&gt;LocalBlockchainTests_add_block -->
<g id="edge26" class="edge">
<title>LocalBlockchainTests_chain2&#45;&gt;LocalBlockchainTests_add_block</title>
<path fill="none" stroke="black" d="M717.16,-232.76C724.95,-223.97 734.73,-212.93 743.39,-203.14"/>
<polygon fill="black" stroke="black" points="746.04,-205.44 750.05,-195.63 740.8,-200.8 746.04,-205.44"/>
</g>
<!-- LocalBlockchainTests_chain1 -->
<g id="node23" class="node">
<title>LocalBlockchainTests_chain1</title>
<g id="a_node23"><a xlink:href="LocalBlockchainTests.html#chain1" xlink:title="chain1">
<ellipse fill="#f070d1" stroke="black" cx="524.78" cy="-178" rx="41.69" ry="18"/>
<text text-anchor="middle" x="524.78" y="-174.3" font-family="Times,serif" font-size="14.00">chain1</text>
</a>
</g>
</g>
<!-- LocalBlockchainTests_chain2&#45;&gt;LocalBlockchainTests_chain1 -->
<g id="edge27" class="edge">
<title>LocalBlockchainTests_chain2&#45;&gt;LocalBlockchainTests_chain1</title>
<path fill="none" stroke="black" d="M672.99,-237.28C643.08,-225.52 596.85,-207.34 563.98,-194.42"/>
<polygon fill="black" stroke="black" points="565.26,-191.16 554.67,-190.75 562.7,-197.67 565.26,-191.16"/>
</g>
<!-- LocalBlockchainTests_creator -->
<g id="node27" class="node">
<title>LocalBlockchainTests_creator</title>
<g id="a_node27"><a xlink:href="LocalBlockchainTests.html#creator" xlink:title="creator">
<ellipse fill="#f070d1" stroke="black" cx="802.78" cy="-106" rx="44.39" ry="18"/>
<text text-anchor="middle" x="802.78" y="-102.3" font-family="Times,serif" font-size="14.00">creator</text>
</a>
</g>
</g>
<!-- LocalBlockchainTests_add_block&#45;&gt;LocalBlockchainTests_creator -->
<g id="edge28" class="edge">
<title>LocalBlockchainTests_add_block&#45;&gt;LocalBlockchainTests_creator</title>
<path fill="none" stroke="black" d="M773.98,-160.05C778.41,-151.89 783.83,-141.91 788.76,-132.82"/>
<polygon fill="black" stroke="black" points="791.97,-134.25 793.67,-123.79 785.82,-130.91 791.97,-134.25"/>
</g>
<!-- LocalBlockchainTests_ChainBuilder -->
<g id="node28" class="node">
<title>LocalBlockchainTests_ChainBuilder</title>
<g id="a_node28"><a xlink:href="LocalBlockchainTests.html#ChainBuilder" xlink:title="ChainBuilder">
<ellipse fill="#f070d1" stroke="black" cx="524.78" cy="-106" rx="71.49" ry="18"/>
<text text-anchor="middle" x="524.78" y="-102.3" font-family="Times,serif" font-size="14.00">ChainBuilder</text>
</a>
</g>
</g>
<!-- LocalBlockchainTests_add_block&#45;&gt;LocalBlockchainTests_ChainBuilder -->
<g id="edge29" class="edge">
<title>LocalBlockchainTests_add_block&#45;&gt;LocalBlockchainTests_ChainBuilder</title>
<path fill="none" stroke="black" d="M724.61,-165.28C684.79,-153.67 623.5,-135.79 579.29,-122.9"/>
<polygon fill="black" stroke="black" points="580.16,-119.51 569.58,-120.07 578.2,-126.23 580.16,-119.51"/>
</g>
<!-- LocalBlockchainTests_chain1&#45;&gt;LocalBlockchainTests_ChainBuilder -->
<g id="edge30" class="edge">
<title>LocalBlockchainTests_chain1&#45;&gt;LocalBlockchainTests_ChainBuilder</title>
<path fill="none" stroke="black" d="M524.78,-159.7C524.78,-151.98 524.78,-142.71 524.78,-134.11"/>
<polygon fill="black" stroke="black" points="528.28,-134.1 524.78,-124.1 521.28,-134.1 528.28,-134.1"/>
</g>
<!-- LocalBlockchainTests_person_3&#45;&gt;LocalBlockchainTests_Base -->
<g id="edge31" class="edge">
<title>LocalBlockchainTests_person_3&#45;&gt;LocalBlockchainTests_Base</title>
<path fill="none" stroke="black" d="M1096.8,-378.14C1131.44,-355.46 1189.78,-308.7 1189.78,-251 1189.78,-251 1189.78,-251 1189.78,-177 1189.78,-76 1039.64,-46.66 963.7,-38.27"/>
<polygon fill="black" stroke="black" points="963.8,-34.77 953.5,-37.22 963.08,-41.73 963.8,-34.77"/>
</g>
<!-- LocalBlockchainTests_person_2&#45;&gt;LocalBlockchainTests_Base -->
<g id="edge32" class="edge">
<title>LocalBlockchainTests_person_2&#45;&gt;LocalBlockchainTests_Base</title>
<path fill="none" stroke="black" d="M1231.78,-447.95C1231.78,-421.29 1231.78,-368.11 1231.78,-323 1231.78,-323 1231.78,-323 1231.78,-177 1231.78,-60.76 1049.79,-39.27 964.24,-35.58"/>
<polygon fill="black" stroke="black" points="964.18,-32.08 954.06,-35.21 963.93,-39.07 964.18,-32.08"/>
</g>
<!-- LocalBlockchainTests_person_1&#45;&gt;LocalBlockchainTests_Base -->
<g id="edge33" class="edge">
<title>LocalBlockchainTests_person_1&#45;&gt;LocalBlockchainTests_Base</title>
<path fill="none" stroke="black" d="M1015.33,-90.15C996.6,-79.23 971.05,-64.32 951.23,-52.76"/>
<polygon fill="black" stroke="black" points="952.97,-49.73 942.57,-47.71 949.45,-55.77 952.97,-49.73"/>
</g>
<!-- LocalBlockchainTests_creator&#45;&gt;LocalBlockchainTests_Base -->
<g id="edge34" class="edge">
<title>LocalBlockchainTests_creator&#45;&gt;LocalBlockchainTests_Base</title>
<path fill="none" stroke="black" d="M826.66,-90.83C845.11,-79.89 870.77,-64.66 890.64,-52.88"/>
<polygon fill="black" stroke="black" points="892.5,-55.84 899.32,-47.73 888.93,-49.82 892.5,-55.84"/>
</g>
<!-- LocalBlockchainTests_ChainBuilder&#45;&gt;LocalBlockchainTests_Base -->
<g id="edge35" class="edge">
<title>LocalBlockchainTests_ChainBuilder&#45;&gt;LocalBlockchainTests_Base</title>
<path fill="none" stroke="black" d="M581.52,-94.97C662.24,-80.7 808.31,-54.88 879.52,-42.29"/>
<polygon fill="black" stroke="black" points="880.23,-45.72 889.47,-40.53 879.01,-38.83 880.23,-45.72"/>
</g>
</g>
</svg>
