<?xml version="1.0" encoding="UTF-8" standalone="no"?>
<!DOCTYPE svg PUBLIC "-//W3C//DTD SVG 1.1//EN"
 "http://www.w3.org/Graphics/SVG/1.1/DTD/svg11.dtd">
<!-- Generated by graphviz version 2.43.0 (0)
 -->
<!-- Title: CameLIGOExtract Pages: 1 -->
<svg width="2532pt" height="1270pt"
 viewBox="0.00 0.00 2532.00 1270.00" xmlns="http://www.w3.org/2000/svg" xmlns:xlink="http://www.w3.org/1999/xlink">
<g id="graph0" class="graph" transform="scale(1 1) rotate(0) translate(4 1266)">
<title>CameLIGOExtract</title>
<polygon fill="white" stroke="transparent" points="-4,4 -4,-1266 2528,-1266 2528,4 -4,4"/>
<g id="clust1" class="cluster">
<title>cluster_CameLIGOExtract</title>
<polygon fill="#ffffc3" stroke="black" points="8,-20.9 8,-1241.1 2516,-1241.1 2516,-20.9 8,-20.9"/>
<text text-anchor="middle" x="81.5" y="-1225.9" font-family="Times,serif" font-size="14.00">CameLIGOExtract</text>
</g>
<!-- CameLIGOExtract_CameLIGO_prepare_extraction_single -->
<g id="node1" class="node">
<title>CameLIGOExtract_CameLIGO_prepare_extraction_single</title>
<g id="a_node1"><a xlink:href="CameLIGOExtract.html#CameLIGO_prepare_extraction_single" xlink:title="CameLIGO_prepare_extraction_single">
<ellipse fill="#7fffd4" stroke="black" cx="2174" cy="-1091.9" rx="185.77" ry="18"/>
<ellipse fill="none" stroke="black" cx="2174" cy="-1091.9" rx="189.77" ry="22"/>
<ellipse fill="none" stroke="black" cx="2174" cy="-1091.9" rx="193.77" ry="26"/>
<text text-anchor="middle" x="2174" y="-1088.2" font-family="Times,serif" font-size="14.00">CameLIGO_prepare_extraction_single</text>
</a>
</g>
</g>
<!-- CameLIGOExtract_quote_and_preprocess_one_def -->
<g id="node3" class="node">
<title>CameLIGOExtract_quote_and_preprocess_one_def</title>
<g id="a_node3"><a xlink:href="CameLIGOExtract.html#quote_and_preprocess_one_def" xlink:title="quote_and_preprocess_one_def">
<ellipse fill="#7fffd4" stroke="black" cx="2239" cy="-882.9" rx="154.07" ry="18"/>
<text text-anchor="middle" x="2239" y="-879.2" font-family="Times,serif" font-size="14.00">quote_and_preprocess_one_def</text>
</a>
</g>
</g>
<!-- CameLIGOExtract_CameLIGO_prepare_extraction_single&#45;&gt;CameLIGOExtract_quote_and_preprocess_one_def -->
<g id="edge1" class="edge">
<title>CameLIGOExtract_CameLIGO_prepare_extraction_single&#45;&gt;CameLIGOExtract_quote_and_preprocess_one_def</title>
<path fill="none" stroke="black" d="M2181.97,-1065.52C2194.32,-1026.19 2217.97,-950.89 2230.58,-910.71"/>
<polygon fill="black" stroke="black" points="2233.95,-911.65 2233.61,-901.06 2227.28,-909.55 2233.95,-911.65"/>
</g>
<!-- CameLIGOExtract_simple_def_print -->
<g id="node4" class="node">
<title>CameLIGOExtract_simple_def_print</title>
<g id="a_node4"><a xlink:href="CameLIGOExtract.html#simple_def_print" xlink:title="simple_def_print">
<ellipse fill="#f070d1" stroke="black" cx="1934" cy="-882.9" rx="87.99" ry="18"/>
<text text-anchor="middle" x="1934" y="-879.2" font-family="Times,serif" font-size="14.00">simple_def_print</text>
</a>
</g>
</g>
<!-- CameLIGOExtract_CameLIGO_prepare_extraction_single&#45;&gt;CameLIGOExtract_simple_def_print -->
<g id="edge2" class="edge">
<title>CameLIGOExtract_CameLIGO_prepare_extraction_single&#45;&gt;CameLIGOExtract_simple_def_print</title>
<path fill="none" stroke="black" d="M2145.05,-1065.93C2098.24,-1025.56 2006.59,-946.51 1961.04,-907.22"/>
<polygon fill="black" stroke="black" points="1963.21,-904.47 1953.35,-900.59 1958.64,-909.77 1963.21,-904.47"/>
</g>
<!-- CameLIGOExtract_unwrap_string_sum -->
<g id="node9" class="node">
<title>CameLIGOExtract_unwrap_string_sum</title>
<g id="a_node9"><a xlink:href="CameLIGOExtract.html#unwrap_string_sum" xlink:title="unwrap_string_sum">
<ellipse fill="#f070d1" stroke="black" cx="1726" cy="-882.9" rx="102.08" ry="18"/>
<text text-anchor="middle" x="1726" y="-879.2" font-family="Times,serif" font-size="14.00">unwrap_string_sum</text>
</a>
</g>
</g>
<!-- CameLIGOExtract_CameLIGO_prepare_extraction_single&#45;&gt;CameLIGOExtract_unwrap_string_sum -->
<g id="edge3" class="edge">
<title>CameLIGOExtract_CameLIGO_prepare_extraction_single&#45;&gt;CameLIGOExtract_unwrap_string_sum</title>
<path fill="none" stroke="black" d="M2121.73,-1066.75C2032.61,-1025.57 1852.85,-942.51 1769.84,-904.16"/>
<polygon fill="black" stroke="black" points="1771.23,-900.95 1760.68,-899.93 1768.29,-907.3 1771.23,-900.95"/>
</g>
<!-- CameLIGOExtract_CameLIGO_extract_single -->
<g id="node2" class="node">
<title>CameLIGOExtract_CameLIGO_extract_single</title>
<g id="a_node2"><a xlink:href="CameLIGOExtract.html#CameLIGO_extract_single" xlink:title="CameLIGO_extract_single">
<ellipse fill="#7fffd4" stroke="black" cx="1823" cy="-1091.9" rx="130.77" ry="18"/>
<ellipse fill="none" stroke="black" cx="1823" cy="-1091.9" rx="134.77" ry="22"/>
<ellipse fill="none" stroke="black" cx="1823" cy="-1091.9" rx="138.78" ry="26"/>
<text text-anchor="middle" x="1823" y="-1088.2" font-family="Times,serif" font-size="14.00">CameLIGO_extract_single</text>
</a>
</g>
</g>
<!-- CameLIGOExtract_CameLIGO_extract_single&#45;&gt;CameLIGOExtract_quote_and_preprocess_one_def -->
<g id="edge4" class="edge">
<title>CameLIGOExtract_CameLIGO_extract_single&#45;&gt;CameLIGOExtract_quote_and_preprocess_one_def</title>
<path fill="none" stroke="black" d="M1870.32,-1067.36C1951.97,-1026.73 2118.08,-944.07 2196.37,-905.12"/>
<polygon fill="black" stroke="black" points="2198.07,-908.18 2205.47,-900.59 2194.96,-901.91 2198.07,-908.18"/>
</g>
<!-- CameLIGOExtract_CameLIGO_extract_single&#45;&gt;CameLIGOExtract_simple_def_print -->
<g id="edge5" class="edge">
<title>CameLIGOExtract_CameLIGO_extract_single&#45;&gt;CameLIGOExtract_simple_def_print</title>
<path fill="none" stroke="black" d="M1836.39,-1065.93C1857.58,-1026.41 1898.65,-949.83 1920.13,-909.76"/>
<polygon fill="black" stroke="black" points="1923.26,-911.33 1924.9,-900.87 1917.09,-908.03 1923.26,-911.33"/>
</g>
<!-- CameLIGOExtract_CameLIGO_extract_single&#45;&gt;CameLIGOExtract_unwrap_string_sum -->
<g id="edge6" class="edge">
<title>CameLIGOExtract_CameLIGO_extract_single&#45;&gt;CameLIGOExtract_unwrap_string_sum</title>
<path fill="none" stroke="black" d="M1811.3,-1065.93C1792.82,-1026.5 1757.05,-950.15 1738.24,-910.02"/>
<polygon fill="black" stroke="black" points="1741.36,-908.44 1733.95,-900.87 1735.02,-911.41 1741.36,-908.44"/>
</g>
<!-- CameLIGOExtract_WITH_UNIVERSES -->
<g id="node8" class="node">
<title>CameLIGOExtract_WITH_UNIVERSES</title>
<g id="a_node8"><a xlink:href="CameLIGOExtract.html#WITH_UNIVERSES" xlink:title="WITH_UNIVERSES">
<ellipse fill="#f070d1" stroke="black" cx="2286" cy="-673.9" rx="100.18" ry="18"/>
<text text-anchor="middle" x="2286" y="-670.2" font-family="Times,serif" font-size="14.00">WITH_UNIVERSES</text>
</a>
</g>
</g>
<!-- CameLIGOExtract_quote_and_preprocess_one_def&#45;&gt;CameLIGOExtract_WITH_UNIVERSES -->
<g id="edge7" class="edge">
<title>CameLIGOExtract_quote_and_preprocess_one_def&#45;&gt;CameLIGOExtract_WITH_UNIVERSES</title>
<path fill="none" stroke="black" d="M2242.93,-864.61C2251.12,-828.52 2270.09,-744.98 2279.89,-701.81"/>
<polygon fill="black" stroke="black" points="2283.32,-702.53 2282.12,-692 2276.49,-700.98 2283.32,-702.53"/>
</g>
<!-- CameLIGOExtract_is_empty -->
<g id="node11" class="node">
<title>CameLIGOExtract_is_empty</title>
<g id="a_node11"><a xlink:href="CameLIGOExtract.html#is_empty" xlink:title="is_empty">
<ellipse fill="#f070d1" stroke="black" cx="2456" cy="-673.9" rx="51.99" ry="18"/>
<text text-anchor="middle" x="2456" y="-670.2" font-family="Times,serif" font-size="14.00">is_empty</text>
</a>
</g>
</g>
<!-- CameLIGOExtract_quote_and_preprocess_one_def&#45;&gt;CameLIGOExtract_is_empty -->
<g id="edge8" class="edge">
<title>CameLIGOExtract_quote_and_preprocess_one_def&#45;&gt;CameLIGOExtract_is_empty</title>
<path fill="none" stroke="black" d="M2256.76,-864.96C2295.43,-828.07 2387.33,-740.41 2431.49,-698.29"/>
<polygon fill="black" stroke="black" points="2434.08,-700.65 2438.9,-691.21 2429.25,-695.58 2434.08,-700.65"/>
</g>
<!-- CameLIGOExtract_TT_remap_default -->
<g id="node14" class="node">
<title>CameLIGOExtract_TT_remap_default</title>
<g id="a_node14"><a xlink:href="CameLIGOExtract.html#TT_remap_default" xlink:title="TT_remap_default">
<ellipse fill="#f070d1" stroke="black" cx="1132" cy="-673.9" rx="94.48" ry="18"/>
<text text-anchor="middle" x="1132" y="-670.2" font-family="Times,serif" font-size="14.00">TT_remap_default</text>
</a>
</g>
</g>
<!-- CameLIGOExtract_simple_def_print&#45;&gt;CameLIGOExtract_TT_remap_default -->
<g id="edge9" class="edge">
<title>CameLIGOExtract_simple_def_print&#45;&gt;CameLIGOExtract_TT_remap_default</title>
<path fill="none" stroke="black" d="M1881.69,-868.4C1740.03,-831.84 1349.31,-730.99 1195.45,-691.28"/>
<polygon fill="black" stroke="black" points="1196.22,-687.86 1185.66,-688.75 1194.47,-694.64 1196.22,-687.86"/>
</g>
<!-- CameLIGOExtract_CameLIGO_ignore_default -->
<g id="node15" class="node">
<title>CameLIGOExtract_CameLIGO_ignore_default</title>
<g id="a_node15"><a xlink:href="CameLIGOExtract.html#CameLIGO_ignore_default" xlink:title="CameLIGO_ignore_default">
<ellipse fill="#f070d1" stroke="black" cx="1641" cy="-673.9" rx="131.88" ry="18"/>
<text text-anchor="middle" x="1641" y="-670.2" font-family="Times,serif" font-size="14.00">CameLIGO_ignore_default</text>
</a>
</g>
</g>
<!-- CameLIGOExtract_simple_def_print&#45;&gt;CameLIGOExtract_CameLIGO_ignore_default -->
<g id="edge10" class="edge">
<title>CameLIGOExtract_simple_def_print&#45;&gt;CameLIGOExtract_CameLIGO_ignore_default</title>
<path fill="none" stroke="black" d="M1910.52,-865.31C1858.36,-828.46 1732.77,-739.74 1673.28,-697.71"/>
<polygon fill="black" stroke="black" points="1675.19,-694.77 1665,-691.86 1671.15,-700.49 1675.19,-694.77"/>
</g>
<!-- CameLIGOExtract_annot_extract_template_env_specalize -->
<g id="node16" class="node">
<title>CameLIGOExtract_annot_extract_template_env_specalize</title>
<g id="a_node16"><a xlink:href="CameLIGOExtract.html#annot_extract_template_env_specalize" xlink:title="annot_extract_template_env_specalize">
<ellipse fill="#f070d1" stroke="black" cx="1979" cy="-673.9" rx="188.47" ry="18"/>
<text text-anchor="middle" x="1979" y="-670.2" font-family="Times,serif" font-size="14.00">annot_extract_template_env_specalize</text>
</a>
</g>
</g>
<!-- CameLIGOExtract_simple_def_print&#45;&gt;CameLIGOExtract_annot_extract_template_env_specalize -->
<g id="edge11" class="edge">
<title>CameLIGOExtract_simple_def_print&#45;&gt;CameLIGOExtract_annot_extract_template_env_specalize</title>
<path fill="none" stroke="black" d="M1937.76,-864.61C1945.6,-828.52 1963.77,-744.98 1973.15,-701.81"/>
<polygon fill="black" stroke="black" points="1976.58,-702.52 1975.28,-692 1969.74,-701.03 1976.58,-702.52"/>
</g>
<!-- CameLIGOExtract_CameLIGO_extract -->
<g id="node5" class="node">
<title>CameLIGOExtract_CameLIGO_extract</title>
<g id="a_node5"><a xlink:href="CameLIGOExtract.html#CameLIGO_extract" xlink:title="CameLIGO_extract">
<ellipse fill="#7fffd4" stroke="black" cx="1138" cy="-1091.9" rx="98.6" ry="18"/>
<ellipse fill="none" stroke="black" cx="1138" cy="-1091.9" rx="102.59" ry="22"/>
<ellipse fill="none" stroke="black" cx="1138" cy="-1091.9" rx="106.58" ry="26"/>
<text text-anchor="middle" x="1138" y="-1088.2" font-family="Times,serif" font-size="14.00">CameLIGO_extract</text>
</a>
</g>
</g>
<!-- CameLIGOExtract_quote_and_preprocess -->
<g id="node7" class="node">
<title>CameLIGOExtract_quote_and_preprocess</title>
<g id="a_node7"><a xlink:href="CameLIGOExtract.html#quote_and_preprocess" xlink:title="quote_and_preprocess">
<ellipse fill="#7fffd4" stroke="black" cx="1439" cy="-882.9" rx="114.28" ry="18"/>
<text text-anchor="middle" x="1439" y="-879.2" font-family="Times,serif" font-size="14.00">quote_and_preprocess</text>
</a>
</g>
</g>
<!-- CameLIGOExtract_CameLIGO_extract&#45;&gt;CameLIGOExtract_quote_and_preprocess -->
<g id="edge12" class="edge">
<title>CameLIGOExtract_CameLIGO_extract&#45;&gt;CameLIGOExtract_quote_and_preprocess</title>
<path fill="none" stroke="black" d="M1172.53,-1067.16C1231.13,-1026.85 1349.27,-945.61 1406.48,-906.27"/>
<polygon fill="black" stroke="black" points="1408.54,-909.1 1414.79,-900.55 1404.57,-903.33 1408.54,-909.1"/>
</g>
<!-- CameLIGOExtract_printCameLIGODefs -->
<g id="node10" class="node">
<title>CameLIGOExtract_printCameLIGODefs</title>
<g id="a_node10"><a xlink:href="CameLIGOExtract.html#printCameLIGODefs" xlink:title="printCameLIGODefs">
<ellipse fill="#f070d1" stroke="black" cx="1132" cy="-882.9" rx="104.78" ry="18"/>
<text text-anchor="middle" x="1132" y="-879.2" font-family="Times,serif" font-size="14.00">printCameLIGODefs</text>
</a>
</g>
</g>
<!-- CameLIGOExtract_CameLIGO_extract&#45;&gt;CameLIGOExtract_printCameLIGODefs -->
<g id="edge13" class="edge">
<title>CameLIGOExtract_CameLIGO_extract&#45;&gt;CameLIGOExtract_printCameLIGODefs</title>
<path fill="none" stroke="black" d="M1137.26,-1065.52C1136.13,-1026.36 1133.96,-951.53 1132.79,-911.22"/>
<polygon fill="black" stroke="black" points="1136.29,-910.96 1132.5,-901.06 1129.29,-911.16 1136.29,-910.96"/>
</g>
<!-- CameLIGOExtract_CameLIGO_prepare_extraction -->
<g id="node6" class="node">
<title>CameLIGOExtract_CameLIGO_prepare_extraction</title>
<g id="a_node6"><a xlink:href="CameLIGOExtract.html#CameLIGO_prepare_extraction" xlink:title="CameLIGO_prepare_extraction">
<ellipse fill="#7fffd4" stroke="black" cx="1436" cy="-1091.9" rx="153.28" ry="18"/>
<ellipse fill="none" stroke="black" cx="1436" cy="-1091.9" rx="157.28" ry="22"/>
<ellipse fill="none" stroke="black" cx="1436" cy="-1091.9" rx="161.27" ry="26"/>
<text text-anchor="middle" x="1436" y="-1088.2" font-family="Times,serif" font-size="14.00">CameLIGO_prepare_extraction</text>
</a>
</g>
</g>
<!-- CameLIGOExtract_CameLIGO_prepare_extraction&#45;&gt;CameLIGOExtract_quote_and_preprocess -->
<g id="edge14" class="edge">
<title>CameLIGOExtract_CameLIGO_prepare_extraction&#45;&gt;CameLIGOExtract_quote_and_preprocess</title>
<path fill="none" stroke="black" d="M1436.37,-1065.52C1436.94,-1026.36 1438.02,-951.53 1438.6,-911.22"/>
<polygon fill="black" stroke="black" points="1442.11,-911.11 1438.75,-901.06 1435.11,-911.01 1442.11,-911.11"/>
</g>
<!-- CameLIGOExtract_CameLIGO_prepare_extraction&#45;&gt;CameLIGOExtract_unwrap_string_sum -->
<g id="edge15" class="edge">
<title>CameLIGOExtract_CameLIGO_prepare_extraction&#45;&gt;CameLIGOExtract_unwrap_string_sum</title>
<path fill="none" stroke="black" d="M1470.41,-1066.34C1527.09,-1025.89 1639.28,-945.8 1694.2,-906.6"/>
<polygon fill="black" stroke="black" points="1696.4,-909.33 1702.51,-900.67 1692.34,-903.63 1696.4,-909.33"/>
</g>
<!-- CameLIGOExtract_CameLIGO_prepare_extraction&#45;&gt;CameLIGOExtract_printCameLIGODefs -->
<g id="edge16" class="edge">
<title>CameLIGOExtract_CameLIGO_prepare_extraction&#45;&gt;CameLIGOExtract_printCameLIGODefs</title>
<path fill="none" stroke="black" d="M1400.23,-1066.55C1340.67,-1025.99 1222.03,-945.2 1164.62,-906.11"/>
<polygon fill="black" stroke="black" points="1166.51,-903.17 1156.28,-900.43 1162.57,-908.96 1166.51,-903.17"/>
</g>
<!-- CameLIGOExtract_lmd_module_name -->
<g id="node26" class="node">
<title>CameLIGOExtract_lmd_module_name</title>
<g id="a_node26"><a xlink:href="CameLIGOExtract.html#lmd_module_name" xlink:title="lmd_module_name">
<ellipse fill="#f070d1" stroke="black" cx="589" cy="-882.9" rx="96.68" ry="18"/>
<text text-anchor="middle" x="589" y="-879.2" font-family="Times,serif" font-size="14.00">lmd_module_name</text>
</a>
</g>
</g>
<!-- CameLIGOExtract_CameLIGO_prepare_extraction&#45;&gt;CameLIGOExtract_lmd_module_name -->
<g id="edge17" class="edge">
<title>CameLIGOExtract_CameLIGO_prepare_extraction&#45;&gt;CameLIGOExtract_lmd_module_name</title>
<path fill="none" stroke="black" d="M1349.73,-1069.82C1180.24,-1028.4 807.09,-937.2 655.24,-900.09"/>
<polygon fill="black" stroke="black" points="655.68,-896.59 645.13,-897.62 654.01,-903.39 655.68,-896.59"/>
</g>
<!-- CameLIGOExtract_quote_and_preprocess&#45;&gt;CameLIGOExtract_WITH_UNIVERSES -->
<g id="edge18" class="edge">
<title>CameLIGOExtract_quote_and_preprocess&#45;&gt;CameLIGOExtract_WITH_UNIVERSES</title>
<path fill="none" stroke="black" d="M1498.22,-867.43C1651.19,-830.05 2058.72,-730.45 2219.47,-691.16"/>
<polygon fill="black" stroke="black" points="2220.35,-694.55 2229.24,-688.77 2218.69,-687.75 2220.35,-694.55"/>
</g>
<!-- CameLIGOExtract_quote_and_preprocess&#45;&gt;CameLIGOExtract_is_empty -->
<g id="edge19" class="edge">
<title>CameLIGOExtract_quote_and_preprocess&#45;&gt;CameLIGOExtract_is_empty</title>
<path fill="none" stroke="black" d="M1526.41,-871.25C1696.28,-849.23 2081.79,-792.87 2395,-699.9 2402.02,-697.82 2409.33,-695.22 2416.36,-692.49"/>
<polygon fill="black" stroke="black" points="2417.75,-695.7 2425.71,-688.72 2415.13,-689.21 2417.75,-695.7"/>
</g>
<!-- CameLIGOExtract_lmd_receive -->
<g id="node21" class="node">
<title>CameLIGOExtract_lmd_receive</title>
<g id="a_node21"><a xlink:href="CameLIGOExtract.html#lmd_receive" xlink:title="lmd_receive">
<ellipse fill="#f070d1" stroke="black" cx="1311" cy="-673.9" rx="66.09" ry="18"/>
<text text-anchor="middle" x="1311" y="-670.2" font-family="Times,serif" font-size="14.00">lmd_receive</text>
</a>
</g>
</g>
<!-- CameLIGOExtract_quote_and_preprocess&#45;&gt;CameLIGOExtract_lmd_receive -->
<g id="edge20" class="edge">
<title>CameLIGOExtract_quote_and_preprocess&#45;&gt;CameLIGOExtract_lmd_receive</title>
<path fill="none" stroke="black" d="M1428.53,-864.96C1406.11,-828.71 1353.37,-743.42 1326.84,-700.51"/>
<polygon fill="black" stroke="black" points="1329.68,-698.45 1321.44,-691.79 1323.72,-702.13 1329.68,-698.45"/>
</g>
<!-- CameLIGOExtract_lmd_init -->
<g id="node24" class="node">
<title>CameLIGOExtract_lmd_init</title>
<g id="a_node24"><a xlink:href="CameLIGOExtract.html#lmd_init" xlink:title="lmd_init">
<ellipse fill="#f070d1" stroke="black" cx="1443" cy="-673.9" rx="48.19" ry="18"/>
<text text-anchor="middle" x="1443" y="-670.2" font-family="Times,serif" font-size="14.00">lmd_init</text>
</a>
</g>
</g>
<!-- CameLIGOExtract_quote_and_preprocess&#45;&gt;CameLIGOExtract_lmd_init -->
<g id="edge21" class="edge">
<title>CameLIGOExtract_quote_and_preprocess&#45;&gt;CameLIGOExtract_lmd_init</title>
<path fill="none" stroke="black" d="M1439.33,-864.61C1440.03,-828.6 1441.64,-745.33 1442.47,-702.08"/>
<polygon fill="black" stroke="black" points="1445.98,-702.07 1442.67,-692 1438.98,-701.93 1445.98,-702.07"/>
</g>
<!-- CameLIGOExtract_wrap_in_delimiters -->
<g id="node12" class="node">
<title>CameLIGOExtract_wrap_in_delimiters</title>
<g id="a_node12"><a xlink:href="CameLIGOExtract.html#wrap_in_delimiters" xlink:title="wrap_in_delimiters">
<ellipse fill="#f070d1" stroke="black" cx="577" cy="-673.9" rx="98.58" ry="18"/>
<text text-anchor="middle" x="577" y="-670.2" font-family="Times,serif" font-size="14.00">wrap_in_delimiters</text>
</a>
</g>
</g>
<!-- CameLIGOExtract_printCameLIGODefs&#45;&gt;CameLIGOExtract_wrap_in_delimiters -->
<g id="edge22" class="edge">
<title>CameLIGOExtract_printCameLIGODefs&#45;&gt;CameLIGOExtract_wrap_in_delimiters</title>
<path fill="none" stroke="black" d="M1090.28,-866.34C990.2,-829.01 736.7,-734.47 627.89,-693.88"/>
<polygon fill="black" stroke="black" points="629.03,-690.57 618.44,-690.36 626.59,-697.13 629.03,-690.57"/>
</g>
<!-- CameLIGOExtract_printCameLIGODefs&#45;&gt;CameLIGOExtract_TT_remap_default -->
<g id="edge23" class="edge">
<title>CameLIGOExtract_printCameLIGODefs&#45;&gt;CameLIGOExtract_TT_remap_default</title>
<path fill="none" stroke="black" d="M1132,-864.61C1132,-828.6 1132,-745.33 1132,-702.08"/>
<polygon fill="black" stroke="black" points="1135.5,-702 1132,-692 1128.5,-702 1135.5,-702"/>
</g>
<!-- CameLIGOExtract_printCameLIGODefs&#45;&gt;CameLIGOExtract_CameLIGO_ignore_default -->
<g id="edge24" class="edge">
<title>CameLIGOExtract_printCameLIGODefs&#45;&gt;CameLIGOExtract_CameLIGO_ignore_default</title>
<path fill="none" stroke="black" d="M1170.68,-866.17C1261.92,-829.07 1490.52,-736.1 1591.61,-694.99"/>
<polygon fill="black" stroke="black" points="1593.04,-698.19 1600.98,-691.18 1590.4,-691.7 1593.04,-698.19"/>
</g>
<!-- CameLIGOExtract_printCameLIGODefs&#45;&gt;CameLIGOExtract_annot_extract_template_env_specalize -->
<g id="edge25" class="edge">
<title>CameLIGOExtract_printCameLIGODefs&#45;&gt;CameLIGOExtract_annot_extract_template_env_specalize</title>
<path fill="none" stroke="black" d="M1189.55,-867.84C1338.53,-831.43 1736.8,-734.1 1903.73,-693.3"/>
<polygon fill="black" stroke="black" points="1905.03,-696.58 1913.91,-690.81 1903.36,-689.78 1905.03,-696.58"/>
</g>
<!-- CameLIGOExtract_lmd_entry_point -->
<g id="node20" class="node">
<title>CameLIGOExtract_lmd_entry_point</title>
<g id="a_node20"><a xlink:href="CameLIGOExtract.html#lmd_entry_point" xlink:title="lmd_entry_point">
<ellipse fill="#f070d1" stroke="black" cx="934" cy="-673.9" rx="85.59" ry="18"/>
<text text-anchor="middle" x="934" y="-670.2" font-family="Times,serif" font-size="14.00">lmd_entry_point</text>
</a>
</g>
</g>
<!-- CameLIGOExtract_printCameLIGODefs&#45;&gt;CameLIGOExtract_lmd_entry_point -->
<g id="edge26" class="edge">
<title>CameLIGOExtract_printCameLIGODefs&#45;&gt;CameLIGOExtract_lmd_entry_point</title>
<path fill="none" stroke="black" d="M1115.8,-864.96C1080.76,-828.33 997.83,-741.63 957.22,-699.18"/>
<polygon fill="black" stroke="black" points="959.59,-696.59 950.15,-691.79 954.53,-701.43 959.59,-696.59"/>
</g>
<!-- CameLIGOExtract_lmd_init_prelude -->
<g id="node23" class="node">
<title>CameLIGOExtract_lmd_init_prelude</title>
<g id="a_node23"><a xlink:href="CameLIGOExtract.html#lmd_init_prelude" xlink:title="lmd_init_prelude">
<ellipse fill="#f070d1" stroke="black" cx="372" cy="-673.9" rx="88.28" ry="18"/>
<text text-anchor="middle" x="372" y="-670.2" font-family="Times,serif" font-size="14.00">lmd_init_prelude</text>
</a>
</g>
</g>
<!-- CameLIGOExtract_printCameLIGODefs&#45;&gt;CameLIGOExtract_lmd_init_prelude -->
<g id="edge27" class="edge">
<title>CameLIGOExtract_printCameLIGODefs&#45;&gt;CameLIGOExtract_lmd_init_prelude</title>
<path fill="none" stroke="black" d="M1078.56,-867.35C941.46,-830.01 577.9,-730.98 432.93,-691.5"/>
<polygon fill="black" stroke="black" points="433.44,-688.01 422.88,-688.76 431.6,-694.76 433.44,-688.01"/>
</g>
<!-- CameLIGOExtract_lmd_prelude -->
<g id="node25" class="node">
<title>CameLIGOExtract_lmd_prelude</title>
<g id="a_node25"><a xlink:href="CameLIGOExtract.html#lmd_prelude" xlink:title="lmd_prelude">
<ellipse fill="#f070d1" stroke="black" cx="762" cy="-673.9" rx="68.49" ry="18"/>
<text text-anchor="middle" x="762" y="-670.2" font-family="Times,serif" font-size="14.00">lmd_prelude</text>
</a>
</g>
</g>
<!-- CameLIGOExtract_printCameLIGODefs&#45;&gt;CameLIGOExtract_lmd_prelude -->
<g id="edge28" class="edge">
<title>CameLIGOExtract_printCameLIGODefs&#45;&gt;CameLIGOExtract_lmd_prelude</title>
<path fill="none" stroke="black" d="M1102.66,-865.49C1035.78,-828.07 872.18,-736.54 798.74,-695.46"/>
<polygon fill="black" stroke="black" points="800.26,-692.3 789.82,-690.47 796.84,-698.41 800.26,-692.3"/>
</g>
<!-- CameLIGOExtract_TT_rename_ctors_default -->
<g id="node13" class="node">
<title>CameLIGOExtract_TT_rename_ctors_default</title>
<g id="a_node13"><a xlink:href="CameLIGOExtract.html#TT_rename_ctors_default" xlink:title="TT_rename_ctors_default">
<ellipse fill="#f070d1" stroke="black" cx="762" cy="-1091.9" rx="127.28" ry="18"/>
<ellipse fill="none" stroke="black" cx="762" cy="-1091.9" rx="131.28" ry="22"/>
<ellipse fill="none" stroke="black" cx="762" cy="-1091.9" rx="135.28" ry="26"/>
<text text-anchor="middle" x="762" y="-1088.2" font-family="Times,serif" font-size="14.00">TT_rename_ctors_default</text>
</a>
</g>
</g>
<!-- CameLIGOExtract_annot_extract_env_cameligo -->
<g id="node17" class="node">
<title>CameLIGOExtract_annot_extract_env_cameligo</title>
<g id="a_node17"><a xlink:href="CameLIGOExtract.html#annot_extract_env_cameligo" xlink:title="annot_extract_env_cameligo">
<ellipse fill="#f070d1" stroke="black" cx="1979" cy="-464.9" rx="141.88" ry="18"/>
<text text-anchor="middle" x="1979" y="-461.2" font-family="Times,serif" font-size="14.00">annot_extract_env_cameligo</text>
</a>
</g>
</g>
<!-- CameLIGOExtract_annot_extract_template_env_specalize&#45;&gt;CameLIGOExtract_annot_extract_env_cameligo -->
<g id="edge29" class="edge">
<title>CameLIGOExtract_annot_extract_template_env_specalize&#45;&gt;CameLIGOExtract_annot_extract_env_cameligo</title>
<path fill="none" stroke="black" d="M1979,-655.61C1979,-619.6 1979,-536.33 1979,-493.08"/>
<polygon fill="black" stroke="black" points="1982.5,-493 1979,-483 1975.5,-493 1982.5,-493"/>
</g>
<!-- CameLIGOExtract_cameligo_args -->
<g id="node18" class="node">
<title>CameLIGOExtract_cameligo_args</title>
<g id="a_node18"><a xlink:href="CameLIGOExtract.html#cameligo_args" xlink:title="cameligo_args">
<ellipse fill="#f070d1" stroke="black" cx="1979" cy="-276.9" rx="77.19" ry="18"/>
<text text-anchor="middle" x="1979" y="-273.2" font-family="Times,serif" font-size="14.00">cameligo_args</text>
</a>
</g>
</g>
<!-- CameLIGOExtract_annot_extract_env_cameligo&#45;&gt;CameLIGOExtract_cameligo_args -->
<g id="edge30" class="edge">
<title>CameLIGOExtract_annot_extract_env_cameligo&#45;&gt;CameLIGOExtract_cameligo_args</title>
<path fill="none" stroke="black" d="M1979,-446.74C1979,-414.35 1979,-343.99 1979,-305.1"/>
<polygon fill="black" stroke="black" points="1982.5,-305.03 1979,-295.03 1975.5,-305.03 1982.5,-305.03"/>
</g>
<!-- CameLIGOExtract_overridden_masks -->
<g id="node19" class="node">
<title>CameLIGOExtract_overridden_masks</title>
<g id="a_node19"><a xlink:href="CameLIGOExtract.html#overridden_masks" xlink:title="overridden_masks">
<ellipse fill="#f070d1" stroke="black" cx="1979" cy="-88.9" rx="94.78" ry="18"/>
<text text-anchor="middle" x="1979" y="-85.2" font-family="Times,serif" font-size="14.00">overridden_masks</text>
</a>
</g>
</g>
<!-- CameLIGOExtract_cameligo_args&#45;&gt;CameLIGOExtract_overridden_masks -->
<g id="edge31" class="edge">
<title>CameLIGOExtract_cameligo_args&#45;&gt;CameLIGOExtract_overridden_masks</title>
<path fill="none" stroke="black" d="M1979,-258.74C1979,-226.35 1979,-155.99 1979,-117.1"/>
<polygon fill="black" stroke="black" points="1982.5,-117.03 1979,-107.03 1975.5,-117.03 1982.5,-117.03"/>
</g>
<!-- CameLIGOExtract_CameLIGOMod -->
<g id="node28" class="node">
<title>CameLIGOExtract_CameLIGOMod</title>
<g id="a_node28"><a xlink:href="CameLIGOExtract.html#CameLIGOMod" xlink:title="CameLIGOMod">
<ellipse fill="#e2cdfa" stroke="black" cx="762" cy="-464.9" rx="81.49" ry="18"/>
<text text-anchor="middle" x="762" y="-461.2" font-family="Times,serif" font-size="14.00">CameLIGOMod</text>
</a>
</g>
</g>
<!-- CameLIGOExtract_lmd_entry_point&#45;&gt;CameLIGOExtract_CameLIGOMod -->
<g id="edge32" class="edge">
<title>CameLIGOExtract_lmd_entry_point&#45;&gt;CameLIGOExtract_CameLIGOMod</title>
<path fill="none" stroke="black" d="M919.92,-655.96C889.61,-619.48 818.04,-533.35 782.61,-490.71"/>
<polygon fill="black" stroke="black" points="785.11,-488.24 776.03,-482.79 779.73,-492.71 785.11,-488.24"/>
</g>
<!-- CameLIGOExtract_lmd_receive&#45;&gt;CameLIGOExtract_CameLIGOMod -->
<g id="edge33" class="edge">
<title>CameLIGOExtract_lmd_receive&#45;&gt;CameLIGOExtract_CameLIGOMod</title>
<path fill="none" stroke="black" d="M1273.7,-658.84C1177.06,-622.4 918.61,-524.95 810.55,-484.21"/>
<polygon fill="black" stroke="black" points="811.78,-480.93 801.18,-480.68 809.31,-487.48 811.78,-480.93"/>
</g>
<!-- CameLIGOExtract_lmd_receive_prelude -->
<g id="node22" class="node">
<title>CameLIGOExtract_lmd_receive_prelude</title>
<g id="a_node22"><a xlink:href="CameLIGOExtract.html#lmd_receive_prelude" xlink:title="lmd_receive_prelude">
<ellipse fill="#f070d1" stroke="black" cx="131" cy="-673.9" rx="106.67" ry="18"/>
<ellipse fill="none" stroke="black" cx="131" cy="-673.9" rx="110.68" ry="22"/>
<ellipse fill="none" stroke="black" cx="131" cy="-673.9" rx="114.68" ry="26"/>
<text text-anchor="middle" x="131" y="-670.2" font-family="Times,serif" font-size="14.00">lmd_receive_prelude</text>
</a>
</g>
</g>
<!-- CameLIGOExtract_lmd_receive_prelude&#45;&gt;CameLIGOExtract_CameLIGOMod -->
<g id="edge34" class="edge">
<title>CameLIGOExtract_lmd_receive_prelude&#45;&gt;CameLIGOExtract_CameLIGOMod</title>
<path fill="none" stroke="black" d="M194.39,-652.11C318.75,-611.31 592.63,-521.46 708.53,-483.44"/>
<polygon fill="black" stroke="black" points="709.84,-486.7 718.25,-480.25 707.66,-480.05 709.84,-486.7"/>
</g>
<!-- CameLIGOExtract_lmd_init_prelude&#45;&gt;CameLIGOExtract_CameLIGOMod -->
<g id="edge35" class="edge">
<title>CameLIGOExtract_lmd_init_prelude&#45;&gt;CameLIGOExtract_CameLIGOMod</title>
<path fill="none" stroke="black" d="M402.28,-656.83C472.36,-619.64 645.66,-527.65 723.3,-486.45"/>
<polygon fill="black" stroke="black" points="725.08,-489.46 732.28,-481.68 721.8,-483.28 725.08,-489.46"/>
</g>
<!-- CameLIGOExtract_lmd_init&#45;&gt;CameLIGOExtract_CameLIGOMod -->
<g id="edge36" class="edge">
<title>CameLIGOExtract_lmd_init&#45;&gt;CameLIGOExtract_CameLIGOMod</title>
<path fill="none" stroke="black" d="M1414.3,-659.45C1405.33,-655.48 1395.34,-651.3 1386,-647.9 1184.21,-574.57 937.7,-509.71 824.4,-481.24"/>
<polygon fill="black" stroke="black" points="825.06,-477.8 814.51,-478.76 823.36,-484.59 825.06,-477.8"/>
</g>
<!-- CameLIGOExtract_lmd_prelude&#45;&gt;CameLIGOExtract_CameLIGOMod -->
<g id="edge37" class="edge">
<title>CameLIGOExtract_lmd_prelude&#45;&gt;CameLIGOExtract_CameLIGOMod</title>
<path fill="none" stroke="black" d="M762,-655.61C762,-619.6 762,-536.33 762,-493.08"/>
<polygon fill="black" stroke="black" points="765.5,-493 762,-483 758.5,-493 765.5,-493"/>
</g>
<!-- CameLIGOExtract_lmd_module_name&#45;&gt;CameLIGOExtract_CameLIGOMod -->
<g id="edge38" class="edge">
<title>CameLIGOExtract_lmd_module_name&#45;&gt;CameLIGOExtract_CameLIGOMod</title>
<path fill="none" stroke="black" d="M534.49,-867.88C425.75,-837.19 198.65,-757.94 275,-647.9 364.78,-518.51 558.41,-480.95 672.62,-470.15"/>
<polygon fill="black" stroke="black" points="673.09,-473.62 682.74,-469.25 672.47,-466.65 673.09,-473.62"/>
</g>
<!-- CameLIGOExtract_Build_CameLIGOMod -->
<g id="node27" class="node">
<title>CameLIGOExtract_Build_CameLIGOMod</title>
<g id="a_node27"><a xlink:href="CameLIGOExtract.html#Build_CameLIGOMod" xlink:title="Build_CameLIGOMod">
<ellipse fill="#7faaff" stroke="black" cx="257" cy="-1091.9" rx="110.48" ry="18"/>
<ellipse fill="none" stroke="black" cx="257" cy="-1091.9" rx="114.48" ry="22"/>
<ellipse fill="none" stroke="black" cx="257" cy="-1091.9" rx="118.48" ry="26"/>
<text text-anchor="middle" x="257" y="-1088.2" font-family="Times,serif" font-size="14.00">Build_CameLIGOMod</text>
</a>
</g>
</g>
</g>
</svg>
