<?xml version="1.0" encoding="UTF-8" standalone="no"?>
<!DOCTYPE svg PUBLIC "-//W3C//DTD SVG 1.1//EN"
 "http://www.w3.org/Graphics/SVG/1.1/DTD/svg11.dtd">
<!-- Generated by graphviz version 2.43.0 (0)
 -->
<!-- Title: Crowdfunding Pages: 1 -->
<svg width="3663pt" height="1835pt"
 viewBox="0.00 0.00 3663.00 1835.50" xmlns="http://www.w3.org/2000/svg" xmlns:xlink="http://www.w3.org/1999/xlink">
<g id="graph0" class="graph" transform="scale(1 1) rotate(0) translate(4 1831.5)">
<title>Crowdfunding</title>
<polygon fill="white" stroke="transparent" points="-4,4 -4,-1831.5 3659,-1831.5 3659,4 -4,4"/>
<g id="clust1" class="cluster">
<title>cluster_Crowdfunding</title>
<polygon fill="#ffffc3" stroke="black" points="8,-42.01 8,-1785.49 3647,-1785.49 3647,-42.01 8,-42.01"/>
<text text-anchor="middle" x="67" y="-1770.29" font-family="Times,serif" font-size="14.00">Crowdfunding</text>
</g>
<g id="clust2" class="cluster">
<title>cluster_Crowdfunding_CrowdfundingProperties</title>
<polygon fill="#ffffa3" stroke="black" points="16,-126.03 16,-1622.69 3009,-1622.69 3009,-126.03 16,-126.03"/>
<text text-anchor="middle" x="112.5" y="-1607.49" font-family="Times,serif" font-size="14.00">CrowdfundingProperties</text>
</g>
<g id="clust3" class="cluster">
<title>cluster_Crowdfunding_CrowdfundingContract</title>
<polygon fill="#ffffa3" stroke="black" points="3017,-84.02 3017,-1144.81 3639,-1144.81 3639,-84.02 3017,-84.02"/>
<text text-anchor="middle" x="3107" y="-1129.61" font-family="Times,serif" font-size="14.00">CrowdfundingContract</text>
</g>
<g id="clust4" class="cluster">
<title>cluster_Crowdfunding_CrowdfundingContract_Init</title>
<polygon fill="#ffff83" stroke="black" points="3321,-504.14 3321,-982.02 3631,-982.02 3631,-504.14 3321,-504.14"/>
<text text-anchor="middle" x="3341.5" y="-966.82" font-family="Times,serif" font-size="14.00">Init</text>
</g>
<g id="clust5" class="cluster">
<title>cluster_Crowdfunding_CrowdfundingContract_Receive</title>
<polygon fill="#ffff83" stroke="black" points="3025,-126.03 3025,-982.02 3313,-982.02 3313,-126.03 3025,-126.03"/>
<text text-anchor="middle" x="3061" y="-966.82" font-family="Times,serif" font-size="14.00">Receive</text>
</g>
<!-- Crowdfunding_CrowdfundingContract_Receive_receive -->
<g id="node1" class="node">
<title>Crowdfunding_CrowdfundingContract_Receive_receive</title>
<g id="a_node1"><a xlink:href="Crowdfunding.html#CrowdfundingContract.Receive.receive" xlink:title="receive">
<ellipse fill="#f070d1" stroke="black" cx="3261" cy="-683.01" rx="44.39" ry="18"/>
<text text-anchor="middle" x="3261" y="-679.31" font-family="Times,serif" font-size="14.00">receive</text>
</a>
</g>
</g>
<!-- Crowdfunding_CrowdfundingContract_Receive_crowdfunding -->
<g id="node2" class="node">
<title>Crowdfunding_CrowdfundingContract_Receive_crowdfunding</title>
<g id="a_node2"><a xlink:href="Crowdfunding.html#CrowdfundingContract.Receive.crowdfunding" xlink:title="crowdfunding">
<ellipse fill="#f070d1" stroke="black" cx="3116" cy="-683.01" rx="74.96" ry="18"/>
<ellipse fill="none" stroke="black" cx="3116" cy="-683.01" rx="78.98" ry="22"/>
<ellipse fill="none" stroke="black" cx="3116" cy="-683.01" rx="82.99" ry="26"/>
<text text-anchor="middle" x="3116" y="-679.31" font-family="Times,serif" font-size="14.00">crowdfunding</text>
</a>
</g>
</g>
<!-- Crowdfunding_CrowdfundingContract_Receive_SChain -->
<g id="node3" class="node">
<title>Crowdfunding_CrowdfundingContract_Receive_SChain</title>
<g id="a_node3"><a xlink:href="Crowdfunding.html#CrowdfundingContract.Receive.SChain" xlink:title="SChain">
<ellipse fill="#f070d1" stroke="black" cx="3096" cy="-263.01" rx="44.39" ry="18"/>
<text text-anchor="middle" x="3096" y="-259.31" font-family="Times,serif" font-size="14.00">SChain</text>
</a>
</g>
</g>
<!-- Crowdfunding_CrowdfundingContract_Receive_crowdfunding&#45;&gt;Crowdfunding_CrowdfundingContract_Receive_SChain -->
<g id="edge1" class="edge">
<title>Crowdfunding_CrowdfundingContract_Receive_crowdfunding&#45;&gt;Crowdfunding_CrowdfundingContract_Receive_SChain</title>
<path fill="none" stroke="black" d="M3114.79,-656.81C3111.27,-583.12 3101,-368.46 3097.32,-291.7"/>
<polygon fill="black" stroke="black" points="3100.81,-291.23 3096.83,-281.41 3093.81,-291.57 3100.81,-291.23"/>
</g>
<!-- Crowdfunding_CrowdfundingContract_Receive_SCtx -->
<g id="node4" class="node">
<title>Crowdfunding_CrowdfundingContract_Receive_SCtx</title>
<g id="a_node4"><a xlink:href="Crowdfunding.html#CrowdfundingContract.Receive.SCtx" xlink:title="SCtx">
<ellipse fill="#f070d1" stroke="black" cx="3191" cy="-263.01" rx="33.29" ry="18"/>
<text text-anchor="middle" x="3191" y="-259.31" font-family="Times,serif" font-size="14.00">SCtx</text>
</a>
</g>
</g>
<!-- Crowdfunding_CrowdfundingContract_Receive_crowdfunding&#45;&gt;Crowdfunding_CrowdfundingContract_Receive_SCtx -->
<g id="edge2" class="edge">
<title>Crowdfunding_CrowdfundingContract_Receive_crowdfunding&#45;&gt;Crowdfunding_CrowdfundingContract_Receive_SCtx</title>
<path fill="none" stroke="black" d="M3120.52,-656.81C3133.77,-582.95 3172.44,-367.48 3186.13,-291.18"/>
<polygon fill="black" stroke="black" points="3189.64,-291.42 3187.96,-280.96 3182.75,-290.19 3189.64,-291.42"/>
</g>
<!-- Crowdfunding_CrowdfundingContract_Init_init -->
<g id="node5" class="node">
<title>Crowdfunding_CrowdfundingContract_Init_init</title>
<g id="a_node5"><a xlink:href="Crowdfunding.html#CrowdfundingContract.Init.init" xlink:title="init">
<ellipse fill="#f070d1" stroke="black" cx="3588" cy="-683.01" rx="27" ry="18"/>
<ellipse fill="none" stroke="black" cx="3588" cy="-683.01" rx="31" ry="22"/>
<ellipse fill="none" stroke="black" cx="3588" cy="-683.01" rx="35" ry="26"/>
<text text-anchor="middle" x="3588" y="-679.31" font-family="Times,serif" font-size="14.00">init</text>
</a>
</g>
</g>
<!-- Crowdfunding_CrowdfundingContract_Init_crowdfunding_init -->
<g id="node6" class="node">
<title>Crowdfunding_CrowdfundingContract_Init_crowdfunding_init</title>
<g id="a_node6"><a xlink:href="Crowdfunding.html#CrowdfundingContract.Init.crowdfunding_init" xlink:title="crowdfunding_init">
<ellipse fill="#f070d1" stroke="black" cx="3432" cy="-683.01" rx="94.79" ry="18"/>
<ellipse fill="none" stroke="black" cx="3432" cy="-683.01" rx="98.79" ry="22"/>
<ellipse fill="none" stroke="black" cx="3432" cy="-683.01" rx="102.78" ry="26"/>
<text text-anchor="middle" x="3432" y="-679.31" font-family="Times,serif" font-size="14.00">crowdfunding_init</text>
</a>
</g>
</g>
<!-- Crowdfunding_CrowdfundingProperties_no_claim_after_done -->
<g id="node7" class="node">
<title>Crowdfunding_CrowdfundingProperties_no_claim_after_done</title>
<g id="a_node7"><a xlink:href="Crowdfunding.html#CrowdfundingProperties.no_claim_after_done" xlink:title="no_claim_after_done">
<ellipse fill="#7fffd4" stroke="black" cx="1976" cy="-1323.01" rx="104.77" ry="18"/>
<ellipse fill="none" stroke="black" cx="1976" cy="-1323.01" rx="108.78" ry="22"/>
<ellipse fill="none" stroke="black" cx="1976" cy="-1323.01" rx="112.78" ry="26"/>
<text text-anchor="middle" x="1976" y="-1319.31" font-family="Times,serif" font-size="14.00">no_claim_after_done</text>
</a>
</g>
</g>
<!-- Crowdfunding_CrowdfundingProperties_no_claim_after_done&#45;&gt;Crowdfunding_CrowdfundingContract_Receive_receive -->
<g id="edge3" class="edge">
<title>Crowdfunding_CrowdfundingProperties_no_claim_after_done&#45;&gt;Crowdfunding_CrowdfundingContract_Receive_receive</title>
<path fill="none" stroke="black" d="M2054.51,-1304.32C2263.86,-1253.79 2844.26,-1091.39 3208,-771.01 3226.99,-754.29 3241.3,-729.09 3250.24,-710.1"/>
<polygon fill="black" stroke="black" points="3253.51,-711.38 3254.42,-700.82 3247.12,-708.5 3253.51,-711.38"/>
</g>
<!-- Crowdfunding_CrowdfundingProperties_assertion -->
<g id="node27" class="node">
<title>Crowdfunding_CrowdfundingProperties_assertion</title>
<g id="a_node27"><a xlink:href="Crowdfunding.html#CrowdfundingProperties.assertion" xlink:title="assertion">
<ellipse fill="#f070d1" stroke="black" cx="1768" cy="-683.01" rx="53.89" ry="18"/>
<text text-anchor="middle" x="1768" y="-679.31" font-family="Times,serif" font-size="14.00">assertion</text>
</a>
</g>
</g>
<!-- Crowdfunding_CrowdfundingProperties_no_claim_after_done&#45;&gt;Crowdfunding_CrowdfundingProperties_assertion -->
<g id="edge4" class="edge">
<title>Crowdfunding_CrowdfundingProperties_no_claim_after_done&#45;&gt;Crowdfunding_CrowdfundingProperties_assertion</title>
<path fill="none" stroke="black" d="M1967.85,-1297C1934.77,-1195.55 1810.75,-815.13 1776.7,-710.69"/>
<polygon fill="black" stroke="black" points="1779.94,-709.35 1773.51,-700.92 1773.29,-711.52 1779.94,-709.35"/>
</g>
<!-- Crowdfunding_CrowdfundingProperties_no_claim_if_succeeded -->
<g id="node8" class="node">
<title>Crowdfunding_CrowdfundingProperties_no_claim_if_succeeded</title>
<g id="a_node8"><a xlink:href="Crowdfunding.html#CrowdfundingProperties.no_claim_if_succeeded" xlink:title="no_claim_if_succeeded">
<ellipse fill="#7fffd4" stroke="black" cx="2229" cy="-1323.01" rx="114.29" ry="18"/>
<ellipse fill="none" stroke="black" cx="2229" cy="-1323.01" rx="118.28" ry="22"/>
<ellipse fill="none" stroke="black" cx="2229" cy="-1323.01" rx="122.28" ry="26"/>
<text text-anchor="middle" x="2229" y="-1319.31" font-family="Times,serif" font-size="14.00">no_claim_if_succeeded</text>
</a>
</g>
</g>
<!-- Crowdfunding_CrowdfundingProperties_no_claim_if_succeeded&#45;&gt;Crowdfunding_CrowdfundingContract_Receive_receive -->
<g id="edge5" class="edge">
<title>Crowdfunding_CrowdfundingProperties_no_claim_if_succeeded&#45;&gt;Crowdfunding_CrowdfundingContract_Receive_receive</title>
<path fill="none" stroke="black" d="M2290.06,-1300.34C2455.08,-1239.33 2917.11,-1052.03 3208,-771.01 3226.09,-753.54 3240.44,-728.63 3249.62,-709.94"/>
<polygon fill="black" stroke="black" points="3252.83,-711.34 3253.94,-700.8 3246.5,-708.35 3252.83,-711.34"/>
</g>
<!-- Crowdfunding_CrowdfundingProperties_no_claim_if_succeeded&#45;&gt;Crowdfunding_CrowdfundingProperties_assertion -->
<g id="edge6" class="edge">
<title>Crowdfunding_CrowdfundingProperties_no_claim_if_succeeded&#45;&gt;Crowdfunding_CrowdfundingProperties_assertion</title>
<path fill="none" stroke="black" d="M2210.93,-1297C2137.17,-1194.92 1859.35,-810.44 1785.9,-708.79"/>
<polygon fill="black" stroke="black" points="1788.71,-706.69 1780.01,-700.64 1783.03,-710.79 1788.71,-706.69"/>
</g>
<!-- Crowdfunding_CrowdfundingProperties_funded -->
<g id="node34" class="node">
<title>Crowdfunding_CrowdfundingProperties_funded</title>
<g id="a_node34"><a xlink:href="Crowdfunding.html#CrowdfundingProperties.funded" xlink:title="funded">
<ellipse fill="#f070d1" stroke="black" cx="1903" cy="-683.01" rx="42.79" ry="18"/>
<text text-anchor="middle" x="1903" y="-679.31" font-family="Times,serif" font-size="14.00">funded</text>
</a>
</g>
</g>
<!-- Crowdfunding_CrowdfundingProperties_no_claim_if_succeeded&#45;&gt;Crowdfunding_CrowdfundingProperties_funded -->
<g id="edge7" class="edge">
<title>Crowdfunding_CrowdfundingProperties_no_claim_if_succeeded&#45;&gt;Crowdfunding_CrowdfundingProperties_funded</title>
<path fill="none" stroke="black" d="M2216.22,-1297C2164.27,-1195.34 1969.21,-813.6 1916.31,-710.06"/>
<polygon fill="black" stroke="black" points="1919.31,-708.24 1911.64,-700.92 1913.08,-711.42 1919.31,-708.24"/>
</g>
<!-- Crowdfunding_CrowdfundingProperties_GetFunds_correct -->
<g id="node9" class="node">
<title>Crowdfunding_CrowdfundingProperties_GetFunds_correct</title>
<g id="a_node9"><a xlink:href="Crowdfunding.html#CrowdfundingProperties.GetFunds_correct" xlink:title="GetFunds_correct">
<ellipse fill="#7fffd4" stroke="black" cx="1744" cy="-1323.01" rx="93.68" ry="18"/>
<ellipse fill="none" stroke="black" cx="1744" cy="-1323.01" rx="97.68" ry="22"/>
<ellipse fill="none" stroke="black" cx="1744" cy="-1323.01" rx="101.68" ry="26"/>
<text text-anchor="middle" x="1744" y="-1319.31" font-family="Times,serif" font-size="14.00">GetFunds_correct</text>
</a>
</g>
</g>
<!-- Crowdfunding_CrowdfundingProperties_GetFunds_correct&#45;&gt;Crowdfunding_CrowdfundingContract_Receive_receive -->
<g id="edge8" class="edge">
<title>Crowdfunding_CrowdfundingProperties_GetFunds_correct&#45;&gt;Crowdfunding_CrowdfundingContract_Receive_receive</title>
<path fill="none" stroke="black" d="M1810.36,-1303.32C2065.22,-1230.62 2978.34,-961.25 3208,-771.01 3227.49,-754.87 3241.74,-729.6 3250.53,-710.44"/>
<polygon fill="black" stroke="black" points="3253.83,-711.63 3254.63,-701.07 3247.42,-708.83 3253.83,-711.63"/>
</g>
<!-- Crowdfunding_CrowdfundingProperties_GetFunds_correct&#45;&gt;Crowdfunding_CrowdfundingProperties_assertion -->
<g id="edge9" class="edge">
<title>Crowdfunding_CrowdfundingProperties_GetFunds_correct&#45;&gt;Crowdfunding_CrowdfundingProperties_assertion</title>
<path fill="none" stroke="black" d="M1744.94,-1297C1748.75,-1195.76 1763.01,-816.73 1766.97,-711.35"/>
<polygon fill="black" stroke="black" points="1770.47,-711.34 1767.35,-701.21 1763.48,-711.08 1770.47,-711.34"/>
</g>
<!-- Crowdfunding_CrowdfundingProperties_GetFunds_correct&#45;&gt;Crowdfunding_CrowdfundingProperties_funded -->
<g id="edge10" class="edge">
<title>Crowdfunding_CrowdfundingProperties_GetFunds_correct&#45;&gt;Crowdfunding_CrowdfundingProperties_funded</title>
<path fill="none" stroke="black" d="M1750.23,-1297C1775.49,-1195.66 1870.11,-815.97 1896.27,-711.03"/>
<polygon fill="black" stroke="black" points="1899.69,-711.76 1898.71,-701.21 1892.9,-710.07 1899.69,-711.76"/>
</g>
<!-- Crowdfunding_CrowdfundingProperties_contract_state_donation_non_neg -->
<g id="node10" class="node">
<title>Crowdfunding_CrowdfundingProperties_contract_state_donation_non_neg</title>
<g id="a_node10"><a xlink:href="Crowdfunding.html#CrowdfundingProperties.contract_state_donation_non_neg" xlink:title="contract_state_donation_non_neg">
<ellipse fill="#7fffd4" stroke="black" cx="2542" cy="-1323.01" rx="165.17" ry="18"/>
<ellipse fill="none" stroke="black" cx="2542" cy="-1323.01" rx="169.17" ry="22"/>
<ellipse fill="none" stroke="black" cx="2542" cy="-1323.01" rx="173.17" ry="26"/>
<text text-anchor="middle" x="2542" y="-1319.31" font-family="Times,serif" font-size="14.00">contract_state_donation_non_neg</text>
</a>
</g>
</g>
<!-- Crowdfunding_CrowdfundingProperties_contract_state_donation_non_neg&#45;&gt;Crowdfunding_CrowdfundingContract_Receive_receive -->
<g id="edge11" class="edge">
<title>Crowdfunding_CrowdfundingProperties_contract_state_donation_non_neg&#45;&gt;Crowdfunding_CrowdfundingContract_Receive_receive</title>
<path fill="none" stroke="black" d="M2579.57,-1297.61C2687.23,-1226.38 3002.27,-1008.74 3208,-771.01 3224.11,-752.39 3238.38,-728.3 3248.03,-710.18"/>
<polygon fill="black" stroke="black" points="3251.4,-711.3 3252.91,-700.81 3245.19,-708.07 3251.4,-711.3"/>
</g>
<!-- Crowdfunding_CrowdfundingProperties_non_neg_add_0 -->
<g id="node11" class="node">
<title>Crowdfunding_CrowdfundingProperties_non_neg_add_0</title>
<g id="a_node11"><a xlink:href="Crowdfunding.html#CrowdfundingProperties.non_neg_add_0" xlink:title="non_neg_add_0">
<ellipse fill="#7fffd4" stroke="black" cx="2213" cy="-683.01" rx="81.49" ry="18"/>
<text text-anchor="middle" x="2213" y="-679.31" font-family="Times,serif" font-size="14.00">non_neg_add_0</text>
</a>
</g>
</g>
<!-- Crowdfunding_CrowdfundingProperties_contract_state_donation_non_neg&#45;&gt;Crowdfunding_CrowdfundingProperties_non_neg_add_0 -->
<g id="edge12" class="edge">
<title>Crowdfunding_CrowdfundingProperties_contract_state_donation_non_neg&#45;&gt;Crowdfunding_CrowdfundingProperties_non_neg_add_0</title>
<path fill="none" stroke="black" d="M2529.1,-1297C2476.68,-1195.34 2279.82,-813.6 2226.43,-710.06"/>
<polygon fill="black" stroke="black" points="2229.42,-708.21 2221.72,-700.92 2223.19,-711.42 2229.42,-708.21"/>
</g>
<!-- Crowdfunding_CrowdfundingProperties_non_neg_add_not_in -->
<g id="node12" class="node">
<title>Crowdfunding_CrowdfundingProperties_non_neg_add_not_in</title>
<g id="a_node12"><a xlink:href="Crowdfunding.html#CrowdfundingProperties.non_neg_add_not_in" xlink:title="non_neg_add_not_in">
<ellipse fill="#7fffd4" stroke="black" cx="2416" cy="-683.01" rx="103.18" ry="18"/>
<text text-anchor="middle" x="2416" y="-679.31" font-family="Times,serif" font-size="14.00">non_neg_add_not_in</text>
</a>
</g>
</g>
<!-- Crowdfunding_CrowdfundingProperties_contract_state_donation_non_neg&#45;&gt;Crowdfunding_CrowdfundingProperties_non_neg_add_not_in -->
<g id="edge13" class="edge">
<title>Crowdfunding_CrowdfundingProperties_contract_state_donation_non_neg&#45;&gt;Crowdfunding_CrowdfundingProperties_non_neg_add_not_in</title>
<path fill="none" stroke="black" d="M2537.06,-1297C2517.05,-1195.66 2442.06,-815.97 2421.34,-711.03"/>
<polygon fill="black" stroke="black" points="2424.77,-710.35 2419.4,-701.21 2417.9,-711.7 2424.77,-710.35"/>
</g>
<!-- Crowdfunding_CrowdfundingProperties_non_neg_add_in -->
<g id="node13" class="node">
<title>Crowdfunding_CrowdfundingProperties_non_neg_add_in</title>
<g id="a_node13"><a xlink:href="Crowdfunding.html#CrowdfundingProperties.non_neg_add_in" xlink:title="non_neg_add_in">
<ellipse fill="#7fffd4" stroke="black" cx="2621" cy="-683.01" rx="83.69" ry="18"/>
<text text-anchor="middle" x="2621" y="-679.31" font-family="Times,serif" font-size="14.00">non_neg_add_in</text>
</a>
</g>
</g>
<!-- Crowdfunding_CrowdfundingProperties_contract_state_donation_non_neg&#45;&gt;Crowdfunding_CrowdfundingProperties_non_neg_add_in -->
<g id="edge14" class="edge">
<title>Crowdfunding_CrowdfundingProperties_contract_state_donation_non_neg&#45;&gt;Crowdfunding_CrowdfundingProperties_non_neg_add_in</title>
<path fill="none" stroke="black" d="M2545.1,-1297C2557.63,-1195.76 2604.57,-816.73 2617.61,-711.35"/>
<polygon fill="black" stroke="black" points="2621.11,-711.57 2618.87,-701.21 2614.17,-710.71 2621.11,-711.57"/>
</g>
<!-- Crowdfunding_CrowdfundingProperties_donations_non_neg -->
<g id="node14" class="node">
<title>Crowdfunding_CrowdfundingProperties_donations_non_neg</title>
<g id="a_node14"><a xlink:href="Crowdfunding.html#CrowdfundingProperties.donations_non_neg" xlink:title="donations_non_neg">
<ellipse fill="#f070d1" stroke="black" cx="2822" cy="-683.01" rx="98.58" ry="18"/>
<text text-anchor="middle" x="2822" y="-679.31" font-family="Times,serif" font-size="14.00">donations_non_neg</text>
</a>
</g>
</g>
<!-- Crowdfunding_CrowdfundingProperties_contract_state_donation_non_neg&#45;&gt;Crowdfunding_CrowdfundingProperties_donations_non_neg -->
<g id="edge15" class="edge">
<title>Crowdfunding_CrowdfundingProperties_contract_state_donation_non_neg&#45;&gt;Crowdfunding_CrowdfundingProperties_donations_non_neg</title>
<path fill="none" stroke="black" d="M2552.98,-1297C2597.54,-1195.45 2764.76,-814.43 2810.42,-710.4"/>
<polygon fill="black" stroke="black" points="2813.64,-711.78 2814.45,-701.21 2807.23,-708.96 2813.64,-711.78"/>
</g>
<!-- Crowdfunding_CrowdfundingProperties_contract_state_donation_non_neg&#45;&gt;Crowdfunding_CrowdfundingProperties_assertion -->
<g id="edge16" class="edge">
<title>Crowdfunding_CrowdfundingProperties_contract_state_donation_non_neg&#45;&gt;Crowdfunding_CrowdfundingProperties_assertion</title>
<path fill="none" stroke="black" d="M2507.96,-1297.45C2405.14,-1222.71 2090.13,-989.82 1851,-771.01 1828.96,-750.85 1805.63,-726.05 1789.34,-708.09"/>
<polygon fill="black" stroke="black" points="1791.67,-705.45 1782.37,-700.36 1786.47,-710.13 1791.67,-705.45"/>
</g>
<!-- Crowdfunding_CrowdfundingProperties_contract_state_consistent -->
<g id="node15" class="node">
<title>Crowdfunding_CrowdfundingProperties_contract_state_consistent</title>
<g id="a_node15"><a xlink:href="Crowdfunding.html#CrowdfundingProperties.contract_state_consistent" xlink:title="contract_state_consistent">
<ellipse fill="#7fffd4" stroke="black" cx="417" cy="-1323.01" rx="129.19" ry="18"/>
<ellipse fill="none" stroke="black" cx="417" cy="-1323.01" rx="133.18" ry="22"/>
<ellipse fill="none" stroke="black" cx="417" cy="-1323.01" rx="137.18" ry="26"/>
<text text-anchor="middle" x="417" y="-1319.31" font-family="Times,serif" font-size="14.00">contract_state_consistent</text>
</a>
</g>
</g>
<!-- Crowdfunding_CrowdfundingProperties_contract_state_consistent&#45;&gt;Crowdfunding_CrowdfundingContract_Receive_receive -->
<g id="edge17" class="edge">
<title>Crowdfunding_CrowdfundingProperties_contract_state_consistent&#45;&gt;Crowdfunding_CrowdfundingContract_Receive_receive</title>
<path fill="none" stroke="black" d="M515.47,-1304.87C997.9,-1220.58 3093.36,-851.01 3208,-771.01 3229.09,-756.29 3243.32,-730.22 3251.68,-710.44"/>
<polygon fill="black" stroke="black" points="3254.98,-711.63 3255.42,-701.04 3248.47,-709.04 3254.98,-711.63"/>
</g>
<!-- Crowdfunding_CrowdfundingProperties_consistent_balance -->
<g id="node16" class="node">
<title>Crowdfunding_CrowdfundingProperties_consistent_balance</title>
<g id="a_node16"><a xlink:href="Crowdfunding.html#CrowdfundingProperties.consistent_balance" xlink:title="consistent_balance">
<ellipse fill="#f070d1" stroke="black" cx="123" cy="-683.01" rx="98.58" ry="18"/>
<text text-anchor="middle" x="123" y="-679.31" font-family="Times,serif" font-size="14.00">consistent_balance</text>
</a>
</g>
</g>
<!-- Crowdfunding_CrowdfundingProperties_contract_state_consistent&#45;&gt;Crowdfunding_CrowdfundingProperties_consistent_balance -->
<g id="edge18" class="edge">
<title>Crowdfunding_CrowdfundingProperties_contract_state_consistent&#45;&gt;Crowdfunding_CrowdfundingProperties_consistent_balance</title>
<path fill="none" stroke="black" d="M405.47,-1297C358.68,-1195.45 183.1,-814.43 135.16,-710.4"/>
<polygon fill="black" stroke="black" points="138.29,-708.83 130.93,-701.21 131.93,-711.76 138.29,-708.83"/>
</g>
<!-- Crowdfunding_CrowdfundingProperties_sum_map_sub_in -->
<g id="node19" class="node">
<title>Crowdfunding_CrowdfundingProperties_sum_map_sub_in</title>
<g id="a_node19"><a xlink:href="Crowdfunding.html#CrowdfundingProperties.sum_map_sub_in" xlink:title="sum_map_sub_in">
<ellipse fill="#7fffd4" stroke="black" cx="329" cy="-683.01" rx="89.08" ry="18"/>
<text text-anchor="middle" x="329" y="-679.31" font-family="Times,serif" font-size="14.00">sum_map_sub_in</text>
</a>
</g>
</g>
<!-- Crowdfunding_CrowdfundingProperties_contract_state_consistent&#45;&gt;Crowdfunding_CrowdfundingProperties_sum_map_sub_in -->
<g id="edge19" class="edge">
<title>Crowdfunding_CrowdfundingProperties_contract_state_consistent&#45;&gt;Crowdfunding_CrowdfundingProperties_sum_map_sub_in</title>
<path fill="none" stroke="black" d="M413.55,-1297C399.59,-1195.76 347.31,-816.73 332.77,-711.35"/>
<polygon fill="black" stroke="black" points="336.21,-710.64 331.37,-701.21 329.27,-711.6 336.21,-710.64"/>
</g>
<!-- Crowdfunding_CrowdfundingProperties_sum_map_add_not_in -->
<g id="node20" class="node">
<title>Crowdfunding_CrowdfundingProperties_sum_map_add_not_in</title>
<g id="a_node20"><a xlink:href="Crowdfunding.html#CrowdfundingProperties.sum_map_add_not_in" xlink:title="sum_map_add_not_in">
<ellipse fill="#7fffd4" stroke="black" cx="741" cy="-683.01" rx="108.58" ry="18"/>
<text text-anchor="middle" x="741" y="-679.31" font-family="Times,serif" font-size="14.00">sum_map_add_not_in</text>
</a>
</g>
</g>
<!-- Crowdfunding_CrowdfundingProperties_contract_state_consistent&#45;&gt;Crowdfunding_CrowdfundingProperties_sum_map_add_not_in -->
<g id="edge20" class="edge">
<title>Crowdfunding_CrowdfundingProperties_contract_state_consistent&#45;&gt;Crowdfunding_CrowdfundingProperties_sum_map_add_not_in</title>
<path fill="none" stroke="black" d="M429.7,-1297C481.27,-1195.45 674.77,-814.43 727.6,-710.4"/>
<polygon fill="black" stroke="black" points="730.86,-711.72 732.26,-701.21 724.62,-708.55 730.86,-711.72"/>
</g>
<!-- Crowdfunding_CrowdfundingProperties_sum_map_add_in -->
<g id="node21" class="node">
<title>Crowdfunding_CrowdfundingProperties_sum_map_add_in</title>
<g id="a_node21"><a xlink:href="Crowdfunding.html#CrowdfundingProperties.sum_map_add_in" xlink:title="sum_map_add_in">
<ellipse fill="#7fffd4" stroke="black" cx="525" cy="-683.01" rx="89.08" ry="18"/>
<text text-anchor="middle" x="525" y="-679.31" font-family="Times,serif" font-size="14.00">sum_map_add_in</text>
</a>
</g>
</g>
<!-- Crowdfunding_CrowdfundingProperties_contract_state_consistent&#45;&gt;Crowdfunding_CrowdfundingProperties_sum_map_add_in -->
<g id="edge21" class="edge">
<title>Crowdfunding_CrowdfundingProperties_contract_state_consistent&#45;&gt;Crowdfunding_CrowdfundingProperties_sum_map_add_in</title>
<path fill="none" stroke="black" d="M421.23,-1297C438.37,-1195.76 502.53,-816.73 520.37,-711.35"/>
<polygon fill="black" stroke="black" points="523.87,-711.66 522.09,-701.21 516.97,-710.49 523.87,-711.66"/>
</g>
<!-- Crowdfunding_CrowdfundingProperties_contract_state_consistent&#45;&gt;Crowdfunding_CrowdfundingProperties_assertion -->
<g id="edge22" class="edge">
<title>Crowdfunding_CrowdfundingProperties_contract_state_consistent&#45;&gt;Crowdfunding_CrowdfundingProperties_assertion</title>
<path fill="none" stroke="black" d="M491.58,-1301.09C695.8,-1241.48 1276.12,-1056.44 1685,-771.01 1710.05,-753.53 1733.58,-727.6 1749.15,-708.6"/>
<polygon fill="black" stroke="black" points="1751.98,-710.66 1755.51,-700.67 1746.52,-706.28 1751.98,-710.66"/>
</g>
<!-- Crowdfunding_CrowdfundingProperties_sum_map -->
<g id="node23" class="node">
<title>Crowdfunding_CrowdfundingProperties_sum_map</title>
<g id="a_node23"><a xlink:href="Crowdfunding.html#CrowdfundingProperties.sum_map" xlink:title="sum_map">
<ellipse fill="#f070d1" stroke="black" cx="633" cy="-263.01" rx="54.69" ry="18"/>
<text text-anchor="middle" x="633" y="-259.31" font-family="Times,serif" font-size="14.00">sum_map</text>
</a>
</g>
</g>
<!-- Crowdfunding_CrowdfundingProperties_consistent_balance&#45;&gt;Crowdfunding_CrowdfundingProperties_sum_map -->
<g id="edge23" class="edge">
<title>Crowdfunding_CrowdfundingProperties_consistent_balance&#45;&gt;Crowdfunding_CrowdfundingProperties_sum_map</title>
<path fill="none" stroke="black" d="M143.31,-665.37C222.98,-600.06 514.32,-361.28 605.52,-286.54"/>
<polygon fill="black" stroke="black" points="607.95,-289.07 613.46,-280.03 603.51,-283.66 607.95,-289.07"/>
</g>
<!-- Crowdfunding_CrowdfundingProperties_contract_backed -->
<g id="node17" class="node">
<title>Crowdfunding_CrowdfundingProperties_contract_backed</title>
<g id="a_node17"><a xlink:href="Crowdfunding.html#CrowdfundingProperties.contract_backed" xlink:title="contract_backed">
<ellipse fill="#7fffd4" stroke="black" cx="667" cy="-1323.01" rx="86.39" ry="18"/>
<ellipse fill="none" stroke="black" cx="667" cy="-1323.01" rx="90.39" ry="22"/>
<ellipse fill="none" stroke="black" cx="667" cy="-1323.01" rx="94.38" ry="26"/>
<text text-anchor="middle" x="667" y="-1319.31" font-family="Times,serif" font-size="14.00">contract_backed</text>
</a>
</g>
</g>
<!-- Crowdfunding_CrowdfundingProperties_contract_backed&#45;&gt;Crowdfunding_CrowdfundingContract_Receive_receive -->
<g id="edge24" class="edge">
<title>Crowdfunding_CrowdfundingProperties_contract_backed&#45;&gt;Crowdfunding_CrowdfundingContract_Receive_receive</title>
<path fill="none" stroke="black" d="M735.64,-1305.09C747.1,-1302.34 758.88,-1299.56 770,-1297.01 1850.47,-1049.37 2304.58,-1413.34 3208,-771.01 3228.96,-756.11 3243.21,-730.06 3251.61,-710.34"/>
<polygon fill="black" stroke="black" points="3254.89,-711.56 3255.37,-700.97 3248.4,-708.95 3254.89,-711.56"/>
</g>
<!-- Crowdfunding_CrowdfundingProperties_consistent_balance_deadline -->
<g id="node18" class="node">
<title>Crowdfunding_CrowdfundingProperties_consistent_balance_deadline</title>
<g id="a_node18"><a xlink:href="Crowdfunding.html#CrowdfundingProperties.consistent_balance_deadline" xlink:title="consistent_balance_deadline">
<ellipse fill="#f070d1" stroke="black" cx="1270" cy="-683.01" rx="142.17" ry="18"/>
<text text-anchor="middle" x="1270" y="-679.31" font-family="Times,serif" font-size="14.00">consistent_balance_deadline</text>
</a>
</g>
</g>
<!-- Crowdfunding_CrowdfundingProperties_contract_backed&#45;&gt;Crowdfunding_CrowdfundingProperties_consistent_balance_deadline -->
<g id="edge25" class="edge">
<title>Crowdfunding_CrowdfundingProperties_contract_backed&#45;&gt;Crowdfunding_CrowdfundingProperties_consistent_balance_deadline</title>
<path fill="none" stroke="black" d="M689.9,-1297.78C785.4,-1196.73 1151.41,-809.49 1247.03,-708.31"/>
<polygon fill="black" stroke="black" points="1249.62,-710.67 1253.95,-701 1244.53,-705.86 1249.62,-710.67"/>
</g>
<!-- Crowdfunding_CrowdfundingProperties_contract_backed&#45;&gt;Crowdfunding_CrowdfundingProperties_sum_map_add_not_in -->
<g id="edge26" class="edge">
<title>Crowdfunding_CrowdfundingProperties_contract_backed&#45;&gt;Crowdfunding_CrowdfundingProperties_sum_map_add_not_in</title>
<path fill="none" stroke="black" d="M669.9,-1297C681.64,-1195.76 725.61,-816.73 737.83,-711.35"/>
<polygon fill="black" stroke="black" points="741.33,-711.55 739,-701.21 734.38,-710.74 741.33,-711.55"/>
</g>
<!-- Crowdfunding_CrowdfundingProperties_contract_backed&#45;&gt;Crowdfunding_CrowdfundingProperties_sum_map_add_in -->
<g id="edge27" class="edge">
<title>Crowdfunding_CrowdfundingProperties_contract_backed&#45;&gt;Crowdfunding_CrowdfundingProperties_sum_map_add_in</title>
<path fill="none" stroke="black" d="M661.43,-1297C638.88,-1195.66 554.37,-815.97 531.01,-711.03"/>
<polygon fill="black" stroke="black" points="534.42,-710.22 528.83,-701.21 527.59,-711.74 534.42,-710.22"/>
</g>
<!-- Crowdfunding_CrowdfundingProperties_contract_backed&#45;&gt;Crowdfunding_CrowdfundingProperties_assertion -->
<g id="edge28" class="edge">
<title>Crowdfunding_CrowdfundingProperties_contract_backed&#45;&gt;Crowdfunding_CrowdfundingProperties_assertion</title>
<path fill="none" stroke="black" d="M718.25,-1301.13C873.3,-1236.58 1347.48,-1028.94 1685,-771.01 1709.13,-752.57 1732.64,-727 1748.44,-708.35"/>
<polygon fill="black" stroke="black" points="1751.21,-710.49 1754.92,-700.57 1745.83,-706.01 1751.21,-710.49"/>
</g>
<!-- Crowdfunding_CrowdfundingProperties_consistent_balance_deadline&#45;&gt;Crowdfunding_CrowdfundingProperties_sum_map -->
<g id="edge29" class="edge">
<title>Crowdfunding_CrowdfundingProperties_consistent_balance_deadline&#45;&gt;Crowdfunding_CrowdfundingProperties_sum_map</title>
<path fill="none" stroke="black" d="M1244.24,-665.11C1143.39,-598.93 775.52,-357.53 664.76,-284.85"/>
<polygon fill="black" stroke="black" points="666.62,-281.89 656.34,-279.33 662.78,-287.74 666.62,-281.89"/>
</g>
<!-- Crowdfunding_CrowdfundingProperties_deadline_passed -->
<g id="node36" class="node">
<title>Crowdfunding_CrowdfundingProperties_deadline_passed</title>
<g id="a_node36"><a xlink:href="Crowdfunding.html#CrowdfundingProperties.deadline_passed" xlink:title="deadline_passed">
<ellipse fill="#f070d1" stroke="black" cx="1555" cy="-263.01" rx="87.18" ry="18"/>
<text text-anchor="middle" x="1555" y="-259.31" font-family="Times,serif" font-size="14.00">deadline_passed</text>
</a>
</g>
</g>
<!-- Crowdfunding_CrowdfundingProperties_consistent_balance_deadline&#45;&gt;Crowdfunding_CrowdfundingProperties_deadline_passed -->
<g id="edge30" class="edge">
<title>Crowdfunding_CrowdfundingProperties_consistent_balance_deadline&#45;&gt;Crowdfunding_CrowdfundingProperties_deadline_passed</title>
<path fill="none" stroke="black" d="M1281.7,-664.85C1326.09,-599.74 1484.23,-367.81 1537.41,-289.82"/>
<polygon fill="black" stroke="black" points="1540.61,-291.32 1543.36,-281.09 1534.83,-287.38 1540.61,-291.32"/>
</g>
<!-- Crowdfunding_CrowdfundingProperties_sum_map_sub_in&#45;&gt;Crowdfunding_CrowdfundingProperties_sum_map -->
<g id="edge31" class="edge">
<title>Crowdfunding_CrowdfundingProperties_sum_map_sub_in&#45;&gt;Crowdfunding_CrowdfundingProperties_sum_map</title>
<path fill="none" stroke="black" d="M341.29,-665.11C388.57,-600.1 558.81,-366.02 614.92,-288.87"/>
<polygon fill="black" stroke="black" points="617.84,-290.81 620.89,-280.67 612.17,-286.7 617.84,-290.81"/>
</g>
<!-- Crowdfunding_CrowdfundingProperties_sum_map_add_not_in&#45;&gt;Crowdfunding_CrowdfundingProperties_sum_map -->
<g id="edge32" class="edge">
<title>Crowdfunding_CrowdfundingProperties_sum_map_add_not_in&#45;&gt;Crowdfunding_CrowdfundingProperties_sum_map</title>
<path fill="none" stroke="black" d="M736.56,-664.85C719.81,-600.01 660.31,-369.7 639.92,-290.78"/>
<polygon fill="black" stroke="black" points="643.3,-289.9 637.41,-281.09 636.53,-291.65 643.3,-289.9"/>
</g>
<!-- Crowdfunding_CrowdfundingProperties_sum_map_add_in&#45;&gt;Crowdfunding_CrowdfundingProperties_sum_map -->
<g id="edge33" class="edge">
<title>Crowdfunding_CrowdfundingProperties_sum_map_add_in&#45;&gt;Crowdfunding_CrowdfundingProperties_sum_map</title>
<path fill="none" stroke="black" d="M529.44,-664.85C546.19,-600.01 605.69,-369.7 626.08,-290.78"/>
<polygon fill="black" stroke="black" points="629.47,-291.65 628.59,-281.09 622.7,-289.9 629.47,-291.65"/>
</g>
<!-- Crowdfunding_CrowdfundingProperties_all_non_neg_sum_map -->
<g id="node22" class="node">
<title>Crowdfunding_CrowdfundingProperties_all_non_neg_sum_map</title>
<g id="a_node22"><a xlink:href="Crowdfunding.html#CrowdfundingProperties.all_non_neg_sum_map" xlink:title="all_non_neg_sum_map">
<ellipse fill="#7fffd4" stroke="black" cx="989" cy="-683.01" rx="113.17" ry="18"/>
<ellipse fill="none" stroke="black" cx="989" cy="-683.01" rx="117.18" ry="22"/>
<ellipse fill="none" stroke="black" cx="989" cy="-683.01" rx="121.18" ry="26"/>
<text text-anchor="middle" x="989" y="-679.31" font-family="Times,serif" font-size="14.00">all_non_neg_sum_map</text>
</a>
</g>
</g>
<!-- Crowdfunding_CrowdfundingProperties_all_non_neg_sum_map&#45;&gt;Crowdfunding_CrowdfundingProperties_sum_map -->
<g id="edge34" class="edge">
<title>Crowdfunding_CrowdfundingProperties_all_non_neg_sum_map&#45;&gt;Crowdfunding_CrowdfundingProperties_sum_map</title>
<path fill="none" stroke="black" d="M967.8,-657.12C904.38,-582.65 716.67,-362.25 653.79,-288.42"/>
<polygon fill="black" stroke="black" points="656.24,-285.9 647.09,-280.56 650.91,-290.44 656.24,-285.9"/>
</g>
<!-- Crowdfunding_CrowdfundingProperties_existing_donation_correct -->
<g id="node24" class="node">
<title>Crowdfunding_CrowdfundingProperties_existing_donation_correct</title>
<g id="a_node24"><a xlink:href="Crowdfunding.html#CrowdfundingProperties.existing_donation_correct" xlink:title="existing_donation_correct">
<ellipse fill="#7fffd4" stroke="black" cx="917" cy="-1323.01" rx="129.98" ry="18"/>
<ellipse fill="none" stroke="black" cx="917" cy="-1323.01" rx="133.98" ry="22"/>
<ellipse fill="none" stroke="black" cx="917" cy="-1323.01" rx="137.98" ry="26"/>
<text text-anchor="middle" x="917" y="-1319.31" font-family="Times,serif" font-size="14.00">existing_donation_correct</text>
</a>
</g>
</g>
<!-- Crowdfunding_CrowdfundingProperties_existing_donation_correct&#45;&gt;Crowdfunding_CrowdfundingContract_Receive_receive -->
<g id="edge35" class="edge">
<title>Crowdfunding_CrowdfundingProperties_existing_donation_correct&#45;&gt;Crowdfunding_CrowdfundingContract_Receive_receive</title>
<path fill="none" stroke="black" d="M1010.83,-1303.87C1418.47,-1224.46 3023.49,-905.49 3208,-771.01 3228.79,-755.86 3243.06,-729.85 3251.51,-710.2"/>
<polygon fill="black" stroke="black" points="3254.78,-711.46 3255.3,-700.87 3248.3,-708.82 3254.78,-711.46"/>
</g>
<!-- Crowdfunding_CrowdfundingProperties_existing_donation_correct&#45;&gt;Crowdfunding_CrowdfundingProperties_assertion -->
<g id="edge36" class="edge">
<title>Crowdfunding_CrowdfundingProperties_existing_donation_correct&#45;&gt;Crowdfunding_CrowdfundingProperties_assertion</title>
<path fill="none" stroke="black" d="M955.63,-1297.98C1071.4,-1225.19 1423.69,-998.18 1685,-771.01 1707.54,-751.41 1730.81,-726.54 1746.96,-708.42"/>
<polygon fill="black" stroke="black" points="1749.86,-710.42 1753.85,-700.61 1744.61,-705.79 1749.86,-710.42"/>
</g>
<!-- Crowdfunding_CrowdfundingProperties_not_ltb -->
<g id="node32" class="node">
<title>Crowdfunding_CrowdfundingProperties_not_ltb</title>
<g id="a_node32"><a xlink:href="Crowdfunding.html#CrowdfundingProperties.not_ltb" xlink:title="not_ltb">
<ellipse fill="#7fffd4" stroke="black" cx="1493" cy="-683.01" rx="42.79" ry="18"/>
<text text-anchor="middle" x="1493" y="-679.31" font-family="Times,serif" font-size="14.00">not_ltb</text>
</a>
</g>
</g>
<!-- Crowdfunding_CrowdfundingProperties_existing_donation_correct&#45;&gt;Crowdfunding_CrowdfundingProperties_not_ltb -->
<g id="edge37" class="edge">
<title>Crowdfunding_CrowdfundingProperties_existing_donation_correct&#45;&gt;Crowdfunding_CrowdfundingProperties_not_ltb</title>
<path fill="none" stroke="black" d="M943.27,-1297.37C1022.49,-1222.42 1264.1,-989 1436,-771.01 1451.62,-751.21 1467.16,-727.12 1478.06,-709.32"/>
<polygon fill="black" stroke="black" points="1481.13,-711 1483.31,-700.63 1475.14,-707.38 1481.13,-711"/>
</g>
<!-- Crowdfunding_CrowdfundingProperties_existing_donation_correct&#45;&gt;Crowdfunding_CrowdfundingProperties_deadline_passed -->
<g id="edge38" class="edge">
<title>Crowdfunding_CrowdfundingProperties_existing_donation_correct&#45;&gt;Crowdfunding_CrowdfundingProperties_deadline_passed</title>
<path fill="none" stroke="black" d="M950.1,-1297.51C1042.27,-1227.27 1302.88,-1014.5 1421,-771.01 1444.98,-721.58 1428.73,-702.57 1441,-649.01 1472.27,-512.52 1524.66,-353.18 1545.77,-290.89"/>
<polygon fill="black" stroke="black" points="1549.2,-291.67 1549.11,-281.08 1542.57,-289.41 1549.2,-291.67"/>
</g>
<!-- Crowdfunding_CrowdfundingProperties_new_donation_correct -->
<g id="node25" class="node">
<title>Crowdfunding_CrowdfundingProperties_new_donation_correct</title>
<g id="a_node25"><a xlink:href="Crowdfunding.html#CrowdfundingProperties.new_donation_correct" xlink:title="new_donation_correct">
<ellipse fill="#7fffd4" stroke="black" cx="1193" cy="-1323.01" rx="112.38" ry="18"/>
<ellipse fill="none" stroke="black" cx="1193" cy="-1323.01" rx="116.38" ry="22"/>
<ellipse fill="none" stroke="black" cx="1193" cy="-1323.01" rx="120.38" ry="26"/>
<text text-anchor="middle" x="1193" y="-1319.31" font-family="Times,serif" font-size="14.00">new_donation_correct</text>
</a>
</g>
</g>
<!-- Crowdfunding_CrowdfundingProperties_new_donation_correct&#45;&gt;Crowdfunding_CrowdfundingContract_Receive_receive -->
<g id="edge39" class="edge">
<title>Crowdfunding_CrowdfundingProperties_new_donation_correct&#45;&gt;Crowdfunding_CrowdfundingContract_Receive_receive</title>
<path fill="none" stroke="black" d="M1273.76,-1303.65C1629.46,-1222.3 3046.01,-892.95 3208,-771.01 3228.43,-755.63 3242.69,-729.88 3251.23,-710.37"/>
<polygon fill="black" stroke="black" points="3254.48,-711.68 3255.07,-701.1 3248.01,-709 3254.48,-711.68"/>
</g>
<!-- Crowdfunding_CrowdfundingProperties_new_donation_correct&#45;&gt;Crowdfunding_CrowdfundingProperties_assertion -->
<g id="edge40" class="edge">
<title>Crowdfunding_CrowdfundingProperties_new_donation_correct&#45;&gt;Crowdfunding_CrowdfundingProperties_assertion</title>
<path fill="none" stroke="black" d="M1215.19,-1297.39C1306.92,-1195.61 1655.98,-808.31 1746.47,-707.9"/>
<polygon fill="black" stroke="black" points="1749.15,-710.16 1753.24,-700.39 1743.95,-705.47 1749.15,-710.16"/>
</g>
<!-- Crowdfunding_CrowdfundingProperties_new_donation_correct&#45;&gt;Crowdfunding_CrowdfundingProperties_not_ltb -->
<g id="edge41" class="edge">
<title>Crowdfunding_CrowdfundingProperties_new_donation_correct&#45;&gt;Crowdfunding_CrowdfundingProperties_not_ltb</title>
<path fill="none" stroke="black" d="M1204.76,-1297C1252.56,-1195.34 1432.07,-813.6 1480.75,-710.06"/>
<polygon fill="black" stroke="black" points="1483.96,-711.46 1485.05,-700.92 1477.62,-708.48 1483.96,-711.46"/>
</g>
<!-- Crowdfunding_CrowdfundingProperties_new_donation_correct&#45;&gt;Crowdfunding_CrowdfundingProperties_deadline_passed -->
<g id="edge42" class="edge">
<title>Crowdfunding_CrowdfundingProperties_new_donation_correct&#45;&gt;Crowdfunding_CrowdfundingProperties_deadline_passed</title>
<path fill="none" stroke="black" d="M1216.08,-1297.39C1282.84,-1224.31 1475.82,-999.43 1545,-771.01 1572.5,-680.23 1560.79,-383.04 1556.39,-291.26"/>
<polygon fill="black" stroke="black" points="1559.88,-290.93 1555.9,-281.11 1552.89,-291.27 1559.88,-290.93"/>
</g>
<!-- Crowdfunding_CrowdfundingProperties_get_money_back_guarantee -->
<g id="node26" class="node">
<title>Crowdfunding_CrowdfundingProperties_get_money_back_guarantee</title>
<g id="a_node26"><a xlink:href="Crowdfunding.html#CrowdfundingProperties.get_money_back_guarantee" xlink:title="get_money_back_guarantee">
<ellipse fill="#7fffd4" stroke="black" cx="1478" cy="-1323.01" rx="138.38" ry="18"/>
<ellipse fill="none" stroke="black" cx="1478" cy="-1323.01" rx="142.38" ry="22"/>
<ellipse fill="none" stroke="black" cx="1478" cy="-1323.01" rx="146.38" ry="26"/>
<text text-anchor="middle" x="1478" y="-1319.31" font-family="Times,serif" font-size="14.00">get_money_back_guarantee</text>
</a>
</g>
</g>
<!-- Crowdfunding_CrowdfundingProperties_get_money_back_guarantee&#45;&gt;Crowdfunding_CrowdfundingContract_Receive_receive -->
<g id="edge43" class="edge">
<title>Crowdfunding_CrowdfundingProperties_get_money_back_guarantee&#45;&gt;Crowdfunding_CrowdfundingContract_Receive_receive</title>
<path fill="none" stroke="black" d="M1567.22,-1302.32C1882.41,-1231.44 2939,-982.38 3208,-771.01 3228.01,-755.29 3242.27,-729.75 3250.93,-710.4"/>
<polygon fill="black" stroke="black" points="3254.26,-711.5 3254.94,-700.93 3247.82,-708.77 3254.26,-711.5"/>
</g>
<!-- Crowdfunding_CrowdfundingProperties_get_money_back_guarantee&#45;&gt;Crowdfunding_CrowdfundingProperties_assertion -->
<g id="edge44" class="edge">
<title>Crowdfunding_CrowdfundingProperties_get_money_back_guarantee&#45;&gt;Crowdfunding_CrowdfundingProperties_assertion</title>
<path fill="none" stroke="black" d="M1489.37,-1297C1535.58,-1195.34 1709.1,-813.6 1756.16,-710.06"/>
<polygon fill="black" stroke="black" points="1759.36,-711.48 1760.31,-700.92 1752.99,-708.58 1759.36,-711.48"/>
</g>
<!-- Crowdfunding_CrowdfundingProperties_Znot_leb -->
<g id="node31" class="node">
<title>Crowdfunding_CrowdfundingProperties_Znot_leb</title>
<g id="a_node31"><a xlink:href="Crowdfunding.html#CrowdfundingProperties.Znot_leb" xlink:title="Znot_leb">
<ellipse fill="#7fffd4" stroke="black" cx="1625" cy="-683.01" rx="50.89" ry="18"/>
<text text-anchor="middle" x="1625" y="-679.31" font-family="Times,serif" font-size="14.00">Znot_leb</text>
</a>
</g>
</g>
<!-- Crowdfunding_CrowdfundingProperties_get_money_back_guarantee&#45;&gt;Crowdfunding_CrowdfundingProperties_Znot_leb -->
<g id="edge45" class="edge">
<title>Crowdfunding_CrowdfundingProperties_get_money_back_guarantee&#45;&gt;Crowdfunding_CrowdfundingProperties_Znot_leb</title>
<path fill="none" stroke="black" d="M1483.76,-1297C1507.11,-1195.66 1594.6,-815.97 1618.77,-711.03"/>
<polygon fill="black" stroke="black" points="1622.2,-711.74 1621.04,-701.21 1615.38,-710.17 1622.2,-711.74"/>
</g>
<!-- Crowdfunding_CrowdfundingProperties_goal_reached -->
<g id="node35" class="node">
<title>Crowdfunding_CrowdfundingProperties_goal_reached</title>
<g id="a_node35"><a xlink:href="Crowdfunding.html#CrowdfundingProperties.goal_reached" xlink:title="goal_reached">
<ellipse fill="#f070d1" stroke="black" cx="1893" cy="-263.01" rx="71.49" ry="18"/>
<text text-anchor="middle" x="1893" y="-259.31" font-family="Times,serif" font-size="14.00">goal_reached</text>
</a>
</g>
</g>
<!-- Crowdfunding_CrowdfundingProperties_get_money_back_guarantee&#45;&gt;Crowdfunding_CrowdfundingProperties_goal_reached -->
<g id="edge46" class="edge">
<title>Crowdfunding_CrowdfundingProperties_get_money_back_guarantee&#45;&gt;Crowdfunding_CrowdfundingProperties_goal_reached</title>
<path fill="none" stroke="black" d="M1500.04,-1297.04C1563.96,-1222.99 1750.05,-995.74 1831,-771.01 1839.23,-748.17 1878.76,-393.31 1890.01,-291.26"/>
<polygon fill="black" stroke="black" points="1893.51,-291.47 1891.12,-281.14 1886.55,-290.7 1893.51,-291.47"/>
</g>
<!-- Crowdfunding_CrowdfundingProperties_get_money_back_guarantee&#45;&gt;Crowdfunding_CrowdfundingProperties_deadline_passed -->
<g id="edge47" class="edge">
<title>Crowdfunding_CrowdfundingProperties_get_money_back_guarantee&#45;&gt;Crowdfunding_CrowdfundingProperties_deadline_passed</title>
<path fill="none" stroke="black" d="M1494.72,-1296.94C1551.01,-1209.55 1727.8,-909.56 1685,-649.01 1662.03,-509.21 1595.1,-351.83 1567.31,-290.48"/>
<polygon fill="black" stroke="black" points="1570.39,-288.78 1563.05,-281.14 1564.02,-291.69 1570.39,-288.78"/>
</g>
<!-- Crowdfunding_CrowdfundingProperties_run -->
<g id="node28" class="node">
<title>Crowdfunding_CrowdfundingProperties_run</title>
<g id="a_node28"><a xlink:href="Crowdfunding.html#CrowdfundingProperties.run" xlink:title="run">
<ellipse fill="#f070d1" stroke="black" cx="1768" cy="-263.01" rx="27" ry="18"/>
<text text-anchor="middle" x="1768" y="-259.31" font-family="Times,serif" font-size="14.00">run</text>
</a>
</g>
</g>
<!-- Crowdfunding_CrowdfundingProperties_assertion&#45;&gt;Crowdfunding_CrowdfundingProperties_run -->
<g id="edge48" class="edge">
<title>Crowdfunding_CrowdfundingProperties_assertion&#45;&gt;Crowdfunding_CrowdfundingProperties_run</title>
<path fill="none" stroke="black" d="M1768,-664.85C1768,-600.14 1768,-370.64 1768,-291.26"/>
<polygon fill="black" stroke="black" points="1771.5,-291.09 1768,-281.09 1764.5,-291.09 1771.5,-291.09"/>
</g>
<!-- Crowdfunding_CrowdfundingProperties_receive_blockchain_state -->
<g id="node29" class="node">
<title>Crowdfunding_CrowdfundingProperties_receive_blockchain_state</title>
<g id="a_node29"><a xlink:href="Crowdfunding.html#CrowdfundingProperties.receive_blockchain_state" xlink:title="receive_blockchain_state">
<ellipse fill="#7fffd4" stroke="black" cx="2867" cy="-1323.01" rx="126.17" ry="18"/>
<ellipse fill="none" stroke="black" cx="2867" cy="-1323.01" rx="130.18" ry="22"/>
<ellipse fill="none" stroke="black" cx="2867" cy="-1323.01" rx="134.18" ry="26"/>
<text text-anchor="middle" x="2867" y="-1319.31" font-family="Times,serif" font-size="14.00">receive_blockchain_state</text>
</a>
</g>
</g>
<!-- Crowdfunding_CrowdfundingProperties_receive_blockchain_state&#45;&gt;Crowdfunding_CrowdfundingContract_Receive_receive -->
<g id="edge49" class="edge">
<title>Crowdfunding_CrowdfundingProperties_receive_blockchain_state&#45;&gt;Crowdfunding_CrowdfundingContract_Receive_receive</title>
<path fill="none" stroke="black" d="M2882.53,-1297.06C2930.89,-1219.32 3083.06,-974.49 3208,-771.01 3220.65,-750.41 3234.9,-727.01 3245.44,-709.66"/>
<polygon fill="black" stroke="black" points="3248.68,-711.08 3250.87,-700.71 3242.69,-707.44 3248.68,-711.08"/>
</g>
<!-- Crowdfunding_CrowdfundingProperties_Znot_ltb -->
<g id="node30" class="node">
<title>Crowdfunding_CrowdfundingProperties_Znot_ltb</title>
<g id="a_node30"><a xlink:href="Crowdfunding.html#CrowdfundingProperties.Znot_ltb" xlink:title="Znot_ltb">
<ellipse fill="#7fffd4" stroke="black" cx="204" cy="-1323.01" rx="49.31" ry="18"/>
<ellipse fill="none" stroke="black" cx="204" cy="-1323.01" rx="53.3" ry="22"/>
<ellipse fill="none" stroke="black" cx="204" cy="-1323.01" rx="57.29" ry="26"/>
<text text-anchor="middle" x="204" y="-1319.31" font-family="Times,serif" font-size="14.00">Znot_ltb</text>
</a>
</g>
</g>
<!-- Crowdfunding_CrowdfundingProperties_not_leb -->
<g id="node33" class="node">
<title>Crowdfunding_CrowdfundingProperties_not_leb</title>
<g id="a_node33"><a xlink:href="Crowdfunding.html#CrowdfundingProperties.not_leb" xlink:title="not_leb">
<ellipse fill="#7fffd4" stroke="black" cx="76" cy="-1323.01" rx="44.36" ry="18"/>
<ellipse fill="none" stroke="black" cx="76" cy="-1323.01" rx="48.38" ry="22"/>
<ellipse fill="none" stroke="black" cx="76" cy="-1323.01" rx="52.39" ry="26"/>
<text text-anchor="middle" x="76" y="-1319.31" font-family="Times,serif" font-size="14.00">not_leb</text>
</a>
</g>
</g>
<!-- Crowdfunding_CrowdfundingProperties_funded&#45;&gt;Crowdfunding_CrowdfundingProperties_goal_reached -->
<g id="edge50" class="edge">
<title>Crowdfunding_CrowdfundingProperties_funded&#45;&gt;Crowdfunding_CrowdfundingProperties_goal_reached</title>
<path fill="none" stroke="black" d="M1902.59,-664.85C1901.04,-600.14 1895.55,-370.64 1893.65,-291.26"/>
<polygon fill="black" stroke="black" points="1897.15,-291 1893.41,-281.09 1890.15,-291.17 1897.15,-291"/>
</g>
<!-- Crowdfunding_CrowdfundingProperties_funded&#45;&gt;Crowdfunding_CrowdfundingProperties_deadline_passed -->
<g id="edge51" class="edge">
<title>Crowdfunding_CrowdfundingProperties_funded&#45;&gt;Crowdfunding_CrowdfundingProperties_deadline_passed</title>
<path fill="none" stroke="black" d="M1889.57,-665.88C1836.42,-602.04 1640.54,-366.76 1575.87,-289.08"/>
<polygon fill="black" stroke="black" points="1578.43,-286.68 1569.34,-281.23 1573.05,-291.16 1578.43,-286.68"/>
</g>
</g>
</svg>
