<?xml version="1.0" encoding="UTF-8" standalone="no"?>
<!DOCTYPE svg PUBLIC "-//W3C//DTD SVG 1.1//EN"
 "http://www.w3.org/Graphics/SVG/1.1/DTD/svg11.dtd">
<!-- Generated by graphviz version 2.43.0 (0)
 -->
<!-- Title: Counter Pages: 1 -->
<svg width="1214pt" height="611pt"
 viewBox="0.00 0.00 1214.00 611.00" xmlns="http://www.w3.org/2000/svg" xmlns:xlink="http://www.w3.org/1999/xlink">
<g id="graph0" class="graph" transform="scale(1 1) rotate(0) translate(4 607)">
<title>Counter</title>
<polygon fill="white" stroke="transparent" points="-4,4 -4,-607 1210,-607 1210,4 -4,4"/>
<g id="clust1" class="cluster">
<title>cluster_Counter</title>
<polygon fill="#ffffc3" stroke="black" points="9.39,-8 9.39,-595 1196.61,-595 1196.61,-8 9.39,-8"/>
<text text-anchor="middle" x="46.39" y="-579.8" font-family="Times,serif" font-size="14.00">Counter</text>
</g>
<!-- Counter_counter_safe -->
<g id="node1" class="node">
<title>Counter_counter_safe</title>
<g id="a_node1"><a xlink:href="Counter.html#counter_safe" xlink:title="counter_safe">
<ellipse fill="#7fffd4" stroke="black" cx="534.21" cy="-538" rx="69.58" ry="18"/>
<ellipse fill="none" stroke="black" cx="534.21" cy="-538" rx="73.59" ry="22"/>
<ellipse fill="none" stroke="black" cx="534.21" cy="-538" rx="77.59" ry="26"/>
<text text-anchor="middle" x="534.21" y="-534.3" font-family="Times,serif" font-size="14.00">counter_safe</text>
</a>
</g>
</g>
<!-- Counter_sum_inc_dec -->
<g id="node2" class="node">
<title>Counter_sum_inc_dec</title>
<g id="a_node2"><a xlink:href="Counter.html#sum_inc_dec" xlink:title="sum_inc_dec">
<ellipse fill="#f070d1" stroke="black" cx="406.21" cy="-458" rx="68.79" ry="18"/>
<text text-anchor="middle" x="406.21" y="-454.3" font-family="Times,serif" font-size="14.00">sum_inc_dec</text>
</a>
</g>
</g>
<!-- Counter_counter_safe&#45;&gt;Counter_sum_inc_dec -->
<g id="edge1" class="edge">
<title>Counter_counter_safe&#45;&gt;Counter_sum_inc_dec</title>
<path fill="none" stroke="black" d="M497.87,-514.86C480,-503.96 458.56,-490.9 440.91,-480.14"/>
<polygon fill="black" stroke="black" points="442.42,-476.97 432.06,-474.76 438.78,-482.95 442.42,-476.97"/>
</g>
<!-- Counter_receive_produces_no_calls -->
<g id="node3" class="node">
<title>Counter_receive_produces_no_calls</title>
<g id="a_node3"><a xlink:href="Counter.html#receive_produces_no_calls" xlink:title="receive_produces_no_calls">
<ellipse fill="#7fffd4" stroke="black" cx="663.21" cy="-458" rx="131.88" ry="18"/>
<text text-anchor="middle" x="663.21" y="-454.3" font-family="Times,serif" font-size="14.00">receive_produces_no_calls</text>
</a>
</g>
</g>
<!-- Counter_counter_safe&#45;&gt;Counter_receive_produces_no_calls -->
<g id="edge2" class="edge">
<title>Counter_counter_safe&#45;&gt;Counter_receive_produces_no_calls</title>
<path fill="none" stroke="black" d="M570.83,-514.86C588.34,-504.27 609.24,-491.63 626.73,-481.06"/>
<polygon fill="black" stroke="black" points="628.78,-483.91 635.53,-475.74 625.16,-477.92 628.78,-483.91"/>
</g>
<!-- Counter_counter_correct -->
<g id="node5" class="node">
<title>Counter_counter_correct</title>
<g id="a_node5"><a xlink:href="Counter.html#counter_correct" xlink:title="counter_correct">
<ellipse fill="#7fffd4" stroke="black" cx="117.21" cy="-378" rx="83.69" ry="18"/>
<text text-anchor="middle" x="117.21" y="-374.3" font-family="Times,serif" font-size="14.00">counter_correct</text>
</a>
</g>
</g>
<!-- Counter_counter_safe&#45;&gt;Counter_counter_correct -->
<g id="edge3" class="edge">
<title>Counter_counter_safe&#45;&gt;Counter_counter_correct</title>
<path fill="none" stroke="black" d="M473.97,-521.61C432.49,-510.41 376.39,-494.1 328.21,-476 267.16,-453.06 199.01,-420.38 157.11,-399.43"/>
<polygon fill="black" stroke="black" points="158.58,-396.25 148.07,-394.89 155.44,-402.5 158.58,-396.25"/>
</g>
<!-- Counter_counter_contract -->
<g id="node6" class="node">
<title>Counter_counter_contract</title>
<g id="a_node6"><a xlink:href="Counter.html#counter_contract" xlink:title="counter_contract">
<ellipse fill="#f070d1" stroke="black" cx="944.21" cy="-458" rx="89.08" ry="18"/>
<text text-anchor="middle" x="944.21" y="-454.3" font-family="Times,serif" font-size="14.00">counter_contract</text>
</a>
</g>
</g>
<!-- Counter_counter_safe&#45;&gt;Counter_counter_contract -->
<g id="edge4" class="edge">
<title>Counter_counter_safe&#45;&gt;Counter_counter_contract</title>
<path fill="none" stroke="black" d="M600.54,-524.38C674.83,-510.25 794.85,-487.41 871.61,-472.81"/>
<polygon fill="black" stroke="black" points="872.5,-476.2 881.67,-470.9 871.2,-469.33 872.5,-476.2"/>
</g>
<!-- Counter_opt_msg_to_number -->
<g id="node4" class="node">
<title>Counter_opt_msg_to_number</title>
<g id="a_node4"><a xlink:href="Counter.html#opt_msg_to_number" xlink:title="opt_msg_to_number">
<ellipse fill="#f070d1" stroke="black" cx="543.21" cy="-378" rx="103.98" ry="18"/>
<text text-anchor="middle" x="543.21" y="-374.3" font-family="Times,serif" font-size="14.00">opt_msg_to_number</text>
</a>
</g>
</g>
<!-- Counter_sum_inc_dec&#45;&gt;Counter_opt_msg_to_number -->
<g id="edge5" class="edge">
<title>Counter_sum_inc_dec&#45;&gt;Counter_opt_msg_to_number</title>
<path fill="none" stroke="black" d="M433.6,-441.4C454.28,-429.63 482.9,-413.34 505.7,-400.35"/>
<polygon fill="black" stroke="black" points="507.49,-403.37 514.45,-395.38 504.02,-397.28 507.49,-403.37"/>
</g>
<!-- Counter_counter_receive -->
<g id="node10" class="node">
<title>Counter_counter_receive</title>
<g id="a_node10"><a xlink:href="Counter.html#counter_receive" xlink:title="counter_receive">
<ellipse fill="#f070d1" stroke="black" cx="823.21" cy="-378" rx="84.49" ry="18"/>
<text text-anchor="middle" x="823.21" y="-374.3" font-family="Times,serif" font-size="14.00">counter_receive</text>
</a>
</g>
</g>
<!-- Counter_receive_produces_no_calls&#45;&gt;Counter_counter_receive -->
<g id="edge6" class="edge">
<title>Counter_receive_produces_no_calls&#45;&gt;Counter_counter_receive</title>
<path fill="none" stroke="black" d="M697.14,-440.46C721.81,-428.43 755.36,-412.08 781.64,-399.27"/>
<polygon fill="black" stroke="black" points="783.51,-402.25 790.96,-394.72 780.44,-395.96 783.51,-402.25"/>
</g>
<!-- Counter_Msg -->
<g id="node20" class="node">
<title>Counter_Msg</title>
<g id="a_node20"><a xlink:href="Counter.html#Msg" xlink:title="Msg">
<ellipse fill="#e2cdfa" stroke="black" cx="505.21" cy="-202" rx="30.59" ry="18"/>
<text text-anchor="middle" x="505.21" y="-198.3" font-family="Times,serif" font-size="14.00">Msg</text>
</a>
</g>
</g>
<!-- Counter_opt_msg_to_number&#45;&gt;Counter_Msg -->
<g id="edge7" class="edge">
<title>Counter_opt_msg_to_number&#45;&gt;Counter_Msg</title>
<path fill="none" stroke="black" d="M614.56,-364.83C666.41,-354.37 730.18,-337.56 746.21,-316 760,-297.46 760.88,-281.86 746.21,-264 693.87,-200.29 643.03,-252.21 564.21,-228 555.32,-225.27 545.95,-221.66 537.36,-218.03"/>
<polygon fill="black" stroke="black" points="538.62,-214.77 528.06,-213.98 535.83,-221.18 538.62,-214.77"/>
</g>
<!-- Counter_counter -->
<g id="node11" class="node">
<title>Counter_counter</title>
<g id="a_node11"><a xlink:href="Counter.html#counter" xlink:title="counter">
<ellipse fill="#f070d1" stroke="black" cx="845.21" cy="-290" rx="46.29" ry="18"/>
<text text-anchor="middle" x="845.21" y="-286.3" font-family="Times,serif" font-size="14.00">counter</text>
</a>
</g>
</g>
<!-- Counter_counter_correct&#45;&gt;Counter_counter -->
<g id="edge8" class="edge">
<title>Counter_counter_correct&#45;&gt;Counter_counter</title>
<path fill="none" stroke="black" d="M171.45,-364.19C192.23,-359.71 216.22,-355.04 238.21,-352 462.42,-321.03 522.72,-351.85 746.21,-316 763.89,-313.16 783.04,-308.67 799.74,-304.27"/>
<polygon fill="black" stroke="black" points="801.04,-307.55 809.78,-301.56 799.22,-300.79 801.04,-307.55"/>
</g>
<!-- Counter_Dec -->
<g id="node18" class="node">
<title>Counter_Dec</title>
<g id="a_node18"><a xlink:href="Counter.html#Dec" xlink:title="Dec">
<ellipse fill="#7faaff" stroke="black" cx="317.21" cy="-202" rx="28.7" ry="18"/>
<text text-anchor="middle" x="317.21" y="-198.3" font-family="Times,serif" font-size="14.00">Dec</text>
</a>
</g>
</g>
<!-- Counter_counter_correct&#45;&gt;Counter_Dec -->
<g id="edge9" class="edge">
<title>Counter_counter_correct&#45;&gt;Counter_Dec</title>
<path fill="none" stroke="black" d="M84.64,-361.19C67.43,-350.92 47.91,-335.75 38.21,-316 28.02,-295.26 23.23,-281.6 38.21,-264 70.75,-225.78 213.11,-242.35 261.21,-228 269.72,-225.46 278.62,-221.93 286.76,-218.31"/>
<polygon fill="black" stroke="black" points="288.29,-221.46 295.9,-214.08 285.36,-215.1 288.29,-221.46"/>
</g>
<!-- Counter_Inc -->
<g id="node19" class="node">
<title>Counter_Inc</title>
<g id="a_node19"><a xlink:href="Counter.html#Inc" xlink:title="Inc">
<ellipse fill="#7faaff" stroke="black" cx="404.21" cy="-202" rx="27" ry="18"/>
<text text-anchor="middle" x="404.21" y="-198.3" font-family="Times,serif" font-size="14.00">Inc</text>
</a>
</g>
</g>
<!-- Counter_counter_correct&#45;&gt;Counter_Inc -->
<g id="edge10" class="edge">
<title>Counter_counter_correct&#45;&gt;Counter_Inc</title>
<path fill="none" stroke="black" d="M99.22,-360.32C75.8,-336.62 40.71,-292.88 66.21,-264 109.05,-215.49 293.34,-246.99 355.21,-228 362.08,-225.89 369.14,-222.86 375.7,-219.64"/>
<polygon fill="black" stroke="black" points="377.61,-222.59 384.85,-214.85 374.36,-216.38 377.61,-222.59"/>
</g>
<!-- Counter_Msg_serializable -->
<g id="node7" class="node">
<title>Counter_Msg_serializable</title>
<g id="a_node7"><a xlink:href="Counter.html#Msg_serializable" xlink:title="Msg_serializable">
<ellipse fill="#f070d1" stroke="black" cx="317.21" cy="-290" rx="88.28" ry="18"/>
<text text-anchor="middle" x="317.21" y="-286.3" font-family="Times,serif" font-size="14.00">Msg_serializable</text>
</a>
</g>
</g>
<!-- Counter_counter_contract&#45;&gt;Counter_Msg_serializable -->
<g id="edge11" class="edge">
<title>Counter_counter_contract&#45;&gt;Counter_Msg_serializable</title>
<path fill="none" stroke="black" d="M875.07,-446.58C832.06,-438.49 776.36,-425.03 730.21,-404 693.63,-387.33 693.39,-367.28 656.21,-352 567.41,-315.5 537.64,-333.34 443.21,-316 425.07,-312.67 405.51,-308.88 387.33,-305.28"/>
<polygon fill="black" stroke="black" points="387.88,-301.82 377.39,-303.3 386.51,-308.69 387.88,-301.82"/>
</g>
<!-- Counter_State_serializable -->
<g id="node8" class="node">
<title>Counter_State_serializable</title>
<g id="a_node8"><a xlink:href="Counter.html#State_serializable" xlink:title="State_serializable">
<ellipse fill="#f070d1" stroke="black" cx="902.21" cy="-114" rx="92.88" ry="18"/>
<text text-anchor="middle" x="902.21" y="-110.3" font-family="Times,serif" font-size="14.00">State_serializable</text>
</a>
</g>
</g>
<!-- Counter_counter_contract&#45;&gt;Counter_State_serializable -->
<g id="edge12" class="edge">
<title>Counter_counter_contract&#45;&gt;Counter_State_serializable</title>
<path fill="none" stroke="black" d="M942.07,-439.57C935.24,-384 913.96,-210.67 905.61,-142.72"/>
<polygon fill="black" stroke="black" points="909.04,-141.89 904.35,-132.39 902.09,-142.75 909.04,-141.89"/>
</g>
<!-- Counter_counter_init -->
<g id="node9" class="node">
<title>Counter_counter_init</title>
<g id="a_node9"><a xlink:href="Counter.html#counter_init" xlink:title="counter_init">
<ellipse fill="#f070d1" stroke="black" cx="1109.21" cy="-114" rx="66.09" ry="18"/>
<text text-anchor="middle" x="1109.21" y="-110.3" font-family="Times,serif" font-size="14.00">counter_init</text>
</a>
</g>
</g>
<!-- Counter_counter_contract&#45;&gt;Counter_counter_init -->
<g id="edge13" class="edge">
<title>Counter_counter_contract&#45;&gt;Counter_counter_init</title>
<path fill="none" stroke="black" d="M952.39,-440.04C979.17,-384.54 1064.3,-208.09 1096.61,-141.12"/>
<polygon fill="black" stroke="black" points="1099.78,-142.59 1100.98,-132.06 1093.48,-139.55 1099.78,-142.59"/>
</g>
<!-- Counter_counter_contract&#45;&gt;Counter_counter_receive -->
<g id="edge14" class="edge">
<title>Counter_counter_contract&#45;&gt;Counter_counter_receive</title>
<path fill="none" stroke="black" d="M918.84,-440.65C900.94,-429.1 876.74,-413.51 857.17,-400.89"/>
<polygon fill="black" stroke="black" points="858.84,-397.81 848.54,-395.33 855.05,-403.69 858.84,-397.81"/>
</g>
<!-- Counter_Msg_serializable&#45;&gt;Counter_Dec -->
<g id="edge15" class="edge">
<title>Counter_Msg_serializable&#45;&gt;Counter_Dec</title>
<path fill="none" stroke="black" d="M317.21,-271.6C317.21,-259.75 317.21,-243.82 317.21,-230.29"/>
<polygon fill="black" stroke="black" points="320.71,-230.08 317.21,-220.08 313.71,-230.08 320.71,-230.08"/>
</g>
<!-- Counter_Msg_serializable&#45;&gt;Counter_Inc -->
<g id="edge16" class="edge">
<title>Counter_Msg_serializable&#45;&gt;Counter_Inc</title>
<path fill="none" stroke="black" d="M334.4,-272.01C348.15,-258.42 367.51,-239.28 382.36,-224.6"/>
<polygon fill="black" stroke="black" points="385,-226.91 389.66,-217.39 380.08,-221.93 385,-226.91"/>
</g>
<!-- Counter_Msg_serializable&#45;&gt;Counter_Msg -->
<g id="edge17" class="edge">
<title>Counter_Msg_serializable&#45;&gt;Counter_Msg</title>
<path fill="none" stroke="black" d="M351.69,-273.23C386.13,-257.47 438.69,-233.43 472.5,-217.96"/>
<polygon fill="black" stroke="black" points="474.29,-220.99 481.92,-213.65 471.37,-214.63 474.29,-220.99"/>
</g>
<!-- Counter_build_state -->
<g id="node27" class="node">
<title>Counter_build_state</title>
<g id="a_node27"><a xlink:href="Counter.html#build_state" xlink:title="build_state">
<ellipse fill="#7faaff" stroke="black" cx="303.21" cy="-34" rx="61.99" ry="18"/>
<text text-anchor="middle" x="303.21" y="-30.3" font-family="Times,serif" font-size="14.00">build_state</text>
</a>
</g>
</g>
<!-- Counter_State_serializable&#45;&gt;Counter_build_state -->
<g id="edge18" class="edge">
<title>Counter_State_serializable&#45;&gt;Counter_build_state</title>
<path fill="none" stroke="black" d="M842.15,-100.23C820.77,-95.96 796.48,-91.42 774.21,-88 631.53,-66.08 463.23,-49.31 371.42,-40.93"/>
<polygon fill="black" stroke="black" points="371.69,-37.44 361.42,-40.02 371.06,-44.41 371.69,-37.44"/>
</g>
<!-- Counter_State -->
<g id="node28" class="node">
<title>Counter_State</title>
<g id="a_node28"><a xlink:href="Counter.html#State" xlink:title="State">
<ellipse fill="#e2cdfa" stroke="black" cx="619.21" cy="-34" rx="36" ry="18"/>
<text text-anchor="middle" x="619.21" y="-30.3" font-family="Times,serif" font-size="14.00">State</text>
</a>
</g>
</g>
<!-- Counter_State_serializable&#45;&gt;Counter_State -->
<g id="edge19" class="edge">
<title>Counter_State_serializable&#45;&gt;Counter_State</title>
<path fill="none" stroke="black" d="M850.96,-98.87C796.12,-83.76 710.25,-60.09 659.87,-46.21"/>
<polygon fill="black" stroke="black" points="660.55,-42.76 649.98,-43.48 658.69,-49.51 660.55,-42.76"/>
</g>
<!-- Counter_counter_init&#45;&gt;Counter_build_state -->
<g id="edge20" class="edge">
<title>Counter_counter_init&#45;&gt;Counter_build_state</title>
<path fill="none" stroke="black" d="M1064.3,-100.65C1045.82,-96.01 1024.11,-91.1 1004.21,-88 942.97,-78.46 537.59,-50.69 372.74,-39.63"/>
<polygon fill="black" stroke="black" points="372.92,-36.13 362.71,-38.96 372.45,-43.12 372.92,-36.13"/>
</g>
<!-- Counter_counter_init&#45;&gt;Counter_State -->
<g id="edge21" class="edge">
<title>Counter_counter_init&#45;&gt;Counter_State</title>
<path fill="none" stroke="black" d="M1063.16,-101.01C1044.89,-96.53 1023.64,-91.64 1004.21,-88 881.9,-65.08 736,-47.67 663.98,-39.74"/>
<polygon fill="black" stroke="black" points="664.22,-36.24 653.9,-38.63 663.46,-43.2 664.22,-36.24"/>
</g>
<!-- Counter_counter_receive&#45;&gt;Counter_counter -->
<g id="edge22" class="edge">
<title>Counter_counter_receive&#45;&gt;Counter_counter</title>
<path fill="none" stroke="black" d="M827.56,-360.01C830.63,-347.99 834.81,-331.64 838.34,-317.87"/>
<polygon fill="black" stroke="black" points="841.78,-318.51 840.87,-307.96 835,-316.78 841.78,-318.51"/>
</g>
<!-- Counter_decrement -->
<g id="node12" class="node">
<title>Counter_decrement</title>
<g id="a_node12"><a xlink:href="Counter.html#decrement" xlink:title="decrement">
<ellipse fill="#f070d1" stroke="black" cx="633.21" cy="-202" rx="60.39" ry="18"/>
<text text-anchor="middle" x="633.21" y="-198.3" font-family="Times,serif" font-size="14.00">decrement</text>
</a>
</g>
</g>
<!-- Counter_counter&#45;&gt;Counter_decrement -->
<g id="edge23" class="edge">
<title>Counter_counter&#45;&gt;Counter_decrement</title>
<path fill="none" stroke="black" d="M814.38,-276.49C778.24,-261.83 718.06,-237.42 677.06,-220.79"/>
<polygon fill="black" stroke="black" points="678.17,-217.46 667.59,-216.95 675.54,-223.95 678.17,-217.46"/>
</g>
<!-- Counter_increment -->
<g id="node13" class="node">
<title>Counter_increment</title>
<g id="a_node13"><a xlink:href="Counter.html#increment" xlink:title="increment">
<ellipse fill="#f070d1" stroke="black" cx="792.21" cy="-202" rx="57.69" ry="18"/>
<text text-anchor="middle" x="792.21" y="-198.3" font-family="Times,serif" font-size="14.00">increment</text>
</a>
</g>
</g>
<!-- Counter_counter&#45;&gt;Counter_increment -->
<g id="edge24" class="edge">
<title>Counter_counter&#45;&gt;Counter_increment</title>
<path fill="none" stroke="black" d="M834.99,-272.42C827.34,-260.01 816.74,-242.8 808,-228.62"/>
<polygon fill="black" stroke="black" points="810.8,-226.5 802.58,-219.82 804.84,-230.17 810.8,-226.5"/>
</g>
<!-- Counter_counter&#45;&gt;Counter_Msg -->
<g id="edge25" class="edge">
<title>Counter_counter&#45;&gt;Counter_Msg</title>
<path fill="none" stroke="black" d="M813.75,-276.64C801.55,-272.18 787.36,-267.42 774.21,-264 682.56,-240.19 655.08,-254.65 564.21,-228 555.29,-225.38 545.91,-221.81 537.31,-218.19"/>
<polygon fill="black" stroke="black" points="538.58,-214.92 528.02,-214.12 535.78,-221.33 538.58,-214.92"/>
</g>
<!-- Counter_owner -->
<g id="node21" class="node">
<title>Counter_owner</title>
<g id="a_node21"><a xlink:href="Counter.html#owner" xlink:title="owner">
<ellipse fill="#f070d1" stroke="black" cx="619.21" cy="-114" rx="39.79" ry="18"/>
<text text-anchor="middle" x="619.21" y="-110.3" font-family="Times,serif" font-size="14.00">owner</text>
</a>
</g>
</g>
<!-- Counter_decrement&#45;&gt;Counter_owner -->
<g id="edge26" class="edge">
<title>Counter_decrement&#45;&gt;Counter_owner</title>
<path fill="none" stroke="black" d="M630.44,-184.01C628.5,-172.07 625.86,-155.85 623.63,-142.14"/>
<polygon fill="black" stroke="black" points="627.08,-141.56 622.02,-132.25 620.17,-142.68 627.08,-141.56"/>
</g>
<!-- Counter_count -->
<g id="node22" class="node">
<title>Counter_count</title>
<g id="a_node22"><a xlink:href="Counter.html#count" xlink:title="count">
<ellipse fill="#f070d1" stroke="black" cx="729.21" cy="-114" rx="36.29" ry="18"/>
<text text-anchor="middle" x="729.21" y="-110.3" font-family="Times,serif" font-size="14.00">count</text>
</a>
</g>
</g>
<!-- Counter_decrement&#45;&gt;Counter_count -->
<g id="edge27" class="edge">
<title>Counter_decrement&#45;&gt;Counter_count</title>
<path fill="none" stroke="black" d="M651.72,-184.42C666.8,-170.91 688.21,-151.73 704.71,-136.95"/>
<polygon fill="black" stroke="black" points="707.25,-139.37 712.36,-130.09 702.58,-134.16 707.25,-139.37"/>
</g>
<!-- Counter_decrement&#45;&gt;Counter_build_state -->
<g id="edge28" class="edge">
<title>Counter_decrement&#45;&gt;Counter_build_state</title>
<path fill="none" stroke="black" d="M594.19,-188.05C579.05,-183.52 561.48,-178.86 545.21,-176 489.59,-166.23 76.7,-181.32 38.21,-140 22.46,-123.09 23.56,-105.87 38.21,-88 62.41,-58.47 162.94,-45.07 232.97,-39.22"/>
<polygon fill="black" stroke="black" points="233.38,-42.7 243.07,-38.41 232.82,-35.72 233.38,-42.7"/>
</g>
<!-- Counter_increment&#45;&gt;Counter_owner -->
<g id="edge29" class="edge">
<title>Counter_increment&#45;&gt;Counter_owner</title>
<path fill="none" stroke="black" d="M762.86,-186.41C732.77,-171.45 685.97,-148.19 654.02,-132.3"/>
<polygon fill="black" stroke="black" points="655.54,-129.15 645.02,-127.83 652.42,-135.42 655.54,-129.15"/>
</g>
<!-- Counter_increment&#45;&gt;Counter_count -->
<g id="edge30" class="edge">
<title>Counter_increment&#45;&gt;Counter_count</title>
<path fill="none" stroke="black" d="M779.76,-184.01C770.44,-171.28 757.55,-153.68 747.11,-139.44"/>
<polygon fill="black" stroke="black" points="749.72,-137.08 740.99,-131.08 744.08,-141.22 749.72,-137.08"/>
</g>
<!-- Counter_increment&#45;&gt;Counter_build_state -->
<g id="edge31" class="edge">
<title>Counter_increment&#45;&gt;Counter_build_state</title>
<path fill="none" stroke="black" d="M754.07,-188.46C738.21,-183.75 719.49,-178.86 702.21,-176 632.6,-164.49 116.67,-191.29 68.21,-140 52.34,-123.2 53.78,-106.05 68.21,-88 88.78,-62.28 172.97,-48.15 234.73,-41.08"/>
<polygon fill="black" stroke="black" points="235.26,-44.54 244.82,-39.96 234.49,-37.58 235.26,-44.54"/>
</g>
<!-- Counter_Msg_sind -->
<g id="node14" class="node">
<title>Counter_Msg_sind</title>
<g id="a_node14"><a xlink:href="Counter.html#Msg_sind" xlink:title="Msg_sind">
<ellipse fill="#f070d1" stroke="black" cx="515.21" cy="-290" rx="54.68" ry="18"/>
<ellipse fill="none" stroke="black" cx="515.21" cy="-290" rx="58.68" ry="22"/>
<ellipse fill="none" stroke="black" cx="515.21" cy="-290" rx="62.69" ry="26"/>
<text text-anchor="middle" x="515.21" y="-286.3" font-family="Times,serif" font-size="14.00">Msg_sind</text>
</a>
</g>
</g>
<!-- Counter_Msg_sind&#45;&gt;Counter_Dec -->
<g id="edge32" class="edge">
<title>Counter_Msg_sind&#45;&gt;Counter_Dec</title>
<path fill="none" stroke="black" d="M470.84,-271.43C441.51,-259.61 402.33,-243.42 368.21,-228 361.69,-225.05 354.77,-221.77 348.2,-218.57"/>
<polygon fill="black" stroke="black" points="349.43,-215.28 338.91,-214.01 346.34,-221.56 349.43,-215.28"/>
</g>
<!-- Counter_Msg_sind&#45;&gt;Counter_Inc -->
<g id="edge33" class="edge">
<title>Counter_Msg_sind&#45;&gt;Counter_Inc</title>
<path fill="none" stroke="black" d="M486.62,-266.85C469.01,-253.21 446.63,-235.86 429.63,-222.7"/>
<polygon fill="black" stroke="black" points="431.34,-219.59 421.29,-216.23 427.05,-225.12 431.34,-219.59"/>
</g>
<!-- Counter_Msg_sind&#45;&gt;Counter_Msg -->
<g id="edge34" class="edge">
<title>Counter_Msg_sind&#45;&gt;Counter_Msg</title>
<path fill="none" stroke="black" d="M512.26,-263.66C511.04,-253.11 509.61,-240.84 508.36,-230.1"/>
<polygon fill="black" stroke="black" points="511.82,-229.53 507.19,-220 504.87,-230.34 511.82,-229.53"/>
</g>
<!-- Counter_Msg_rec -->
<g id="node15" class="node">
<title>Counter_Msg_rec</title>
<g id="a_node15"><a xlink:href="Counter.html#Msg_rec" xlink:title="Msg_rec">
<ellipse fill="#f070d1" stroke="black" cx="305.21" cy="-378" rx="50.08" ry="18"/>
<ellipse fill="none" stroke="black" cx="305.21" cy="-378" rx="54.09" ry="22"/>
<ellipse fill="none" stroke="black" cx="305.21" cy="-378" rx="58.09" ry="26"/>
<text text-anchor="middle" x="305.21" y="-374.3" font-family="Times,serif" font-size="14.00">Msg_rec</text>
</a>
</g>
</g>
<!-- Counter_Msg_rect -->
<g id="node17" class="node">
<title>Counter_Msg_rect</title>
<g id="a_node17"><a xlink:href="Counter.html#Msg_rect" xlink:title="Msg_rect">
<ellipse fill="#f070d1" stroke="black" cx="129.21" cy="-290" rx="53.89" ry="18"/>
<text text-anchor="middle" x="129.21" y="-286.3" font-family="Times,serif" font-size="14.00">Msg_rect</text>
</a>
</g>
</g>
<!-- Counter_Msg_rec&#45;&gt;Counter_Msg_rect -->
<g id="edge35" class="edge">
<title>Counter_Msg_rec&#45;&gt;Counter_Msg_rect</title>
<path fill="none" stroke="black" d="M267.02,-358.34C237.55,-343.94 196.98,-324.11 167.49,-309.7"/>
<polygon fill="black" stroke="black" points="168.85,-306.48 158.33,-305.23 165.78,-312.77 168.85,-306.48"/>
</g>
<!-- Counter_Msg_ind -->
<g id="node16" class="node">
<title>Counter_Msg_ind</title>
<g id="a_node16"><a xlink:href="Counter.html#Msg_ind" xlink:title="Msg_ind">
<ellipse fill="#7fffd4" stroke="black" cx="679.21" cy="-290" rx="50.08" ry="18"/>
<ellipse fill="none" stroke="black" cx="679.21" cy="-290" rx="54.09" ry="22"/>
<ellipse fill="none" stroke="black" cx="679.21" cy="-290" rx="58.09" ry="26"/>
<text text-anchor="middle" x="679.21" y="-286.3" font-family="Times,serif" font-size="14.00">Msg_ind</text>
</a>
</g>
</g>
<!-- Counter_Msg_ind&#45;&gt;Counter_Dec -->
<g id="edge36" class="edge">
<title>Counter_Msg_ind&#45;&gt;Counter_Dec</title>
<path fill="none" stroke="black" d="M631.21,-274.96C617.11,-271.11 601.6,-267.13 587.21,-264 490.82,-243.04 462.17,-258.03 368.21,-228 361.27,-225.78 354.08,-222.76 347.38,-219.58"/>
<polygon fill="black" stroke="black" points="348.48,-216.23 337.97,-214.9 345.36,-222.49 348.48,-216.23"/>
</g>
<!-- Counter_Msg_ind&#45;&gt;Counter_Inc -->
<g id="edge37" class="edge">
<title>Counter_Msg_ind&#45;&gt;Counter_Inc</title>
<path fill="none" stroke="black" d="M630.17,-275.7C576.98,-261.16 495.6,-238.52 465.21,-228 455.42,-224.61 444.92,-220.49 435.44,-216.58"/>
<polygon fill="black" stroke="black" points="436.58,-213.26 426.01,-212.62 433.87,-219.72 436.58,-213.26"/>
</g>
<!-- Counter_Msg_ind&#45;&gt;Counter_Msg -->
<g id="edge38" class="edge">
<title>Counter_Msg_ind&#45;&gt;Counter_Msg</title>
<path fill="none" stroke="black" d="M641.02,-270.13C609.79,-254.69 566.15,-233.12 536.84,-218.63"/>
<polygon fill="black" stroke="black" points="538.38,-215.49 527.87,-214.2 535.28,-221.77 538.38,-215.49"/>
</g>
<!-- Counter_Msg_rect&#45;&gt;Counter_Dec -->
<g id="edge39" class="edge">
<title>Counter_Msg_rect&#45;&gt;Counter_Dec</title>
<path fill="none" stroke="black" d="M159.83,-274.99C194.36,-259.2 250.23,-233.64 285.28,-217.61"/>
<polygon fill="black" stroke="black" points="286.94,-220.7 294.58,-213.35 284.03,-214.33 286.94,-220.7"/>
</g>
<!-- Counter_Msg_rect&#45;&gt;Counter_Inc -->
<g id="edge40" class="edge">
<title>Counter_Msg_rect&#45;&gt;Counter_Inc</title>
<path fill="none" stroke="black" d="M169.51,-277.86C185.31,-273.51 203.6,-268.49 220.21,-264 280.15,-247.77 297.23,-250.23 355.21,-228 361.8,-225.47 368.67,-222.32 375.11,-219.12"/>
<polygon fill="black" stroke="black" points="376.87,-222.15 384.15,-214.45 373.66,-215.93 376.87,-222.15"/>
</g>
<!-- Counter_Msg_rect&#45;&gt;Counter_Msg -->
<g id="edge41" class="edge">
<title>Counter_Msg_rect&#45;&gt;Counter_Msg</title>
<path fill="none" stroke="black" d="M167.95,-277.38C184.03,-272.82 202.92,-267.78 220.21,-264 317,-242.85 344.58,-253.92 440.21,-228 450.82,-225.12 462.1,-221.14 472.22,-217.19"/>
<polygon fill="black" stroke="black" points="473.55,-220.43 481.52,-213.46 470.94,-213.93 473.55,-220.43"/>
</g>
<!-- Counter_owner&#45;&gt;Counter_State -->
<g id="edge42" class="edge">
<title>Counter_owner&#45;&gt;Counter_State</title>
<path fill="none" stroke="black" d="M619.21,-95.69C619.21,-85.89 619.21,-73.42 619.21,-62.33"/>
<polygon fill="black" stroke="black" points="622.71,-62.26 619.21,-52.26 615.71,-62.26 622.71,-62.26"/>
</g>
<!-- Counter_count&#45;&gt;Counter_State -->
<g id="edge43" class="edge">
<title>Counter_count&#45;&gt;Counter_State</title>
<path fill="none" stroke="black" d="M709.29,-98.87C691.92,-86.56 666.55,-68.57 647.15,-54.82"/>
<polygon fill="black" stroke="black" points="649.16,-51.95 638.98,-49.02 645.11,-57.66 649.16,-51.95"/>
</g>
<!-- Counter_State_sind -->
<g id="node23" class="node">
<title>Counter_State_sind</title>
<g id="a_node23"><a xlink:href="Counter.html#State_sind" xlink:title="State_sind">
<ellipse fill="#f070d1" stroke="black" cx="472.21" cy="-114" rx="59.61" ry="18"/>
<ellipse fill="none" stroke="black" cx="472.21" cy="-114" rx="63.6" ry="22"/>
<ellipse fill="none" stroke="black" cx="472.21" cy="-114" rx="67.59" ry="26"/>
<text text-anchor="middle" x="472.21" y="-110.3" font-family="Times,serif" font-size="14.00">State_sind</text>
</a>
</g>
</g>
<!-- Counter_State_sind&#45;&gt;Counter_build_state -->
<g id="edge44" class="edge">
<title>Counter_State_sind&#45;&gt;Counter_build_state</title>
<path fill="none" stroke="black" d="M430,-93.52C403.7,-81.38 370.04,-65.85 344.02,-53.83"/>
<polygon fill="black" stroke="black" points="345.35,-50.59 334.8,-49.58 342.41,-56.95 345.35,-50.59"/>
</g>
<!-- Counter_State_sind&#45;&gt;Counter_State -->
<g id="edge45" class="edge">
<title>Counter_State_sind&#45;&gt;Counter_State</title>
<path fill="none" stroke="black" d="M510.83,-92.51C534.35,-80.03 564.08,-64.25 586.44,-52.39"/>
<polygon fill="black" stroke="black" points="588.35,-55.34 595.54,-47.56 585.07,-49.15 588.35,-55.34"/>
</g>
<!-- Counter_State_rec -->
<g id="node24" class="node">
<title>Counter_State_rec</title>
<g id="a_node24"><a xlink:href="Counter.html#State_rec" xlink:title="State_rec">
<ellipse fill="#f070d1" stroke="black" cx="189.21" cy="-202" rx="54.68" ry="18"/>
<ellipse fill="none" stroke="black" cx="189.21" cy="-202" rx="58.68" ry="22"/>
<ellipse fill="none" stroke="black" cx="189.21" cy="-202" rx="62.69" ry="26"/>
<text text-anchor="middle" x="189.21" y="-198.3" font-family="Times,serif" font-size="14.00">State_rec</text>
</a>
</g>
</g>
<!-- Counter_State_rect -->
<g id="node26" class="node">
<title>Counter_State_rect</title>
<g id="a_node26"><a xlink:href="Counter.html#State_rect" xlink:title="State_rect">
<ellipse fill="#f070d1" stroke="black" cx="303.21" cy="-114" rx="58.49" ry="18"/>
<text text-anchor="middle" x="303.21" y="-110.3" font-family="Times,serif" font-size="14.00">State_rect</text>
</a>
</g>
</g>
<!-- Counter_State_rec&#45;&gt;Counter_State_rect -->
<g id="edge46" class="edge">
<title>Counter_State_rec&#45;&gt;Counter_State_rect</title>
<path fill="none" stroke="black" d="M218.57,-178.85C235.53,-166.05 256.81,-150 273.79,-137.2"/>
<polygon fill="black" stroke="black" points="276.35,-139.65 282.23,-130.83 272.14,-134.06 276.35,-139.65"/>
</g>
<!-- Counter_State_ind -->
<g id="node25" class="node">
<title>Counter_State_ind</title>
<g id="a_node25"><a xlink:href="Counter.html#State_ind" xlink:title="State_ind">
<ellipse fill="#7fffd4" stroke="black" cx="140.21" cy="-114" rx="54.68" ry="18"/>
<ellipse fill="none" stroke="black" cx="140.21" cy="-114" rx="58.68" ry="22"/>
<ellipse fill="none" stroke="black" cx="140.21" cy="-114" rx="62.69" ry="26"/>
<text text-anchor="middle" x="140.21" y="-110.3" font-family="Times,serif" font-size="14.00">State_ind</text>
</a>
</g>
</g>
<!-- Counter_State_ind&#45;&gt;Counter_build_state -->
<g id="edge47" class="edge">
<title>Counter_State_ind&#45;&gt;Counter_build_state</title>
<path fill="none" stroke="black" d="M180.08,-93.92C205.32,-81.84 237.84,-66.28 263.12,-54.18"/>
<polygon fill="black" stroke="black" points="264.92,-57.2 272.43,-49.73 261.89,-50.89 264.92,-57.2"/>
</g>
<!-- Counter_State_ind&#45;&gt;Counter_State -->
<g id="edge48" class="edge">
<title>Counter_State_ind&#45;&gt;Counter_State</title>
<path fill="none" stroke="black" d="M190.77,-98.65C205.35,-94.83 221.34,-90.95 236.21,-88 357.48,-63.9 502.51,-47.05 574.34,-39.48"/>
<polygon fill="black" stroke="black" points="574.81,-42.95 584.39,-38.44 574.08,-35.99 574.81,-42.95"/>
</g>
<!-- Counter_State_rect&#45;&gt;Counter_build_state -->
<g id="edge49" class="edge">
<title>Counter_State_rect&#45;&gt;Counter_build_state</title>
<path fill="none" stroke="black" d="M303.21,-95.69C303.21,-85.89 303.21,-73.42 303.21,-62.33"/>
<polygon fill="black" stroke="black" points="306.71,-62.26 303.21,-52.26 299.71,-62.26 306.71,-62.26"/>
</g>
<!-- Counter_State_rect&#45;&gt;Counter_State -->
<g id="edge50" class="edge">
<title>Counter_State_rect&#45;&gt;Counter_State</title>
<path fill="none" stroke="black" d="M345.27,-101.26C360.92,-96.97 378.85,-92.16 395.21,-88 458.45,-71.93 532.15,-54.8 577.23,-44.5"/>
<polygon fill="black" stroke="black" points="578.26,-47.85 587.23,-42.22 576.7,-41.03 578.26,-47.85"/>
</g>
</g>
</svg>
