<?xml version="1.0" encoding="UTF-8" standalone="no"?>
<!DOCTYPE svg PUBLIC "-//W3C//DTD SVG 1.1//EN"
 "http://www.w3.org/Graphics/SVG/1.1/DTD/svg11.dtd">
<!-- Generated by graphviz version 2.43.0 (0)
 -->
<!-- Title: DexterTests Pages: 1 -->
<svg width="1893pt" height="951pt"
 viewBox="0.00 0.00 1893.00 950.50" xmlns="http://www.w3.org/2000/svg" xmlns:xlink="http://www.w3.org/1999/xlink">
<g id="graph0" class="graph" transform="scale(1 1) rotate(0) translate(4 946.5)">
<title>DexterTests</title>
<polygon fill="white" stroke="transparent" points="-4,4 -4,-946.5 1889,-946.5 1889,4 -4,4"/>
<g id="clust1" class="cluster">
<title>cluster_DexterTests</title>
<polygon fill="#ffffc3" stroke="black" points="8,-14.56 8,-927.94 1877,-927.94 1877,-14.56 8,-14.56"/>
<text text-anchor="middle" x="59.5" y="-912.74" font-family="Times,serif" font-size="14.00">DexterTests</text>
</g>
<g id="clust2" class="cluster">
<title>cluster_DexterTests_MG</title>
<polygon fill="#ffffa3" stroke="black" points="1549,-145.56 1549,-762.37 1869,-762.37 1869,-145.56 1549,-145.56"/>
<text text-anchor="middle" x="1570" y="-747.17" font-family="Times,serif" font-size="14.00">MG</text>
</g>
<g id="clust3" class="cluster">
<title>cluster_DexterTests_TestInfo</title>
<polygon fill="#ffffa3" stroke="black" points="986,-291.12 986,-427.58 1541,-427.58 1541,-291.12 986,-291.12"/>
<text text-anchor="middle" x="1023" y="-412.38" font-family="Times,serif" font-size="14.00">TestInfo</text>
</g>
<!-- DexterTests_TestInfo_test_accounts -->
<g id="node1" class="node">
<title>DexterTests_TestInfo_test_accounts</title>
<g id="a_node1"><a xlink:href="DexterTests.html#TestInfo.test_accounts" xlink:title="test_accounts">
<ellipse fill="#f070d1" stroke="black" cx="1459" cy="-338.56" rx="74.19" ry="18"/>
<text text-anchor="middle" x="1459" y="-334.86" font-family="Times,serif" font-size="14.00">test_accounts</text>
</a>
</g>
</g>
<!-- DexterTests_TestInfo_dexter_contract_addr -->
<g id="node2" class="node">
<title>DexterTests_TestInfo_dexter_contract_addr</title>
<g id="a_node2"><a xlink:href="DexterTests.html#TestInfo.dexter_contract_addr" xlink:title="dexter_contract_addr">
<ellipse fill="#f070d1" stroke="black" cx="1104" cy="-338.56" rx="109.68" ry="18"/>
<text text-anchor="middle" x="1104" y="-334.86" font-family="Times,serif" font-size="14.00">dexter_contract_addr</text>
</a>
</g>
</g>
<!-- DexterTests_dexter_caddr -->
<g id="node23" class="node">
<title>DexterTests_dexter_caddr</title>
<g id="a_node23"><a xlink:href="DexterTests.html#dexter_caddr" xlink:title="dexter_caddr">
<ellipse fill="#f070d1" stroke="black" cx="465" cy="-192.56" rx="71.49" ry="18"/>
<text text-anchor="middle" x="465" y="-188.86" font-family="Times,serif" font-size="14.00">dexter_caddr</text>
</a>
</g>
</g>
<!-- DexterTests_TestInfo_dexter_contract_addr&#45;&gt;DexterTests_dexter_caddr -->
<g id="edge1" class="edge">
<title>DexterTests_TestInfo_dexter_contract_addr&#45;&gt;DexterTests_dexter_caddr</title>
<path fill="none" stroke="black" d="M1042.15,-323.62C919.83,-296.05 648.34,-234.87 526.4,-207.39"/>
<polygon fill="black" stroke="black" points="527,-203.94 516.47,-205.16 525.46,-210.77 527,-203.94"/>
</g>
<!-- DexterTests_TestInfo_token_caddr -->
<g id="node3" class="node">
<title>DexterTests_TestInfo_token_caddr</title>
<g id="a_node3"><a xlink:href="DexterTests.html#TestInfo.token_caddr" xlink:title="token_caddr">
<ellipse fill="#f070d1" stroke="black" cx="1299" cy="-338.56" rx="67.69" ry="18"/>
<text text-anchor="middle" x="1299" y="-334.86" font-family="Times,serif" font-size="14.00">token_caddr</text>
</a>
</g>
</g>
<!-- DexterTests_token_caddr -->
<g id="node24" class="node">
<title>DexterTests_token_caddr</title>
<g id="a_node24"><a xlink:href="DexterTests.html#token_caddr" xlink:title="token_caddr">
<ellipse fill="#f070d1" stroke="black" cx="1066" cy="-61.56" rx="67.69" ry="18"/>
<text text-anchor="middle" x="1066" y="-57.86" font-family="Times,serif" font-size="14.00">token_caddr</text>
</a>
</g>
</g>
<!-- DexterTests_TestInfo_token_caddr&#45;&gt;DexterTests_token_caddr -->
<g id="edge2" class="edge">
<title>DexterTests_TestInfo_token_caddr&#45;&gt;DexterTests_token_caddr</title>
<path fill="none" stroke="black" d="M1296.14,-320.44C1289.87,-287.42 1272.25,-214 1233,-166.56 1200.39,-127.13 1148.76,-98.23 1111.53,-81.04"/>
<polygon fill="black" stroke="black" points="1112.96,-77.85 1102.4,-76.93 1110.08,-84.23 1112.96,-77.85"/>
</g>
<!-- DexterTests_MG_gDexterChain -->
<g id="node4" class="node">
<title>DexterTests_MG_gDexterChain</title>
<g id="a_node4"><a xlink:href="DexterTests.html#MG.gDexterChain" xlink:title="gDexterChain">
<ellipse fill="#f070d1" stroke="black" cx="1786" cy="-658.56" rx="75.29" ry="18"/>
<text text-anchor="middle" x="1786" y="-654.86" font-family="Times,serif" font-size="14.00">gDexterChain</text>
</a>
</g>
</g>
<!-- DexterTests_MG_gDexterAction -->
<g id="node5" class="node">
<title>DexterTests_MG_gDexterAction</title>
<g id="a_node5"><a xlink:href="DexterTests.html#MG.gDexterAction" xlink:title="gDexterAction">
<ellipse fill="#f070d1" stroke="black" cx="1634" cy="-498.56" rx="77.19" ry="18"/>
<text text-anchor="middle" x="1634" y="-494.86" font-family="Times,serif" font-size="14.00">gDexterAction</text>
</a>
</g>
</g>
<!-- DexterTests_MG_gDexterChain&#45;&gt;DexterTests_MG_gDexterAction -->
<g id="edge3" class="edge">
<title>DexterTests_MG_gDexterChain&#45;&gt;DexterTests_MG_gDexterAction</title>
<path fill="none" stroke="black" d="M1770.02,-640.95C1743.07,-612.93 1688.45,-556.16 1657.25,-523.72"/>
<polygon fill="black" stroke="black" points="1659.68,-521.2 1650.22,-516.42 1654.63,-526.05 1659.68,-521.2"/>
</g>
<!-- DexterTests_MG_gDexterAction&#45;&gt;DexterTests_TestInfo_test_accounts -->
<g id="edge4" class="edge">
<title>DexterTests_MG_gDexterAction&#45;&gt;DexterTests_TestInfo_test_accounts</title>
<path fill="none" stroke="black" d="M1615.6,-480.95C1584.36,-452.73 1520.83,-395.38 1485.03,-363.06"/>
<polygon fill="black" stroke="black" points="1487.18,-360.28 1477.41,-356.18 1482.49,-365.48 1487.18,-360.28"/>
</g>
<!-- DexterTests_MG_gDexterAction&#45;&gt;DexterTests_TestInfo_dexter_contract_addr -->
<g id="edge5" class="edge">
<title>DexterTests_MG_gDexterAction&#45;&gt;DexterTests_TestInfo_dexter_contract_addr</title>
<path fill="none" stroke="black" d="M1590.39,-483.68C1578.32,-479.95 1565.18,-476 1553,-472.56 1406.84,-431.26 1366.23,-435.17 1222,-387.56 1197.58,-379.49 1170.99,-368.85 1149.25,-359.64"/>
<polygon fill="black" stroke="black" points="1150.51,-356.37 1139.94,-355.65 1147.76,-362.8 1150.51,-356.37"/>
</g>
<!-- DexterTests_MG_gDexterAction&#45;&gt;DexterTests_TestInfo_token_caddr -->
<g id="edge6" class="edge">
<title>DexterTests_MG_gDexterAction&#45;&gt;DexterTests_TestInfo_token_caddr</title>
<path fill="none" stroke="black" d="M1594.67,-482.98C1543.33,-463.45 1451.14,-426.7 1376,-387.56 1360.76,-379.62 1344.52,-369.73 1330.91,-360.99"/>
<polygon fill="black" stroke="black" points="1332.67,-357.96 1322.38,-355.45 1328.86,-363.83 1332.67,-357.96"/>
</g>
<!-- DexterTests_MG_gTokenExchange -->
<g id="node7" class="node">
<title>DexterTests_MG_gTokenExchange</title>
<g id="a_node7"><a xlink:href="DexterTests.html#MG.gTokenExchange" xlink:title="gTokenExchange">
<ellipse fill="#f070d1" stroke="black" cx="1654" cy="-338.56" rx="89.08" ry="18"/>
<text text-anchor="middle" x="1654" y="-334.86" font-family="Times,serif" font-size="14.00">gTokenExchange</text>
</a>
</g>
</g>
<!-- DexterTests_MG_gDexterAction&#45;&gt;DexterTests_MG_gTokenExchange -->
<g id="edge7" class="edge">
<title>DexterTests_MG_gDexterAction&#45;&gt;DexterTests_MG_gTokenExchange</title>
<path fill="none" stroke="black" d="M1636.18,-480.35C1639.63,-453.04 1646.41,-399.55 1650.53,-366.94"/>
<polygon fill="black" stroke="black" points="1654.04,-367.1 1651.82,-356.74 1647.1,-366.23 1654.04,-367.1"/>
</g>
<!-- DexterTests_MG_liftOptGen -->
<g id="node6" class="node">
<title>DexterTests_MG_liftOptGen</title>
<g id="a_node6"><a xlink:href="DexterTests.html#MG.liftOptGen" xlink:title="liftOptGen">
<ellipse fill="#f070d1" stroke="black" cx="1625" cy="-658.56" rx="59.61" ry="18"/>
<ellipse fill="none" stroke="black" cx="1625" cy="-658.56" rx="63.6" ry="22"/>
<ellipse fill="none" stroke="black" cx="1625" cy="-658.56" rx="67.59" ry="26"/>
<text text-anchor="middle" x="1625" y="-654.86" font-family="Times,serif" font-size="14.00">liftOptGen</text>
</a>
</g>
</g>
<!-- DexterTests_MG_gTokensToExchange -->
<g id="node8" class="node">
<title>DexterTests_MG_gTokensToExchange</title>
<g id="a_node8"><a xlink:href="DexterTests.html#MG.gTokensToExchange" xlink:title="gTokensToExchange">
<ellipse fill="#f070d1" stroke="black" cx="1662" cy="-192.56" rx="104.78" ry="18"/>
<text text-anchor="middle" x="1662" y="-188.86" font-family="Times,serif" font-size="14.00">gTokensToExchange</text>
</a>
</g>
</g>
<!-- DexterTests_MG_gTokenExchange&#45;&gt;DexterTests_MG_gTokensToExchange -->
<g id="edge8" class="edge">
<title>DexterTests_MG_gTokenExchange&#45;&gt;DexterTests_MG_gTokensToExchange</title>
<path fill="none" stroke="black" d="M1654.95,-320.47C1656.31,-295.9 1658.85,-250.31 1660.48,-220.98"/>
<polygon fill="black" stroke="black" points="1663.99,-220.8 1661.05,-210.62 1657,-220.41 1663.99,-220.8"/>
</g>
<!-- DexterTests_tokens_to_asset_correct -->
<g id="node9" class="node">
<title>DexterTests_tokens_to_asset_correct</title>
<g id="a_node9"><a xlink:href="DexterTests.html#tokens_to_asset_correct" xlink:title="tokens_to_asset_correct">
<ellipse fill="#f070d1" stroke="black" cx="1064" cy="-824.56" rx="121.58" ry="18"/>
<ellipse fill="none" stroke="black" cx="1064" cy="-824.56" rx="125.58" ry="22"/>
<ellipse fill="none" stroke="black" cx="1064" cy="-824.56" rx="129.58" ry="26"/>
<text text-anchor="middle" x="1064" y="-820.86" font-family="Times,serif" font-size="14.00">tokens_to_asset_correct</text>
</a>
</g>
</g>
<!-- DexterTests_tokens_to_asset_correct&#45;&gt;DexterTests_MG_gDexterChain -->
<g id="edge9" class="edge">
<title>DexterTests_tokens_to_asset_correct&#45;&gt;DexterTests_MG_gDexterChain</title>
<path fill="none" stroke="black" d="M1189.25,-817.81C1320.99,-808.27 1532.32,-782.9 1702,-715.56 1722.21,-707.54 1742.55,-694.14 1758.16,-682.46"/>
<polygon fill="black" stroke="black" points="1760.51,-685.07 1766.31,-676.2 1756.25,-679.52 1760.51,-685.07"/>
</g>
<!-- DexterTests_tokens_to_asset_correct_P -->
<g id="node10" class="node">
<title>DexterTests_tokens_to_asset_correct_P</title>
<g id="a_node10"><a xlink:href="DexterTests.html#tokens_to_asset_correct_P" xlink:title="tokens_to_asset_correct_P">
<ellipse fill="#f070d1" stroke="black" cx="903" cy="-658.56" rx="131.88" ry="18"/>
<text text-anchor="middle" x="903" y="-654.86" font-family="Times,serif" font-size="14.00">tokens_to_asset_correct_P</text>
</a>
</g>
</g>
<!-- DexterTests_tokens_to_asset_correct&#45;&gt;DexterTests_tokens_to_asset_correct_P -->
<g id="edge10" class="edge">
<title>DexterTests_tokens_to_asset_correct&#45;&gt;DexterTests_tokens_to_asset_correct_P</title>
<path fill="none" stroke="black" d="M1039.9,-799C1009.49,-768.03 957.51,-715.08 927.1,-684.11"/>
<polygon fill="black" stroke="black" points="929.37,-681.42 919.86,-676.73 924.37,-686.32 929.37,-681.42"/>
</g>
<!-- DexterTests_chain -->
<g id="node19" class="node">
<title>DexterTests_chain</title>
<g id="a_node19"><a xlink:href="DexterTests.html#chain" xlink:title="chain">
<ellipse fill="#f070d1" stroke="black" cx="758" cy="-338.56" rx="36" ry="18"/>
<text text-anchor="middle" x="758" y="-334.86" font-family="Times,serif" font-size="14.00">chain</text>
</a>
</g>
</g>
<!-- DexterTests_tokens_to_asset_correct&#45;&gt;DexterTests_chain -->
<g id="edge11" class="edge">
<title>DexterTests_tokens_to_asset_correct&#45;&gt;DexterTests_chain</title>
<path fill="none" stroke="black" d="M1072.08,-798.37C1090.37,-736.08 1127.91,-572.58 1054,-472.56 984.01,-377.83 902.03,-451.32 803,-387.56 793.1,-381.18 783.88,-372.16 776.39,-363.66"/>
<polygon fill="black" stroke="black" points="778.89,-361.18 769.78,-355.76 773.52,-365.68 778.89,-361.18"/>
</g>
<!-- DexterTests_tokens_to_asset_correct_P_opt -->
<g id="node11" class="node">
<title>DexterTests_tokens_to_asset_correct_P_opt</title>
<g id="a_node11"><a xlink:href="DexterTests.html#tokens_to_asset_correct_P_opt" xlink:title="tokens_to_asset_correct_P_opt">
<ellipse fill="#f070d1" stroke="black" cx="894" cy="-498.56" rx="151.37" ry="18"/>
<text text-anchor="middle" x="894" y="-494.86" font-family="Times,serif" font-size="14.00">tokens_to_asset_correct_P_opt</text>
</a>
</g>
</g>
<!-- DexterTests_tokens_to_asset_correct_P&#45;&gt;DexterTests_tokens_to_asset_correct_P_opt -->
<g id="edge12" class="edge">
<title>DexterTests_tokens_to_asset_correct_P&#45;&gt;DexterTests_tokens_to_asset_correct_P_opt</title>
<path fill="none" stroke="black" d="M902.02,-640.35C900.46,-613.04 897.42,-559.55 895.56,-526.94"/>
<polygon fill="black" stroke="black" points="899.04,-526.53 894.98,-516.74 892.05,-526.93 899.04,-526.53"/>
</g>
<!-- DexterTests_account_tokens -->
<g id="node13" class="node">
<title>DexterTests_account_tokens</title>
<g id="a_node13"><a xlink:href="DexterTests.html#account_tokens" xlink:title="account_tokens">
<ellipse fill="#f070d1" stroke="black" cx="894" cy="-338.56" rx="81.79" ry="18"/>
<text text-anchor="middle" x="894" y="-334.86" font-family="Times,serif" font-size="14.00">account_tokens</text>
</a>
</g>
</g>
<!-- DexterTests_tokens_to_asset_correct_P_opt&#45;&gt;DexterTests_account_tokens -->
<g id="edge13" class="edge">
<title>DexterTests_tokens_to_asset_correct_P_opt&#45;&gt;DexterTests_account_tokens</title>
<path fill="none" stroke="black" d="M894,-480.35C894,-453.04 894,-399.55 894,-366.94"/>
<polygon fill="black" stroke="black" points="897.5,-366.74 894,-356.74 890.5,-366.74 897.5,-366.74"/>
</g>
<!-- DexterTests_dexter_state -->
<g id="node17" class="node">
<title>DexterTests_dexter_state</title>
<g id="a_node17"><a xlink:href="DexterTests.html#dexter_state" xlink:title="dexter_state">
<ellipse fill="#f070d1" stroke="black" cx="85" cy="-338.56" rx="68.79" ry="18"/>
<text text-anchor="middle" x="85" y="-334.86" font-family="Times,serif" font-size="14.00">dexter_state</text>
</a>
</g>
</g>
<!-- DexterTests_tokens_to_asset_correct_P_opt&#45;&gt;DexterTests_dexter_state -->
<g id="edge14" class="edge">
<title>DexterTests_tokens_to_asset_correct_P_opt&#45;&gt;DexterTests_dexter_state</title>
<path fill="none" stroke="black" d="M806.28,-483.84C782.5,-480.15 756.77,-476.17 733,-472.56 479.78,-434.02 403.62,-475.35 163,-387.56 145.81,-381.28 128.3,-370.95 114.25,-361.47"/>
<polygon fill="black" stroke="black" points="116.18,-358.55 105.97,-355.72 112.19,-364.3 116.18,-358.55"/>
</g>
<!-- DexterTests_dexter_token_pool -->
<g id="node12" class="node">
<title>DexterTests_dexter_token_pool</title>
<g id="a_node12"><a xlink:href="DexterTests.html#dexter_token_pool" xlink:title="dexter_token_pool">
<ellipse fill="#f070d1" stroke="black" cx="119" cy="-498.56" rx="94.79" ry="18"/>
<ellipse fill="none" stroke="black" cx="119" cy="-498.56" rx="98.79" ry="22"/>
<ellipse fill="none" stroke="black" cx="119" cy="-498.56" rx="102.78" ry="26"/>
<text text-anchor="middle" x="119" y="-494.86" font-family="Times,serif" font-size="14.00">dexter_token_pool</text>
</a>
</g>
</g>
<!-- DexterTests_dexter_token_pool&#45;&gt;DexterTests_dexter_state -->
<g id="edge15" class="edge">
<title>DexterTests_dexter_token_pool&#45;&gt;DexterTests_dexter_state</title>
<path fill="none" stroke="black" d="M113.61,-472.52C107.41,-443.69 97.25,-396.5 90.86,-366.78"/>
<polygon fill="black" stroke="black" points="94.21,-365.72 88.69,-356.68 87.37,-367.2 94.21,-365.72"/>
</g>
<!-- DexterTests_token_state -->
<g id="node16" class="node">
<title>DexterTests_token_state</title>
<g id="a_node16"><a xlink:href="DexterTests.html#token_state" xlink:title="token_state">
<ellipse fill="#f070d1" stroke="black" cx="1160" cy="-192.56" rx="64.19" ry="18"/>
<text text-anchor="middle" x="1160" y="-188.86" font-family="Times,serif" font-size="14.00">token_state</text>
</a>
</g>
</g>
<!-- DexterTests_account_tokens&#45;&gt;DexterTests_token_state -->
<g id="edge16" class="edge">
<title>DexterTests_account_tokens&#45;&gt;DexterTests_token_state</title>
<path fill="none" stroke="black" d="M923.23,-321.73C971.84,-295.42 1069.22,-242.7 1122.71,-213.75"/>
<polygon fill="black" stroke="black" points="1124.4,-216.81 1131.53,-208.97 1121.07,-210.65 1124.4,-216.81"/>
</g>
<!-- DexterTests_dexter_liquidity -->
<g id="node14" class="node">
<title>DexterTests_dexter_liquidity</title>
<g id="a_node14"><a xlink:href="DexterTests.html#dexter_liquidity" xlink:title="dexter_liquidity">
<ellipse fill="#f070d1" stroke="black" cx="264" cy="-338.56" rx="83.7" ry="18"/>
<ellipse fill="none" stroke="black" cx="264" cy="-338.56" rx="87.69" ry="22"/>
<ellipse fill="none" stroke="black" cx="264" cy="-338.56" rx="91.69" ry="26"/>
<text text-anchor="middle" x="264" y="-334.86" font-family="Times,serif" font-size="14.00">dexter_liquidity</text>
</a>
</g>
</g>
<!-- DexterTests_dexter_liquidity&#45;&gt;DexterTests_dexter_caddr -->
<g id="edge17" class="edge">
<title>DexterTests_dexter_liquidity&#45;&gt;DexterTests_dexter_caddr</title>
<path fill="none" stroke="black" d="M296.74,-314.1C334.64,-286.95 396.6,-242.56 433.82,-215.89"/>
<polygon fill="black" stroke="black" points="436.18,-218.51 442.27,-209.84 432.11,-212.82 436.18,-218.51"/>
</g>
<!-- DexterTests_person_1_initial_balance -->
<g id="node15" class="node">
<title>DexterTests_person_1_initial_balance</title>
<g id="a_node15"><a xlink:href="DexterTests.html#person_1_initial_balance" xlink:title="person_1_initial_balance">
<ellipse fill="#f070d1" stroke="black" cx="592" cy="-498.56" rx="124.27" ry="18"/>
<ellipse fill="none" stroke="black" cx="592" cy="-498.56" rx="128.27" ry="22"/>
<ellipse fill="none" stroke="black" cx="592" cy="-498.56" rx="132.28" ry="26"/>
<text text-anchor="middle" x="592" y="-494.86" font-family="Times,serif" font-size="14.00">person_1_initial_balance</text>
</a>
</g>
</g>
<!-- DexterTests_person_1_initial_balance&#45;&gt;DexterTests_chain -->
<g id="edge18" class="edge">
<title>DexterTests_person_1_initial_balance&#45;&gt;DexterTests_chain</title>
<path fill="none" stroke="black" d="M620.46,-472.84C645.36,-450.94 682.25,-417.83 713,-387.56 720.94,-379.74 729.35,-370.92 736.74,-362.98"/>
<polygon fill="black" stroke="black" points="739.51,-365.14 743.72,-355.42 734.36,-360.4 739.51,-365.14"/>
</g>
<!-- DexterTests_token_state&#45;&gt;DexterTests_token_caddr -->
<g id="edge19" class="edge">
<title>DexterTests_token_state&#45;&gt;DexterTests_token_caddr</title>
<path fill="none" stroke="black" d="M1147.71,-174.69C1131.53,-152.48 1102.93,-113.24 1084.22,-87.57"/>
<polygon fill="black" stroke="black" points="1087.01,-85.45 1078.29,-79.42 1081.35,-89.57 1087.01,-85.45"/>
</g>
<!-- DexterTests_dexter_state&#45;&gt;DexterTests_dexter_caddr -->
<g id="edge20" class="edge">
<title>DexterTests_dexter_state&#45;&gt;DexterTests_dexter_caddr</title>
<path fill="none" stroke="black" d="M122.48,-323.35C192.15,-296.95 341.45,-240.37 417.85,-211.42"/>
<polygon fill="black" stroke="black" points="419.13,-214.68 427.24,-207.86 416.65,-208.13 419.13,-214.68"/>
</g>
<!-- DexterTests_add_block_with_acts -->
<g id="node18" class="node">
<title>DexterTests_add_block_with_acts</title>
<g id="a_node18"><a xlink:href="DexterTests.html#add_block_with_acts" xlink:title="add_block_with_acts">
<ellipse fill="#f070d1" stroke="black" cx="467" cy="-824.56" rx="104.77" ry="18"/>
<ellipse fill="none" stroke="black" cx="467" cy="-824.56" rx="108.78" ry="22"/>
<ellipse fill="none" stroke="black" cx="467" cy="-824.56" rx="112.78" ry="26"/>
<text text-anchor="middle" x="467" y="-820.86" font-family="Times,serif" font-size="14.00">add_block_with_acts</text>
</a>
</g>
</g>
<!-- DexterTests_add_as_operator_act -->
<g id="node21" class="node">
<title>DexterTests_add_as_operator_act</title>
<g id="a_node21"><a xlink:href="DexterTests.html#add_as_operator_act" xlink:title="add_as_operator_act">
<ellipse fill="#f070d1" stroke="black" cx="972" cy="-192.56" rx="105.08" ry="18"/>
<text text-anchor="middle" x="972" y="-188.86" font-family="Times,serif" font-size="14.00">add_as_operator_act</text>
</a>
</g>
</g>
<!-- DexterTests_chain&#45;&gt;DexterTests_add_as_operator_act -->
<g id="edge21" class="edge">
<title>DexterTests_chain&#45;&gt;DexterTests_add_as_operator_act</title>
<path fill="none" stroke="black" d="M778.52,-323.75C815.59,-298.8 894.03,-246.02 938.82,-215.88"/>
<polygon fill="black" stroke="black" points="940.96,-218.66 947.3,-210.17 937.05,-212.85 940.96,-218.66"/>
</g>
<!-- DexterTests_dexter_setup -->
<g id="node22" class="node">
<title>DexterTests_dexter_setup</title>
<g id="a_node22"><a xlink:href="DexterTests.html#dexter_setup" xlink:title="dexter_setup">
<ellipse fill="#f070d1" stroke="black" cx="777" cy="-192.56" rx="71.49" ry="18"/>
<text text-anchor="middle" x="777" y="-188.86" font-family="Times,serif" font-size="14.00">dexter_setup</text>
</a>
</g>
</g>
<!-- DexterTests_chain&#45;&gt;DexterTests_dexter_setup -->
<g id="edge22" class="edge">
<title>DexterTests_chain&#45;&gt;DexterTests_dexter_setup</title>
<path fill="none" stroke="black" d="M760.25,-320.47C763.51,-295.79 769.56,-249.91 773.43,-220.6"/>
<polygon fill="black" stroke="black" points="776.91,-220.99 774.75,-210.62 769.97,-220.07 776.91,-220.99"/>
</g>
<!-- DexterTests_chain&#45;&gt;DexterTests_dexter_caddr -->
<g id="edge23" class="edge">
<title>DexterTests_chain&#45;&gt;DexterTests_dexter_caddr</title>
<path fill="none" stroke="black" d="M735.25,-324.57C728.17,-320.62 720.3,-316.33 713,-312.56 641.67,-275.67 557.04,-235.89 507.36,-212.94"/>
<polygon fill="black" stroke="black" points="508.75,-209.73 498.2,-208.72 505.82,-216.09 508.75,-209.73"/>
</g>
<!-- DexterTests_token_setup -->
<g id="node25" class="node">
<title>DexterTests_token_setup</title>
<g id="a_node25"><a xlink:href="DexterTests.html#token_setup" xlink:title="token_setup">
<ellipse fill="#f070d1" stroke="black" cx="621" cy="-192.56" rx="66.89" ry="18"/>
<text text-anchor="middle" x="621" y="-188.86" font-family="Times,serif" font-size="14.00">token_setup</text>
</a>
</g>
</g>
<!-- DexterTests_chain&#45;&gt;DexterTests_token_setup -->
<g id="edge24" class="edge">
<title>DexterTests_chain&#45;&gt;DexterTests_token_setup</title>
<path fill="none" stroke="black" d="M743.08,-321.87C719.14,-296.71 672,-247.16 643.82,-217.54"/>
<polygon fill="black" stroke="black" points="646.17,-214.94 636.74,-210.11 641.1,-219.76 646.17,-214.94"/>
</g>
<!-- DexterTests_exchange_tokens_to_money_act -->
<g id="node20" class="node">
<title>DexterTests_exchange_tokens_to_money_act</title>
<g id="a_node20"><a xlink:href="DexterTests.html#exchange_tokens_to_money_act" xlink:title="exchange_tokens_to_money_act">
<ellipse fill="#f070d1" stroke="black" cx="539" cy="-338.56" rx="157.08" ry="18"/>
<ellipse fill="none" stroke="black" cx="539" cy="-338.56" rx="161.08" ry="22"/>
<ellipse fill="none" stroke="black" cx="539" cy="-338.56" rx="165.07" ry="26"/>
<text text-anchor="middle" x="539" y="-334.86" font-family="Times,serif" font-size="14.00">exchange_tokens_to_money_act</text>
</a>
</g>
</g>
<!-- DexterTests_exchange_tokens_to_money_act&#45;&gt;DexterTests_dexter_caddr -->
<g id="edge25" class="edge">
<title>DexterTests_exchange_tokens_to_money_act&#45;&gt;DexterTests_dexter_caddr</title>
<path fill="none" stroke="black" d="M526.11,-312.47C512.76,-286.49 491.99,-246.08 478.44,-219.71"/>
<polygon fill="black" stroke="black" points="481.49,-217.98 473.8,-210.68 475.26,-221.18 481.49,-217.98"/>
</g>
<!-- DexterTests_add_as_operator_act&#45;&gt;DexterTests_token_caddr -->
<g id="edge26" class="edge">
<title>DexterTests_add_as_operator_act&#45;&gt;DexterTests_token_caddr</title>
<path fill="none" stroke="black" d="M984.48,-174.43C1000.73,-152.14 1029.23,-113.02 1047.86,-87.46"/>
<polygon fill="black" stroke="black" points="1050.7,-89.49 1053.76,-79.35 1045.05,-85.37 1050.7,-89.49"/>
</g>
<!-- DexterTests_dexter_setup&#45;&gt;DexterTests_token_caddr -->
<g id="edge27" class="edge">
<title>DexterTests_dexter_setup&#45;&gt;DexterTests_token_caddr</title>
<path fill="none" stroke="black" d="M810.43,-176.63C863.21,-153.07 965.77,-107.29 1023.63,-81.47"/>
<polygon fill="black" stroke="black" points="1025.16,-84.62 1032.87,-77.35 1022.31,-78.23 1025.16,-84.62"/>
</g>
<!-- DexterTests_token_pool_size -->
<g id="node26" class="node">
<title>DexterTests_token_pool_size</title>
<g id="a_node26"><a xlink:href="DexterTests.html#token_pool_size" xlink:title="token_pool_size">
<ellipse fill="#f070d1" stroke="black" cx="699" cy="-61.56" rx="83.39" ry="18"/>
<text text-anchor="middle" x="699" y="-57.86" font-family="Times,serif" font-size="14.00">token_pool_size</text>
</a>
</g>
</g>
<!-- DexterTests_dexter_setup&#45;&gt;DexterTests_token_pool_size -->
<g id="edge28" class="edge">
<title>DexterTests_dexter_setup&#45;&gt;DexterTests_token_pool_size</title>
<path fill="none" stroke="black" d="M766.8,-174.69C753.49,-152.67 730.06,-113.92 714.53,-88.24"/>
<polygon fill="black" stroke="black" points="717.37,-86.17 709.2,-79.42 711.38,-89.79 717.37,-86.17"/>
</g>
<!-- DexterTests_token_setup&#45;&gt;DexterTests_token_pool_size -->
<g id="edge29" class="edge">
<title>DexterTests_token_setup&#45;&gt;DexterTests_token_pool_size</title>
<path fill="none" stroke="black" d="M631.2,-174.69C644.51,-152.67 667.94,-113.92 683.47,-88.24"/>
<polygon fill="black" stroke="black" points="686.62,-89.79 688.8,-79.42 680.63,-86.17 686.62,-89.79"/>
</g>
</g>
</svg>
