<?xml version="1.0" encoding="UTF-8" standalone="no"?>
<!DOCTYPE svg PUBLIC "-//W3C//DTD SVG 1.1//EN"
 "http://www.w3.org/Graphics/SVG/1.1/DTD/svg11.dtd">
<!-- Generated by graphviz version 2.43.0 (0)
 -->
<!-- Title: Monads Pages: 1 -->
<svg width="1400pt" height="704pt"
 viewBox="0.00 0.00 1400.00 704.00" xmlns="http://www.w3.org/2000/svg" xmlns:xlink="http://www.w3.org/1999/xlink">
<g id="graph0" class="graph" transform="scale(1 1) rotate(0) translate(4 700)">
<title>Monads</title>
<polygon fill="white" stroke="transparent" points="-4,4 -4,-700 1396,-700 1396,4 -4,4"/>
<g id="clust1" class="cluster">
<title>cluster_Monads</title>
<polygon fill="#ffffc3" stroke="black" points="8,-16.42 8,-679.58 1384,-679.58 1384,-16.42 8,-16.42"/>
<text text-anchor="middle" x="44.5" y="-664.38" font-family="Times,serif" font-size="14.00">Monads</text>
</g>
<!-- Monads_monad_foldl -->
<g id="node1" class="node">
<title>Monads_monad_foldl</title>
<g id="a_node1"><a xlink:href="Monads.html#monad_foldl" xlink:title="monad_foldl">
<ellipse fill="#f070d1" stroke="black" cx="1131" cy="-381.42" rx="66.89" ry="18"/>
<ellipse fill="none" stroke="black" cx="1131" cy="-381.42" rx="70.89" ry="22"/>
<ellipse fill="none" stroke="black" cx="1131" cy="-381.42" rx="74.89" ry="26"/>
<text text-anchor="middle" x="1131" y="-377.72" font-family="Times,serif" font-size="14.00">monad_foldl</text>
</a>
</g>
</g>
<!-- Monads_bind -->
<g id="node15" class="node">
<title>Monads_bind</title>
<g id="a_node15"><a xlink:href="Monads.html#bind" xlink:title="bind">
<ellipse fill="#f070d1" stroke="black" cx="849" cy="-217.42" rx="31.4" ry="18"/>
<text text-anchor="middle" x="849" y="-213.72" font-family="Times,serif" font-size="14.00">bind</text>
</a>
</g>
</g>
<!-- Monads_monad_foldl&#45;&gt;Monads_bind -->
<g id="edge1" class="edge">
<title>Monads_monad_foldl&#45;&gt;Monads_bind</title>
<path fill="none" stroke="black" d="M1093.26,-358.74C1036.63,-326.21 930.8,-265.41 879.05,-235.69"/>
<polygon fill="black" stroke="black" points="880.75,-232.63 870.33,-230.68 877.26,-238.7 880.75,-232.63"/>
</g>
<!-- Monads_ret -->
<g id="node16" class="node">
<title>Monads_ret</title>
<g id="a_node16"><a xlink:href="Monads.html#ret" xlink:title="ret">
<ellipse fill="#f070d1" stroke="black" cx="773" cy="-217.42" rx="27" ry="18"/>
<text text-anchor="middle" x="773" y="-213.72" font-family="Times,serif" font-size="14.00">ret</text>
</a>
</g>
</g>
<!-- Monads_monad_foldl&#45;&gt;Monads_ret -->
<g id="edge2" class="edge">
<title>Monads_monad_foldl&#45;&gt;Monads_ret</title>
<path fill="none" stroke="black" d="M1086.09,-360.51C1023.75,-332.79 907.54,-280.87 809,-235.42 807.21,-234.6 805.37,-233.75 803.52,-232.88"/>
<polygon fill="black" stroke="black" points="804.83,-229.63 794.29,-228.56 801.86,-235.97 804.83,-229.63"/>
</g>
<!-- Monads_monad_foldr -->
<g id="node2" class="node">
<title>Monads_monad_foldr</title>
<g id="a_node2"><a xlink:href="Monads.html#monad_foldr" xlink:title="monad_foldr">
<ellipse fill="#f070d1" stroke="black" cx="962" cy="-381.42" rx="68.46" ry="18"/>
<ellipse fill="none" stroke="black" cx="962" cy="-381.42" rx="72.48" ry="22"/>
<ellipse fill="none" stroke="black" cx="962" cy="-381.42" rx="76.49" ry="26"/>
<text text-anchor="middle" x="962" y="-377.72" font-family="Times,serif" font-size="14.00">monad_foldr</text>
</a>
</g>
</g>
<!-- Monads_monad_foldr&#45;&gt;Monads_bind -->
<g id="edge3" class="edge">
<title>Monads_monad_foldr&#45;&gt;Monads_bind</title>
<path fill="none" stroke="black" d="M944.84,-355.82C923.48,-325.21 887.25,-273.26 865.98,-242.77"/>
<polygon fill="black" stroke="black" points="868.74,-240.61 860.15,-234.41 863,-244.61 868.74,-240.61"/>
</g>
<!-- Monads_monad_foldr&#45;&gt;Monads_ret -->
<g id="edge4" class="edge">
<title>Monads_monad_foldr&#45;&gt;Monads_ret</title>
<path fill="none" stroke="black" d="M934.52,-356.87C897.36,-325.02 831.73,-268.77 796.66,-238.7"/>
<polygon fill="black" stroke="black" points="798.72,-235.86 788.84,-232.01 794.16,-241.17 798.72,-235.86"/>
</g>
<!-- Monads_monad_map_map -->
<g id="node3" class="node">
<title>Monads_monad_map_map</title>
<g id="a_node3"><a xlink:href="Monads.html#monad_map_map" xlink:title="monad_map_map">
<ellipse fill="#7fffd4" stroke="black" cx="203" cy="-562.42" rx="90.98" ry="18"/>
<ellipse fill="none" stroke="black" cx="203" cy="-562.42" rx="94.98" ry="22"/>
<ellipse fill="none" stroke="black" cx="203" cy="-562.42" rx="98.98" ry="26"/>
<text text-anchor="middle" x="203" y="-558.72" font-family="Times,serif" font-size="14.00">monad_map_map</text>
</a>
</g>
</g>
<!-- Monads_monad_map -->
<g id="node4" class="node">
<title>Monads_monad_map</title>
<g id="a_node4"><a xlink:href="Monads.html#monad_map" xlink:title="monad_map">
<ellipse fill="#f070d1" stroke="black" cx="443" cy="-381.42" rx="66.09" ry="18"/>
<text text-anchor="middle" x="443" y="-377.72" font-family="Times,serif" font-size="14.00">monad_map</text>
</a>
</g>
</g>
<!-- Monads_monad_map_map&#45;&gt;Monads_monad_map -->
<g id="edge5" class="edge">
<title>Monads_monad_map_map&#45;&gt;Monads_monad_map</title>
<path fill="none" stroke="black" d="M234.87,-537.65C281.47,-502.9 367.58,-438.68 413.06,-404.76"/>
<polygon fill="black" stroke="black" points="415.4,-407.38 421.32,-398.59 411.22,-401.76 415.4,-407.38"/>
</g>
<!-- Monads_monad_map&#45;&gt;Monads_bind -->
<g id="edge6" class="edge">
<title>Monads_monad_map&#45;&gt;Monads_bind</title>
<path fill="none" stroke="black" d="M479.48,-366.31C545.45,-340.73 688.87,-284.74 809,-235.42 811.04,-234.59 813.14,-233.72 815.25,-232.84"/>
<polygon fill="black" stroke="black" points="816.64,-236.05 824.5,-228.95 813.93,-229.6 816.64,-236.05"/>
</g>
<!-- Monads_monad_map&#45;&gt;Monads_ret -->
<g id="edge7" class="edge">
<title>Monads_monad_map&#45;&gt;Monads_ret</title>
<path fill="none" stroke="black" d="M473.75,-365.33C536.76,-334.4 679.86,-264.15 742.58,-233.36"/>
<polygon fill="black" stroke="black" points="744.15,-236.49 751.59,-228.94 741.07,-230.2 744.15,-236.49"/>
</g>
<!-- Monads_MonadLaws_Monad_option -->
<g id="node5" class="node">
<title>Monads_MonadLaws_Monad_option</title>
<g id="a_node5"><a xlink:href="Monads.html#MonadLaws_Monad_option" xlink:title="MonadLaws_Monad_option">
<ellipse fill="#7fffd4" stroke="black" cx="1232" cy="-562.42" rx="135.69" ry="18"/>
<ellipse fill="none" stroke="black" cx="1232" cy="-562.42" rx="139.68" ry="22"/>
<ellipse fill="none" stroke="black" cx="1232" cy="-562.42" rx="143.68" ry="26"/>
<text text-anchor="middle" x="1232" y="-558.72" font-family="Times,serif" font-size="14.00">MonadLaws_Monad_option</text>
</a>
</g>
</g>
<!-- Monads_Monad_option -->
<g id="node6" class="node">
<title>Monads_Monad_option</title>
<g id="a_node6"><a xlink:href="Monads.html#Monad_option" xlink:title="Monad_option">
<ellipse fill="#f070d1" stroke="black" cx="1300" cy="-381.42" rx="76.09" ry="18"/>
<text text-anchor="middle" x="1300" y="-377.72" font-family="Times,serif" font-size="14.00">Monad_option</text>
</a>
</g>
</g>
<!-- Monads_MonadLaws_Monad_option&#45;&gt;Monads_Monad_option -->
<g id="edge8" class="edge">
<title>Monads_MonadLaws_Monad_option&#45;&gt;Monads_Monad_option</title>
<path fill="none" stroke="black" d="M1241.6,-536.16C1254.39,-502.48 1276.93,-443.14 1289.95,-408.87"/>
<polygon fill="black" stroke="black" points="1293.23,-410.1 1293.51,-399.51 1286.69,-407.61 1293.23,-410.1"/>
</g>
<!-- Monads_build_monad_laws -->
<g id="node13" class="node">
<title>Monads_build_monad_laws</title>
<g id="a_node13"><a xlink:href="Monads.html#build_monad_laws" xlink:title="build_monad_laws">
<ellipse fill="#7faaff" stroke="black" cx="773" cy="-381.42" rx="94.78" ry="18"/>
<text text-anchor="middle" x="773" y="-377.72" font-family="Times,serif" font-size="14.00">build_monad_laws</text>
</a>
</g>
</g>
<!-- Monads_MonadLaws_Monad_option&#45;&gt;Monads_build_monad_laws -->
<g id="edge9" class="edge">
<title>Monads_MonadLaws_Monad_option&#45;&gt;Monads_build_monad_laws</title>
<path fill="none" stroke="black" d="M1173.4,-538.57C1081.95,-502.91 906.96,-434.66 821.87,-401.48"/>
<polygon fill="black" stroke="black" points="823.03,-398.18 812.44,-397.81 820.49,-404.7 823.03,-398.18"/>
</g>
<!-- Monads_MonadLaws -->
<g id="node14" class="node">
<title>Monads_MonadLaws</title>
<g id="a_node14"><a xlink:href="Monads.html#MonadLaws" xlink:title="MonadLaws">
<ellipse fill="#e2cdfa" stroke="black" cx="594" cy="-381.42" rx="66.09" ry="18"/>
<text text-anchor="middle" x="594" y="-377.72" font-family="Times,serif" font-size="14.00">MonadLaws</text>
</a>
</g>
</g>
<!-- Monads_MonadLaws_Monad_option&#45;&gt;Monads_MonadLaws -->
<g id="edge10" class="edge">
<title>Monads_MonadLaws_Monad_option&#45;&gt;Monads_MonadLaws</title>
<path fill="none" stroke="black" d="M1151.42,-540.87C1041.78,-512.56 839.68,-459.17 669,-407.42 660.6,-404.88 651.72,-402.04 643.12,-399.23"/>
<polygon fill="black" stroke="black" points="644.17,-395.89 633.57,-396.07 641.97,-402.53 644.17,-395.89"/>
</g>
<!-- Monads_build_monad -->
<g id="node17" class="node">
<title>Monads_build_monad</title>
<g id="a_node17"><a xlink:href="Monads.html#build_monad" xlink:title="build_monad">
<ellipse fill="#7faaff" stroke="black" cx="1300" cy="-217.42" rx="69.59" ry="18"/>
<text text-anchor="middle" x="1300" y="-213.72" font-family="Times,serif" font-size="14.00">build_monad</text>
</a>
</g>
</g>
<!-- Monads_Monad_option&#45;&gt;Monads_build_monad -->
<g id="edge11" class="edge">
<title>Monads_Monad_option&#45;&gt;Monads_build_monad</title>
<path fill="none" stroke="black" d="M1300,-363.39C1300,-335.39 1300,-279.39 1300,-245.78"/>
<polygon fill="black" stroke="black" points="1303.5,-245.71 1300,-235.71 1296.5,-245.71 1303.5,-245.71"/>
</g>
<!-- Monads_Monad -->
<g id="node18" class="node">
<title>Monads_Monad</title>
<g id="a_node18"><a xlink:href="Monads.html#Monad" xlink:title="Monad">
<ellipse fill="#e2cdfa" stroke="black" cx="849" cy="-69.42" rx="42.49" ry="18"/>
<text text-anchor="middle" x="849" y="-65.72" font-family="Times,serif" font-size="14.00">Monad</text>
</a>
</g>
</g>
<!-- Monads_Monad_option&#45;&gt;Monads_Monad -->
<g id="edge12" class="edge">
<title>Monads_Monad_option&#45;&gt;Monads_Monad</title>
<path fill="none" stroke="black" d="M1276.39,-364.19C1200.42,-311.97 962.38,-148.36 878.56,-90.75"/>
<polygon fill="black" stroke="black" points="880.48,-87.82 870.26,-85.04 876.52,-93.59 880.48,-87.82"/>
</g>
<!-- Monads_lift -->
<g id="node7" class="node">
<title>Monads_lift</title>
<g id="a_node7"><a xlink:href="Monads.html#lift" xlink:title="lift">
<ellipse fill="#f070d1" stroke="black" cx="51" cy="-562.42" rx="27" ry="18"/>
<ellipse fill="none" stroke="black" cx="51" cy="-562.42" rx="31" ry="22"/>
<ellipse fill="none" stroke="black" cx="51" cy="-562.42" rx="35" ry="26"/>
<text text-anchor="middle" x="51" y="-558.72" font-family="Times,serif" font-size="14.00">lift</text>
</a>
</g>
</g>
<!-- Monads_MonadTrans -->
<g id="node9" class="node">
<title>Monads_MonadTrans</title>
<g id="a_node9"><a xlink:href="Monads.html#MonadTrans" xlink:title="MonadTrans">
<ellipse fill="#e2cdfa" stroke="black" cx="85" cy="-381.42" rx="68.79" ry="18"/>
<text text-anchor="middle" x="85" y="-377.72" font-family="Times,serif" font-size="14.00">MonadTrans</text>
</a>
</g>
</g>
<!-- Monads_lift&#45;&gt;Monads_MonadTrans -->
<g id="edge13" class="edge">
<title>Monads_lift&#45;&gt;Monads_MonadTrans</title>
<path fill="none" stroke="black" d="M55.73,-536.54C62.08,-503.11 73.32,-443.92 79.87,-409.44"/>
<polygon fill="black" stroke="black" points="83.31,-410.07 81.74,-399.59 76.44,-408.76 83.31,-410.07"/>
</g>
<!-- Monads_Build_MonadTrans -->
<g id="node8" class="node">
<title>Monads_Build_MonadTrans</title>
<g id="a_node8"><a xlink:href="Monads.html#Build_MonadTrans" xlink:title="Build_MonadTrans">
<ellipse fill="#7faaff" stroke="black" cx="617" cy="-562.42" rx="97.48" ry="18"/>
<ellipse fill="none" stroke="black" cx="617" cy="-562.42" rx="101.48" ry="22"/>
<ellipse fill="none" stroke="black" cx="617" cy="-562.42" rx="105.48" ry="26"/>
<text text-anchor="middle" x="617" y="-558.72" font-family="Times,serif" font-size="14.00">Build_MonadTrans</text>
</a>
</g>
</g>
<!-- Monads_bind_assoc -->
<g id="node10" class="node">
<title>Monads_bind_assoc</title>
<g id="a_node10"><a xlink:href="Monads.html#bind_assoc" xlink:title="bind_assoc">
<ellipse fill="#7fffd4" stroke="black" cx="810" cy="-562.42" rx="61.18" ry="18"/>
<ellipse fill="none" stroke="black" cx="810" cy="-562.42" rx="65.18" ry="22"/>
<ellipse fill="none" stroke="black" cx="810" cy="-562.42" rx="69.19" ry="26"/>
<text text-anchor="middle" x="810" y="-558.72" font-family="Times,serif" font-size="14.00">bind_assoc</text>
</a>
</g>
</g>
<!-- Monads_bind_assoc&#45;&gt;Monads_MonadLaws -->
<g id="edge14" class="edge">
<title>Monads_bind_assoc&#45;&gt;Monads_MonadLaws</title>
<path fill="none" stroke="black" d="M782.2,-538.39C740.65,-503.95 662.81,-439.45 621.46,-405.18"/>
<polygon fill="black" stroke="black" points="623.63,-402.43 613.69,-398.74 619.16,-407.82 623.63,-402.43"/>
</g>
<!-- Monads_return_of_bind -->
<g id="node11" class="node">
<title>Monads_return_of_bind</title>
<g id="a_node11"><a xlink:href="Monads.html#return_of_bind" xlink:title="return_of_bind">
<ellipse fill="#7fffd4" stroke="black" cx="407" cy="-562.42" rx="78.77" ry="18"/>
<ellipse fill="none" stroke="black" cx="407" cy="-562.42" rx="82.78" ry="22"/>
<ellipse fill="none" stroke="black" cx="407" cy="-562.42" rx="86.79" ry="26"/>
<text text-anchor="middle" x="407" y="-558.72" font-family="Times,serif" font-size="14.00">return_of_bind</text>
</a>
</g>
</g>
<!-- Monads_return_of_bind&#45;&gt;Monads_MonadLaws -->
<g id="edge15" class="edge">
<title>Monads_return_of_bind&#45;&gt;Monads_MonadLaws</title>
<path fill="none" stroke="black" d="M432.22,-537.28C468.09,-502.95 533.43,-440.4 569.12,-406.24"/>
<polygon fill="black" stroke="black" points="571.88,-408.45 576.68,-399.01 567.03,-403.39 571.88,-408.45"/>
</g>
<!-- Monads_bind_of_return -->
<g id="node12" class="node">
<title>Monads_bind_of_return</title>
<g id="a_node12"><a xlink:href="Monads.html#bind_of_return" xlink:title="bind_of_return">
<ellipse fill="#7fffd4" stroke="black" cx="984" cy="-562.42" rx="78.77" ry="18"/>
<ellipse fill="none" stroke="black" cx="984" cy="-562.42" rx="82.78" ry="22"/>
<ellipse fill="none" stroke="black" cx="984" cy="-562.42" rx="86.79" ry="26"/>
<text text-anchor="middle" x="984" y="-558.72" font-family="Times,serif" font-size="14.00">bind_of_return</text>
</a>
</g>
</g>
<!-- Monads_bind_of_return&#45;&gt;Monads_MonadLaws -->
<g id="edge16" class="edge">
<title>Monads_bind_of_return&#45;&gt;Monads_MonadLaws</title>
<path fill="none" stroke="black" d="M938.12,-540.36C861.61,-505.25 709.16,-435.28 635.6,-401.52"/>
<polygon fill="black" stroke="black" points="636.73,-398.19 626.18,-397.2 633.81,-404.55 636.73,-398.19"/>
</g>
<!-- Monads_build_monad_laws&#45;&gt;Monads_bind -->
<g id="edge17" class="edge">
<title>Monads_build_monad_laws&#45;&gt;Monads_bind</title>
<path fill="none" stroke="black" d="M780.99,-363.39C794.31,-335 821.14,-277.82 836.82,-244.38"/>
<polygon fill="black" stroke="black" points="840.04,-245.77 841.12,-235.23 833.7,-242.79 840.04,-245.77"/>
</g>
<!-- Monads_build_monad_laws&#45;&gt;Monads_ret -->
<g id="edge18" class="edge">
<title>Monads_build_monad_laws&#45;&gt;Monads_ret</title>
<path fill="none" stroke="black" d="M773,-363.39C773,-335.39 773,-279.39 773,-245.78"/>
<polygon fill="black" stroke="black" points="776.5,-245.71 773,-235.71 769.5,-245.71 776.5,-245.71"/>
</g>
<!-- Monads_MonadLaws&#45;&gt;Monads_bind -->
<g id="edge19" class="edge">
<title>Monads_MonadLaws&#45;&gt;Monads_bind</title>
<path fill="none" stroke="black" d="M618.91,-364.6C666.44,-334.4 769.79,-268.75 820.2,-236.72"/>
<polygon fill="black" stroke="black" points="822.11,-239.65 828.68,-231.33 818.36,-233.74 822.11,-239.65"/>
</g>
<!-- Monads_MonadLaws&#45;&gt;Monads_ret -->
<g id="edge20" class="edge">
<title>Monads_MonadLaws&#45;&gt;Monads_ret</title>
<path fill="none" stroke="black" d="M612.15,-364C644.87,-334.39 713.7,-272.09 749.79,-239.43"/>
<polygon fill="black" stroke="black" points="752.33,-241.86 757.39,-232.55 747.63,-236.67 752.33,-241.86"/>
</g>
<!-- Monads_bind&#45;&gt;Monads_Monad -->
<g id="edge21" class="edge">
<title>Monads_bind&#45;&gt;Monads_Monad</title>
<path fill="none" stroke="black" d="M849,-199.39C849,-174.47 849,-127.8 849,-97.96"/>
<polygon fill="black" stroke="black" points="852.5,-97.8 849,-87.8 845.5,-97.8 852.5,-97.8"/>
</g>
<!-- Monads_ret&#45;&gt;Monads_Monad -->
<g id="edge22" class="edge">
<title>Monads_ret&#45;&gt;Monads_Monad</title>
<path fill="none" stroke="black" d="M781.42,-200.24C794.54,-175.05 819.94,-126.24 835.59,-96.18"/>
<polygon fill="black" stroke="black" points="838.79,-97.61 840.3,-87.13 832.58,-94.38 838.79,-97.61"/>
</g>
</g>
</svg>
