<?xml version="1.0" encoding="UTF-8" standalone="no"?>
<!DOCTYPE svg PUBLIC "-//W3C//DTD SVG 1.1//EN"
 "http://www.w3.org/Graphics/SVG/1.1/DTD/svg11.dtd">
<!-- Generated by graphviz version 2.43.0 (0)
 -->
<!-- Title: ContractCommon Pages: 1 -->
<svg width="1005pt" height="506pt"
 viewBox="0.00 0.00 1005.00 506.50" xmlns="http://www.w3.org/2000/svg" xmlns:xlink="http://www.w3.org/1999/xlink">
<g id="graph0" class="graph" transform="scale(1 1) rotate(0) translate(4 502.5)">
<title>ContractCommon</title>
<polygon fill="white" stroke="transparent" points="-4,4 -4,-502.5 1001,-502.5 1001,4 -4,4"/>
<g id="clust1" class="cluster">
<title>cluster_ContractCommon</title>
<polygon fill="#ffffc3" stroke="black" points="8,-14.77 8,-483.73 989,-483.73 989,-14.77 8,-14.77"/>
<text text-anchor="middle" x="79" y="-468.53" font-family="Times,serif" font-size="14.00">ContractCommon</text>
</g>
<g id="clust2" class="cluster">
<title>cluster_ContractCommon_AddressMap</title>
<polygon fill="#ffffa3" stroke="black" points="124,-147.7 124,-315.72 829,-315.72 829,-147.7 124,-147.7"/>
<text text-anchor="middle" x="177" y="-300.52" font-family="Times,serif" font-size="14.00">AddressMap</text>
</g>
<!-- ContractCommon_AddressMap_update -->
<g id="node1" class="node">
<title>ContractCommon_AddressMap_update</title>
<g id="a_node1"><a xlink:href="ContractCommon.html#AddressMap.update" xlink:title="update">
<ellipse fill="#f070d1" stroke="black" cx="770" cy="-210.77" rx="42.81" ry="18"/>
<ellipse fill="none" stroke="black" cx="770" cy="-210.77" rx="46.8" ry="22"/>
<ellipse fill="none" stroke="black" cx="770" cy="-210.77" rx="50.79" ry="26"/>
<text text-anchor="middle" x="770" y="-207.07" font-family="Times,serif" font-size="14.00">update</text>
</a>
</g>
</g>
<!-- ContractCommon_AddressMap_empty -->
<g id="node2" class="node">
<title>ContractCommon_AddressMap_empty</title>
<g id="a_node2"><a xlink:href="ContractCommon.html#AddressMap.empty" xlink:title="empty">
<ellipse fill="#f070d1" stroke="black" cx="653" cy="-210.77" rx="40.13" ry="18"/>
<ellipse fill="none" stroke="black" cx="653" cy="-210.77" rx="44.11" ry="22"/>
<ellipse fill="none" stroke="black" cx="653" cy="-210.77" rx="48.09" ry="26"/>
<text text-anchor="middle" x="653" y="-207.07" font-family="Times,serif" font-size="14.00">empty</text>
</a>
</g>
</g>
<!-- ContractCommon_AddressMap_of_list -->
<g id="node3" class="node">
<title>ContractCommon_AddressMap_of_list</title>
<g id="a_node3"><a xlink:href="ContractCommon.html#AddressMap.of_list" xlink:title="of_list">
<ellipse fill="#f070d1" stroke="black" cx="540" cy="-210.77" rx="38.22" ry="18"/>
<ellipse fill="none" stroke="black" cx="540" cy="-210.77" rx="42.21" ry="22"/>
<ellipse fill="none" stroke="black" cx="540" cy="-210.77" rx="46.19" ry="26"/>
<text text-anchor="middle" x="540" y="-207.07" font-family="Times,serif" font-size="14.00">of_list</text>
</a>
</g>
</g>
<!-- ContractCommon_AddressMap_keys -->
<g id="node4" class="node">
<title>ContractCommon_AddressMap_keys</title>
<g id="a_node4"><a xlink:href="ContractCommon.html#AddressMap.keys" xlink:title="keys">
<ellipse fill="#f070d1" stroke="black" cx="436" cy="-210.77" rx="31.73" ry="18"/>
<ellipse fill="none" stroke="black" cx="436" cy="-210.77" rx="35.71" ry="22"/>
<ellipse fill="none" stroke="black" cx="436" cy="-210.77" rx="39.69" ry="26"/>
<text text-anchor="middle" x="436" y="-207.07" font-family="Times,serif" font-size="14.00">keys</text>
</a>
</g>
</g>
<!-- ContractCommon_AddressMap_values -->
<g id="node5" class="node">
<title>ContractCommon_AddressMap_values</title>
<g id="a_node5"><a xlink:href="ContractCommon.html#AddressMap.values" xlink:title="values">
<ellipse fill="#f070d1" stroke="black" cx="330" cy="-210.77" rx="40.13" ry="18"/>
<ellipse fill="none" stroke="black" cx="330" cy="-210.77" rx="44.11" ry="22"/>
<ellipse fill="none" stroke="black" cx="330" cy="-210.77" rx="48.09" ry="26"/>
<text text-anchor="middle" x="330" y="-207.07" font-family="Times,serif" font-size="14.00">values</text>
</a>
</g>
</g>
<!-- ContractCommon_AddressMap_add -->
<g id="node6" class="node">
<title>ContractCommon_AddressMap_add</title>
<g id="a_node6"><a xlink:href="ContractCommon.html#AddressMap.add" xlink:title="add">
<ellipse fill="#f070d1" stroke="black" cx="236" cy="-210.77" rx="27.9" ry="18"/>
<text text-anchor="middle" x="236" y="-207.07" font-family="Times,serif" font-size="14.00">add</text>
</a>
</g>
</g>
<!-- ContractCommon_AddressMap_find -->
<g id="node7" class="node">
<title>ContractCommon_AddressMap_find</title>
<g id="a_node7"><a xlink:href="ContractCommon.html#AddressMap.find" xlink:title="find">
<ellipse fill="#f070d1" stroke="black" cx="161" cy="-210.77" rx="28.7" ry="18"/>
<text text-anchor="middle" x="161" y="-207.07" font-family="Times,serif" font-size="14.00">find</text>
</a>
</g>
</g>
<!-- ContractCommon_throwIf -->
<g id="node8" class="node">
<title>ContractCommon_throwIf</title>
<g id="a_node8"><a xlink:href="ContractCommon.html#throwIf" xlink:title="throwIf">
<ellipse fill="#f070d1" stroke="black" cx="928" cy="-378.77" rx="44.72" ry="18"/>
<ellipse fill="none" stroke="black" cx="928" cy="-378.77" rx="48.7" ry="22"/>
<ellipse fill="none" stroke="black" cx="928" cy="-378.77" rx="52.69" ry="26"/>
<text text-anchor="middle" x="928" y="-375.07" font-family="Times,serif" font-size="14.00">throwIf</text>
</a>
</g>
</g>
<!-- ContractCommon_maybe_sub_add -->
<g id="node9" class="node">
<title>ContractCommon_maybe_sub_add</title>
<g id="a_node9"><a xlink:href="ContractCommon.html#maybe_sub_add" xlink:title="maybe_sub_add">
<ellipse fill="#7fffd4" stroke="black" cx="765" cy="-378.77" rx="83.7" ry="18"/>
<ellipse fill="none" stroke="black" cx="765" cy="-378.77" rx="87.69" ry="22"/>
<ellipse fill="none" stroke="black" cx="765" cy="-378.77" rx="91.69" ry="26"/>
<text text-anchor="middle" x="765" y="-375.07" font-family="Times,serif" font-size="14.00">maybe_sub_add</text>
</a>
</g>
</g>
<!-- ContractCommon_maybe_cases -->
<g id="node10" class="node">
<title>ContractCommon_maybe_cases</title>
<g id="a_node10"><a xlink:href="ContractCommon.html#maybe_cases" xlink:title="maybe_cases">
<ellipse fill="#7fffd4" stroke="black" cx="910" cy="-210.77" rx="71.49" ry="18"/>
<text text-anchor="middle" x="910" y="-207.07" font-family="Times,serif" font-size="14.00">maybe_cases</text>
</a>
</g>
</g>
<!-- ContractCommon_maybe_sub_add&#45;&gt;ContractCommon_maybe_cases -->
<g id="edge1" class="edge">
<title>ContractCommon_maybe_sub_add&#45;&gt;ContractCommon_maybe_cases</title>
<path fill="none" stroke="black" d="M786.4,-353.28C813.73,-321.98 860.79,-268.11 888.28,-236.64"/>
<polygon fill="black" stroke="black" points="891.21,-238.6 895.15,-228.77 885.94,-234 891.21,-238.6"/>
</g>
<!-- ContractCommon_maybe -->
<g id="node11" class="node">
<title>ContractCommon_maybe</title>
<g id="a_node11"><a xlink:href="ContractCommon.html#maybe" xlink:title="maybe">
<ellipse fill="#f070d1" stroke="black" cx="910" cy="-62.77" rx="41.69" ry="18"/>
<text text-anchor="middle" x="910" y="-59.07" font-family="Times,serif" font-size="14.00">maybe</text>
</a>
</g>
</g>
<!-- ContractCommon_maybe_cases&#45;&gt;ContractCommon_maybe -->
<g id="edge2" class="edge">
<title>ContractCommon_maybe_cases&#45;&gt;ContractCommon_maybe</title>
<path fill="none" stroke="black" d="M910,-192.74C910,-167.81 910,-121.14 910,-91.31"/>
<polygon fill="black" stroke="black" points="913.5,-91.15 910,-81.15 906.5,-91.15 913.5,-91.15"/>
</g>
<!-- ContractCommon_AddressMap_add_convertible -->
<g id="node12" class="node">
<title>ContractCommon_AddressMap_add_convertible</title>
<g id="a_node12"><a xlink:href="ContractCommon.html#AddressMap_add_convertible" xlink:title="AddressMap_add_convertible">
<ellipse fill="#7fffd4" stroke="black" cx="500" cy="-378.77" rx="146.78" ry="18"/>
<ellipse fill="none" stroke="black" cx="500" cy="-378.77" rx="150.78" ry="22"/>
<ellipse fill="none" stroke="black" cx="500" cy="-378.77" rx="154.77" ry="26"/>
<text text-anchor="middle" x="500" y="-375.07" font-family="Times,serif" font-size="14.00">AddressMap_add_convertible</text>
</a>
</g>
</g>
<!-- ContractCommon_AddressMap_add_convertible&#45;&gt;ContractCommon_AddressMap_add -->
<g id="edge3" class="edge">
<title>ContractCommon_AddressMap_add_convertible&#45;&gt;ContractCommon_AddressMap_add</title>
<path fill="none" stroke="black" d="M431.09,-355.45C382.92,-337.37 319.21,-308.23 273,-267.77 263.24,-259.22 254.96,-247.51 248.73,-237.01"/>
<polygon fill="black" stroke="black" points="251.74,-235.21 243.8,-228.2 245.63,-238.64 251.74,-235.21"/>
</g>
<!-- ContractCommon_AddressMap_find_convertible -->
<g id="node13" class="node">
<title>ContractCommon_AddressMap_find_convertible</title>
<g id="a_node13"><a xlink:href="ContractCommon.html#AddressMap_find_convertible" xlink:title="AddressMap_find_convertible">
<ellipse fill="#7fffd4" stroke="black" cx="172" cy="-378.77" rx="147.57" ry="18"/>
<ellipse fill="none" stroke="black" cx="172" cy="-378.77" rx="151.57" ry="22"/>
<ellipse fill="none" stroke="black" cx="172" cy="-378.77" rx="155.57" ry="26"/>
<text text-anchor="middle" x="172" y="-375.07" font-family="Times,serif" font-size="14.00">AddressMap_find_convertible</text>
</a>
</g>
</g>
<!-- ContractCommon_AddressMap_find_convertible&#45;&gt;ContractCommon_AddressMap_find -->
<g id="edge4" class="edge">
<title>ContractCommon_AddressMap_find_convertible&#45;&gt;ContractCommon_AddressMap_find</title>
<path fill="none" stroke="black" d="M170.33,-352.56C168.31,-322.05 164.92,-270.87 162.83,-239.34"/>
<polygon fill="black" stroke="black" points="166.3,-238.82 162.15,-229.08 159.32,-239.28 166.3,-238.82"/>
</g>
</g>
</svg>
