<?xml version="1.0" encoding="UTF-8" standalone="no"?>
<!DOCTYPE svg PUBLIC "-//W3C//DTD SVG 1.1//EN"
 "http://www.w3.org/Graphics/SVG/1.1/DTD/svg11.dtd">
<!-- Generated by graphviz version 2.43.0 (0)
 -->
<!-- Title: CameLIGOCounter Pages: 1 -->
<svg width="1028pt" height="518pt"
 viewBox="0.00 0.00 1028.00 518.00" xmlns="http://www.w3.org/2000/svg" xmlns:xlink="http://www.w3.org/1999/xlink">
<g id="graph0" class="graph" transform="scale(1 1) rotate(0) translate(4 514)">
<title>CameLIGOCounter</title>
<polygon fill="white" stroke="transparent" points="-4,4 -4,-514 1024,-514 1024,4 -4,4"/>
<g id="clust1" class="cluster">
<title>cluster_CameLIGOCounter</title>
<polygon fill="#ffffc3" stroke="black" points="9,-8 9,-502 1011,-502 1011,-8 9,-8"/>
<text text-anchor="middle" x="85" y="-486.8" font-family="Times,serif" font-size="14.00">CameLIGOCounter</text>
</g>
<g id="clust2" class="cluster">
<title>cluster_CameLIGOCounter_Counter</title>
<polygon fill="#ffffa3" stroke="black" points="17.99,-16 17.99,-411 774.84,-411 774.84,-16 17.99,-16"/>
<text text-anchor="middle" x="54.99" y="-395.8" font-family="Times,serif" font-size="14.00">Counter</text>
</g>
<!-- CameLIGOCounter_Counter_LIGO_COUNTER_MODULE -->
<g id="node1" class="node">
<title>CameLIGOCounter_Counter_LIGO_COUNTER_MODULE</title>
<g id="a_node1"><a xlink:href="CameLIGOCounter.html#Counter.LIGO_COUNTER_MODULE" xlink:title="LIGO_COUNTER_MODULE">
<ellipse fill="#f070d1" stroke="black" cx="560.06" cy="-362" rx="137.28" ry="18"/>
<text text-anchor="middle" x="560.06" y="-358.3" font-family="Times,serif" font-size="14.00">LIGO_COUNTER_MODULE</text>
</a>
</g>
</g>
<!-- CameLIGOCounter_Counter_counter -->
<g id="node2" class="node">
<title>CameLIGOCounter_Counter_counter</title>
<g id="a_node2"><a xlink:href="CameLIGOCounter.html#Counter.counter" xlink:title="counter">
<ellipse fill="#f070d1" stroke="black" cx="560.06" cy="-282" rx="46.29" ry="18"/>
<text text-anchor="middle" x="560.06" y="-278.3" font-family="Times,serif" font-size="14.00">counter</text>
</a>
</g>
</g>
<!-- CameLIGOCounter_Counter_LIGO_COUNTER_MODULE&#45;&gt;CameLIGOCounter_Counter_counter -->
<g id="edge1" class="edge">
<title>CameLIGOCounter_Counter_LIGO_COUNTER_MODULE&#45;&gt;CameLIGOCounter_Counter_counter</title>
<path fill="none" stroke="black" d="M560.06,-343.69C560.06,-333.89 560.06,-321.42 560.06,-310.33"/>
<polygon fill="black" stroke="black" points="563.56,-310.26 560.06,-300.26 556.56,-310.26 563.56,-310.26"/>
</g>
<!-- CameLIGOCounter_Counter_init -->
<g id="node13" class="node">
<title>CameLIGOCounter_Counter_init</title>
<g id="a_node13"><a xlink:href="CameLIGOCounter.html#Counter.init" xlink:title="init">
<ellipse fill="#f070d1" stroke="black" cx="698.06" cy="-282" rx="27" ry="18"/>
<text text-anchor="middle" x="698.06" y="-278.3" font-family="Times,serif" font-size="14.00">init</text>
</a>
</g>
</g>
<!-- CameLIGOCounter_Counter_LIGO_COUNTER_MODULE&#45;&gt;CameLIGOCounter_Counter_init -->
<g id="edge2" class="edge">
<title>CameLIGOCounter_Counter_LIGO_COUNTER_MODULE&#45;&gt;CameLIGOCounter_Counter_init</title>
<path fill="none" stroke="black" d="M589.66,-344.27C613.15,-330.99 645.81,-312.53 669.12,-299.35"/>
<polygon fill="black" stroke="black" points="670.89,-302.38 677.87,-294.41 667.44,-296.28 670.89,-302.38"/>
</g>
<!-- CameLIGOCounter_Counter_counter_inner -->
<g id="node3" class="node">
<title>CameLIGOCounter_Counter_counter_inner</title>
<g id="a_node3"><a xlink:href="CameLIGOCounter.html#Counter.counter_inner" xlink:title="counter_inner">
<ellipse fill="#f070d1" stroke="black" cx="560.06" cy="-194" rx="75.29" ry="18"/>
<text text-anchor="middle" x="560.06" y="-190.3" font-family="Times,serif" font-size="14.00">counter_inner</text>
</a>
</g>
</g>
<!-- CameLIGOCounter_Counter_counter&#45;&gt;CameLIGOCounter_Counter_counter_inner -->
<g id="edge3" class="edge">
<title>CameLIGOCounter_Counter_counter&#45;&gt;CameLIGOCounter_Counter_counter_inner</title>
<path fill="none" stroke="black" d="M560.06,-263.6C560.06,-251.75 560.06,-235.82 560.06,-222.29"/>
<polygon fill="black" stroke="black" points="563.56,-222.08 560.06,-212.08 556.56,-222.08 563.56,-222.08"/>
</g>
<!-- CameLIGOCounter_Counter_dec_balance -->
<g id="node4" class="node">
<title>CameLIGOCounter_Counter_dec_balance</title>
<g id="a_node4"><a xlink:href="CameLIGOCounter.html#Counter.dec_balance" xlink:title="dec_balance">
<ellipse fill="#f070d1" stroke="black" cx="668.06" cy="-114" rx="66.89" ry="18"/>
<text text-anchor="middle" x="668.06" y="-110.3" font-family="Times,serif" font-size="14.00">dec_balance</text>
</a>
</g>
</g>
<!-- CameLIGOCounter_Counter_counter_inner&#45;&gt;CameLIGOCounter_Counter_dec_balance -->
<g id="edge4" class="edge">
<title>CameLIGOCounter_Counter_counter_inner&#45;&gt;CameLIGOCounter_Counter_dec_balance</title>
<path fill="none" stroke="black" d="M582.7,-176.65C598.64,-165.13 620.17,-149.58 637.62,-136.98"/>
<polygon fill="black" stroke="black" points="639.76,-139.75 645.81,-131.06 635.66,-134.08 639.76,-139.75"/>
</g>
<!-- CameLIGOCounter_Counter_inc_balance -->
<g id="node5" class="node">
<title>CameLIGOCounter_Counter_inc_balance</title>
<g id="a_node5"><a xlink:href="CameLIGOCounter.html#Counter.inc_balance" xlink:title="inc_balance">
<ellipse fill="#f070d1" stroke="black" cx="500.06" cy="-114" rx="64.19" ry="18"/>
<text text-anchor="middle" x="500.06" y="-110.3" font-family="Times,serif" font-size="14.00">inc_balance</text>
</a>
</g>
</g>
<!-- CameLIGOCounter_Counter_counter_inner&#45;&gt;CameLIGOCounter_Counter_inc_balance -->
<g id="edge5" class="edge">
<title>CameLIGOCounter_Counter_counter_inner&#45;&gt;CameLIGOCounter_Counter_inc_balance</title>
<path fill="none" stroke="black" d="M547.04,-176.08C538.94,-165.55 528.38,-151.82 519.32,-140.05"/>
<polygon fill="black" stroke="black" points="521.92,-137.68 513.05,-131.89 516.37,-141.95 521.92,-137.68"/>
</g>
<!-- CameLIGOCounter_Counter_msg -->
<g id="node12" class="node">
<title>CameLIGOCounter_Counter_msg</title>
<g id="a_node12"><a xlink:href="CameLIGOCounter.html#Counter.msg" xlink:title="msg">
<ellipse fill="#e2cdfa" stroke="black" cx="228.06" cy="-114" rx="30.59" ry="18"/>
<text text-anchor="middle" x="228.06" y="-110.3" font-family="Times,serif" font-size="14.00">msg</text>
</a>
</g>
</g>
<!-- CameLIGOCounter_Counter_counter_inner&#45;&gt;CameLIGOCounter_Counter_msg -->
<g id="edge6" class="edge">
<title>CameLIGOCounter_Counter_counter_inner&#45;&gt;CameLIGOCounter_Counter_msg</title>
<path fill="none" stroke="black" d="M509.62,-180.52C492.63,-176.41 473.55,-171.9 456.06,-168 378.55,-150.72 357.86,-152.16 281.06,-132 275.31,-130.49 269.26,-128.73 263.39,-126.92"/>
<polygon fill="black" stroke="black" points="264.36,-123.55 253.77,-123.86 262.24,-130.22 264.36,-123.55"/>
</g>
<!-- CameLIGOCounter_Counter_operation -->
<g id="node15" class="node">
<title>CameLIGOCounter_Counter_operation</title>
<g id="a_node15"><a xlink:href="CameLIGOCounter.html#Counter.operation" xlink:title="operation">
<ellipse fill="#f070d1" stroke="black" cx="345.06" cy="-114" rx="55.49" ry="18"/>
<text text-anchor="middle" x="345.06" y="-110.3" font-family="Times,serif" font-size="14.00">operation</text>
</a>
</g>
</g>
<!-- CameLIGOCounter_Counter_counter_inner&#45;&gt;CameLIGOCounter_Counter_operation -->
<g id="edge7" class="edge">
<title>CameLIGOCounter_Counter_counter_inner&#45;&gt;CameLIGOCounter_Counter_operation</title>
<path fill="none" stroke="black" d="M520.37,-178.6C483.46,-165.21 428.52,-145.28 390,-131.31"/>
<polygon fill="black" stroke="black" points="391.18,-128.01 380.59,-127.89 388.79,-134.59 391.18,-128.01"/>
</g>
<!-- CameLIGOCounter_Counter_storage -->
<g id="node14" class="node">
<title>CameLIGOCounter_Counter_storage</title>
<g id="a_node14"><a xlink:href="CameLIGOCounter.html#Counter.storage" xlink:title="storage">
<ellipse fill="#f070d1" stroke="black" cx="668.06" cy="-42" rx="46.29" ry="18"/>
<text text-anchor="middle" x="668.06" y="-38.3" font-family="Times,serif" font-size="14.00">storage</text>
</a>
</g>
</g>
<!-- CameLIGOCounter_Counter_dec_balance&#45;&gt;CameLIGOCounter_Counter_storage -->
<g id="edge8" class="edge">
<title>CameLIGOCounter_Counter_dec_balance&#45;&gt;CameLIGOCounter_Counter_storage</title>
<path fill="none" stroke="black" d="M668.06,-95.7C668.06,-87.98 668.06,-78.71 668.06,-70.11"/>
<polygon fill="black" stroke="black" points="671.56,-70.1 668.06,-60.1 664.56,-70.1 671.56,-70.1"/>
</g>
<!-- CameLIGOCounter_Counter_inc_balance&#45;&gt;CameLIGOCounter_Counter_storage -->
<g id="edge9" class="edge">
<title>CameLIGOCounter_Counter_inc_balance&#45;&gt;CameLIGOCounter_Counter_storage</title>
<path fill="none" stroke="black" d="M534.46,-98.67C561.71,-87.31 599.82,-71.43 628.36,-59.54"/>
<polygon fill="black" stroke="black" points="629.76,-62.75 637.65,-55.67 627.07,-56.29 629.76,-62.75"/>
</g>
<!-- CameLIGOCounter_Counter_msg_sind -->
<g id="node6" class="node">
<title>CameLIGOCounter_Counter_msg_sind</title>
<g id="a_node6"><a xlink:href="CameLIGOCounter.html#Counter.msg_sind" xlink:title="msg_sind">
<ellipse fill="#f070d1" stroke="black" cx="236.06" cy="-194" rx="53.9" ry="18"/>
<ellipse fill="none" stroke="black" cx="236.06" cy="-194" rx="57.89" ry="22"/>
<ellipse fill="none" stroke="black" cx="236.06" cy="-194" rx="61.89" ry="26"/>
<text text-anchor="middle" x="236.06" y="-190.3" font-family="Times,serif" font-size="14.00">msg_sind</text>
</a>
</g>
</g>
<!-- CameLIGOCounter_Counter_Dec -->
<g id="node10" class="node">
<title>CameLIGOCounter_Counter_Dec</title>
<g id="a_node10"><a xlink:href="CameLIGOCounter.html#Counter.Dec" xlink:title="Dec">
<ellipse fill="#7faaff" stroke="black" cx="60.06" cy="-114" rx="28.7" ry="18"/>
<text text-anchor="middle" x="60.06" y="-110.3" font-family="Times,serif" font-size="14.00">Dec</text>
</a>
</g>
</g>
<!-- CameLIGOCounter_Counter_msg_sind&#45;&gt;CameLIGOCounter_Counter_Dec -->
<g id="edge10" class="edge">
<title>CameLIGOCounter_Counter_msg_sind&#45;&gt;CameLIGOCounter_Counter_Dec</title>
<path fill="none" stroke="black" d="M194.35,-174.52C163.11,-160.67 121,-142.01 92.32,-129.3"/>
<polygon fill="black" stroke="black" points="93.7,-126.08 83.14,-125.23 90.86,-132.48 93.7,-126.08"/>
</g>
<!-- CameLIGOCounter_Counter_Inc -->
<g id="node11" class="node">
<title>CameLIGOCounter_Counter_Inc</title>
<g id="a_node11"><a xlink:href="CameLIGOCounter.html#Counter.Inc" xlink:title="Inc">
<ellipse fill="#7faaff" stroke="black" cx="143.06" cy="-114" rx="27" ry="18"/>
<text text-anchor="middle" x="143.06" y="-110.3" font-family="Times,serif" font-size="14.00">Inc</text>
</a>
</g>
</g>
<!-- CameLIGOCounter_Counter_msg_sind&#45;&gt;CameLIGOCounter_Counter_Inc -->
<g id="edge11" class="edge">
<title>CameLIGOCounter_Counter_msg_sind&#45;&gt;CameLIGOCounter_Counter_Inc</title>
<path fill="none" stroke="black" d="M209.16,-170.44C195.87,-159.29 179.96,-145.95 167.08,-135.15"/>
<polygon fill="black" stroke="black" points="169.03,-132.22 159.12,-128.47 164.53,-137.58 169.03,-132.22"/>
</g>
<!-- CameLIGOCounter_Counter_msg_sind&#45;&gt;CameLIGOCounter_Counter_msg -->
<g id="edge12" class="edge">
<title>CameLIGOCounter_Counter_msg_sind&#45;&gt;CameLIGOCounter_Counter_msg</title>
<path fill="none" stroke="black" d="M233.48,-167.89C232.64,-159.75 231.71,-150.68 230.86,-142.38"/>
<polygon fill="black" stroke="black" points="234.34,-142 229.84,-132.41 227.38,-142.72 234.34,-142"/>
</g>
<!-- CameLIGOCounter_Counter_msg_rec -->
<g id="node7" class="node">
<title>CameLIGOCounter_Counter_msg_rec</title>
<g id="a_node7"><a xlink:href="CameLIGOCounter.html#Counter.msg_rec" xlink:title="msg_rec">
<ellipse fill="#f070d1" stroke="black" cx="91.06" cy="-282" rx="49.31" ry="18"/>
<ellipse fill="none" stroke="black" cx="91.06" cy="-282" rx="53.3" ry="22"/>
<ellipse fill="none" stroke="black" cx="91.06" cy="-282" rx="57.29" ry="26"/>
<text text-anchor="middle" x="91.06" y="-278.3" font-family="Times,serif" font-size="14.00">msg_rec</text>
</a>
</g>
</g>
<!-- CameLIGOCounter_Counter_msg_rect -->
<g id="node9" class="node">
<title>CameLIGOCounter_Counter_msg_rect</title>
<g id="a_node9"><a xlink:href="CameLIGOCounter.html#Counter.msg_rect" xlink:title="msg_rect">
<ellipse fill="#f070d1" stroke="black" cx="87.06" cy="-194" rx="53.09" ry="18"/>
<text text-anchor="middle" x="87.06" y="-190.3" font-family="Times,serif" font-size="14.00">msg_rect</text>
</a>
</g>
</g>
<!-- CameLIGOCounter_Counter_msg_rec&#45;&gt;CameLIGOCounter_Counter_msg_rect -->
<g id="edge13" class="edge">
<title>CameLIGOCounter_Counter_msg_rec&#45;&gt;CameLIGOCounter_Counter_msg_rect</title>
<path fill="none" stroke="black" d="M89.88,-255.66C89.39,-245.11 88.82,-232.84 88.32,-222.1"/>
<polygon fill="black" stroke="black" points="91.81,-221.83 87.85,-212 84.81,-222.16 91.81,-221.83"/>
</g>
<!-- CameLIGOCounter_Counter_msg_ind -->
<g id="node8" class="node">
<title>CameLIGOCounter_Counter_msg_ind</title>
<g id="a_node8"><a xlink:href="CameLIGOCounter.html#Counter.msg_ind" xlink:title="msg_ind">
<ellipse fill="#7fffd4" stroke="black" cx="390.06" cy="-194" rx="49.31" ry="18"/>
<ellipse fill="none" stroke="black" cx="390.06" cy="-194" rx="53.3" ry="22"/>
<ellipse fill="none" stroke="black" cx="390.06" cy="-194" rx="57.29" ry="26"/>
<text text-anchor="middle" x="390.06" y="-190.3" font-family="Times,serif" font-size="14.00">msg_ind</text>
</a>
</g>
</g>
<!-- CameLIGOCounter_Counter_msg_ind&#45;&gt;CameLIGOCounter_Counter_Dec -->
<g id="edge14" class="edge">
<title>CameLIGOCounter_Counter_msg_ind&#45;&gt;CameLIGOCounter_Counter_Dec</title>
<path fill="none" stroke="black" d="M344.21,-178.17C332.2,-174.56 319.2,-170.91 307.06,-168 219.23,-146.94 194.28,-155.44 107.06,-132 102.6,-130.8 97.96,-129.37 93.42,-127.85"/>
<polygon fill="black" stroke="black" points="94.31,-124.45 83.72,-124.44 91.99,-131.06 94.31,-124.45"/>
</g>
<!-- CameLIGOCounter_Counter_msg_ind&#45;&gt;CameLIGOCounter_Counter_Inc -->
<g id="edge15" class="edge">
<title>CameLIGOCounter_Counter_msg_ind&#45;&gt;CameLIGOCounter_Counter_Inc</title>
<path fill="none" stroke="black" d="M343.07,-178.86C284.59,-161.24 191.84,-133.29 188.06,-132 183.96,-130.61 179.69,-129.09 175.47,-127.54"/>
<polygon fill="black" stroke="black" points="176.43,-124.17 165.84,-123.95 173.98,-130.73 176.43,-124.17"/>
</g>
<!-- CameLIGOCounter_Counter_msg_ind&#45;&gt;CameLIGOCounter_Counter_msg -->
<g id="edge16" class="edge">
<title>CameLIGOCounter_Counter_msg_ind&#45;&gt;CameLIGOCounter_Counter_msg</title>
<path fill="none" stroke="black" d="M351.66,-174.52C323.83,-161.11 286.61,-143.2 260.31,-130.53"/>
<polygon fill="black" stroke="black" points="261.68,-127.31 251.16,-126.12 258.65,-133.61 261.68,-127.31"/>
</g>
<!-- CameLIGOCounter_Counter_msg_rect&#45;&gt;CameLIGOCounter_Counter_Dec -->
<g id="edge17" class="edge">
<title>CameLIGOCounter_Counter_msg_rect&#45;&gt;CameLIGOCounter_Counter_Dec</title>
<path fill="none" stroke="black" d="M81.2,-176.08C77.69,-165.96 73.17,-152.88 69.2,-141.43"/>
<polygon fill="black" stroke="black" points="72.48,-140.2 65.9,-131.89 65.87,-142.49 72.48,-140.2"/>
</g>
<!-- CameLIGOCounter_Counter_msg_rect&#45;&gt;CameLIGOCounter_Counter_Inc -->
<g id="edge18" class="edge">
<title>CameLIGOCounter_Counter_msg_rect&#45;&gt;CameLIGOCounter_Counter_Inc</title>
<path fill="none" stroke="black" d="M99.21,-176.08C107.02,-165.19 117.3,-150.88 125.94,-138.84"/>
<polygon fill="black" stroke="black" points="128.89,-140.73 131.88,-130.57 123.2,-136.65 128.89,-140.73"/>
</g>
<!-- CameLIGOCounter_Counter_msg_rect&#45;&gt;CameLIGOCounter_Counter_msg -->
<g id="edge19" class="edge">
<title>CameLIGOCounter_Counter_msg_rect&#45;&gt;CameLIGOCounter_Counter_msg</title>
<path fill="none" stroke="black" d="M113.58,-178.33C137.34,-165.18 172.21,-145.89 197.22,-132.06"/>
<polygon fill="black" stroke="black" points="199.22,-134.95 206.28,-127.05 195.83,-128.83 199.22,-134.95"/>
</g>
<!-- CameLIGOCounter_Counter_init&#45;&gt;CameLIGOCounter_Counter_storage -->
<g id="edge20" class="edge">
<title>CameLIGOCounter_Counter_init&#45;&gt;CameLIGOCounter_Counter_storage</title>
<path fill="none" stroke="black" d="M708.9,-265.51C730.5,-232.59 774.29,-153.95 744.06,-96 736.11,-80.76 721.56,-69.02 707.3,-60.5"/>
<polygon fill="black" stroke="black" points="708.96,-57.42 698.52,-55.61 705.56,-63.53 708.96,-57.42"/>
</g>
<!-- CameLIGOCounter_cameLIGO_counter_1 -->
<g id="node16" class="node">
<title>CameLIGOCounter_cameLIGO_counter_1</title>
<g id="a_node16"><a xlink:href="CameLIGOCounter.html#cameLIGO_counter_1" xlink:title="cameLIGO_counter_1">
<ellipse fill="#f070d1" stroke="black" cx="870.06" cy="-445" rx="109.37" ry="18"/>
<ellipse fill="none" stroke="black" cx="870.06" cy="-445" rx="113.37" ry="22"/>
<ellipse fill="none" stroke="black" cx="870.06" cy="-445" rx="117.38" ry="26"/>
<text text-anchor="middle" x="870.06" y="-441.3" font-family="Times,serif" font-size="14.00">cameLIGO_counter_1</text>
</a>
</g>
</g>
<!-- CameLIGOCounter_cameLIGO_counter_prepared -->
<g id="node17" class="node">
<title>CameLIGOCounter_cameLIGO_counter_prepared</title>
<g id="a_node17"><a xlink:href="CameLIGOCounter.html#cameLIGO_counter_prepared" xlink:title="cameLIGO_counter_prepared">
<ellipse fill="#f070d1" stroke="black" cx="545.06" cy="-445" rx="145.67" ry="18"/>
<ellipse fill="none" stroke="black" cx="545.06" cy="-445" rx="149.67" ry="22"/>
<ellipse fill="none" stroke="black" cx="545.06" cy="-445" rx="153.67" ry="26"/>
<text text-anchor="middle" x="545.06" y="-441.3" font-family="Times,serif" font-size="14.00">cameLIGO_counter_prepared</text>
</a>
</g>
</g>
<!-- CameLIGOCounter_cameLIGO_counter_prepared&#45;&gt;CameLIGOCounter_Counter_LIGO_COUNTER_MODULE -->
<g id="edge21" class="edge">
<title>CameLIGOCounter_cameLIGO_counter_prepared&#45;&gt;CameLIGOCounter_Counter_LIGO_COUNTER_MODULE</title>
<path fill="none" stroke="black" d="M549.72,-418.82C551.41,-409.7 553.32,-399.38 555.03,-390.11"/>
<polygon fill="black" stroke="black" points="558.49,-390.69 556.87,-380.22 551.6,-389.41 558.49,-390.69"/>
</g>
<!-- CameLIGOCounter_TT_remap_counter -->
<g id="node18" class="node">
<title>CameLIGOCounter_TT_remap_counter</title>
<g id="a_node18"><a xlink:href="CameLIGOCounter.html#TT_remap_counter" xlink:title="TT_remap_counter">
<ellipse fill="#f070d1" stroke="black" cx="893.06" cy="-362" rx="96.68" ry="18"/>
<text text-anchor="middle" x="893.06" y="-358.3" font-family="Times,serif" font-size="14.00">TT_remap_counter</text>
</a>
</g>
</g>
<!-- CameLIGOCounter_cameLIGO_counter_prepared&#45;&gt;CameLIGOCounter_TT_remap_counter -->
<g id="edge22" class="edge">
<title>CameLIGOCounter_cameLIGO_counter_prepared&#45;&gt;CameLIGOCounter_TT_remap_counter</title>
<path fill="none" stroke="black" d="M668.46,-429.49C713.13,-423.63 757.8,-416.87 779.06,-411 803.94,-404.13 830.59,-393.13 851.86,-383.39"/>
<polygon fill="black" stroke="black" points="853.34,-386.56 860.93,-379.17 850.39,-380.22 853.34,-386.56"/>
</g>
</g>
</svg>
