<?xml version="1.0" encoding="UTF-8" standalone="no"?>
<!DOCTYPE svg PUBLIC "-//W3C//DTD SVG 1.1//EN"
 "http://www.w3.org/Graphics/SVG/1.1/DTD/svg11.dtd">
<!-- Generated by graphviz version 2.43.0 (0)
 -->
<!-- Title: ClosedAux Pages: 1 -->
<svg width="1057pt" height="533pt"
 viewBox="0.00 0.00 1057.00 532.50" xmlns="http://www.w3.org/2000/svg" xmlns:xlink="http://www.w3.org/1999/xlink">
<g id="graph0" class="graph" transform="scale(1 1) rotate(0) translate(4 528.5)">
<title>ClosedAux</title>
<polygon fill="white" stroke="transparent" points="-4,4 -4,-528.5 1053,-528.5 1053,4 -4,4"/>
<g id="clust1" class="cluster">
<title>cluster_ClosedAux</title>
<polygon fill="#ffffc3" stroke="black" points="8,-12.99 8,-511.51 1041,-511.51 1041,-12.99 8,-12.99"/>
<text text-anchor="middle" x="54" y="-496.31" font-family="Times,serif" font-size="14.00">ClosedAux</text>
</g>
<!-- ClosedAux_closed_csubst -->
<g id="node1" class="node">
<title>ClosedAux_closed_csubst</title>
<g id="a_node1"><a xlink:href="ClosedAux.html#closed_csubst" xlink:title="closed_csubst">
<ellipse fill="#7fffd4" stroke="black" cx="950" cy="-418.99" rx="74.96" ry="18"/>
<ellipse fill="none" stroke="black" cx="950" cy="-418.99" rx="78.98" ry="22"/>
<ellipse fill="none" stroke="black" cx="950" cy="-418.99" rx="82.99" ry="26"/>
<text text-anchor="middle" x="950" y="-415.29" font-family="Times,serif" font-size="14.00">closed_csubst</text>
</a>
</g>
</g>
<!-- ClosedAux_closedn_subst0 -->
<g id="node2" class="node">
<title>ClosedAux_closedn_subst0</title>
<g id="a_node2"><a xlink:href="ClosedAux.html#closedn_subst0" xlink:title="closedn_subst0">
<ellipse fill="#7fffd4" stroke="black" cx="950" cy="-288.99" rx="81.49" ry="18"/>
<text text-anchor="middle" x="950" y="-285.29" font-family="Times,serif" font-size="14.00">closedn_subst0</text>
</a>
</g>
</g>
<!-- ClosedAux_closed_csubst&#45;&gt;ClosedAux_closedn_subst0 -->
<g id="edge1" class="edge">
<title>ClosedAux_closed_csubst&#45;&gt;ClosedAux_closedn_subst0</title>
<path fill="none" stroke="black" d="M950,-392.7C950,-370.91 950,-339.54 950,-317.2"/>
<polygon fill="black" stroke="black" points="953.5,-317.05 950,-307.05 946.5,-317.05 953.5,-317.05"/>
</g>
<!-- ClosedAux_closedn_subst -->
<g id="node3" class="node">
<title>ClosedAux_closedn_subst</title>
<g id="a_node3"><a xlink:href="ClosedAux.html#closedn_subst" xlink:title="closedn_subst">
<ellipse fill="#7fffd4" stroke="black" cx="950" cy="-171.99" rx="75.29" ry="18"/>
<text text-anchor="middle" x="950" y="-168.29" font-family="Times,serif" font-size="14.00">closedn_subst</text>
</a>
</g>
</g>
<!-- ClosedAux_closedn_subst0&#45;&gt;ClosedAux_closedn_subst -->
<g id="edge2" class="edge">
<title>ClosedAux_closedn_subst0&#45;&gt;ClosedAux_closedn_subst</title>
<path fill="none" stroke="black" d="M950,-270.52C950,-251.93 950,-222.23 950,-200.49"/>
<polygon fill="black" stroke="black" points="953.5,-200.24 950,-190.24 946.5,-200.24 953.5,-200.24"/>
</g>
<!-- ClosedAux_closedn_lift -->
<g id="node4" class="node">
<title>ClosedAux_closedn_lift</title>
<g id="a_node4"><a xlink:href="ClosedAux.html#closedn_lift" xlink:title="closedn_lift">
<ellipse fill="#7fffd4" stroke="black" cx="950" cy="-54.99" rx="63.89" ry="18"/>
<text text-anchor="middle" x="950" y="-51.29" font-family="Times,serif" font-size="14.00">closedn_lift</text>
</a>
</g>
</g>
<!-- ClosedAux_closedn_subst&#45;&gt;ClosedAux_closedn_lift -->
<g id="edge3" class="edge">
<title>ClosedAux_closedn_subst&#45;&gt;ClosedAux_closedn_lift</title>
<path fill="none" stroke="black" d="M950,-153.52C950,-134.93 950,-105.23 950,-83.49"/>
<polygon fill="black" stroke="black" points="953.5,-83.24 950,-73.24 946.5,-83.24 953.5,-83.24"/>
</g>
<!-- ClosedAux_env_closed -->
<g id="node5" class="node">
<title>ClosedAux_env_closed</title>
<g id="a_node5"><a xlink:href="ClosedAux.html#env_closed" xlink:title="env_closed">
<ellipse fill="#f070d1" stroke="black" cx="780" cy="-418.99" rx="61.18" ry="18"/>
<ellipse fill="none" stroke="black" cx="780" cy="-418.99" rx="65.18" ry="22"/>
<ellipse fill="none" stroke="black" cx="780" cy="-418.99" rx="69.19" ry="26"/>
<text text-anchor="middle" x="780" y="-415.29" font-family="Times,serif" font-size="14.00">env_closed</text>
</a>
</g>
</g>
<!-- ClosedAux_decl_closed -->
<g id="node6" class="node">
<title>ClosedAux_decl_closed</title>
<g id="a_node6"><a xlink:href="ClosedAux.html#decl_closed" xlink:title="decl_closed">
<ellipse fill="#f070d1" stroke="black" cx="780" cy="-288.99" rx="63.89" ry="18"/>
<text text-anchor="middle" x="780" y="-285.29" font-family="Times,serif" font-size="14.00">decl_closed</text>
</a>
</g>
</g>
<!-- ClosedAux_env_closed&#45;&gt;ClosedAux_decl_closed -->
<g id="edge4" class="edge">
<title>ClosedAux_env_closed&#45;&gt;ClosedAux_decl_closed</title>
<path fill="none" stroke="black" d="M780,-392.7C780,-370.91 780,-339.54 780,-317.2"/>
<polygon fill="black" stroke="black" points="783.5,-317.05 780,-307.05 776.5,-317.05 783.5,-317.05"/>
</g>
<!-- ClosedAux_closed_mkApps_args -->
<g id="node7" class="node">
<title>ClosedAux_closed_mkApps_args</title>
<g id="a_node7"><a xlink:href="ClosedAux.html#closed_mkApps_args" xlink:title="closed_mkApps_args">
<ellipse fill="#7fffd4" stroke="black" cx="578" cy="-418.99" rx="106.67" ry="18"/>
<ellipse fill="none" stroke="black" cx="578" cy="-418.99" rx="110.68" ry="22"/>
<ellipse fill="none" stroke="black" cx="578" cy="-418.99" rx="114.68" ry="26"/>
<text text-anchor="middle" x="578" y="-415.29" font-family="Times,serif" font-size="14.00">closed_mkApps_args</text>
</a>
</g>
</g>
<!-- ClosedAux_closed_mkApps_inv -->
<g id="node9" class="node">
<title>ClosedAux_closed_mkApps_inv</title>
<g id="a_node9"><a xlink:href="ClosedAux.html#closed_mkApps_inv" xlink:title="closed_mkApps_inv">
<ellipse fill="#7fffd4" stroke="black" cx="453" cy="-288.99" rx="100.18" ry="18"/>
<text text-anchor="middle" x="453" y="-285.29" font-family="Times,serif" font-size="14.00">closed_mkApps_inv</text>
</a>
</g>
</g>
<!-- ClosedAux_closed_mkApps_args&#45;&gt;ClosedAux_closed_mkApps_inv -->
<g id="edge5" class="edge">
<title>ClosedAux_closed_mkApps_args&#45;&gt;ClosedAux_closed_mkApps_inv</title>
<path fill="none" stroke="black" d="M553.9,-393.31C531.59,-370.47 498.62,-336.71 476.51,-314.06"/>
<polygon fill="black" stroke="black" points="478.94,-311.55 469.45,-306.84 473.94,-316.44 478.94,-311.55"/>
</g>
<!-- ClosedAux_closed_mkApps_head -->
<g id="node8" class="node">
<title>ClosedAux_closed_mkApps_head</title>
<g id="a_node8"><a xlink:href="ClosedAux.html#closed_mkApps_head" xlink:title="closed_mkApps_head">
<ellipse fill="#7fffd4" stroke="black" cx="329" cy="-418.99" rx="108.58" ry="18"/>
<ellipse fill="none" stroke="black" cx="329" cy="-418.99" rx="112.58" ry="22"/>
<ellipse fill="none" stroke="black" cx="329" cy="-418.99" rx="116.58" ry="26"/>
<text text-anchor="middle" x="329" y="-415.29" font-family="Times,serif" font-size="14.00">closed_mkApps_head</text>
</a>
</g>
</g>
<!-- ClosedAux_closed_mkApps_head&#45;&gt;ClosedAux_closed_mkApps_inv -->
<g id="edge6" class="edge">
<title>ClosedAux_closed_mkApps_head&#45;&gt;ClosedAux_closed_mkApps_inv</title>
<path fill="none" stroke="black" d="M352.91,-393.31C375.04,-370.47 407.74,-336.71 429.68,-314.06"/>
<polygon fill="black" stroke="black" points="432.23,-316.46 436.68,-306.84 427.21,-311.59 432.23,-316.46"/>
</g>
<!-- ClosedAux_closed_mkApps -->
<g id="node10" class="node">
<title>ClosedAux_closed_mkApps</title>
<g id="a_node10"><a xlink:href="ClosedAux.html#closed_mkApps" xlink:title="closed_mkApps">
<ellipse fill="#7fffd4" stroke="black" cx="105" cy="-418.99" rx="81.46" ry="18"/>
<ellipse fill="none" stroke="black" cx="105" cy="-418.99" rx="85.48" ry="22"/>
<ellipse fill="none" stroke="black" cx="105" cy="-418.99" rx="89.49" ry="26"/>
<text text-anchor="middle" x="105" y="-415.29" font-family="Times,serif" font-size="14.00">closed_mkApps</text>
</a>
</g>
</g>
<!-- ClosedAux_closedn_mkApps -->
<g id="node11" class="node">
<title>ClosedAux_closedn_mkApps</title>
<g id="a_node11"><a xlink:href="ClosedAux.html#closedn_mkApps" xlink:title="closedn_mkApps">
<ellipse fill="#7fffd4" stroke="black" cx="105" cy="-288.99" rx="87.18" ry="18"/>
<text text-anchor="middle" x="105" y="-285.29" font-family="Times,serif" font-size="14.00">closedn_mkApps</text>
</a>
</g>
</g>
<!-- ClosedAux_closed_mkApps&#45;&gt;ClosedAux_closedn_mkApps -->
<g id="edge7" class="edge">
<title>ClosedAux_closed_mkApps&#45;&gt;ClosedAux_closedn_mkApps</title>
<path fill="none" stroke="black" d="M105,-392.7C105,-370.91 105,-339.54 105,-317.2"/>
<polygon fill="black" stroke="black" points="108.5,-317.05 105,-307.05 101.5,-317.05 108.5,-317.05"/>
</g>
</g>
</svg>
