<?xml version="1.0" encoding="UTF-8" standalone="no"?>
<!DOCTYPE svg PUBLIC "-//W3C//DTD SVG 1.1//EN"
 "http://www.w3.org/Graphics/SVG/1.1/DTD/svg11.dtd">
<!-- Generated by graphviz version 2.43.0 (0)
 -->
<!-- Title: LPretty Pages: 1 -->
<svg width="2522pt" height="1265pt"
 viewBox="0.00 0.00 2522.00 1265.00" xmlns="http://www.w3.org/2000/svg" xmlns:xlink="http://www.w3.org/1999/xlink">
<g id="graph0" class="graph" transform="scale(1 1) rotate(0) translate(4 1261)">
<title>LPretty</title>
<polygon fill="white" stroke="transparent" points="-4,4 -4,-1261 2518,-1261 2518,4 -4,4"/>
<g id="clust1" class="cluster">
<title>cluster_LPretty</title>
<polygon fill="#ffffc3" stroke="black" points="8,-12.78 8,-1244.22 2506,-1244.22 2506,-12.78 8,-12.78"/>
<text text-anchor="middle" x="43.5" y="-1229.02" font-family="Times,serif" font-size="14.00">LPretty</text>
</g>
<!-- LPretty_printMain -->
<g id="node1" class="node">
<title>LPretty_printMain</title>
<g id="a_node1"><a xlink:href="LPretty.html#printMain" xlink:title="printMain">
<ellipse fill="#f070d1" stroke="black" cx="2392" cy="-1152.78" rx="57.37" ry="18"/>
<ellipse fill="none" stroke="black" cx="2392" cy="-1152.78" rx="61.38" ry="22"/>
<ellipse fill="none" stroke="black" cx="2392" cy="-1152.78" rx="65.39" ry="26"/>
<text text-anchor="middle" x="2392" y="-1149.08" font-family="Times,serif" font-size="14.00">printMain</text>
</a>
</g>
</g>
<!-- LPretty_printWrapper -->
<g id="node2" class="node">
<title>LPretty_printWrapper</title>
<g id="a_node2"><a xlink:href="LPretty.html#printWrapper" xlink:title="printWrapper">
<ellipse fill="#f070d1" stroke="black" cx="2213" cy="-1152.78" rx="73.39" ry="18"/>
<ellipse fill="none" stroke="black" cx="2213" cy="-1152.78" rx="77.39" ry="22"/>
<ellipse fill="none" stroke="black" cx="2213" cy="-1152.78" rx="81.39" ry="26"/>
<text text-anchor="middle" x="2213" y="-1149.08" font-family="Times,serif" font-size="14.00">printWrapper</text>
</a>
</g>
</g>
<!-- LPretty_LiquidityPrelude -->
<g id="node3" class="node">
<title>LPretty_LiquidityPrelude</title>
<g id="a_node3"><a xlink:href="LPretty.html#LiquidityPrelude" xlink:title="LiquidityPrelude">
<ellipse fill="#f070d1" stroke="black" cx="1989" cy="-1152.78" rx="88.29" ry="18"/>
<ellipse fill="none" stroke="black" cx="1989" cy="-1152.78" rx="92.29" ry="22"/>
<ellipse fill="none" stroke="black" cx="1989" cy="-1152.78" rx="96.28" ry="26"/>
<text text-anchor="middle" x="1989" y="-1149.08" font-family="Times,serif" font-size="14.00">LiquidityPrelude</text>
</a>
</g>
</g>
<!-- LPretty_address_map -->
<g id="node5" class="node">
<title>LPretty_address_map</title>
<g id="a_node5"><a xlink:href="LPretty.html#address_map" xlink:title="address_map">
<ellipse fill="#f070d1" stroke="black" cx="2273" cy="-1025.78" rx="71.49" ry="18"/>
<text text-anchor="middle" x="2273" y="-1022.08" font-family="Times,serif" font-size="14.00">address_map</text>
</a>
</g>
</g>
<!-- LPretty_LiquidityPrelude&#45;&gt;LPretty_address_map -->
<g id="edge1" class="edge">
<title>LPretty_LiquidityPrelude&#45;&gt;LPretty_address_map</title>
<path fill="none" stroke="black" d="M2037.82,-1130.29C2091.87,-1106.5 2178.16,-1068.52 2229.82,-1045.78"/>
<polygon fill="black" stroke="black" points="2231.31,-1048.95 2239.05,-1041.72 2228.49,-1042.54 2231.31,-1048.95"/>
</g>
<!-- LPretty_address_ops -->
<g id="node6" class="node">
<title>LPretty_address_ops</title>
<g id="a_node6"><a xlink:href="LPretty.html#address_ops" xlink:title="address_ops">
<ellipse fill="#f070d1" stroke="black" cx="2430" cy="-1025.78" rx="67.69" ry="18"/>
<text text-anchor="middle" x="2430" y="-1022.08" font-family="Times,serif" font-size="14.00">address_ops</text>
</a>
</g>
</g>
<!-- LPretty_LiquidityPrelude&#45;&gt;LPretty_address_ops -->
<g id="edge2" class="edge">
<title>LPretty_LiquidityPrelude&#45;&gt;LPretty_address_ops</title>
<path fill="none" stroke="black" d="M2053.6,-1133.47C2140.55,-1108.82 2293.73,-1065.4 2375.29,-1042.28"/>
<polygon fill="black" stroke="black" points="2376.69,-1045.53 2385.35,-1039.43 2374.78,-1038.79 2376.69,-1045.53"/>
</g>
<!-- LPretty_time_ops -->
<g id="node7" class="node">
<title>LPretty_time_ops</title>
<g id="a_node7"><a xlink:href="LPretty.html#time_ops" xlink:title="time_ops">
<ellipse fill="#f070d1" stroke="black" cx="1562" cy="-1025.78" rx="51.99" ry="18"/>
<text text-anchor="middle" x="1562" y="-1022.08" font-family="Times,serif" font-size="14.00">time_ops</text>
</a>
</g>
</g>
<!-- LPretty_LiquidityPrelude&#45;&gt;LPretty_time_ops -->
<g id="edge3" class="edge">
<title>LPretty_LiquidityPrelude&#45;&gt;LPretty_time_ops</title>
<path fill="none" stroke="black" d="M1925.53,-1133.2C1839.49,-1108.01 1687.7,-1063.58 1610.31,-1040.92"/>
<polygon fill="black" stroke="black" points="1610.93,-1037.45 1600.35,-1038 1608.96,-1044.17 1610.93,-1037.45"/>
</g>
<!-- LPretty_bool_ops -->
<g id="node8" class="node">
<title>LPretty_bool_ops</title>
<g id="a_node8"><a xlink:href="LPretty.html#bool_ops" xlink:title="bool_ops">
<ellipse fill="#f070d1" stroke="black" cx="1683" cy="-1025.78" rx="50.89" ry="18"/>
<text text-anchor="middle" x="1683" y="-1022.08" font-family="Times,serif" font-size="14.00">bool_ops</text>
</a>
</g>
</g>
<!-- LPretty_LiquidityPrelude&#45;&gt;LPretty_bool_ops -->
<g id="edge4" class="edge">
<title>LPretty_LiquidityPrelude&#45;&gt;LPretty_bool_ops</title>
<path fill="none" stroke="black" d="M1937.44,-1130.71C1877.5,-1106.23 1779.77,-1066.31 1724.51,-1043.73"/>
<polygon fill="black" stroke="black" points="1725.61,-1040.4 1715.03,-1039.86 1722.96,-1046.88 1725.61,-1040.4"/>
</g>
<!-- LPretty_nat_ops -->
<g id="node9" class="node">
<title>LPretty_nat_ops</title>
<g id="a_node9"><a xlink:href="LPretty.html#nat_ops" xlink:title="nat_ops">
<ellipse fill="#f070d1" stroke="black" cx="1798" cy="-1025.78" rx="46.29" ry="18"/>
<text text-anchor="middle" x="1798" y="-1022.08" font-family="Times,serif" font-size="14.00">nat_ops</text>
</a>
</g>
</g>
<!-- LPretty_LiquidityPrelude&#45;&gt;LPretty_nat_ops -->
<g id="edge5" class="edge">
<title>LPretty_LiquidityPrelude&#45;&gt;LPretty_nat_ops</title>
<path fill="none" stroke="black" d="M1953.52,-1128.56C1917.87,-1105.23 1863.45,-1069.61 1829.34,-1047.29"/>
<polygon fill="black" stroke="black" points="1831,-1044.19 1820.71,-1041.64 1827.16,-1050.05 1831,-1044.19"/>
</g>
<!-- LPretty_tez_ops -->
<g id="node10" class="node">
<title>LPretty_tez_ops</title>
<g id="a_node10"><a xlink:href="LPretty.html#tez_ops" xlink:title="tez_ops">
<ellipse fill="#f070d1" stroke="black" cx="1908" cy="-1025.78" rx="45.49" ry="18"/>
<text text-anchor="middle" x="1908" y="-1022.08" font-family="Times,serif" font-size="14.00">tez_ops</text>
</a>
</g>
</g>
<!-- LPretty_LiquidityPrelude&#45;&gt;LPretty_tez_ops -->
<g id="edge6" class="edge">
<title>LPretty_LiquidityPrelude&#45;&gt;LPretty_tez_ops</title>
<path fill="none" stroke="black" d="M1973,-1127.08C1958.9,-1105.32 1938.45,-1073.76 1924.27,-1051.88"/>
<polygon fill="black" stroke="black" points="1927.17,-1049.93 1918.8,-1043.44 1921.3,-1053.73 1927.17,-1049.93"/>
</g>
<!-- LPretty_int_ops -->
<g id="node11" class="node">
<title>LPretty_int_ops</title>
<g id="a_node11"><a xlink:href="LPretty.html#int_ops" xlink:title="int_ops">
<ellipse fill="#f070d1" stroke="black" cx="2016" cy="-1025.78" rx="44.39" ry="18"/>
<text text-anchor="middle" x="2016" y="-1022.08" font-family="Times,serif" font-size="14.00">int_ops</text>
</a>
</g>
</g>
<!-- LPretty_LiquidityPrelude&#45;&gt;LPretty_int_ops -->
<g id="edge7" class="edge">
<title>LPretty_LiquidityPrelude&#45;&gt;LPretty_int_ops</title>
<path fill="none" stroke="black" d="M1994.4,-1126.78C1998.97,-1105.6 2005.52,-1075.29 2010.21,-1053.6"/>
<polygon fill="black" stroke="black" points="2013.65,-1054.24 2012.34,-1043.72 2006.81,-1052.76 2013.65,-1054.24"/>
</g>
<!-- LPretty_prod_ops -->
<g id="node12" class="node">
<title>LPretty_prod_ops</title>
<g id="a_node12"><a xlink:href="LPretty.html#prod_ops" xlink:title="prod_ops">
<ellipse fill="#f070d1" stroke="black" cx="2131" cy="-1025.78" rx="52.79" ry="18"/>
<text text-anchor="middle" x="2131" y="-1022.08" font-family="Times,serif" font-size="14.00">prod_ops</text>
</a>
</g>
</g>
<!-- LPretty_LiquidityPrelude&#45;&gt;LPretty_prod_ops -->
<g id="edge8" class="edge">
<title>LPretty_LiquidityPrelude&#45;&gt;LPretty_prod_ops</title>
<path fill="none" stroke="black" d="M2016.38,-1127.68C2041.98,-1105.14 2079.93,-1071.74 2105.05,-1049.62"/>
<polygon fill="black" stroke="black" points="2107.53,-1052.1 2112.73,-1042.86 2102.91,-1046.84 2107.53,-1052.1"/>
</g>
<!-- LPretty_false_elim_decl -->
<g id="node4" class="node">
<title>LPretty_false_elim_decl</title>
<g id="a_node4"><a xlink:href="LPretty.html#false_elim_decl" xlink:title="false_elim_decl">
<ellipse fill="#f070d1" stroke="black" cx="1733" cy="-1152.78" rx="80.68" ry="18"/>
<ellipse fill="none" stroke="black" cx="1733" cy="-1152.78" rx="84.68" ry="22"/>
<ellipse fill="none" stroke="black" cx="1733" cy="-1152.78" rx="88.69" ry="26"/>
<text text-anchor="middle" x="1733" y="-1149.08" font-family="Times,serif" font-size="14.00">false_elim_decl</text>
</a>
</g>
</g>
<!-- LPretty_print_global_env -->
<g id="node13" class="node">
<title>LPretty_print_global_env</title>
<g id="a_node13"><a xlink:href="LPretty.html#print_global_env" xlink:title="print_global_env">
<ellipse fill="#f070d1" stroke="black" cx="1504" cy="-1152.78" rx="87.18" ry="18"/>
<ellipse fill="none" stroke="black" cx="1504" cy="-1152.78" rx="91.18" ry="22"/>
<ellipse fill="none" stroke="black" cx="1504" cy="-1152.78" rx="95.18" ry="26"/>
<text text-anchor="middle" x="1504" y="-1149.08" font-family="Times,serif" font-size="14.00">print_global_env</text>
</a>
</g>
</g>
<!-- LPretty_print_global_decl -->
<g id="node14" class="node">
<title>LPretty_print_global_decl</title>
<g id="a_node14"><a xlink:href="LPretty.html#print_global_decl" xlink:title="print_global_decl">
<ellipse fill="#f070d1" stroke="black" cx="1402" cy="-1025.78" rx="89.88" ry="18"/>
<text text-anchor="middle" x="1402" y="-1022.08" font-family="Times,serif" font-size="14.00">print_global_decl</text>
</a>
</g>
</g>
<!-- LPretty_print_global_env&#45;&gt;LPretty_print_global_decl -->
<g id="edge9" class="edge">
<title>LPretty_print_global_env&#45;&gt;LPretty_print_global_decl</title>
<path fill="none" stroke="black" d="M1483.85,-1127.08C1466.04,-1105.25 1440.18,-1073.57 1422.32,-1051.68"/>
<polygon fill="black" stroke="black" points="1424.93,-1049.34 1415.9,-1043.81 1419.51,-1053.77 1424.93,-1049.34"/>
</g>
<!-- LPretty_print_cst -->
<g id="node15" class="node">
<title>LPretty_print_cst</title>
<g id="a_node15"><a xlink:href="LPretty.html#print_cst" xlink:title="print_cst">
<ellipse fill="#f070d1" stroke="black" cx="1407" cy="-910.78" rx="51.99" ry="18"/>
<text text-anchor="middle" x="1407" y="-907.08" font-family="Times,serif" font-size="14.00">print_cst</text>
</a>
</g>
</g>
<!-- LPretty_print_global_decl&#45;&gt;LPretty_print_cst -->
<g id="edge10" class="edge">
<title>LPretty_print_global_decl&#45;&gt;LPretty_print_cst</title>
<path fill="none" stroke="black" d="M1402.76,-1007.62C1403.56,-989.45 1404.84,-960.5 1405.79,-939.17"/>
<polygon fill="black" stroke="black" points="1409.29,-939.25 1406.23,-929.1 1402.29,-938.94 1409.29,-939.25"/>
</g>
<!-- LPretty_print_inductive -->
<g id="node46" class="node">
<title>LPretty_print_inductive</title>
<g id="a_node46"><a xlink:href="LPretty.html#print_inductive" xlink:title="print_inductive">
<ellipse fill="#f070d1" stroke="black" cx="1809" cy="-910.78" rx="81.49" ry="18"/>
<text text-anchor="middle" x="1809" y="-907.08" font-family="Times,serif" font-size="14.00">print_inductive</text>
</a>
</g>
</g>
<!-- LPretty_print_global_decl&#45;&gt;LPretty_print_inductive -->
<g id="edge11" class="edge">
<title>LPretty_print_global_decl&#45;&gt;LPretty_print_inductive</title>
<path fill="none" stroke="black" d="M1452.31,-1010.81C1527.88,-989.83 1670.34,-950.28 1750.46,-928.03"/>
<polygon fill="black" stroke="black" points="1751.69,-931.32 1760.38,-925.28 1749.81,-924.58 1751.69,-931.32"/>
</g>
<!-- LPretty_print_decl -->
<g id="node17" class="node">
<title>LPretty_print_decl</title>
<g id="a_node17"><a xlink:href="LPretty.html#print_decl" xlink:title="print_decl">
<ellipse fill="#f070d1" stroke="black" cx="1412" cy="-782.78" rx="57.39" ry="18"/>
<text text-anchor="middle" x="1412" y="-779.08" font-family="Times,serif" font-size="14.00">print_decl</text>
</a>
</g>
</g>
<!-- LPretty_print_cst&#45;&gt;LPretty_print_decl -->
<g id="edge12" class="edge">
<title>LPretty_print_cst&#45;&gt;LPretty_print_decl</title>
<path fill="none" stroke="black" d="M1407.68,-892.52C1408.52,-871.5 1409.94,-835.75 1410.92,-811"/>
<polygon fill="black" stroke="black" points="1414.42,-810.96 1411.32,-800.82 1407.43,-810.68 1414.42,-810.96"/>
</g>
<!-- LPretty_print_init -->
<g id="node16" class="node">
<title>LPretty_print_init</title>
<g id="a_node16"><a xlink:href="LPretty.html#print_init" xlink:title="print_init">
<ellipse fill="#f070d1" stroke="black" cx="1275" cy="-782.78" rx="53.9" ry="18"/>
<ellipse fill="none" stroke="black" cx="1275" cy="-782.78" rx="57.89" ry="22"/>
<ellipse fill="none" stroke="black" cx="1275" cy="-782.78" rx="61.89" ry="26"/>
<text text-anchor="middle" x="1275" y="-779.08" font-family="Times,serif" font-size="14.00">print_init</text>
</a>
</g>
</g>
<!-- LPretty_print_term -->
<g id="node19" class="node">
<title>LPretty_print_term</title>
<g id="a_node19"><a xlink:href="LPretty.html#print_term" xlink:title="print_term">
<ellipse fill="#f070d1" stroke="black" cx="1275" cy="-654.78" rx="60.39" ry="18"/>
<text text-anchor="middle" x="1275" y="-651.08" font-family="Times,serif" font-size="14.00">print_term</text>
</a>
</g>
</g>
<!-- LPretty_print_init&#45;&gt;LPretty_print_term -->
<g id="edge13" class="edge">
<title>LPretty_print_init&#45;&gt;LPretty_print_term</title>
<path fill="none" stroke="black" d="M1275,-756.58C1275,-735.33 1275,-704.96 1275,-683.11"/>
<polygon fill="black" stroke="black" points="1278.5,-682.86 1275,-672.86 1271.5,-682.86 1278.5,-682.86"/>
</g>
<!-- LPretty_print_box_type -->
<g id="node50" class="node">
<title>LPretty_print_box_type</title>
<g id="a_node50"><a xlink:href="LPretty.html#print_box_type" xlink:title="print_box_type">
<ellipse fill="#f070d1" stroke="black" cx="1940" cy="-654.78" rx="79.09" ry="18"/>
<text text-anchor="middle" x="1940" y="-651.08" font-family="Times,serif" font-size="14.00">print_box_type</text>
</a>
</g>
</g>
<!-- LPretty_print_init&#45;&gt;LPretty_print_box_type -->
<g id="edge14" class="edge">
<title>LPretty_print_init&#45;&gt;LPretty_print_box_type</title>
<path fill="none" stroke="black" d="M1319.71,-764.74C1328.36,-761.81 1337.4,-759.01 1346,-756.78 1527.36,-709.8 1745.68,-679.12 1860.49,-664.93"/>
<polygon fill="black" stroke="black" points="1861.1,-668.38 1870.6,-663.69 1860.24,-661.43 1861.1,-668.38"/>
</g>
<!-- LPretty_print_decl&#45;&gt;LPretty_print_term -->
<g id="edge15" class="edge">
<title>LPretty_print_decl&#45;&gt;LPretty_print_term</title>
<path fill="none" stroke="black" d="M1394.37,-765.56C1370.56,-743.66 1327.96,-704.49 1300.62,-679.34"/>
<polygon fill="black" stroke="black" points="1302.73,-676.52 1293,-672.33 1297.99,-681.68 1302.73,-676.52"/>
</g>
<!-- LPretty_print_decl&#45;&gt;LPretty_print_box_type -->
<g id="edge16" class="edge">
<title>LPretty_print_decl&#45;&gt;LPretty_print_box_type</title>
<path fill="none" stroke="black" d="M1456.11,-771.25C1549.96,-748.85 1769.68,-696.42 1877.75,-670.63"/>
<polygon fill="black" stroke="black" points="1878.62,-674.02 1887.54,-668.3 1877,-667.21 1878.62,-674.02"/>
</g>
<!-- LPretty_get_fix_names -->
<g id="node18" class="node">
<title>LPretty_get_fix_names</title>
<g id="a_node18"><a xlink:href="LPretty.html#get_fix_names" xlink:title="get_fix_names">
<ellipse fill="#f070d1" stroke="black" cx="1307" cy="-1152.78" rx="76.08" ry="18"/>
<ellipse fill="none" stroke="black" cx="1307" cy="-1152.78" rx="80.08" ry="22"/>
<ellipse fill="none" stroke="black" cx="1307" cy="-1152.78" rx="84.09" ry="26"/>
<text text-anchor="middle" x="1307" y="-1149.08" font-family="Times,serif" font-size="14.00">get_fix_names</text>
</a>
</g>
</g>
<!-- LPretty_print_transfer -->
<g id="node20" class="node">
<title>LPretty_print_transfer</title>
<g id="a_node20"><a xlink:href="LPretty.html#print_transfer" xlink:title="print_transfer">
<ellipse fill="#f070d1" stroke="black" cx="1143" cy="-526.78" rx="75.29" ry="18"/>
<text text-anchor="middle" x="1143" y="-523.08" font-family="Times,serif" font-size="14.00">print_transfer</text>
</a>
</g>
</g>
<!-- LPretty_print_term&#45;&gt;LPretty_print_transfer -->
<g id="edge17" class="edge">
<title>LPretty_print_term&#45;&gt;LPretty_print_transfer</title>
<path fill="none" stroke="black" d="M1257.74,-637.31C1234.85,-615.45 1194.26,-576.71 1168.01,-551.65"/>
<polygon fill="black" stroke="black" points="1170.33,-549.03 1160.68,-544.66 1165.5,-554.09 1170.33,-549.03"/>
</g>
<!-- LPretty_print_pat -->
<g id="node21" class="node">
<title>LPretty_print_pat</title>
<g id="a_node21"><a xlink:href="LPretty.html#print_pat" xlink:title="print_pat">
<ellipse fill="#f070d1" stroke="black" cx="1651" cy="-526.78" rx="53.09" ry="18"/>
<text text-anchor="middle" x="1651" y="-523.08" font-family="Times,serif" font-size="14.00">print_pat</text>
</a>
</g>
</g>
<!-- LPretty_print_term&#45;&gt;LPretty_print_pat -->
<g id="edge18" class="edge">
<title>LPretty_print_term&#45;&gt;LPretty_print_pat</title>
<path fill="none" stroke="black" d="M1313.47,-640.89C1383.15,-617.54 1529.95,-568.34 1604.88,-543.23"/>
<polygon fill="black" stroke="black" points="1606.16,-546.5 1614.53,-540 1603.93,-539.86 1606.16,-546.5"/>
</g>
<!-- LPretty_fresh_string_names -->
<g id="node22" class="node">
<title>LPretty_fresh_string_names</title>
<g id="a_node22"><a xlink:href="LPretty.html#fresh_string_names" xlink:title="fresh_string_names">
<ellipse fill="#f070d1" stroke="black" cx="699" cy="-526.78" rx="101.28" ry="18"/>
<text text-anchor="middle" x="699" y="-523.08" font-family="Times,serif" font-size="14.00">fresh_string_names</text>
</a>
</g>
</g>
<!-- LPretty_print_term&#45;&gt;LPretty_fresh_string_names -->
<g id="edge19" class="edge">
<title>LPretty_print_term&#45;&gt;LPretty_fresh_string_names</title>
<path fill="none" stroke="black" d="M1227.45,-643.57C1143.25,-625.48 962.45,-586.5 810,-552.78 796.65,-549.83 782.41,-546.64 768.73,-543.57"/>
<polygon fill="black" stroke="black" points="769.42,-540.14 758.89,-541.35 767.88,-546.96 769.42,-540.14"/>
</g>
<!-- LPretty_in_list -->
<g id="node24" class="node">
<title>LPretty_in_list</title>
<g id="a_node24"><a xlink:href="LPretty.html#in_list" xlink:title="in_list">
<ellipse fill="#f070d1" stroke="black" cx="1275" cy="-526.78" rx="38.19" ry="18"/>
<text text-anchor="middle" x="1275" y="-523.08" font-family="Times,serif" font-size="14.00">in_list</text>
</a>
</g>
</g>
<!-- LPretty_print_term&#45;&gt;LPretty_in_list -->
<g id="edge20" class="edge">
<title>LPretty_print_term&#45;&gt;LPretty_in_list</title>
<path fill="none" stroke="black" d="M1275,-636.52C1275,-615.5 1275,-579.75 1275,-555"/>
<polygon fill="black" stroke="black" points="1278.5,-554.82 1275,-544.82 1271.5,-554.82 1278.5,-554.82"/>
</g>
<!-- LPretty_app_args -->
<g id="node25" class="node">
<title>LPretty_app_args</title>
<g id="a_node25"><a xlink:href="LPretty.html#app_args" xlink:title="app_args">
<ellipse fill="#f070d1" stroke="black" cx="1384" cy="-526.78" rx="52.79" ry="18"/>
<text text-anchor="middle" x="1384" y="-523.08" font-family="Times,serif" font-size="14.00">app_args</text>
</a>
</g>
</g>
<!-- LPretty_print_term&#45;&gt;LPretty_app_args -->
<g id="edge21" class="edge">
<title>LPretty_print_term&#45;&gt;LPretty_app_args</title>
<path fill="none" stroke="black" d="M1289.47,-637.05C1308.39,-615.18 1341.64,-576.74 1363.24,-551.77"/>
<polygon fill="black" stroke="black" points="1365.92,-554.03 1369.81,-544.18 1360.62,-549.45 1365.92,-554.03"/>
</g>
<!-- LPretty_is_name_remapped -->
<g id="node26" class="node">
<title>LPretty_is_name_remapped</title>
<g id="a_node26"><a xlink:href="LPretty.html#is_name_remapped" xlink:title="is_name_remapped">
<ellipse fill="#f070d1" stroke="black" cx="1822" cy="-526.78" rx="99.38" ry="18"/>
<text text-anchor="middle" x="1822" y="-523.08" font-family="Times,serif" font-size="14.00">is_name_remapped</text>
</a>
</g>
</g>
<!-- LPretty_print_term&#45;&gt;LPretty_is_name_remapped -->
<g id="edge22" class="edge">
<title>LPretty_print_term&#45;&gt;LPretty_is_name_remapped</title>
<path fill="none" stroke="black" d="M1321.17,-643.14C1417.42,-620.97 1640,-569.7 1753.2,-543.63"/>
<polygon fill="black" stroke="black" points="1754.19,-546.99 1763.15,-541.33 1752.62,-540.17 1754.19,-546.99"/>
</g>
<!-- LPretty_get_record_projs -->
<g id="node27" class="node">
<title>LPretty_get_record_projs</title>
<g id="a_node27"><a xlink:href="LPretty.html#get_record_projs" xlink:title="get_record_projs">
<ellipse fill="#f070d1" stroke="black" cx="104" cy="-526.78" rx="88.28" ry="18"/>
<text text-anchor="middle" x="104" y="-523.08" font-family="Times,serif" font-size="14.00">get_record_projs</text>
</a>
</g>
</g>
<!-- LPretty_print_term&#45;&gt;LPretty_get_record_projs -->
<g id="edge23" class="edge">
<title>LPretty_print_term&#45;&gt;LPretty_get_record_projs</title>
<path fill="none" stroke="black" d="M1215.48,-651.49C1052.21,-644.51 584.04,-619.71 201,-552.78 188.43,-550.58 175.09,-547.59 162.47,-544.44"/>
<polygon fill="black" stroke="black" points="163.08,-540.98 152.52,-541.89 161.34,-547.76 163.08,-540.98"/>
</g>
<!-- LPretty_is_record_constr -->
<g id="node28" class="node">
<title>LPretty_is_record_constr</title>
<g id="a_node28"><a xlink:href="LPretty.html#is_record_constr" xlink:title="is_record_constr">
<ellipse fill="#f070d1" stroke="black" cx="493" cy="-526.78" rx="87.18" ry="18"/>
<text text-anchor="middle" x="493" y="-523.08" font-family="Times,serif" font-size="14.00">is_record_constr</text>
</a>
</g>
</g>
<!-- LPretty_print_term&#45;&gt;LPretty_is_record_constr -->
<g id="edge24" class="edge">
<title>LPretty_print_term&#45;&gt;LPretty_is_record_constr</title>
<path fill="none" stroke="black" d="M1219.07,-647.63C1101.64,-634.27 821.11,-599.94 589,-552.78 577,-550.34 564.26,-547.33 552.12,-544.25"/>
<polygon fill="black" stroke="black" points="552.65,-540.77 542.09,-541.66 550.9,-547.55 552.65,-540.77"/>
</g>
<!-- LPretty_get_constr_name -->
<g id="node33" class="node">
<title>LPretty_get_constr_name</title>
<g id="a_node33"><a xlink:href="LPretty.html#get_constr_name" xlink:title="get_constr_name">
<ellipse fill="#f070d1" stroke="black" cx="299" cy="-526.78" rx="89.08" ry="18"/>
<text text-anchor="middle" x="299" y="-523.08" font-family="Times,serif" font-size="14.00">get_constr_name</text>
</a>
</g>
</g>
<!-- LPretty_print_term&#45;&gt;LPretty_get_constr_name -->
<g id="edge25" class="edge">
<title>LPretty_print_term&#45;&gt;LPretty_get_constr_name</title>
<path fill="none" stroke="black" d="M1216.81,-649.82C1075.46,-639.61 703.13,-609.17 397,-552.78 384.46,-550.47 371.16,-547.46 358.53,-544.33"/>
<polygon fill="black" stroke="black" points="359.12,-540.87 348.57,-541.81 357.4,-547.66 359.12,-540.87"/>
</g>
<!-- LPretty_print_def -->
<g id="node41" class="node">
<title>LPretty_print_def</title>
<g id="a_node41"><a xlink:href="LPretty.html#print_def" xlink:title="print_def">
<ellipse fill="#f070d1" stroke="black" cx="1507" cy="-526.78" rx="52.79" ry="18"/>
<text text-anchor="middle" x="1507" y="-523.08" font-family="Times,serif" font-size="14.00">print_def</text>
</a>
</g>
</g>
<!-- LPretty_print_term&#45;&gt;LPretty_print_def -->
<g id="edge26" class="edge">
<title>LPretty_print_term&#45;&gt;LPretty_print_def</title>
<path fill="none" stroke="black" d="M1302.98,-638.58C1345.13,-615.69 1424.87,-572.38 1471.2,-547.22"/>
<polygon fill="black" stroke="black" points="1472.88,-550.29 1479.99,-542.44 1469.54,-544.14 1472.88,-550.29"/>
</g>
<!-- LPretty_print_uncurried -->
<g id="node55" class="node">
<title>LPretty_print_uncurried</title>
<g id="a_node55"><a xlink:href="LPretty.html#print_uncurried" xlink:title="print_uncurried">
<ellipse fill="#f070d1" stroke="black" cx="1651" cy="-399.78" rx="83.39" ry="18"/>
<text text-anchor="middle" x="1651" y="-396.08" font-family="Times,serif" font-size="14.00">print_uncurried</text>
</a>
</g>
</g>
<!-- LPretty_print_pat&#45;&gt;LPretty_print_uncurried -->
<g id="edge27" class="edge">
<title>LPretty_print_pat&#45;&gt;LPretty_print_uncurried</title>
<path fill="none" stroke="black" d="M1651,-508.66C1651,-487.92 1651,-452.73 1651,-428.2"/>
<polygon fill="black" stroke="black" points="1654.5,-428.09 1651,-418.09 1647.5,-428.09 1654.5,-428.09"/>
</g>
<!-- LPretty_look -->
<g id="node60" class="node">
<title>LPretty_look</title>
<g id="a_node60"><a xlink:href="LPretty.html#look" xlink:title="look">
<ellipse fill="#f070d1" stroke="black" cx="1822" cy="-399.78" rx="29.8" ry="18"/>
<text text-anchor="middle" x="1822" y="-396.08" font-family="Times,serif" font-size="14.00">look</text>
</a>
</g>
</g>
<!-- LPretty_print_pat&#45;&gt;LPretty_look -->
<g id="edge28" class="edge">
<title>LPretty_print_pat&#45;&gt;LPretty_look</title>
<path fill="none" stroke="black" d="M1672.31,-510.2C1703.46,-487.43 1761.39,-445.08 1795.33,-420.27"/>
<polygon fill="black" stroke="black" points="1797.81,-422.8 1803.81,-414.07 1793.68,-417.15 1797.81,-422.8"/>
</g>
<!-- LPretty_fresh_string_name -->
<g id="node34" class="node">
<title>LPretty_fresh_string_name</title>
<g id="a_node34"><a xlink:href="LPretty.html#fresh_string_name" xlink:title="fresh_string_name">
<ellipse fill="#f070d1" stroke="black" cx="934" cy="-399.78" rx="96.68" ry="18"/>
<text text-anchor="middle" x="934" y="-396.08" font-family="Times,serif" font-size="14.00">fresh_string_name</text>
</a>
</g>
</g>
<!-- LPretty_fresh_string_names&#45;&gt;LPretty_fresh_string_name -->
<g id="edge29" class="edge">
<title>LPretty_fresh_string_names&#45;&gt;LPretty_fresh_string_name</title>
<path fill="none" stroke="black" d="M729.72,-509.44C772.06,-486.92 848.37,-446.33 894.78,-421.64"/>
<polygon fill="black" stroke="black" points="896.46,-424.71 903.64,-416.93 893.17,-418.53 896.46,-424.71"/>
</g>
<!-- LPretty_get_ctx_from_branch -->
<g id="node23" class="node">
<title>LPretty_get_ctx_from_branch</title>
<g id="a_node23"><a xlink:href="LPretty.html#get_ctx_from_branch" xlink:title="get_ctx_from_branch">
<ellipse fill="#f070d1" stroke="black" cx="934" cy="-526.78" rx="107.46" ry="18"/>
<ellipse fill="none" stroke="black" cx="934" cy="-526.78" rx="111.47" ry="22"/>
<ellipse fill="none" stroke="black" cx="934" cy="-526.78" rx="115.48" ry="26"/>
<text text-anchor="middle" x="934" y="-523.08" font-family="Times,serif" font-size="14.00">get_ctx_from_branch</text>
</a>
</g>
</g>
<!-- LPretty_get_ctx_from_branch&#45;&gt;LPretty_fresh_string_name -->
<g id="edge30" class="edge">
<title>LPretty_get_ctx_from_branch&#45;&gt;LPretty_fresh_string_name</title>
<path fill="none" stroke="black" d="M934,-500.48C934,-479.49 934,-449.69 934,-428.14"/>
<polygon fill="black" stroke="black" points="937.5,-428.01 934,-418.01 930.5,-428.01 937.5,-428.01"/>
</g>
<!-- LPretty_is_name_remapped&#45;&gt;LPretty_look -->
<g id="edge31" class="edge">
<title>LPretty_is_name_remapped&#45;&gt;LPretty_look</title>
<path fill="none" stroke="black" d="M1822,-508.66C1822,-487.92 1822,-452.73 1822,-428.2"/>
<polygon fill="black" stroke="black" points="1825.5,-428.09 1822,-418.09 1818.5,-428.09 1825.5,-428.09"/>
</g>
<!-- LPretty_lookup_ind_decl -->
<g id="node40" class="node">
<title>LPretty_lookup_ind_decl</title>
<g id="a_node40"><a xlink:href="LPretty.html#lookup_ind_decl" xlink:title="lookup_ind_decl">
<ellipse fill="#f070d1" stroke="black" cx="277" cy="-399.78" rx="83.69" ry="18"/>
<text text-anchor="middle" x="277" y="-396.08" font-family="Times,serif" font-size="14.00">lookup_ind_decl</text>
</a>
</g>
</g>
<!-- LPretty_is_record_constr&#45;&gt;LPretty_lookup_ind_decl -->
<g id="edge32" class="edge">
<title>LPretty_is_record_constr&#45;&gt;LPretty_lookup_ind_decl</title>
<path fill="none" stroke="black" d="M465.2,-509.69C426.48,-487.28 356.25,-446.64 313.4,-421.84"/>
<polygon fill="black" stroke="black" points="315.1,-418.78 304.69,-416.8 311.59,-424.84 315.1,-418.78"/>
</g>
<!-- LPretty_is_one_constructor_inductive_and_not_record -->
<g id="node47" class="node">
<title>LPretty_is_one_constructor_inductive_and_not_record</title>
<g id="a_node47"><a xlink:href="LPretty.html#is_one_constructor_inductive_and_not_record" xlink:title="is_one_constructor_inductive_and_not_record">
<ellipse fill="#f070d1" stroke="black" cx="599" cy="-399.78" rx="220.16" ry="18"/>
<text text-anchor="middle" x="599" y="-396.08" font-family="Times,serif" font-size="14.00">is_one_constructor_inductive_and_not_record</text>
</a>
</g>
</g>
<!-- LPretty_is_record_constr&#45;&gt;LPretty_is_one_constructor_inductive_and_not_record -->
<g id="edge33" class="edge">
<title>LPretty_is_record_constr&#45;&gt;LPretty_is_one_constructor_inductive_and_not_record</title>
<path fill="none" stroke="black" d="M507.3,-508.92C525.47,-487.49 557,-450.3 577.93,-425.62"/>
<polygon fill="black" stroke="black" points="580.79,-427.66 584.59,-417.77 575.46,-423.13 580.79,-427.66"/>
</g>
<!-- LPretty_print_list_cons -->
<g id="node29" class="node">
<title>LPretty_print_list_cons</title>
<g id="a_node29"><a xlink:href="LPretty.html#print_list_cons" xlink:title="print_list_cons">
<ellipse fill="#f070d1" stroke="black" cx="1119" cy="-1152.78" rx="77.99" ry="18"/>
<ellipse fill="none" stroke="black" cx="1119" cy="-1152.78" rx="81.99" ry="22"/>
<ellipse fill="none" stroke="black" cx="1119" cy="-1152.78" rx="85.99" ry="26"/>
<text text-anchor="middle" x="1119" y="-1149.08" font-family="Times,serif" font-size="14.00">print_list_cons</text>
</a>
</g>
</g>
<!-- LPretty_is_list_cons -->
<g id="node30" class="node">
<title>LPretty_is_list_cons</title>
<g id="a_node30"><a xlink:href="LPretty.html#is_list_cons" xlink:title="is_list_cons">
<ellipse fill="#f070d1" stroke="black" cx="944" cy="-1152.78" rx="63.08" ry="18"/>
<ellipse fill="none" stroke="black" cx="944" cy="-1152.78" rx="67.09" ry="22"/>
<ellipse fill="none" stroke="black" cx="944" cy="-1152.78" rx="71.09" ry="26"/>
<text text-anchor="middle" x="944" y="-1149.08" font-family="Times,serif" font-size="14.00">is_list_cons</text>
</a>
</g>
</g>
<!-- LPretty_print_pair -->
<g id="node31" class="node">
<title>LPretty_print_pair</title>
<g id="a_node31"><a xlink:href="LPretty.html#print_pair" xlink:title="print_pair">
<ellipse fill="#f070d1" stroke="black" cx="790" cy="-1152.78" rx="56.58" ry="18"/>
<ellipse fill="none" stroke="black" cx="790" cy="-1152.78" rx="60.59" ry="22"/>
<ellipse fill="none" stroke="black" cx="790" cy="-1152.78" rx="64.59" ry="26"/>
<text text-anchor="middle" x="790" y="-1149.08" font-family="Times,serif" font-size="14.00">print_pair</text>
</a>
</g>
</g>
<!-- LPretty_is_pair_constr -->
<g id="node32" class="node">
<title>LPretty_is_pair_constr</title>
<g id="a_node32"><a xlink:href="LPretty.html#is_pair_constr" xlink:title="is_pair_constr">
<ellipse fill="#f070d1" stroke="black" cx="624" cy="-1152.78" rx="75.3" ry="18"/>
<ellipse fill="none" stroke="black" cx="624" cy="-1152.78" rx="79.29" ry="22"/>
<ellipse fill="none" stroke="black" cx="624" cy="-1152.78" rx="83.29" ry="26"/>
<text text-anchor="middle" x="624" y="-1149.08" font-family="Times,serif" font-size="14.00">is_pair_constr</text>
</a>
</g>
</g>
<!-- LPretty_get_constr_name&#45;&gt;LPretty_lookup_ind_decl -->
<g id="edge34" class="edge">
<title>LPretty_get_constr_name&#45;&gt;LPretty_lookup_ind_decl</title>
<path fill="none" stroke="black" d="M295.99,-508.66C292.34,-487.92 286.14,-452.73 281.83,-428.2"/>
<polygon fill="black" stroke="black" points="285.23,-427.33 280.05,-418.09 278.33,-428.55 285.23,-427.33"/>
</g>
<!-- LPretty_fresh_id_from -->
<g id="node35" class="node">
<title>LPretty_fresh_id_from</title>
<g id="a_node35"><a xlink:href="LPretty.html#fresh_id_from" xlink:title="fresh_id_from">
<ellipse fill="#f070d1" stroke="black" cx="843" cy="-284.78" rx="74.19" ry="18"/>
<text text-anchor="middle" x="843" y="-281.08" font-family="Times,serif" font-size="14.00">fresh_id_from</text>
</a>
</g>
</g>
<!-- LPretty_fresh_string_name&#45;&gt;LPretty_fresh_id_from -->
<g id="edge35" class="edge">
<title>LPretty_fresh_string_name&#45;&gt;LPretty_fresh_id_from</title>
<path fill="none" stroke="black" d="M920.18,-381.62C904.99,-362.76 880.46,-332.29 863.13,-310.78"/>
<polygon fill="black" stroke="black" points="865.65,-308.32 856.65,-302.73 860.2,-312.71 865.65,-308.32"/>
</g>
<!-- LPretty_name_from_term -->
<g id="node36" class="node">
<title>LPretty_name_from_term</title>
<g id="a_node36"><a xlink:href="LPretty.html#name_from_term" xlink:title="name_from_term">
<ellipse fill="#f070d1" stroke="black" cx="1024" cy="-284.78" rx="89.08" ry="18"/>
<text text-anchor="middle" x="1024" y="-281.08" font-family="Times,serif" font-size="14.00">name_from_term</text>
</a>
</g>
</g>
<!-- LPretty_fresh_string_name&#45;&gt;LPretty_name_from_term -->
<g id="edge36" class="edge">
<title>LPretty_fresh_string_name&#45;&gt;LPretty_name_from_term</title>
<path fill="none" stroke="black" d="M947.67,-381.62C962.69,-362.76 986.96,-332.29 1004.09,-310.78"/>
<polygon fill="black" stroke="black" points="1007,-312.73 1010.5,-302.73 1001.53,-308.37 1007,-312.73"/>
</g>
<!-- LPretty_is_fresh -->
<g id="node37" class="node">
<title>LPretty_is_fresh</title>
<g id="a_node37"><a xlink:href="LPretty.html#is_fresh" xlink:title="is_fresh">
<ellipse fill="#f070d1" stroke="black" cx="843" cy="-169.78" rx="46.59" ry="18"/>
<text text-anchor="middle" x="843" y="-166.08" font-family="Times,serif" font-size="14.00">is_fresh</text>
</a>
</g>
</g>
<!-- LPretty_fresh_id_from&#45;&gt;LPretty_is_fresh -->
<g id="edge37" class="edge">
<title>LPretty_fresh_id_from&#45;&gt;LPretty_is_fresh</title>
<path fill="none" stroke="black" d="M843,-266.62C843,-248.45 843,-219.5 843,-198.17"/>
<polygon fill="black" stroke="black" points="846.5,-198.1 843,-188.1 839.5,-198.1 846.5,-198.1"/>
</g>
<!-- LPretty_liquidity_reserved_names -->
<g id="node38" class="node">
<title>LPretty_liquidity_reserved_names</title>
<g id="a_node38"><a xlink:href="LPretty.html#liquidity_reserved_names" xlink:title="liquidity_reserved_names">
<ellipse fill="#f070d1" stroke="black" cx="723" cy="-54.78" rx="129.18" ry="18"/>
<text text-anchor="middle" x="723" y="-51.08" font-family="Times,serif" font-size="14.00">liquidity_reserved_names</text>
</a>
</g>
</g>
<!-- LPretty_is_fresh&#45;&gt;LPretty_liquidity_reserved_names -->
<g id="edge38" class="edge">
<title>LPretty_is_fresh&#45;&gt;LPretty_liquidity_reserved_names</title>
<path fill="none" stroke="black" d="M826.06,-152.83C805.86,-133.81 771.9,-101.83 748.52,-79.81"/>
<polygon fill="black" stroke="black" points="750.71,-77.06 741.03,-72.75 745.91,-82.16 750.71,-77.06"/>
</g>
<!-- LPretty_is_reserved_name -->
<g id="node39" class="node">
<title>LPretty_is_reserved_name</title>
<g id="a_node39"><a xlink:href="LPretty.html#is_reserved_name" xlink:title="is_reserved_name">
<ellipse fill="#f070d1" stroke="black" cx="964" cy="-54.78" rx="93.68" ry="18"/>
<text text-anchor="middle" x="964" y="-51.08" font-family="Times,serif" font-size="14.00">is_reserved_name</text>
</a>
</g>
</g>
<!-- LPretty_is_fresh&#45;&gt;LPretty_is_reserved_name -->
<g id="edge39" class="edge">
<title>LPretty_is_fresh&#45;&gt;LPretty_is_reserved_name</title>
<path fill="none" stroke="black" d="M860.08,-152.83C880.45,-133.81 914.69,-101.83 938.27,-79.81"/>
<polygon fill="black" stroke="black" points="940.9,-82.14 945.82,-72.75 936.12,-77.02 940.9,-82.14"/>
</g>
<!-- LPretty_lam_body -->
<g id="node42" class="node">
<title>LPretty_lam_body</title>
<g id="a_node42"><a xlink:href="LPretty.html#lam_body" xlink:title="lam_body">
<ellipse fill="#f070d1" stroke="black" cx="1295" cy="-399.78" rx="54.69" ry="18"/>
<text text-anchor="middle" x="1295" y="-396.08" font-family="Times,serif" font-size="14.00">lam_body</text>
</a>
</g>
</g>
<!-- LPretty_print_def&#45;&gt;LPretty_lam_body -->
<g id="edge40" class="edge">
<title>LPretty_print_def&#45;&gt;LPretty_lam_body</title>
<path fill="none" stroke="black" d="M1481.85,-510.95C1443.86,-488.55 1371.76,-446.04 1329.09,-420.88"/>
<polygon fill="black" stroke="black" points="1330.84,-417.85 1320.45,-415.78 1327.29,-423.88 1330.84,-417.85"/>
</g>
<!-- LPretty_Edecompose_lam -->
<g id="node43" class="node">
<title>LPretty_Edecompose_lam</title>
<g id="a_node43"><a xlink:href="LPretty.html#Edecompose_lam" xlink:title="Edecompose_lam">
<ellipse fill="#f070d1" stroke="black" cx="1459" cy="-399.78" rx="90.98" ry="18"/>
<text text-anchor="middle" x="1459" y="-396.08" font-family="Times,serif" font-size="14.00">Edecompose_lam</text>
</a>
</g>
</g>
<!-- LPretty_print_def&#45;&gt;LPretty_Edecompose_lam -->
<g id="edge41" class="edge">
<title>LPretty_print_def&#45;&gt;LPretty_Edecompose_lam</title>
<path fill="none" stroke="black" d="M1500.43,-508.66C1492.39,-487.74 1478.71,-452.1 1469.28,-427.54"/>
<polygon fill="black" stroke="black" points="1472.5,-426.17 1465.65,-418.09 1465.97,-428.68 1472.5,-426.17"/>
</g>
<!-- LPretty_print_def&#45;&gt;LPretty_print_uncurried -->
<g id="edge42" class="edge">
<title>LPretty_print_def&#45;&gt;LPretty_print_uncurried</title>
<path fill="none" stroke="black" d="M1525.53,-509.69C1550.53,-487.99 1595.22,-449.2 1623.97,-424.24"/>
<polygon fill="black" stroke="black" points="1626.36,-426.8 1631.62,-417.6 1621.78,-421.51 1626.36,-426.8"/>
</g>
<!-- LPretty_is_prod -->
<g id="node44" class="node">
<title>LPretty_is_prod</title>
<g id="a_node44"><a xlink:href="LPretty.html#is_prod" xlink:title="is_prod">
<ellipse fill="#f070d1" stroke="black" cx="470" cy="-1152.78" rx="44.36" ry="18"/>
<ellipse fill="none" stroke="black" cx="470" cy="-1152.78" rx="48.38" ry="22"/>
<ellipse fill="none" stroke="black" cx="470" cy="-1152.78" rx="52.39" ry="26"/>
<text text-anchor="middle" x="470" y="-1149.08" font-family="Times,serif" font-size="14.00">is_prod</text>
</a>
</g>
</g>
<!-- LPretty_is_sort -->
<g id="node45" class="node">
<title>LPretty_is_sort</title>
<g id="a_node45"><a xlink:href="LPretty.html#is_sort" xlink:title="is_sort">
<ellipse fill="#f070d1" stroke="black" cx="350" cy="-1152.78" rx="41.68" ry="18"/>
<ellipse fill="none" stroke="black" cx="350" cy="-1152.78" rx="45.69" ry="22"/>
<ellipse fill="none" stroke="black" cx="350" cy="-1152.78" rx="49.69" ry="26"/>
<text text-anchor="middle" x="350" y="-1149.08" font-family="Times,serif" font-size="14.00">is_sort</text>
</a>
</g>
</g>
<!-- LPretty_print_proj -->
<g id="node48" class="node">
<title>LPretty_print_proj</title>
<g id="a_node48"><a xlink:href="LPretty.html#print_proj" xlink:title="print_proj">
<ellipse fill="#f070d1" stroke="black" cx="1809" cy="-782.78" rx="56.59" ry="18"/>
<text text-anchor="middle" x="1809" y="-779.08" font-family="Times,serif" font-size="14.00">print_proj</text>
</a>
</g>
</g>
<!-- LPretty_print_inductive&#45;&gt;LPretty_print_proj -->
<g id="edge43" class="edge">
<title>LPretty_print_inductive&#45;&gt;LPretty_print_proj</title>
<path fill="none" stroke="black" d="M1809,-892.52C1809,-871.5 1809,-835.75 1809,-811"/>
<polygon fill="black" stroke="black" points="1812.5,-810.82 1809,-800.82 1805.5,-810.82 1812.5,-810.82"/>
</g>
<!-- LPretty_print_ctor -->
<g id="node49" class="node">
<title>LPretty_print_ctor</title>
<g id="a_node49"><a xlink:href="LPretty.html#print_ctor" xlink:title="print_ctor">
<ellipse fill="#f070d1" stroke="black" cx="1940" cy="-782.78" rx="56.59" ry="18"/>
<text text-anchor="middle" x="1940" y="-779.08" font-family="Times,serif" font-size="14.00">print_ctor</text>
</a>
</g>
</g>
<!-- LPretty_print_inductive&#45;&gt;LPretty_print_ctor -->
<g id="edge44" class="edge">
<title>LPretty_print_inductive&#45;&gt;LPretty_print_ctor</title>
<path fill="none" stroke="black" d="M1826.4,-893.05C1849.33,-870.99 1889.79,-832.07 1915.72,-807.13"/>
<polygon fill="black" stroke="black" points="1918.17,-809.63 1922.95,-800.18 1913.32,-804.59 1918.17,-809.63"/>
</g>
<!-- LPretty_print_proj&#45;&gt;LPretty_print_box_type -->
<g id="edge45" class="edge">
<title>LPretty_print_proj&#45;&gt;LPretty_print_box_type</title>
<path fill="none" stroke="black" d="M1825.86,-765.56C1848.5,-743.79 1888.91,-704.92 1915.07,-679.76"/>
<polygon fill="black" stroke="black" points="1917.59,-682.19 1922.37,-672.73 1912.74,-677.14 1917.59,-682.19"/>
</g>
<!-- LPretty_print_ctor&#45;&gt;LPretty_print_box_type -->
<g id="edge46" class="edge">
<title>LPretty_print_ctor&#45;&gt;LPretty_print_box_type</title>
<path fill="none" stroke="black" d="M1940,-764.52C1940,-743.5 1940,-707.75 1940,-683"/>
<polygon fill="black" stroke="black" points="1943.5,-682.82 1940,-672.82 1936.5,-682.82 1943.5,-682.82"/>
</g>
<!-- LPretty_print_type_var -->
<g id="node51" class="node">
<title>LPretty_print_type_var</title>
<g id="a_node51"><a xlink:href="LPretty.html#print_type_var" xlink:title="print_type_var">
<ellipse fill="#f070d1" stroke="black" cx="2037" cy="-526.78" rx="77.99" ry="18"/>
<text text-anchor="middle" x="2037" y="-523.08" font-family="Times,serif" font-size="14.00">print_type_var</text>
</a>
</g>
</g>
<!-- LPretty_print_box_type&#45;&gt;LPretty_print_type_var -->
<g id="edge47" class="edge">
<title>LPretty_print_box_type&#45;&gt;LPretty_print_type_var</title>
<path fill="none" stroke="black" d="M1953.08,-636.78C1969.64,-615.27 1998.32,-578.03 2017.47,-553.14"/>
<polygon fill="black" stroke="black" points="2020.49,-554.96 2023.82,-544.9 2014.94,-550.69 2020.49,-554.96"/>
</g>
<!-- LPretty_get_tapp_hd -->
<g id="node52" class="node">
<title>LPretty_get_tapp_hd</title>
<g id="a_node52"><a xlink:href="LPretty.html#get_tapp_hd" xlink:title="get_tapp_hd">
<ellipse fill="#f070d1" stroke="black" cx="2201" cy="-526.78" rx="67.69" ry="18"/>
<text text-anchor="middle" x="2201" y="-523.08" font-family="Times,serif" font-size="14.00">get_tapp_hd</text>
</a>
</g>
</g>
<!-- LPretty_print_box_type&#45;&gt;LPretty_get_tapp_hd -->
<g id="edge48" class="edge">
<title>LPretty_print_box_type&#45;&gt;LPretty_get_tapp_hd</title>
<path fill="none" stroke="black" d="M1972.27,-638.2C2019.77,-615.27 2108.5,-572.43 2160.38,-547.39"/>
<polygon fill="black" stroke="black" points="2162.14,-550.43 2169.62,-542.93 2159.09,-544.12 2162.14,-550.43"/>
</g>
<!-- LPretty_map_targs -->
<g id="node53" class="node">
<title>LPretty_map_targs</title>
<g id="a_node53"><a xlink:href="LPretty.html#map_targs" xlink:title="map_targs">
<ellipse fill="#f070d1" stroke="black" cx="2346" cy="-526.78" rx="59.59" ry="18"/>
<text text-anchor="middle" x="2346" y="-523.08" font-family="Times,serif" font-size="14.00">map_targs</text>
</a>
</g>
</g>
<!-- LPretty_print_box_type&#45;&gt;LPretty_map_targs -->
<g id="edge49" class="edge">
<title>LPretty_print_box_type&#45;&gt;LPretty_map_targs</title>
<path fill="none" stroke="black" d="M1988.15,-640.41C2053.98,-621.89 2175.58,-586.87 2278,-552.78 2285.47,-550.29 2293.35,-547.53 2300.99,-544.77"/>
<polygon fill="black" stroke="black" points="2302.31,-548.02 2310.5,-541.3 2299.91,-541.44 2302.31,-548.02"/>
</g>
<!-- LPretty_is_arr -->
<g id="node54" class="node">
<title>LPretty_is_arr</title>
<g id="a_node54"><a xlink:href="LPretty.html#is_arr" xlink:title="is_arr">
<ellipse fill="#f070d1" stroke="black" cx="2461" cy="-526.78" rx="37.09" ry="18"/>
<text text-anchor="middle" x="2461" y="-523.08" font-family="Times,serif" font-size="14.00">is_arr</text>
</a>
</g>
</g>
<!-- LPretty_print_box_type&#45;&gt;LPretty_is_arr -->
<g id="edge50" class="edge">
<title>LPretty_print_box_type&#45;&gt;LPretty_is_arr</title>
<path fill="none" stroke="black" d="M2008.19,-645.57C2102.02,-632.88 2275.21,-604.39 2415,-552.78 2419.99,-550.94 2425.1,-548.63 2430.02,-546.17"/>
<polygon fill="black" stroke="black" points="2431.95,-549.1 2439.15,-541.33 2428.67,-542.92 2431.95,-549.1"/>
</g>
<!-- LPretty_print_box_type&#45;&gt;LPretty_print_uncurried -->
<g id="edge51" class="edge">
<title>LPretty_print_box_type&#45;&gt;LPretty_print_uncurried</title>
<path fill="none" stroke="black" d="M1874.64,-644.41C1782.91,-629.78 1623.32,-598.37 1589,-552.78 1559.13,-513.11 1598.64,-457.03 1626.93,-425.25"/>
<polygon fill="black" stroke="black" points="1629.65,-427.46 1633.83,-417.72 1624.49,-422.73 1629.65,-427.46"/>
</g>
<!-- LPretty_print_box_type&#45;&gt;LPretty_look -->
<g id="edge52" class="edge">
<title>LPretty_print_box_type&#45;&gt;LPretty_look</title>
<path fill="none" stroke="black" d="M1942.81,-636.69C1946.83,-607.29 1951.52,-545.96 1930,-500.78 1912.99,-465.08 1877.08,-436 1851.34,-418.58"/>
<polygon fill="black" stroke="black" points="1852.98,-415.47 1842.7,-412.91 1849.14,-421.32 1852.98,-415.47"/>
</g>
<!-- LPretty_unqual_name -->
<g id="node56" class="node">
<title>LPretty_unqual_name</title>
<g id="a_node56"><a xlink:href="LPretty.html#unqual_name" xlink:title="unqual_name">
<ellipse fill="#f070d1" stroke="black" cx="202" cy="-1152.78" rx="72.27" ry="18"/>
<ellipse fill="none" stroke="black" cx="202" cy="-1152.78" rx="76.28" ry="22"/>
<ellipse fill="none" stroke="black" cx="202" cy="-1152.78" rx="80.29" ry="26"/>
<text text-anchor="middle" x="202" y="-1149.08" font-family="Times,serif" font-size="14.00">unqual_name</text>
</a>
</g>
</g>
<!-- LPretty_tokenize -->
<g id="node57" class="node">
<title>LPretty_tokenize</title>
<g id="a_node57"><a xlink:href="LPretty.html#tokenize" xlink:title="tokenize">
<ellipse fill="#f070d1" stroke="black" cx="202" cy="-1025.78" rx="50.09" ry="18"/>
<text text-anchor="middle" x="202" y="-1022.08" font-family="Times,serif" font-size="14.00">tokenize</text>
</a>
</g>
</g>
<!-- LPretty_unqual_name&#45;&gt;LPretty_tokenize -->
<g id="edge53" class="edge">
<title>LPretty_unqual_name&#45;&gt;LPretty_tokenize</title>
<path fill="none" stroke="black" d="M202,-1126.48C202,-1105.49 202,-1075.69 202,-1054.14"/>
<polygon fill="black" stroke="black" points="205.5,-1054.01 202,-1044.01 198.5,-1054.01 205.5,-1054.01"/>
</g>
<!-- LPretty_tokenize_aux -->
<g id="node58" class="node">
<title>LPretty_tokenize_aux</title>
<g id="a_node58"><a xlink:href="LPretty.html#tokenize_aux" xlink:title="tokenize_aux">
<ellipse fill="#f070d1" stroke="black" cx="202" cy="-910.78" rx="70.69" ry="18"/>
<text text-anchor="middle" x="202" y="-907.08" font-family="Times,serif" font-size="14.00">tokenize_aux</text>
</a>
</g>
</g>
<!-- LPretty_tokenize&#45;&gt;LPretty_tokenize_aux -->
<g id="edge54" class="edge">
<title>LPretty_tokenize&#45;&gt;LPretty_tokenize_aux</title>
<path fill="none" stroke="black" d="M202,-1007.62C202,-989.45 202,-960.5 202,-939.17"/>
<polygon fill="black" stroke="black" points="205.5,-939.1 202,-929.1 198.5,-939.1 205.5,-939.1"/>
</g>
<!-- LPretty_is_rel -->
<g id="node59" class="node">
<title>LPretty_is_rel</title>
<g id="a_node59"><a xlink:href="LPretty.html#is_rel" xlink:title="is_rel">
<ellipse fill="#f070d1" stroke="black" cx="60" cy="-1152.78" rx="35.95" ry="18"/>
<ellipse fill="none" stroke="black" cx="60" cy="-1152.78" rx="39.97" ry="22"/>
<ellipse fill="none" stroke="black" cx="60" cy="-1152.78" rx="44" ry="26"/>
<text text-anchor="middle" x="60" y="-1149.08" font-family="Times,serif" font-size="14.00">is_rel</text>
</a>
</g>
</g>
</g>
</svg>
