<?xml version="1.0" encoding="UTF-8" standalone="no"?>
<!DOCTYPE svg PUBLIC "-//W3C//DTD SVG 1.1//EN"
 "http://www.w3.org/Graphics/SVG/1.1/DTD/svg11.dtd">
<!-- Generated by graphviz version 2.43.0 (0)
 -->
<!-- Title: ContractMonads Pages: 1 -->
<svg width="5106pt" height="2557pt"
 viewBox="0.00 0.00 5106.00 2557.00" xmlns="http://www.w3.org/2000/svg" xmlns:xlink="http://www.w3.org/1999/xlink">
<g id="graph0" class="graph" transform="scale(1 1) rotate(0) translate(4 2553)">
<title>ContractMonads</title>
<polygon fill="white" stroke="transparent" points="-4,4 -4,-2553 5102,-2553 5102,4 -4,4"/>
<g id="clust1" class="cluster">
<title>cluster_ContractMonads</title>
<polygon fill="#ffffc3" stroke="black" points="8,-76.37 8,-2472.63 5090,-2472.63 5090,-76.37 8,-76.37"/>
<text text-anchor="middle" x="75.5" y="-2457.43" font-family="Times,serif" font-size="14.00">ContractMonads</text>
</g>
<!-- ContractMonads_build_contract -->
<g id="node1" class="node">
<title>ContractMonads_build_contract</title>
<g id="a_node1"><a xlink:href="ContractMonads.html#build_contract" xlink:title="build_contract">
<ellipse fill="#f070d1" stroke="black" cx="3575" cy="-1928.37" rx="77.2" ry="18"/>
<ellipse fill="none" stroke="black" cx="3575" cy="-1928.37" rx="81.19" ry="22"/>
<ellipse fill="none" stroke="black" cx="3575" cy="-1928.37" rx="85.19" ry="26"/>
<text text-anchor="middle" x="3575" y="-1924.67" font-family="Times,serif" font-size="14.00">build_contract</text>
</a>
</g>
</g>
<!-- ContractMonads_run_contract_receiver -->
<g id="node20" class="node">
<title>ContractMonads_run_contract_receiver</title>
<g id="a_node20"><a xlink:href="ContractMonads.html#run_contract_receiver" xlink:title="run_contract_receiver">
<ellipse fill="#f070d1" stroke="black" cx="3690" cy="-1088.37" rx="112.38" ry="18"/>
<text text-anchor="middle" x="3690" y="-1084.67" font-family="Times,serif" font-size="14.00">run_contract_receiver</text>
</a>
</g>
</g>
<!-- ContractMonads_build_contract&#45;&gt;ContractMonads_run_contract_receiver -->
<g id="edge1" class="edge">
<title>ContractMonads_build_contract&#45;&gt;ContractMonads_run_contract_receiver</title>
<path fill="none" stroke="black" d="M3578.44,-1902.29C3595.27,-1779.64 3668.81,-1243.76 3686.27,-1116.54"/>
<polygon fill="black" stroke="black" points="3689.76,-1116.86 3687.65,-1106.48 3682.83,-1115.91 3689.76,-1116.86"/>
</g>
<!-- ContractMonads_run_contract_initer -->
<g id="node27" class="node">
<title>ContractMonads_run_contract_initer</title>
<g id="a_node27"><a xlink:href="ContractMonads.html#run_contract_initer" xlink:title="run_contract_initer">
<ellipse fill="#f070d1" stroke="black" cx="3460" cy="-1088.37" rx="99.38" ry="18"/>
<text text-anchor="middle" x="3460" y="-1084.67" font-family="Times,serif" font-size="14.00">run_contract_initer</text>
</a>
</g>
</g>
<!-- ContractMonads_build_contract&#45;&gt;ContractMonads_run_contract_initer -->
<g id="edge2" class="edge">
<title>ContractMonads_build_contract&#45;&gt;ContractMonads_run_contract_initer</title>
<path fill="none" stroke="black" d="M3571.56,-1902.29C3554.73,-1779.64 3481.19,-1243.76 3463.73,-1116.54"/>
<polygon fill="black" stroke="black" points="3467.17,-1115.91 3462.35,-1106.48 3460.24,-1116.86 3467.17,-1115.91"/>
</g>
<!-- ContractMonads_accept_call -->
<g id="node2" class="node">
<title>ContractMonads_accept_call</title>
<g id="a_node2"><a xlink:href="ContractMonads.html#accept_call" xlink:title="accept_call">
<ellipse fill="#f070d1" stroke="black" cx="4740" cy="-1088.37" rx="61.96" ry="18"/>
<ellipse fill="none" stroke="black" cx="4740" cy="-1088.37" rx="65.98" ry="22"/>
<ellipse fill="none" stroke="black" cx="4740" cy="-1088.37" rx="69.99" ry="26"/>
<text text-anchor="middle" x="4740" y="-1084.67" font-family="Times,serif" font-size="14.00">accept_call</text>
</a>
</g>
</g>
<!-- ContractMonads_ContractReceiver -->
<g id="node22" class="node">
<title>ContractMonads_ContractReceiver</title>
<g id="a_node22"><a xlink:href="ContractMonads.html#ContractReceiver" xlink:title="ContractReceiver">
<ellipse fill="#f070d1" stroke="black" cx="4329" cy="-324.37" rx="91.78" ry="18"/>
<text text-anchor="middle" x="4329" y="-320.67" font-family="Times,serif" font-size="14.00">ContractReceiver</text>
</a>
</g>
</g>
<!-- ContractMonads_accept_call&#45;&gt;ContractMonads_ContractReceiver -->
<g id="edge3" class="edge">
<title>ContractMonads_accept_call&#45;&gt;ContractMonads_ContractReceiver</title>
<path fill="none" stroke="black" d="M4726.56,-1062.45C4664.53,-947.44 4406.23,-468.56 4343.01,-351.35"/>
<polygon fill="black" stroke="black" points="4345.98,-349.48 4338.15,-342.34 4339.82,-352.8 4345.98,-349.48"/>
</g>
<!-- ContractMonads_reject_call -->
<g id="node3" class="node">
<title>ContractMonads_reject_call</title>
<g id="a_node3"><a xlink:href="ContractMonads.html#reject_call" xlink:title="reject_call">
<ellipse fill="#f070d1" stroke="black" cx="4586" cy="-1088.37" rx="57.71" ry="18"/>
<ellipse fill="none" stroke="black" cx="4586" cy="-1088.37" rx="61.7" ry="22"/>
<ellipse fill="none" stroke="black" cx="4586" cy="-1088.37" rx="65.69" ry="26"/>
<text text-anchor="middle" x="4586" y="-1084.67" font-family="Times,serif" font-size="14.00">reject_call</text>
</a>
</g>
</g>
<!-- ContractMonads_reject_call&#45;&gt;ContractMonads_ContractReceiver -->
<g id="edge4" class="edge">
<title>ContractMonads_reject_call&#45;&gt;ContractMonads_ContractReceiver</title>
<path fill="none" stroke="black" d="M4577.6,-1062.45C4538.93,-947.8 4378.29,-471.51 4338.13,-352.45"/>
<polygon fill="black" stroke="black" points="4341.34,-351.02 4334.83,-342.66 4334.71,-353.26 4341.34,-351.02"/>
</g>
<!-- ContractMonads_queue -->
<g id="node4" class="node">
<title>ContractMonads_queue</title>
<g id="a_node4"><a xlink:href="ContractMonads.html#queue" xlink:title="queue">
<ellipse fill="#f070d1" stroke="black" cx="4455" cy="-1088.37" rx="38.99" ry="18"/>
<ellipse fill="none" stroke="black" cx="4455" cy="-1088.37" rx="42.99" ry="22"/>
<ellipse fill="none" stroke="black" cx="4455" cy="-1088.37" rx="46.99" ry="26"/>
<text text-anchor="middle" x="4455" y="-1084.67" font-family="Times,serif" font-size="14.00">queue</text>
</a>
</g>
</g>
<!-- ContractMonads_queue&#45;&gt;ContractMonads_ContractReceiver -->
<g id="edge5" class="edge">
<title>ContractMonads_queue&#45;&gt;ContractMonads_ContractReceiver</title>
<path fill="none" stroke="black" d="M4450.88,-1062.45C4431.94,-947.91 4353.32,-472.47 4333.54,-352.81"/>
<polygon fill="black" stroke="black" points="4336.94,-351.96 4331.86,-342.66 4330.04,-353.1 4336.94,-351.96"/>
</g>
<!-- ContractMonads_my_state -->
<g id="node5" class="node">
<title>ContractMonads_my_state</title>
<g id="a_node5"><a xlink:href="ContractMonads.html#my_state" xlink:title="my_state">
<ellipse fill="#f070d1" stroke="black" cx="4329" cy="-1088.37" rx="52.77" ry="18"/>
<ellipse fill="none" stroke="black" cx="4329" cy="-1088.37" rx="56.78" ry="22"/>
<ellipse fill="none" stroke="black" cx="4329" cy="-1088.37" rx="60.79" ry="26"/>
<text text-anchor="middle" x="4329" y="-1084.67" font-family="Times,serif" font-size="14.00">my_state</text>
</a>
</g>
</g>
<!-- ContractMonads_my_state&#45;&gt;ContractMonads_ContractReceiver -->
<g id="edge6" class="edge">
<title>ContractMonads_my_state&#45;&gt;ContractMonads_ContractReceiver</title>
<path fill="none" stroke="black" d="M4329,-1062.02C4329,-946.7 4329,-472.17 4329,-352.75"/>
<polygon fill="black" stroke="black" points="4332.5,-352.62 4329,-342.62 4325.5,-352.62 4332.5,-352.62"/>
</g>
<!-- ContractMonads_call_msg -->
<g id="node6" class="node">
<title>ContractMonads_call_msg</title>
<g id="a_node6"><a xlink:href="ContractMonads.html#call_msg" xlink:title="call_msg">
<ellipse fill="#f070d1" stroke="black" cx="4192" cy="-1088.37" rx="50.86" ry="18"/>
<ellipse fill="none" stroke="black" cx="4192" cy="-1088.37" rx="54.88" ry="22"/>
<ellipse fill="none" stroke="black" cx="4192" cy="-1088.37" rx="58.89" ry="26"/>
<text text-anchor="middle" x="4192" y="-1084.67" font-family="Times,serif" font-size="14.00">call_msg</text>
</a>
</g>
</g>
<!-- ContractMonads_call_msg&#45;&gt;ContractMonads_ContractReceiver -->
<g id="edge7" class="edge">
<title>ContractMonads_call_msg&#45;&gt;ContractMonads_ContractReceiver</title>
<path fill="none" stroke="black" d="M4196.56,-1062.02C4217.29,-946.7 4302.61,-472.17 4324.08,-352.75"/>
<polygon fill="black" stroke="black" points="4327.57,-353.09 4325.9,-342.62 4320.68,-351.85 4327.57,-353.09"/>
</g>
<!-- ContractMonads_accept_deployment -->
<g id="node7" class="node">
<title>ContractMonads_accept_deployment</title>
<g id="a_node7"><a xlink:href="ContractMonads.html#accept_deployment" xlink:title="accept_deployment">
<ellipse fill="#f070d1" stroke="black" cx="2055" cy="-1928.37" rx="100.18" ry="18"/>
<ellipse fill="none" stroke="black" cx="2055" cy="-1928.37" rx="104.18" ry="22"/>
<ellipse fill="none" stroke="black" cx="2055" cy="-1928.37" rx="108.18" ry="26"/>
<text text-anchor="middle" x="2055" y="-1924.67" font-family="Times,serif" font-size="14.00">accept_deployment</text>
</a>
</g>
</g>
<!-- ContractMonads_contract_initer_monad -->
<g id="node26" class="node">
<title>ContractMonads_contract_initer_monad</title>
<g id="a_node26"><a xlink:href="ContractMonads.html#contract_initer_monad" xlink:title="contract_initer_monad">
<ellipse fill="#f070d1" stroke="black" cx="2175" cy="-1088.37" rx="114.28" ry="18"/>
<text text-anchor="middle" x="2175" y="-1084.67" font-family="Times,serif" font-size="14.00">contract_initer_monad</text>
</a>
</g>
</g>
<!-- ContractMonads_accept_deployment&#45;&gt;ContractMonads_contract_initer_monad -->
<g id="edge8" class="edge">
<title>ContractMonads_accept_deployment&#45;&gt;ContractMonads_contract_initer_monad</title>
<path fill="none" stroke="black" d="M2058.59,-1902.29C2076.15,-1779.64 2152.89,-1243.76 2171.11,-1116.54"/>
<polygon fill="black" stroke="black" points="2174.6,-1116.87 2172.55,-1106.48 2167.67,-1115.88 2174.6,-1116.87"/>
</g>
<!-- ContractMonads_reject_deployment -->
<g id="node8" class="node">
<title>ContractMonads_reject_deployment</title>
<g id="a_node8"><a xlink:href="ContractMonads.html#reject_deployment" xlink:title="reject_deployment">
<ellipse fill="#f070d1" stroke="black" cx="2923" cy="-1088.37" rx="96.7" ry="18"/>
<ellipse fill="none" stroke="black" cx="2923" cy="-1088.37" rx="100.69" ry="22"/>
<ellipse fill="none" stroke="black" cx="2923" cy="-1088.37" rx="104.68" ry="26"/>
<text text-anchor="middle" x="2923" y="-1084.67" font-family="Times,serif" font-size="14.00">reject_deployment</text>
</a>
</g>
</g>
<!-- ContractMonads_ContractIniter -->
<g id="node28" class="node">
<title>ContractMonads_ContractIniter</title>
<g id="a_node28"><a xlink:href="ContractMonads.html#ContractIniter" xlink:title="ContractIniter">
<ellipse fill="#f070d1" stroke="black" cx="2569" cy="-324.37" rx="77.19" ry="18"/>
<text text-anchor="middle" x="2569" y="-320.67" font-family="Times,serif" font-size="14.00">ContractIniter</text>
</a>
</g>
</g>
<!-- ContractMonads_reject_deployment&#45;&gt;ContractMonads_ContractIniter -->
<g id="edge9" class="edge">
<title>ContractMonads_reject_deployment&#45;&gt;ContractMonads_ContractIniter</title>
<path fill="none" stroke="black" d="M2911.42,-1062.45C2858.05,-947.56 2635.96,-469.52 2581.23,-351.7"/>
<polygon fill="black" stroke="black" points="2584.27,-349.93 2576.88,-342.34 2577.92,-352.88 2584.27,-349.93"/>
</g>
<!-- ContractMonads_deployment_setup -->
<g id="node9" class="node">
<title>ContractMonads_deployment_setup</title>
<g id="a_node9"><a xlink:href="ContractMonads.html#deployment_setup" xlink:title="deployment_setup">
<ellipse fill="#f070d1" stroke="black" cx="2697" cy="-1088.37" rx="95.58" ry="18"/>
<ellipse fill="none" stroke="black" cx="2697" cy="-1088.37" rx="99.58" ry="22"/>
<ellipse fill="none" stroke="black" cx="2697" cy="-1088.37" rx="103.58" ry="26"/>
<text text-anchor="middle" x="2697" y="-1084.67" font-family="Times,serif" font-size="14.00">deployment_setup</text>
</a>
</g>
</g>
<!-- ContractMonads_deployment_setup&#45;&gt;ContractMonads_ContractIniter -->
<g id="edge10" class="edge">
<title>ContractMonads_deployment_setup&#45;&gt;ContractMonads_ContractIniter</title>
<path fill="none" stroke="black" d="M2692.74,-1062.02C2673.37,-946.7 2593.66,-472.17 2573.6,-352.75"/>
<polygon fill="black" stroke="black" points="2577.01,-351.91 2571.9,-342.62 2570.1,-353.07 2577.01,-351.91"/>
</g>
<!-- ContractMonads_call_amount -->
<g id="node10" class="node">
<title>ContractMonads_call_amount</title>
<g id="a_node10"><a xlink:href="ContractMonads.html#call_amount" xlink:title="call_amount">
<ellipse fill="#f070d1" stroke="black" cx="918" cy="-1088.37" rx="66.11" ry="18"/>
<ellipse fill="none" stroke="black" cx="918" cy="-1088.37" rx="70.1" ry="22"/>
<ellipse fill="none" stroke="black" cx="918" cy="-1088.37" rx="74.09" ry="26"/>
<text text-anchor="middle" x="918" y="-1084.67" font-family="Times,serif" font-size="14.00">call_amount</text>
</a>
</g>
</g>
<!-- ContractMonads_ContractReader -->
<g id="node32" class="node">
<title>ContractMonads_ContractReader</title>
<g id="a_node32"><a xlink:href="ContractMonads.html#ContractReader" xlink:title="ContractReader">
<ellipse fill="#f070d1" stroke="black" cx="918" cy="-324.37" rx="84.49" ry="18"/>
<text text-anchor="middle" x="918" y="-320.67" font-family="Times,serif" font-size="14.00">ContractReader</text>
</a>
</g>
</g>
<!-- ContractMonads_call_amount&#45;&gt;ContractMonads_ContractReader -->
<g id="edge11" class="edge">
<title>ContractMonads_call_amount&#45;&gt;ContractMonads_ContractReader</title>
<path fill="none" stroke="black" d="M918,-1062.02C918,-946.7 918,-472.17 918,-352.75"/>
<polygon fill="black" stroke="black" points="921.5,-352.62 918,-342.62 914.5,-352.62 921.5,-352.62"/>
</g>
<!-- ContractMonads_my_balance -->
<g id="node11" class="node">
<title>ContractMonads_my_balance</title>
<g id="a_node11"><a xlink:href="ContractMonads.html#my_balance" xlink:title="my_balance">
<ellipse fill="#f070d1" stroke="black" cx="753" cy="-1088.37" rx="64.99" ry="18"/>
<ellipse fill="none" stroke="black" cx="753" cy="-1088.37" rx="68.99" ry="22"/>
<ellipse fill="none" stroke="black" cx="753" cy="-1088.37" rx="72.99" ry="26"/>
<text text-anchor="middle" x="753" y="-1084.67" font-family="Times,serif" font-size="14.00">my_balance</text>
</a>
</g>
</g>
<!-- ContractMonads_my_balance&#45;&gt;ContractMonads_ContractReader -->
<g id="edge12" class="edge">
<title>ContractMonads_my_balance&#45;&gt;ContractMonads_ContractReader</title>
<path fill="none" stroke="black" d="M758.49,-1062.02C783.46,-946.7 886.21,-472.17 912.07,-352.75"/>
<polygon fill="black" stroke="black" points="915.57,-353.14 914.26,-342.62 908.73,-351.66 915.57,-353.14"/>
</g>
<!-- ContractMonads_my_addr -->
<g id="node12" class="node">
<title>ContractMonads_my_addr</title>
<g id="a_node12"><a xlink:href="ContractMonads.html#my_addr" xlink:title="my_addr">
<ellipse fill="#f070d1" stroke="black" cx="603" cy="-1088.37" rx="50.86" ry="18"/>
<ellipse fill="none" stroke="black" cx="603" cy="-1088.37" rx="54.88" ry="22"/>
<ellipse fill="none" stroke="black" cx="603" cy="-1088.37" rx="58.89" ry="26"/>
<text text-anchor="middle" x="603" y="-1084.67" font-family="Times,serif" font-size="14.00">my_addr</text>
</a>
</g>
</g>
<!-- ContractMonads_my_addr&#45;&gt;ContractMonads_ContractReader -->
<g id="edge13" class="edge">
<title>ContractMonads_my_addr&#45;&gt;ContractMonads_ContractReader</title>
<path fill="none" stroke="black" d="M613.3,-1062.45C660.8,-947.56 858.41,-469.52 907.12,-351.7"/>
<polygon fill="black" stroke="black" points="910.4,-352.92 910.99,-342.34 903.93,-350.24 910.4,-352.92"/>
</g>
<!-- ContractMonads_caller_addr -->
<g id="node13" class="node">
<title>ContractMonads_caller_addr</title>
<g id="a_node13"><a xlink:href="ContractMonads.html#caller_addr" xlink:title="caller_addr">
<ellipse fill="#f070d1" stroke="black" cx="456" cy="-1088.37" rx="62.3" ry="18"/>
<ellipse fill="none" stroke="black" cx="456" cy="-1088.37" rx="66.3" ry="22"/>
<ellipse fill="none" stroke="black" cx="456" cy="-1088.37" rx="70.29" ry="26"/>
<text text-anchor="middle" x="456" y="-1084.67" font-family="Times,serif" font-size="14.00">caller_addr</text>
</a>
</g>
</g>
<!-- ContractMonads_caller_addr&#45;&gt;ContractMonads_ContractReader -->
<g id="edge14" class="edge">
<title>ContractMonads_caller_addr&#45;&gt;ContractMonads_ContractReader</title>
<path fill="none" stroke="black" d="M470.85,-1062.88C540.17,-948.54 831.59,-467.89 902.43,-351.05"/>
<polygon fill="black" stroke="black" points="905.5,-352.74 907.69,-342.37 899.52,-349.11 905.5,-352.74"/>
</g>
<!-- ContractMonads_finalized_height -->
<g id="node14" class="node">
<title>ContractMonads_finalized_height</title>
<g id="a_node14"><a xlink:href="ContractMonads.html#finalized_height" xlink:title="finalized_height">
<ellipse fill="#f070d1" stroke="black" cx="276" cy="-1088.37" rx="83.7" ry="18"/>
<ellipse fill="none" stroke="black" cx="276" cy="-1088.37" rx="87.69" ry="22"/>
<ellipse fill="none" stroke="black" cx="276" cy="-1088.37" rx="91.69" ry="26"/>
<text text-anchor="middle" x="276" y="-1084.67" font-family="Times,serif" font-size="14.00">finalized_height</text>
</a>
</g>
</g>
<!-- ContractMonads_finalized_height&#45;&gt;ContractMonads_ContractReader -->
<g id="edge15" class="edge">
<title>ContractMonads_finalized_height&#45;&gt;ContractMonads_ContractReader</title>
<path fill="none" stroke="black" d="M296.63,-1062.88C393.16,-948.32 799.55,-465.96 896.96,-350.35"/>
<polygon fill="black" stroke="black" points="899.91,-352.28 903.68,-342.37 894.56,-347.77 899.91,-352.28"/>
</g>
<!-- ContractMonads_current_slot -->
<g id="node15" class="node">
<title>ContractMonads_current_slot</title>
<g id="a_node15"><a xlink:href="ContractMonads.html#current_slot" xlink:title="current_slot">
<ellipse fill="#f070d1" stroke="black" cx="91" cy="-1088.37" rx="66.89" ry="18"/>
<ellipse fill="none" stroke="black" cx="91" cy="-1088.37" rx="70.89" ry="22"/>
<ellipse fill="none" stroke="black" cx="91" cy="-1088.37" rx="74.89" ry="26"/>
<text text-anchor="middle" x="91" y="-1084.67" font-family="Times,serif" font-size="14.00">current_slot</text>
</a>
</g>
</g>
<!-- ContractMonads_current_slot&#45;&gt;ContractMonads_ContractReader -->
<g id="edge16" class="edge">
<title>ContractMonads_current_slot&#45;&gt;ContractMonads_ContractReader</title>
<path fill="none" stroke="black" d="M116.66,-1063.73C239.77,-950.29 769.1,-462.57 892.3,-349.05"/>
<polygon fill="black" stroke="black" points="894.84,-351.47 899.82,-342.12 890.1,-346.33 894.84,-351.47"/>
</g>
<!-- ContractMonads_chain_height -->
<g id="node16" class="node">
<title>ContractMonads_chain_height</title>
<g id="a_node16"><a xlink:href="ContractMonads.html#chain_height" xlink:title="chain_height">
<ellipse fill="#f070d1" stroke="black" cx="1590" cy="-1088.37" rx="69.58" ry="18"/>
<ellipse fill="none" stroke="black" cx="1590" cy="-1088.37" rx="73.59" ry="22"/>
<ellipse fill="none" stroke="black" cx="1590" cy="-1088.37" rx="77.59" ry="26"/>
<text text-anchor="middle" x="1590" y="-1084.67" font-family="Times,serif" font-size="14.00">chain_height</text>
</a>
</g>
</g>
<!-- ContractMonads_chain_height&#45;&gt;ContractMonads_ContractReader -->
<g id="edge17" class="edge">
<title>ContractMonads_chain_height&#45;&gt;ContractMonads_ContractReader</title>
<path fill="none" stroke="black" d="M1568.78,-1063.31C1468.34,-949.42 1041.38,-465.28 939.77,-350.06"/>
<polygon fill="black" stroke="black" points="942.26,-347.6 933.02,-342.41 937.01,-352.23 942.26,-347.6"/>
</g>
<!-- ContractMonads_option_to_contract_receiver -->
<g id="node17" class="node">
<title>ContractMonads_option_to_contract_receiver</title>
<g id="a_node17"><a xlink:href="ContractMonads.html#option_to_contract_receiver" xlink:title="option_to_contract_receiver">
<ellipse fill="#f070d1" stroke="black" cx="3968" cy="-1088.37" rx="139.17" ry="18"/>
<ellipse fill="none" stroke="black" cx="3968" cy="-1088.37" rx="143.17" ry="22"/>
<ellipse fill="none" stroke="black" cx="3968" cy="-1088.37" rx="147.18" ry="26"/>
<text text-anchor="middle" x="3968" y="-1084.67" font-family="Times,serif" font-size="14.00">option_to_contract_receiver</text>
</a>
</g>
</g>
<!-- ContractMonads_option_to_contract_receiver&#45;&gt;ContractMonads_ContractReceiver -->
<g id="edge18" class="edge">
<title>ContractMonads_option_to_contract_receiver&#45;&gt;ContractMonads_ContractReceiver</title>
<path fill="none" stroke="black" d="M3979.81,-1062.45C4034.24,-947.56 4260.71,-469.52 4316.53,-351.7"/>
<polygon fill="black" stroke="black" points="4319.85,-352.87 4320.96,-342.34 4313.52,-349.88 4319.85,-352.87"/>
</g>
<!-- ContractMonads_contract_reader_to_receiver -->
<g id="node18" class="node">
<title>ContractMonads_contract_reader_to_receiver</title>
<g id="a_node18"><a xlink:href="ContractMonads.html#contract_reader_to_receiver" xlink:title="contract_reader_to_receiver">
<ellipse fill="#f070d1" stroke="black" cx="3194" cy="-1088.37" rx="140.28" ry="18"/>
<ellipse fill="none" stroke="black" cx="3194" cy="-1088.37" rx="144.28" ry="22"/>
<ellipse fill="none" stroke="black" cx="3194" cy="-1088.37" rx="148.28" ry="26"/>
<text text-anchor="middle" x="3194" y="-1084.67" font-family="Times,serif" font-size="14.00">contract_reader_to_receiver</text>
</a>
</g>
</g>
<!-- ContractMonads_contract_reader_to_receiver&#45;&gt;ContractMonads_ContractReceiver -->
<g id="edge19" class="edge">
<title>ContractMonads_contract_reader_to_receiver&#45;&gt;ContractMonads_ContractReceiver</title>
<path fill="none" stroke="black" d="M3230.16,-1063.1C3401.61,-947.99 4131.2,-458.17 4295.88,-347.61"/>
<polygon fill="black" stroke="black" points="4298.26,-350.23 4304.61,-341.75 4294.35,-344.42 4298.26,-350.23"/>
</g>
<!-- ContractMonads_contract_reader_to_receiver&#45;&gt;ContractMonads_ContractReader -->
<g id="edge20" class="edge">
<title>ContractMonads_contract_reader_to_receiver&#45;&gt;ContractMonads_ContractReader</title>
<path fill="none" stroke="black" d="M3127.42,-1065.08C2790.26,-952.2 1275.35,-445.02 971.26,-343.21"/>
<polygon fill="black" stroke="black" points="971.96,-339.75 961.37,-339.89 969.74,-346.39 971.96,-339.75"/>
</g>
<!-- ContractMonads_contract_receiver_laws -->
<g id="node19" class="node">
<title>ContractMonads_contract_receiver_laws</title>
<g id="a_node19"><a xlink:href="ContractMonads.html#contract_receiver_laws" xlink:title="contract_receiver_laws">
<ellipse fill="#7fffd4" stroke="black" cx="4955" cy="-1928.37" rx="116.98" ry="18"/>
<ellipse fill="none" stroke="black" cx="4955" cy="-1928.37" rx="120.98" ry="22"/>
<ellipse fill="none" stroke="black" cx="4955" cy="-1928.37" rx="124.98" ry="26"/>
<text text-anchor="middle" x="4955" y="-1924.67" font-family="Times,serif" font-size="14.00">contract_receiver_laws</text>
</a>
</g>
</g>
<!-- ContractMonads_contract_receiver_monad -->
<g id="node21" class="node">
<title>ContractMonads_contract_receiver_monad</title>
<g id="a_node21"><a xlink:href="ContractMonads.html#contract_receiver_monad" xlink:title="contract_receiver_monad">
<ellipse fill="#f070d1" stroke="black" cx="4955" cy="-1088.37" rx="127.28" ry="18"/>
<text text-anchor="middle" x="4955" y="-1084.67" font-family="Times,serif" font-size="14.00">contract_receiver_monad</text>
</a>
</g>
</g>
<!-- ContractMonads_contract_receiver_laws&#45;&gt;ContractMonads_contract_receiver_monad -->
<g id="edge21" class="edge">
<title>ContractMonads_contract_receiver_laws&#45;&gt;ContractMonads_contract_receiver_monad</title>
<path fill="none" stroke="black" d="M4955,-1902.29C4955,-1779.64 4955,-1243.76 4955,-1116.54"/>
<polygon fill="black" stroke="black" points="4958.5,-1116.48 4955,-1106.48 4951.5,-1116.48 4958.5,-1116.48"/>
</g>
<!-- ContractMonads_run_contract_receiver&#45;&gt;ContractMonads_ContractReceiver -->
<g id="edge22" class="edge">
<title>ContractMonads_run_contract_receiver&#45;&gt;ContractMonads_ContractReceiver</title>
<path fill="none" stroke="black" d="M3704.24,-1070.39C3787.32,-971.32 4209.11,-468.34 4308.16,-350.23"/>
<polygon fill="black" stroke="black" points="4310.98,-352.31 4314.72,-342.4 4305.62,-347.81 4310.98,-352.31"/>
</g>
<!-- ContractMonads_contract_receiver_monad&#45;&gt;ContractMonads_ContractReceiver -->
<g id="edge23" class="edge">
<title>ContractMonads_contract_receiver_monad&#45;&gt;ContractMonads_ContractReceiver</title>
<path fill="none" stroke="black" d="M4941.05,-1070.39C4859.66,-971.32 4446.45,-468.34 4349.42,-350.23"/>
<polygon fill="black" stroke="black" points="4352.04,-347.9 4342.99,-342.4 4346.63,-352.35 4352.04,-347.9"/>
</g>
<!-- ContractMonads_option_to_contract_initer -->
<g id="node23" class="node">
<title>ContractMonads_option_to_contract_initer</title>
<g id="a_node23"><a xlink:href="ContractMonads.html#option_to_contract_initer" xlink:title="option_to_contract_initer">
<ellipse fill="#f070d1" stroke="black" cx="2441" cy="-1088.37" rx="126.17" ry="18"/>
<ellipse fill="none" stroke="black" cx="2441" cy="-1088.37" rx="130.18" ry="22"/>
<ellipse fill="none" stroke="black" cx="2441" cy="-1088.37" rx="134.18" ry="26"/>
<text text-anchor="middle" x="2441" y="-1084.67" font-family="Times,serif" font-size="14.00">option_to_contract_initer</text>
</a>
</g>
</g>
<!-- ContractMonads_option_to_contract_initer&#45;&gt;ContractMonads_ContractIniter -->
<g id="edge24" class="edge">
<title>ContractMonads_option_to_contract_initer&#45;&gt;ContractMonads_ContractIniter</title>
<path fill="none" stroke="black" d="M2445.26,-1062.02C2464.63,-946.7 2544.34,-472.17 2564.4,-352.75"/>
<polygon fill="black" stroke="black" points="2567.9,-353.07 2566.1,-342.62 2560.99,-351.91 2567.9,-353.07"/>
</g>
<!-- ContractMonads_contract_reader_to_contract_initer -->
<g id="node24" class="node">
<title>ContractMonads_contract_reader_to_contract_initer</title>
<g id="a_node24"><a xlink:href="ContractMonads.html#contract_reader_to_contract_initer" xlink:title="contract_reader_to_contract_initer">
<ellipse fill="#f070d1" stroke="black" cx="1864" cy="-1088.37" rx="170.87" ry="18"/>
<ellipse fill="none" stroke="black" cx="1864" cy="-1088.37" rx="174.87" ry="22"/>
<ellipse fill="none" stroke="black" cx="1864" cy="-1088.37" rx="178.87" ry="26"/>
<text text-anchor="middle" x="1864" y="-1084.67" font-family="Times,serif" font-size="14.00">contract_reader_to_contract_initer</text>
</a>
</g>
</g>
<!-- ContractMonads_contract_reader_to_contract_initer&#45;&gt;ContractMonads_ContractIniter -->
<g id="edge25" class="edge">
<title>ContractMonads_contract_reader_to_contract_initer&#45;&gt;ContractMonads_ContractIniter</title>
<path fill="none" stroke="black" d="M1887.06,-1062.45C1994.01,-946.86 2441.06,-463.66 2546.6,-349.58"/>
<polygon fill="black" stroke="black" points="2549.38,-351.73 2553.6,-342.02 2544.24,-346.98 2549.38,-351.73"/>
</g>
<!-- ContractMonads_contract_reader_to_contract_initer&#45;&gt;ContractMonads_ContractReader -->
<g id="edge26" class="edge">
<title>ContractMonads_contract_reader_to_contract_initer&#45;&gt;ContractMonads_ContractReader</title>
<path fill="none" stroke="black" d="M1833.33,-1062.67C1689.88,-947.12 1086.25,-460.9 946.82,-348.59"/>
<polygon fill="black" stroke="black" points="948.67,-345.58 938.68,-342.03 944.28,-351.03 948.67,-345.58"/>
</g>
<!-- ContractMonads_contract_initer_laws -->
<g id="node25" class="node">
<title>ContractMonads_contract_initer_laws</title>
<g id="a_node25"><a xlink:href="ContractMonads.html#contract_initer_laws" xlink:title="contract_initer_laws">
<ellipse fill="#7fffd4" stroke="black" cx="2294" cy="-1928.37" rx="104.77" ry="18"/>
<ellipse fill="none" stroke="black" cx="2294" cy="-1928.37" rx="108.78" ry="22"/>
<ellipse fill="none" stroke="black" cx="2294" cy="-1928.37" rx="112.78" ry="26"/>
<text text-anchor="middle" x="2294" y="-1924.67" font-family="Times,serif" font-size="14.00">contract_initer_laws</text>
</a>
</g>
</g>
<!-- ContractMonads_contract_initer_laws&#45;&gt;ContractMonads_contract_initer_monad -->
<g id="edge27" class="edge">
<title>ContractMonads_contract_initer_laws&#45;&gt;ContractMonads_contract_initer_monad</title>
<path fill="none" stroke="black" d="M2290.44,-1902.29C2273.02,-1779.64 2196.92,-1243.76 2178.86,-1116.54"/>
<polygon fill="black" stroke="black" points="2182.3,-1115.89 2177.43,-1106.48 2175.37,-1116.87 2182.3,-1115.89"/>
</g>
<!-- ContractMonads_contract_initer_monad&#45;&gt;ContractMonads_ContractIniter -->
<g id="edge28" class="edge">
<title>ContractMonads_contract_initer_monad&#45;&gt;ContractMonads_ContractIniter</title>
<path fill="none" stroke="black" d="M2183.78,-1070.39C2234.86,-971.61 2493.52,-471.36 2555.59,-351.3"/>
<polygon fill="black" stroke="black" points="2558.71,-352.89 2560.2,-342.4 2552.5,-349.67 2558.71,-352.89"/>
</g>
<!-- ContractMonads_run_contract_initer&#45;&gt;ContractMonads_ContractIniter -->
<g id="edge29" class="edge">
<title>ContractMonads_run_contract_initer&#45;&gt;ContractMonads_ContractIniter</title>
<path fill="none" stroke="black" d="M3440.14,-1070.39C3323.82,-970.91 2731.36,-464.22 2596.39,-348.8"/>
<polygon fill="black" stroke="black" points="2598.4,-345.91 2588.52,-342.07 2593.85,-351.23 2598.4,-345.91"/>
</g>
<!-- ContractMonads_contract_reader_laws -->
<g id="node29" class="node">
<title>ContractMonads_contract_reader_laws</title>
<g id="a_node29"><a xlink:href="ContractMonads.html#contract_reader_laws" xlink:title="contract_reader_laws">
<ellipse fill="#7fffd4" stroke="black" cx="1374" cy="-1928.37" rx="109.69" ry="18"/>
<ellipse fill="none" stroke="black" cx="1374" cy="-1928.37" rx="113.69" ry="22"/>
<ellipse fill="none" stroke="black" cx="1374" cy="-1928.37" rx="117.68" ry="26"/>
<text text-anchor="middle" x="1374" y="-1924.67" font-family="Times,serif" font-size="14.00">contract_reader_laws</text>
</a>
</g>
</g>
<!-- ContractMonads_contract_reader_monad -->
<g id="node30" class="node">
<title>ContractMonads_contract_reader_monad</title>
<g id="a_node30"><a xlink:href="ContractMonads.html#contract_reader_monad" xlink:title="contract_reader_monad">
<ellipse fill="#f070d1" stroke="black" cx="1374" cy="-1088.37" rx="120.48" ry="18"/>
<text text-anchor="middle" x="1374" y="-1084.67" font-family="Times,serif" font-size="14.00">contract_reader_monad</text>
</a>
</g>
</g>
<!-- ContractMonads_contract_reader_laws&#45;&gt;ContractMonads_contract_reader_monad -->
<g id="edge30" class="edge">
<title>ContractMonads_contract_reader_laws&#45;&gt;ContractMonads_contract_reader_monad</title>
<path fill="none" stroke="black" d="M1374,-1902.29C1374,-1779.64 1374,-1243.76 1374,-1116.54"/>
<polygon fill="black" stroke="black" points="1377.5,-1116.48 1374,-1106.48 1370.5,-1116.48 1377.5,-1116.48"/>
</g>
<!-- ContractMonads_contract_reader_monad&#45;&gt;ContractMonads_ContractReader -->
<g id="edge31" class="edge">
<title>ContractMonads_contract_reader_monad&#45;&gt;ContractMonads_ContractReader</title>
<path fill="none" stroke="black" d="M1363.84,-1070.39C1304.73,-971.61 1005.36,-471.36 933.52,-351.3"/>
<polygon fill="black" stroke="black" points="936.33,-349.18 928.19,-342.4 930.32,-352.78 936.33,-349.18"/>
</g>
<!-- ContractMonads_run_contract_reader -->
<g id="node31" class="node">
<title>ContractMonads_run_contract_reader</title>
<g id="a_node31"><a xlink:href="ContractMonads.html#run_contract_reader" xlink:title="run_contract_reader">
<ellipse fill="#f070d1" stroke="black" cx="1123" cy="-1088.37" rx="104.77" ry="18"/>
<ellipse fill="none" stroke="black" cx="1123" cy="-1088.37" rx="108.78" ry="22"/>
<ellipse fill="none" stroke="black" cx="1123" cy="-1088.37" rx="112.78" ry="26"/>
<text text-anchor="middle" x="1123" y="-1084.67" font-family="Times,serif" font-size="14.00">run_contract_reader</text>
</a>
</g>
</g>
<!-- ContractMonads_run_contract_reader&#45;&gt;ContractMonads_ContractReader -->
<g id="edge32" class="edge">
<title>ContractMonads_run_contract_reader&#45;&gt;ContractMonads_ContractReader</title>
<path fill="none" stroke="black" d="M1116.18,-1062.02C1085.12,-946.59 957.23,-471.21 925.27,-352.39"/>
<polygon fill="black" stroke="black" points="928.62,-351.37 922.64,-342.62 921.86,-353.19 928.62,-351.37"/>
</g>
</g>
</svg>
