<?xml version="1.0" encoding="UTF-8" standalone="no"?>
<!DOCTYPE svg PUBLIC "-//W3C//DTD SVG 1.1//EN"
 "http://www.w3.org/Graphics/SVG/1.1/DTD/svg11.dtd">
<!-- Generated by graphviz version 2.43.0 (0)
 -->
<!-- Title: Certifying Pages: 1 -->
<svg width="884pt" height="446pt"
 viewBox="0.00 0.00 884.00 446.00" xmlns="http://www.w3.org/2000/svg" xmlns:xlink="http://www.w3.org/1999/xlink">
<g id="graph0" class="graph" transform="scale(1 1) rotate(0) translate(4 442)">
<title>Certifying</title>
<polygon fill="white" stroke="transparent" points="-4,4 -4,-442 880,-442 880,4 -4,4"/>
<g id="clust1" class="cluster">
<title>cluster_Certifying</title>
<polygon fill="#ffffc3" stroke="black" points="8,-10.34 8,-427.66 868,-427.66 868,-10.34 8,-10.34"/>
<text text-anchor="middle" x="52.5" y="-412.46" font-family="Times,serif" font-size="14.00">Certifying</text>
</g>
<!-- Certifying_gen_defs_and_proofs -->
<g id="node1" class="node">
<title>Certifying_gen_defs_and_proofs</title>
<g id="a_node1"><a xlink:href="Certifying.html#gen_defs_and_proofs" xlink:title="gen_defs_and_proofs">
<ellipse fill="#7fffd4" stroke="black" cx="647" cy="-354.34" rx="106.67" ry="18"/>
<ellipse fill="none" stroke="black" cx="647" cy="-354.34" rx="110.68" ry="22"/>
<ellipse fill="none" stroke="black" cx="647" cy="-354.34" rx="114.68" ry="26"/>
<text text-anchor="middle" x="647" y="-350.64" font-family="Times,serif" font-size="14.00">gen_defs_and_proofs</text>
</a>
</g>
</g>
<!-- Certifying_traverse_env -->
<g id="node2" class="node">
<title>Certifying_traverse_env</title>
<g id="a_node2"><a xlink:href="Certifying.html#traverse_env" xlink:title="traverse_env">
<ellipse fill="#7fffd4" stroke="black" cx="513" cy="-240.34" rx="70.69" ry="18"/>
<text text-anchor="middle" x="513" y="-236.64" font-family="Times,serif" font-size="14.00">traverse_env</text>
</a>
</g>
</g>
<!-- Certifying_gen_defs_and_proofs&#45;&gt;Certifying_traverse_env -->
<g id="edge1" class="edge">
<title>Certifying_gen_defs_and_proofs&#45;&gt;Certifying_traverse_env</title>
<path fill="none" stroke="black" d="M617.92,-329.03C595.03,-309.9 563.32,-283.39 540.77,-264.54"/>
<polygon fill="black" stroke="black" points="542.82,-261.7 532.91,-257.97 538.33,-267.07 542.82,-261.7"/>
</g>
<!-- Certifying_is_none -->
<g id="node4" class="node">
<title>Certifying_is_none</title>
<g id="a_node4"><a xlink:href="Certifying.html#is_none" xlink:title="is_none">
<ellipse fill="#f070d1" stroke="black" cx="647" cy="-240.34" rx="45.49" ry="18"/>
<text text-anchor="middle" x="647" y="-236.64" font-family="Times,serif" font-size="14.00">is_none</text>
</a>
</g>
</g>
<!-- Certifying_gen_defs_and_proofs&#45;&gt;Certifying_is_none -->
<g id="edge2" class="edge">
<title>Certifying_gen_defs_and_proofs&#45;&gt;Certifying_is_none</title>
<path fill="none" stroke="black" d="M647,-328.2C647,-310.49 647,-286.8 647,-268.63"/>
<polygon fill="black" stroke="black" points="650.5,-268.39 647,-258.39 643.5,-268.39 650.5,-268.39"/>
</g>
<!-- Certifying_gen_proof -->
<g id="node5" class="node">
<title>Certifying_gen_proof</title>
<g id="a_node5"><a xlink:href="Certifying.html#gen_proof" xlink:title="gen_proof">
<ellipse fill="#7fffd4" stroke="black" cx="767" cy="-240.34" rx="56.59" ry="18"/>
<text text-anchor="middle" x="767" y="-236.64" font-family="Times,serif" font-size="14.00">gen_proof</text>
</a>
</g>
</g>
<!-- Certifying_gen_defs_and_proofs&#45;&gt;Certifying_gen_proof -->
<g id="edge3" class="edge">
<title>Certifying_gen_defs_and_proofs&#45;&gt;Certifying_gen_proof</title>
<path fill="none" stroke="black" d="M673.33,-328.76C693.8,-309.66 721.99,-283.35 742.09,-264.59"/>
<polygon fill="black" stroke="black" points="744.7,-266.94 749.62,-257.55 739.92,-261.82 744.7,-266.94"/>
</g>
<!-- Certifying_gen_prog -->
<g id="node6" class="node">
<title>Certifying_gen_prog</title>
<g id="a_node6"><a xlink:href="Certifying.html#gen_prog" xlink:title="gen_prog">
<ellipse fill="#7fffd4" stroke="black" cx="552" cy="-137.34" rx="53.89" ry="18"/>
<text text-anchor="middle" x="552" y="-133.64" font-family="Times,serif" font-size="14.00">gen_prog</text>
</a>
</g>
</g>
<!-- Certifying_traverse_env&#45;&gt;Certifying_gen_prog -->
<g id="edge4" class="edge">
<title>Certifying_traverse_env&#45;&gt;Certifying_gen_prog</title>
<path fill="none" stroke="black" d="M519.62,-222.2C525.7,-206.44 534.82,-182.82 541.84,-164.66"/>
<polygon fill="black" stroke="black" points="545.14,-165.81 545.48,-155.22 538.61,-163.28 545.14,-165.81"/>
</g>
<!-- Certifying_change_modpath -->
<g id="node11" class="node">
<title>Certifying_change_modpath</title>
<g id="a_node11"><a xlink:href="Certifying.html#change_modpath" xlink:title="change_modpath">
<ellipse fill="#f070d1" stroke="black" cx="391" cy="-137.34" rx="89.08" ry="18"/>
<text text-anchor="middle" x="391" y="-133.64" font-family="Times,serif" font-size="14.00">change_modpath</text>
</a>
</g>
</g>
<!-- Certifying_traverse_env&#45;&gt;Certifying_change_modpath -->
<g id="edge5" class="edge">
<title>Certifying_traverse_env&#45;&gt;Certifying_change_modpath</title>
<path fill="none" stroke="black" d="M493.13,-222.88C473.04,-206.26 441.82,-180.41 419.19,-161.67"/>
<polygon fill="black" stroke="black" points="421.21,-158.8 411.27,-155.12 416.74,-164.19 421.21,-158.8"/>
</g>
<!-- Certifying_map_global_env_decls -->
<g id="node3" class="node">
<title>Certifying_map_global_env_decls</title>
<g id="a_node3"><a xlink:href="Certifying.html#map_global_env_decls" xlink:title="map_global_env_decls">
<ellipse fill="#f070d1" stroke="black" cx="283" cy="-354.34" rx="112.38" ry="18"/>
<ellipse fill="none" stroke="black" cx="283" cy="-354.34" rx="116.38" ry="22"/>
<ellipse fill="none" stroke="black" cx="283" cy="-354.34" rx="120.38" ry="26"/>
<text text-anchor="middle" x="283" y="-350.64" font-family="Times,serif" font-size="14.00">map_global_env_decls</text>
</a>
</g>
</g>
<!-- Certifying_generate_proof_term -->
<g id="node7" class="node">
<title>Certifying_generate_proof_term</title>
<g id="a_node7"><a xlink:href="Certifying.html#generate_proof_term" xlink:title="generate_proof_term">
<ellipse fill="#f070d1" stroke="black" cx="732" cy="-137.34" rx="107.78" ry="18"/>
<text text-anchor="middle" x="732" y="-133.64" font-family="Times,serif" font-size="14.00">generate_proof_term</text>
</a>
</g>
</g>
<!-- Certifying_gen_proof&#45;&gt;Certifying_generate_proof_term -->
<g id="edge6" class="edge">
<title>Certifying_gen_proof&#45;&gt;Certifying_generate_proof_term</title>
<path fill="none" stroke="black" d="M761.06,-222.2C755.66,-206.6 747.59,-183.32 741.32,-165.24"/>
<polygon fill="black" stroke="black" points="744.55,-163.86 737.97,-155.55 737.93,-166.15 744.55,-163.86"/>
</g>
<!-- Certifying_get_def_name -->
<g id="node12" class="node">
<title>Certifying_get_def_name</title>
<g id="a_node12"><a xlink:href="Certifying.html#get_def_name" xlink:title="get_def_name">
<ellipse fill="#f070d1" stroke="black" cx="588" cy="-44.34" rx="74.99" ry="18"/>
<text text-anchor="middle" x="588" y="-40.64" font-family="Times,serif" font-size="14.00">get_def_name</text>
</a>
</g>
</g>
<!-- Certifying_gen_proof&#45;&gt;Certifying_get_def_name -->
<g id="edge7" class="edge">
<title>Certifying_gen_proof&#45;&gt;Certifying_get_def_name</title>
<path fill="none" stroke="black" d="M791.08,-223.85C824.15,-200.67 876.54,-155.77 849,-119.34 826.23,-89.21 729.57,-67.79 660.53,-55.99"/>
<polygon fill="black" stroke="black" points="660.99,-52.52 650.55,-54.32 659.84,-59.42 660.99,-52.52"/>
</g>
<!-- Certifying_add_suffix_global_env -->
<g id="node8" class="node">
<title>Certifying_add_suffix_global_env</title>
<g id="a_node8"><a xlink:href="Certifying.html#add_suffix_global_env" xlink:title="add_suffix_global_env">
<ellipse fill="#f070d1" stroke="black" cx="210" cy="-240.34" rx="111.27" ry="18"/>
<ellipse fill="none" stroke="black" cx="210" cy="-240.34" rx="115.28" ry="22"/>
<ellipse fill="none" stroke="black" cx="210" cy="-240.34" rx="119.28" ry="26"/>
<text text-anchor="middle" x="210" y="-236.64" font-family="Times,serif" font-size="14.00">add_suffix_global_env</text>
</a>
</g>
</g>
<!-- Certifying_map_constants_global_env -->
<g id="node9" class="node">
<title>Certifying_map_constants_global_env</title>
<g id="a_node9"><a xlink:href="Certifying.html#map_constants_global_env" xlink:title="map_constants_global_env">
<ellipse fill="#f070d1" stroke="black" cx="150" cy="-137.34" rx="133.78" ry="18"/>
<text text-anchor="middle" x="150" y="-133.64" font-family="Times,serif" font-size="14.00">map_constants_global_env</text>
</a>
</g>
</g>
<!-- Certifying_add_suffix_global_env&#45;&gt;Certifying_map_constants_global_env -->
<g id="edge8" class="edge">
<title>Certifying_add_suffix_global_env&#45;&gt;Certifying_map_constants_global_env</title>
<path fill="none" stroke="black" d="M195.17,-214.37C186.14,-199.18 174.64,-179.81 165.49,-164.42"/>
<polygon fill="black" stroke="black" points="168.27,-162.23 160.15,-155.42 162.25,-165.81 168.27,-162.23"/>
</g>
<!-- Certifying_add_suffix_global_env&#45;&gt;Certifying_change_modpath -->
<g id="edge9" class="edge">
<title>Certifying_add_suffix_global_env&#45;&gt;Certifying_change_modpath</title>
<path fill="none" stroke="black" d="M251.98,-215.91C282.64,-198.8 323.86,-175.8 353.44,-159.3"/>
<polygon fill="black" stroke="black" points="355.19,-162.33 362.22,-154.4 351.78,-156.21 355.19,-162.33"/>
</g>
<!-- Certifying_map_constants_global_decls -->
<g id="node10" class="node">
<title>Certifying_map_constants_global_decls</title>
<g id="a_node10"><a xlink:href="Certifying.html#map_constants_global_decls" xlink:title="map_constants_global_decls">
<ellipse fill="#f070d1" stroke="black" cx="157" cy="-44.34" rx="141.07" ry="18"/>
<text text-anchor="middle" x="157" y="-40.64" font-family="Times,serif" font-size="14.00">map_constants_global_decls</text>
</a>
</g>
</g>
<!-- Certifying_map_constants_global_env&#45;&gt;Certifying_map_constants_global_decls -->
<g id="edge10" class="edge">
<title>Certifying_map_constants_global_env&#45;&gt;Certifying_map_constants_global_decls</title>
<path fill="none" stroke="black" d="M151.32,-119.22C152.32,-106.13 153.73,-87.82 154.9,-72.7"/>
<polygon fill="black" stroke="black" points="158.41,-72.61 155.69,-62.38 151.43,-72.08 158.41,-72.61"/>
</g>
<!-- Certifying_change_modpath&#45;&gt;Certifying_get_def_name -->
<g id="edge11" class="edge">
<title>Certifying_change_modpath&#45;&gt;Certifying_get_def_name</title>
<path fill="none" stroke="black" d="M425.31,-120.49C458.81,-105.01 509.85,-81.44 545.81,-64.83"/>
<polygon fill="black" stroke="black" points="547.45,-67.92 555.06,-60.55 544.52,-61.57 547.45,-67.92"/>
</g>
</g>
</svg>
