<?xml version="1.0" encoding="UTF-8" standalone="no"?>
<!DOCTYPE svg PUBLIC "-//W3C//DTD SVG 1.1//EN"
 "http://www.w3.org/Graphics/SVG/1.1/DTD/svg11.dtd">
<!-- Generated by graphviz version 2.43.0 (0)
 -->
<!-- Title: ResultMonad Pages: 1 -->
<svg width="802pt" height="405pt"
 viewBox="0.00 0.00 802.00 405.00" xmlns="http://www.w3.org/2000/svg" xmlns:xlink="http://www.w3.org/1999/xlink">
<g id="graph0" class="graph" transform="scale(1 1) rotate(0) translate(4 401)">
<title>ResultMonad</title>
<polygon fill="white" stroke="transparent" points="-4,4 -4,-401 798,-401 798,4 -4,4"/>
<g id="clust1" class="cluster">
<title>cluster_ResultMonad</title>
<polygon fill="#ffffc3" stroke="black" points="8,-11.9 8,-385.1 786,-385.1 786,-11.9 8,-11.9"/>
<text text-anchor="middle" x="63.5" y="-369.9" font-family="Times,serif" font-size="14.00">ResultMonad</text>
</g>
<!-- ResultMonad_map_error -->
<g id="node1" class="node">
<title>ResultMonad_map_error</title>
<g id="a_node1"><a xlink:href="ResultMonad.html#map_error" xlink:title="map_error">
<ellipse fill="#f070d1" stroke="black" cx="265" cy="-169.9" rx="59.27" ry="18"/>
<ellipse fill="none" stroke="black" cx="265" cy="-169.9" rx="63.28" ry="22"/>
<ellipse fill="none" stroke="black" cx="265" cy="-169.9" rx="67.29" ry="26"/>
<text text-anchor="middle" x="265" y="-166.2" font-family="Times,serif" font-size="14.00">map_error</text>
</a>
</g>
</g>
<!-- ResultMonad_Err -->
<g id="node7" class="node">
<title>ResultMonad_Err</title>
<g id="a_node7"><a xlink:href="ResultMonad.html#Err" xlink:title="Err">
<ellipse fill="#7faaff" stroke="black" cx="415" cy="-50.9" rx="27" ry="18"/>
<text text-anchor="middle" x="415" y="-47.2" font-family="Times,serif" font-size="14.00">Err</text>
</a>
</g>
</g>
<!-- ResultMonad_map_error&#45;&gt;ResultMonad_Err -->
<g id="edge1" class="edge">
<title>ResultMonad_map_error&#45;&gt;ResultMonad_Err</title>
<path fill="none" stroke="black" d="M293.92,-146.34C321.73,-124.65 363.34,-92.19 389.82,-71.54"/>
<polygon fill="black" stroke="black" points="392.12,-74.18 397.85,-65.27 387.81,-68.66 392.12,-74.18"/>
</g>
<!-- ResultMonad_Ok -->
<g id="node8" class="node">
<title>ResultMonad_Ok</title>
<g id="a_node8"><a xlink:href="ResultMonad.html#Ok" xlink:title="Ok">
<ellipse fill="#7faaff" stroke="black" cx="487" cy="-50.9" rx="27" ry="18"/>
<text text-anchor="middle" x="487" y="-47.2" font-family="Times,serif" font-size="14.00">Ok</text>
</a>
</g>
</g>
<!-- ResultMonad_map_error&#45;&gt;ResultMonad_Ok -->
<g id="edge2" class="edge">
<title>ResultMonad_map_error&#45;&gt;ResultMonad_Ok</title>
<path fill="none" stroke="black" d="M303.67,-148.52C347.49,-125.42 417.94,-88.29 457.53,-67.42"/>
<polygon fill="black" stroke="black" points="459.22,-70.49 466.43,-62.73 455.95,-64.3 459.22,-70.49"/>
</g>
<!-- ResultMonad_result -->
<g id="node9" class="node">
<title>ResultMonad_result</title>
<g id="a_node9"><a xlink:href="ResultMonad.html#result" xlink:title="result">
<ellipse fill="#e2cdfa" stroke="black" cx="332" cy="-50.9" rx="38.19" ry="18"/>
<text text-anchor="middle" x="332" y="-47.2" font-family="Times,serif" font-size="14.00">result</text>
</a>
</g>
</g>
<!-- ResultMonad_map_error&#45;&gt;ResultMonad_result -->
<g id="edge3" class="edge">
<title>ResultMonad_map_error&#45;&gt;ResultMonad_result</title>
<path fill="none" stroke="black" d="M279.05,-144.37C290.31,-124.7 306.06,-97.19 317.45,-77.3"/>
<polygon fill="black" stroke="black" points="320.57,-78.9 322.5,-68.48 314.5,-75.42 320.57,-78.9"/>
</g>
<!-- ResultMonad_Monad_result -->
<g id="node2" class="node">
<title>ResultMonad_Monad_result</title>
<g id="a_node2"><a xlink:href="ResultMonad.html#Monad_result" xlink:title="Monad_result">
<ellipse fill="#f070d1" stroke="black" cx="98" cy="-169.9" rx="74.18" ry="18"/>
<ellipse fill="none" stroke="black" cx="98" cy="-169.9" rx="78.18" ry="22"/>
<ellipse fill="none" stroke="black" cx="98" cy="-169.9" rx="82.19" ry="26"/>
<text text-anchor="middle" x="98" y="-166.2" font-family="Times,serif" font-size="14.00">Monad_result</text>
</a>
</g>
</g>
<!-- ResultMonad_Monad_result&#45;&gt;ResultMonad_Err -->
<g id="edge4" class="edge">
<title>ResultMonad_Monad_result&#45;&gt;ResultMonad_Err</title>
<path fill="none" stroke="black" d="M154.07,-150.77C211.23,-131.86 302.18,-100.61 379,-68.9 380.82,-68.14 382.68,-67.35 384.55,-66.53"/>
<polygon fill="black" stroke="black" points="386.18,-69.64 393.84,-62.32 383.28,-63.26 386.18,-69.64"/>
</g>
<!-- ResultMonad_Monad_result&#45;&gt;ResultMonad_Ok -->
<g id="edge5" class="edge">
<title>ResultMonad_Monad_result&#45;&gt;ResultMonad_Ok</title>
<path fill="none" stroke="black" d="M158.07,-152.16C255.13,-125.07 437.06,-74.12 451,-68.9 452.84,-68.2 454.72,-67.46 456.61,-66.67"/>
<polygon fill="black" stroke="black" points="458.2,-69.8 465.93,-62.56 455.37,-63.39 458.2,-69.8"/>
</g>
<!-- ResultMonad_Monad_result&#45;&gt;ResultMonad_result -->
<g id="edge6" class="edge">
<title>ResultMonad_Monad_result&#45;&gt;ResultMonad_result</title>
<path fill="none" stroke="black" d="M140.65,-147.57C185.65,-125.07 255.72,-90.04 297.42,-69.19"/>
<polygon fill="black" stroke="black" points="299.24,-72.19 306.62,-64.59 296.11,-65.93 299.24,-72.19"/>
</g>
<!-- ResultMonad_result_sind -->
<g id="node3" class="node">
<title>ResultMonad_result_sind</title>
<g id="a_node3"><a xlink:href="ResultMonad.html#result_sind" xlink:title="result_sind">
<ellipse fill="#f070d1" stroke="black" cx="708" cy="-169.9" rx="61.96" ry="18"/>
<ellipse fill="none" stroke="black" cx="708" cy="-169.9" rx="65.98" ry="22"/>
<ellipse fill="none" stroke="black" cx="708" cy="-169.9" rx="69.99" ry="26"/>
<text text-anchor="middle" x="708" y="-166.2" font-family="Times,serif" font-size="14.00">result_sind</text>
</a>
</g>
</g>
<!-- ResultMonad_result_sind&#45;&gt;ResultMonad_Err -->
<g id="edge7" class="edge">
<title>ResultMonad_result_sind&#45;&gt;ResultMonad_Err</title>
<path fill="none" stroke="black" d="M659.28,-151.1C607.28,-131.84 522.69,-99.72 451,-68.9 449.19,-68.12 447.34,-67.3 445.47,-66.47"/>
<polygon fill="black" stroke="black" points="446.76,-63.2 436.21,-62.21 443.84,-69.57 446.76,-63.2"/>
</g>
<!-- ResultMonad_result_sind&#45;&gt;ResultMonad_Ok -->
<g id="edge8" class="edge">
<title>ResultMonad_result_sind&#45;&gt;ResultMonad_Ok</title>
<path fill="none" stroke="black" d="M669,-148.25C625.59,-125.27 556.38,-88.63 517,-67.78"/>
<polygon fill="black" stroke="black" points="518.14,-64.42 507.66,-62.83 514.86,-70.61 518.14,-64.42"/>
</g>
<!-- ResultMonad_result_sind&#45;&gt;ResultMonad_result -->
<g id="edge9" class="edge">
<title>ResultMonad_result_sind&#45;&gt;ResultMonad_result</title>
<path fill="none" stroke="black" d="M656.19,-152.38C647.14,-149.53 637.8,-146.61 629,-143.9 518.14,-109.73 489.14,-105.3 379,-68.9 376.3,-68 373.51,-67.06 370.72,-66.09"/>
<polygon fill="black" stroke="black" points="371.84,-62.78 361.25,-62.76 369.52,-69.38 371.84,-62.78"/>
</g>
<!-- ResultMonad_result_rec -->
<g id="node4" class="node">
<title>ResultMonad_result_rec</title>
<g id="a_node4"><a xlink:href="ResultMonad.html#result_rec" xlink:title="result_rec">
<ellipse fill="#f070d1" stroke="black" cx="559" cy="-299.9" rx="57.37" ry="18"/>
<ellipse fill="none" stroke="black" cx="559" cy="-299.9" rx="61.38" ry="22"/>
<ellipse fill="none" stroke="black" cx="559" cy="-299.9" rx="65.39" ry="26"/>
<text text-anchor="middle" x="559" y="-296.2" font-family="Times,serif" font-size="14.00">result_rec</text>
</a>
</g>
</g>
<!-- ResultMonad_result_rect -->
<g id="node6" class="node">
<title>ResultMonad_result_rect</title>
<g id="a_node6"><a xlink:href="ResultMonad.html#result_rect" xlink:title="result_rect">
<ellipse fill="#f070d1" stroke="black" cx="559" cy="-169.9" rx="61.19" ry="18"/>
<text text-anchor="middle" x="559" y="-166.2" font-family="Times,serif" font-size="14.00">result_rect</text>
</a>
</g>
</g>
<!-- ResultMonad_result_rec&#45;&gt;ResultMonad_result_rect -->
<g id="edge10" class="edge">
<title>ResultMonad_result_rec&#45;&gt;ResultMonad_result_rect</title>
<path fill="none" stroke="black" d="M559,-273.61C559,-251.82 559,-220.44 559,-198.11"/>
<polygon fill="black" stroke="black" points="562.5,-197.95 559,-187.95 555.5,-197.95 562.5,-197.95"/>
</g>
<!-- ResultMonad_result_ind -->
<g id="node5" class="node">
<title>ResultMonad_result_ind</title>
<g id="a_node5"><a xlink:href="ResultMonad.html#result_ind" xlink:title="result_ind">
<ellipse fill="#7fffd4" stroke="black" cx="415" cy="-169.9" rx="57.37" ry="18"/>
<ellipse fill="none" stroke="black" cx="415" cy="-169.9" rx="61.38" ry="22"/>
<ellipse fill="none" stroke="black" cx="415" cy="-169.9" rx="65.39" ry="26"/>
<text text-anchor="middle" x="415" y="-166.2" font-family="Times,serif" font-size="14.00">result_ind</text>
</a>
</g>
</g>
<!-- ResultMonad_result_ind&#45;&gt;ResultMonad_Err -->
<g id="edge11" class="edge">
<title>ResultMonad_result_ind&#45;&gt;ResultMonad_Err</title>
<path fill="none" stroke="black" d="M415,-143.8C415,-124.76 415,-98.63 415,-79.1"/>
<polygon fill="black" stroke="black" points="418.5,-79.01 415,-69.01 411.5,-79.01 418.5,-79.01"/>
</g>
<!-- ResultMonad_result_ind&#45;&gt;ResultMonad_Ok -->
<g id="edge12" class="edge">
<title>ResultMonad_result_ind&#45;&gt;ResultMonad_Ok</title>
<path fill="none" stroke="black" d="M430.09,-144.37C442.39,-124.38 459.68,-96.29 471.96,-76.33"/>
<polygon fill="black" stroke="black" points="474.96,-78.14 477.22,-67.78 469,-74.47 474.96,-78.14"/>
</g>
<!-- ResultMonad_result_ind&#45;&gt;ResultMonad_result -->
<g id="edge13" class="edge">
<title>ResultMonad_result_ind&#45;&gt;ResultMonad_result</title>
<path fill="none" stroke="black" d="M397.8,-144.65C383.66,-124.71 363.69,-96.57 349.47,-76.53"/>
<polygon fill="black" stroke="black" points="352.22,-74.34 343.57,-68.21 346.51,-78.39 352.22,-74.34"/>
</g>
<!-- ResultMonad_result_rect&#45;&gt;ResultMonad_Err -->
<g id="edge14" class="edge">
<title>ResultMonad_result_rect&#45;&gt;ResultMonad_Err</title>
<path fill="none" stroke="black" d="M538.98,-152.63C512.95,-131.48 467.53,-94.57 439.48,-71.79"/>
<polygon fill="black" stroke="black" points="441.69,-69.07 431.72,-65.48 437.28,-74.5 441.69,-69.07"/>
</g>
<!-- ResultMonad_result_rect&#45;&gt;ResultMonad_Ok -->
<g id="edge15" class="edge">
<title>ResultMonad_result_rect&#45;&gt;ResultMonad_Ok</title>
<path fill="none" stroke="black" d="M548.68,-152.13C536.52,-132.36 516.18,-99.32 502.21,-76.61"/>
<polygon fill="black" stroke="black" points="505.06,-74.56 496.83,-67.88 499.09,-78.23 505.06,-74.56"/>
</g>
<!-- ResultMonad_result_rect&#45;&gt;ResultMonad_result -->
<g id="edge16" class="edge">
<title>ResultMonad_result_rect&#45;&gt;ResultMonad_result</title>
<path fill="none" stroke="black" d="M529.79,-153.84C487.75,-132.17 410.39,-92.3 365.89,-69.36"/>
<polygon fill="black" stroke="black" points="367.41,-66.21 356.92,-64.74 364.21,-72.43 367.41,-66.21"/>
</g>
</g>
</svg>
