<?xml version="1.0" encoding="UTF-8" standalone="no"?>
<!DOCTYPE svg PUBLIC "-//W3C//DTD SVG 1.1//EN"
 "http://www.w3.org/Graphics/SVG/1.1/DTD/svg11.dtd">
<!-- Generated by graphviz version 2.43.0 (0)
 -->
<!-- Title: Transform Pages: 1 -->
<svg width="686pt" height="347pt"
 viewBox="0.00 0.00 686.00 347.00" xmlns="http://www.w3.org/2000/svg" xmlns:xlink="http://www.w3.org/1999/xlink">
<g id="graph0" class="graph" transform="scale(1 1) rotate(0) translate(4 343)">
<title>Transform</title>
<polygon fill="white" stroke="transparent" points="-4,4 -4,-343 682,-343 682,4 -4,4"/>
<g id="clust1" class="cluster">
<title>cluster_Transform</title>
<polygon fill="#ffffc3" stroke="black" points="8.64,-8 8.64,-331 669.36,-331 669.36,-8 8.64,-8"/>
<text text-anchor="middle" x="54.14" y="-315.8" font-family="Times,serif" font-size="14.00">Transform</text>
</g>
<!-- Transform_compose_transforms_correct -->
<g id="node1" class="node">
<title>Transform_compose_transforms_correct</title>
<g id="a_node1"><a xlink:href="Transform.html#compose_transforms_correct" xlink:title="compose_transforms_correct">
<ellipse fill="#f070d1" stroke="black" cx="496.46" cy="-274" rx="144.09" ry="18"/>
<ellipse fill="none" stroke="black" cx="496.46" cy="-274" rx="148.08" ry="22"/>
<ellipse fill="none" stroke="black" cx="496.46" cy="-274" rx="152.07" ry="26"/>
<text text-anchor="middle" x="496.46" y="-270.3" font-family="Times,serif" font-size="14.00">compose_transforms_correct</text>
</a>
</g>
</g>
<!-- Transform_compose_transforms -->
<g id="node2" class="node">
<title>Transform_compose_transforms</title>
<g id="a_node2"><a xlink:href="Transform.html#compose_transforms" xlink:title="compose_transforms">
<ellipse fill="#f070d1" stroke="black" cx="497.46" cy="-194" rx="106.68" ry="18"/>
<text text-anchor="middle" x="497.46" y="-190.3" font-family="Times,serif" font-size="14.00">compose_transforms</text>
</a>
</g>
</g>
<!-- Transform_compose_transforms_correct&#45;&gt;Transform_compose_transforms -->
<g id="edge1" class="edge">
<title>Transform_compose_transforms_correct&#45;&gt;Transform_compose_transforms</title>
<path fill="none" stroke="black" d="M496.79,-247.89C496.89,-239.84 497,-230.88 497.11,-222.66"/>
<polygon fill="black" stroke="black" points="500.61,-222.45 497.24,-212.41 493.61,-222.36 500.61,-222.45"/>
</g>
<!-- Transform_ExtractTransformCorrect -->
<g id="node4" class="node">
<title>Transform_ExtractTransformCorrect</title>
<g id="a_node4"><a xlink:href="Transform.html#ExtractTransformCorrect" xlink:title="ExtractTransformCorrect">
<ellipse fill="#f070d1" stroke="black" cx="224.46" cy="-194" rx="128.88" ry="18"/>
<text text-anchor="middle" x="224.46" y="-190.3" font-family="Times,serif" font-size="14.00">ExtractTransformCorrect</text>
</a>
</g>
</g>
<!-- Transform_compose_transforms_correct&#45;&gt;Transform_ExtractTransformCorrect -->
<g id="edge2" class="edge">
<title>Transform_compose_transforms_correct&#45;&gt;Transform_ExtractTransformCorrect</title>
<path fill="none" stroke="black" d="M421.06,-251.38C379.32,-239.41 328,-224.69 288.27,-213.3"/>
<polygon fill="black" stroke="black" points="289,-209.87 278.43,-210.47 287.07,-216.6 289,-209.87"/>
</g>
<!-- Transform_Transform -->
<g id="node7" class="node">
<title>Transform_Transform</title>
<g id="a_node7"><a xlink:href="Transform.html#Transform" xlink:title="Transform">
<ellipse fill="#f070d1" stroke="black" cx="375.46" cy="-34" rx="59.29" ry="18"/>
<text text-anchor="middle" x="375.46" y="-30.3" font-family="Times,serif" font-size="14.00">Transform</text>
</a>
</g>
</g>
<!-- Transform_compose_transforms&#45;&gt;Transform_Transform -->
<g id="edge3" class="edge">
<title>Transform_compose_transforms&#45;&gt;Transform_Transform</title>
<path fill="none" stroke="black" d="M498.76,-175.94C499.55,-153.55 497.75,-114.06 478.46,-88 465.77,-70.85 445.91,-58.82 427.01,-50.6"/>
<polygon fill="black" stroke="black" points="428.13,-47.28 417.54,-46.76 425.49,-53.76 428.13,-47.28"/>
</g>
<!-- Transform_CorrectExtractTransform -->
<g id="node3" class="node">
<title>Transform_CorrectExtractTransform</title>
<g id="a_node3"><a xlink:href="Transform.html#CorrectExtractTransform" xlink:title="CorrectExtractTransform">
<ellipse fill="#f070d1" stroke="black" cx="165.46" cy="-274" rx="128.87" ry="18"/>
<ellipse fill="none" stroke="black" cx="165.46" cy="-274" rx="132.87" ry="22"/>
<ellipse fill="none" stroke="black" cx="165.46" cy="-274" rx="136.88" ry="26"/>
<text text-anchor="middle" x="165.46" y="-270.3" font-family="Times,serif" font-size="14.00">CorrectExtractTransform</text>
</a>
</g>
</g>
<!-- Transform_CorrectExtractTransform&#45;&gt;Transform_ExtractTransformCorrect -->
<g id="edge4" class="edge">
<title>Transform_CorrectExtractTransform&#45;&gt;Transform_ExtractTransformCorrect</title>
<path fill="none" stroke="black" d="M184.46,-247.89C191.2,-238.98 198.78,-228.96 205.51,-220.05"/>
<polygon fill="black" stroke="black" points="208.42,-222.02 211.66,-211.93 202.83,-217.79 208.42,-222.02"/>
</g>
<!-- Transform_ExtractTransform -->
<g id="node5" class="node">
<title>Transform_ExtractTransform</title>
<g id="a_node5"><a xlink:href="Transform.html#ExtractTransform" xlink:title="ExtractTransform">
<ellipse fill="#f070d1" stroke="black" cx="375.46" cy="-114" rx="93.68" ry="18"/>
<text text-anchor="middle" x="375.46" y="-110.3" font-family="Times,serif" font-size="14.00">ExtractTransform</text>
</a>
</g>
</g>
<!-- Transform_ExtractTransformCorrect&#45;&gt;Transform_ExtractTransform -->
<g id="edge5" class="edge">
<title>Transform_ExtractTransformCorrect&#45;&gt;Transform_ExtractTransform</title>
<path fill="none" stroke="black" d="M256.49,-176.46C279.44,-164.6 310.53,-148.54 335.17,-135.82"/>
<polygon fill="black" stroke="black" points="336.99,-138.82 344.26,-131.12 333.77,-132.6 336.99,-138.82"/>
</g>
<!-- Transform_ExtractTransform&#45;&gt;Transform_Transform -->
<g id="edge6" class="edge">
<title>Transform_ExtractTransform&#45;&gt;Transform_Transform</title>
<path fill="none" stroke="black" d="M375.46,-95.69C375.46,-85.89 375.46,-73.42 375.46,-62.33"/>
<polygon fill="black" stroke="black" points="378.97,-62.26 375.46,-52.26 371.97,-62.26 378.97,-62.26"/>
</g>
<!-- Transform_TemplateTransform -->
<g id="node6" class="node">
<title>Transform_TemplateTransform</title>
<g id="a_node6"><a xlink:href="Transform.html#TemplateTransform" xlink:title="TemplateTransform">
<ellipse fill="#f070d1" stroke="black" cx="136.46" cy="-114" rx="102.08" ry="18"/>
<ellipse fill="none" stroke="black" cx="136.46" cy="-114" rx="106.08" ry="22"/>
<ellipse fill="none" stroke="black" cx="136.46" cy="-114" rx="110.08" ry="26"/>
<text text-anchor="middle" x="136.46" y="-110.3" font-family="Times,serif" font-size="14.00">TemplateTransform</text>
</a>
</g>
</g>
<!-- Transform_TemplateTransform&#45;&gt;Transform_Transform -->
<g id="edge7" class="edge">
<title>Transform_TemplateTransform&#45;&gt;Transform_Transform</title>
<path fill="none" stroke="black" d="M199.26,-92.51C239.25,-79.45 290.27,-62.8 327.11,-50.78"/>
<polygon fill="black" stroke="black" points="328.21,-54.1 336.63,-47.67 326.04,-47.45 328.21,-54.1"/>
</g>
</g>
</svg>
