<?xml version="1.0" encoding="UTF-8" standalone="no"?>
<!DOCTYPE svg PUBLIC "-//W3C//DTD SVG 1.1//EN"
 "http://www.w3.org/Graphics/SVG/1.1/DTD/svg11.dtd">
<!-- Generated by graphviz version 2.43.0 (0)
 -->
<!-- Title: ExchangeBuggyTests Pages: 1 -->
<svg width="3028pt" height="1518pt"
 viewBox="0.00 0.00 3028.00 1518.00" xmlns="http://www.w3.org/2000/svg" xmlns:xlink="http://www.w3.org/1999/xlink">
<g id="graph0" class="graph" transform="scale(1 1) rotate(0) translate(4 1514)">
<title>ExchangeBuggyTests</title>
<polygon fill="white" stroke="transparent" points="-4,4 -4,-1514 3024,-1514 3024,4 -4,4"/>
<g id="clust1" class="cluster">
<title>cluster_ExchangeBuggyTests</title>
<polygon fill="#ffffc3" stroke="black" points="8,-20.51 8,-1489.49 3012,-1489.49 3012,-20.51 8,-20.51"/>
<text text-anchor="middle" x="93" y="-1474.29" font-family="Times,serif" font-size="14.00">ExchangeBuggyTests</text>
</g>
<g id="clust2" class="cluster">
<title>cluster_ExchangeBuggyTests_MG</title>
<polygon fill="#ffffa3" stroke="black" points="1479,-389.68 1479,-1410.02 2165,-1410.02 2165,-389.68 1479,-389.68"/>
<text text-anchor="middle" x="1500" y="-1394.82" font-family="Times,serif" font-size="14.00">MG</text>
</g>
<g id="clust3" class="cluster">
<title>cluster_ExchangeBuggyTests_TestInfo</title>
<polygon fill="#ffffa3" stroke="black" points="2173,-389.68 2173,-581.95 3004,-581.95 3004,-389.68 2173,-389.68"/>
<text text-anchor="middle" x="2210" y="-566.75" font-family="Times,serif" font-size="14.00">TestInfo</text>
</g>
<!-- ExchangeBuggyTests_TestInfo_accounts -->
<g id="node1" class="node">
<title>ExchangeBuggyTests_TestInfo_accounts</title>
<g id="a_node1"><a xlink:href="ExchangeBuggyTests.html#TestInfo.accounts" xlink:title="accounts">
<ellipse fill="#f070d1" stroke="black" cx="2233" cy="-456.51" rx="51.99" ry="18"/>
<text text-anchor="middle" x="2233" y="-452.81" font-family="Times,serif" font-size="14.00">accounts</text>
</a>
</g>
</g>
<!-- ExchangeBuggyTests_TestInfo_exploit_contract_addr -->
<g id="node2" class="node">
<title>ExchangeBuggyTests_TestInfo_exploit_contract_addr</title>
<g id="a_node2"><a xlink:href="ExchangeBuggyTests.html#TestInfo.exploit_contract_addr" xlink:title="exploit_contract_addr">
<ellipse fill="#f070d1" stroke="black" cx="2414" cy="-456.51" rx="111.28" ry="18"/>
<text text-anchor="middle" x="2414" y="-452.81" font-family="Times,serif" font-size="14.00">exploit_contract_addr</text>
</a>
</g>
</g>
<!-- ExchangeBuggyTests_exploit_caddr -->
<g id="node37" class="node">
<title>ExchangeBuggyTests_exploit_caddr</title>
<g id="a_node37"><a xlink:href="ExchangeBuggyTests.html#exploit_caddr" xlink:title="exploit_caddr">
<ellipse fill="#f070d1" stroke="black" cx="1446" cy="-271.51" rx="73.39" ry="18"/>
<text text-anchor="middle" x="1446" y="-267.81" font-family="Times,serif" font-size="14.00">exploit_caddr</text>
</a>
</g>
</g>
<!-- ExchangeBuggyTests_TestInfo_exploit_contract_addr&#45;&gt;ExchangeBuggyTests_exploit_caddr -->
<g id="edge1" class="edge">
<title>ExchangeBuggyTests_TestInfo_exploit_contract_addr&#45;&gt;ExchangeBuggyTests_exploit_caddr</title>
<path fill="none" stroke="black" d="M2349.59,-441.83C2331.62,-438.08 2312.06,-434.07 2294,-430.51 2003.99,-373.29 1657.06,-310.38 1513.39,-284.57"/>
<polygon fill="black" stroke="black" points="1513.87,-281.09 1503.41,-282.77 1512.63,-287.98 1513.87,-281.09"/>
</g>
<!-- ExchangeBuggyTests_TestInfo_exchange_contract_addr -->
<g id="node3" class="node">
<title>ExchangeBuggyTests_TestInfo_exchange_contract_addr</title>
<g id="a_node3"><a xlink:href="ExchangeBuggyTests.html#TestInfo.exchange_contract_addr" xlink:title="exchange_contract_addr">
<ellipse fill="#f070d1" stroke="black" cx="2873" cy="-456.51" rx="123.48" ry="18"/>
<text text-anchor="middle" x="2873" y="-452.81" font-family="Times,serif" font-size="14.00">exchange_contract_addr</text>
</a>
</g>
</g>
<!-- ExchangeBuggyTests_exchange_caddr -->
<g id="node38" class="node">
<title>ExchangeBuggyTests_exchange_caddr</title>
<g id="a_node38"><a xlink:href="ExchangeBuggyTests.html#exchange_caddr" xlink:title="exchange_caddr">
<ellipse fill="#f070d1" stroke="black" cx="1232" cy="-271.51" rx="85.29" ry="18"/>
<text text-anchor="middle" x="1232" y="-267.81" font-family="Times,serif" font-size="14.00">exchange_caddr</text>
</a>
</g>
</g>
<!-- ExchangeBuggyTests_TestInfo_exchange_contract_addr&#45;&gt;ExchangeBuggyTests_exchange_caddr -->
<g id="edge2" class="edge">
<title>ExchangeBuggyTests_TestInfo_exchange_contract_addr&#45;&gt;ExchangeBuggyTests_exchange_caddr</title>
<path fill="none" stroke="black" d="M2804.5,-441.5C2783.83,-437.58 2761.04,-433.56 2740,-430.51 2131.6,-342.32 1974.69,-360.11 1364,-289.51 1347.12,-287.56 1329.03,-285.32 1311.84,-283.13"/>
<polygon fill="black" stroke="black" points="1312.2,-279.65 1301.83,-281.85 1311.31,-286.59 1312.2,-279.65"/>
</g>
<!-- ExchangeBuggyTests_TestInfo_fa2_contract_addr -->
<g id="node4" class="node">
<title>ExchangeBuggyTests_TestInfo_fa2_contract_addr</title>
<g id="a_node4"><a xlink:href="ExchangeBuggyTests.html#TestInfo.fa2_contract_addr" xlink:title="fa2_contract_addr">
<ellipse fill="#f070d1" stroke="black" cx="2637" cy="-456.51" rx="94.48" ry="18"/>
<text text-anchor="middle" x="2637" y="-452.81" font-family="Times,serif" font-size="14.00">fa2_contract_addr</text>
</a>
</g>
</g>
<!-- ExchangeBuggyTests_fa2_caddr -->
<g id="node39" class="node">
<title>ExchangeBuggyTests_fa2_caddr</title>
<g id="a_node39"><a xlink:href="ExchangeBuggyTests.html#fa2_caddr" xlink:title="fa2_caddr">
<ellipse fill="#f070d1" stroke="black" cx="1181" cy="-87.51" rx="55.79" ry="18"/>
<text text-anchor="middle" x="1181" y="-83.81" font-family="Times,serif" font-size="14.00">fa2_caddr</text>
</a>
</g>
</g>
<!-- ExchangeBuggyTests_TestInfo_fa2_contract_addr&#45;&gt;ExchangeBuggyTests_fa2_caddr -->
<g id="edge3" class="edge">
<title>ExchangeBuggyTests_TestInfo_fa2_contract_addr&#45;&gt;ExchangeBuggyTests_fa2_caddr</title>
<path fill="none" stroke="black" d="M2582.58,-441.79C2352.38,-383.77 1460.11,-158.86 1233.54,-101.75"/>
<polygon fill="black" stroke="black" points="1234.13,-98.29 1223.57,-99.24 1232.42,-105.08 1234.13,-98.29"/>
</g>
<!-- ExchangeBuggyTests_MG_token_reachableFrom_implies_reachable -->
<g id="node5" class="node">
<title>ExchangeBuggyTests_MG_token_reachableFrom_implies_reachable</title>
<g id="a_node5"><a xlink:href="ExchangeBuggyTests.html#MG.token_reachableFrom_implies_reachable" xlink:title="token_reachableFrom_implies_reachable">
<ellipse fill="#f070d1" stroke="black" cx="1950" cy="-1263.51" rx="198.77" ry="18"/>
<ellipse fill="none" stroke="black" cx="1950" cy="-1263.51" rx="202.77" ry="22"/>
<ellipse fill="none" stroke="black" cx="1950" cy="-1263.51" rx="206.76" ry="26"/>
<text text-anchor="middle" x="1950" y="-1259.81" font-family="Times,serif" font-size="14.00">token_reachableFrom_implies_reachable</text>
</a>
</g>
</g>
<!-- ExchangeBuggyTests_MG_gExchangeChain -->
<g id="node7" class="node">
<title>ExchangeBuggyTests_MG_gExchangeChain</title>
<g id="a_node7"><a xlink:href="ExchangeBuggyTests.html#MG.gExchangeChain" xlink:title="gExchangeChain">
<ellipse fill="#f070d1" stroke="black" cx="1950" cy="-1038.51" rx="89.08" ry="18"/>
<text text-anchor="middle" x="1950" y="-1034.81" font-family="Times,serif" font-size="14.00">gExchangeChain</text>
</a>
</g>
</g>
<!-- ExchangeBuggyTests_MG_token_reachableFrom_implies_reachable&#45;&gt;ExchangeBuggyTests_MG_gExchangeChain -->
<g id="edge4" class="edge">
<title>ExchangeBuggyTests_MG_token_reachableFrom_implies_reachable&#45;&gt;ExchangeBuggyTests_MG_gExchangeChain</title>
<path fill="none" stroke="black" d="M1950,-1237.36C1950,-1195.15 1950,-1110.39 1950,-1066.79"/>
<polygon fill="black" stroke="black" points="1953.5,-1066.64 1950,-1056.64 1946.5,-1066.64 1953.5,-1066.64"/>
</g>
<!-- ExchangeBuggyTests_MG_token_reachableFrom -->
<g id="node6" class="node">
<title>ExchangeBuggyTests_MG_token_reachableFrom</title>
<g id="a_node6"><a xlink:href="ExchangeBuggyTests.html#MG.token_reachableFrom" xlink:title="token_reachableFrom">
<ellipse fill="#f070d1" stroke="black" cx="1606" cy="-1263.51" rx="111.27" ry="18"/>
<ellipse fill="none" stroke="black" cx="1606" cy="-1263.51" rx="115.28" ry="22"/>
<ellipse fill="none" stroke="black" cx="1606" cy="-1263.51" rx="119.28" ry="26"/>
<text text-anchor="middle" x="1606" y="-1259.81" font-family="Times,serif" font-size="14.00">token_reachableFrom</text>
</a>
</g>
</g>
<!-- ExchangeBuggyTests_MG_token_reachableFrom&#45;&gt;ExchangeBuggyTests_MG_gExchangeChain -->
<g id="edge5" class="edge">
<title>ExchangeBuggyTests_MG_token_reachableFrom&#45;&gt;ExchangeBuggyTests_MG_gExchangeChain</title>
<path fill="none" stroke="black" d="M1642.81,-1238.64C1709.86,-1195.18 1850.93,-1103.73 1915.91,-1061.61"/>
<polygon fill="black" stroke="black" points="1918.07,-1064.38 1924.56,-1056 1914.26,-1058.51 1918.07,-1064.38"/>
</g>
<!-- ExchangeBuggyTests_MG_gExchangeAction -->
<g id="node8" class="node">
<title>ExchangeBuggyTests_MG_gExchangeAction</title>
<g id="a_node8"><a xlink:href="ExchangeBuggyTests.html#MG.gExchangeAction" xlink:title="gExchangeAction">
<ellipse fill="#f070d1" stroke="black" cx="2066" cy="-833.51" rx="90.98" ry="18"/>
<text text-anchor="middle" x="2066" y="-829.81" font-family="Times,serif" font-size="14.00">gExchangeAction</text>
</a>
</g>
</g>
<!-- ExchangeBuggyTests_MG_gExchangeChain&#45;&gt;ExchangeBuggyTests_MG_gExchangeAction -->
<g id="edge6" class="edge">
<title>ExchangeBuggyTests_MG_gExchangeChain&#45;&gt;ExchangeBuggyTests_MG_gExchangeAction</title>
<path fill="none" stroke="black" d="M1959.69,-1020.55C1979.99,-985.03 2027.09,-902.6 2051.2,-860.41"/>
<polygon fill="black" stroke="black" points="2054.33,-861.98 2056.26,-851.56 2048.26,-858.51 2054.33,-861.98"/>
</g>
<!-- ExchangeBuggyTests_MG_gExchangeAction&#45;&gt;ExchangeBuggyTests_TestInfo_exchange_contract_addr -->
<g id="edge7" class="edge">
<title>ExchangeBuggyTests_MG_gExchangeAction&#45;&gt;ExchangeBuggyTests_TestInfo_exchange_contract_addr</title>
<path fill="none" stroke="black" d="M2099.9,-816.75C2228.14,-757.17 2683.53,-545.55 2828.4,-478.23"/>
<polygon fill="black" stroke="black" points="2830.29,-481.21 2837.89,-473.83 2827.34,-474.87 2830.29,-481.21"/>
</g>
<!-- ExchangeBuggyTests_MG_gExchangeAction&#45;&gt;ExchangeBuggyTests_TestInfo_fa2_contract_addr -->
<g id="edge8" class="edge">
<title>ExchangeBuggyTests_MG_gExchangeAction&#45;&gt;ExchangeBuggyTests_TestInfo_fa2_contract_addr</title>
<path fill="none" stroke="black" d="M2090.9,-816.15C2182.26,-756.16 2499.07,-548.09 2603.4,-479.58"/>
<polygon fill="black" stroke="black" points="2605.53,-482.36 2611.97,-473.95 2601.69,-476.51 2605.53,-482.36"/>
</g>
<!-- ExchangeBuggyTests_MG_gAddTokensToReserve -->
<g id="node9" class="node">
<title>ExchangeBuggyTests_MG_gAddTokensToReserve</title>
<g id="a_node9"><a xlink:href="ExchangeBuggyTests.html#MG.gAddTokensToReserve" xlink:title="gAddTokensToReserve">
<ellipse fill="#f070d1" stroke="black" cx="1846" cy="-648.51" rx="115.08" ry="18"/>
<text text-anchor="middle" x="1846" y="-644.81" font-family="Times,serif" font-size="14.00">gAddTokensToReserve</text>
</a>
</g>
</g>
<!-- ExchangeBuggyTests_MG_gExchangeAction&#45;&gt;ExchangeBuggyTests_MG_gAddTokensToReserve -->
<g id="edge9" class="edge">
<title>ExchangeBuggyTests_MG_gExchangeAction&#45;&gt;ExchangeBuggyTests_MG_gAddTokensToReserve</title>
<path fill="none" stroke="black" d="M2045.7,-815.62C2006.24,-782.8 1919.15,-710.36 1874.15,-672.92"/>
<polygon fill="black" stroke="black" points="1876.18,-670.06 1866.25,-666.36 1871.7,-675.44 1876.18,-670.06"/>
</g>
<!-- ExchangeBuggyTests_MG_gTokenExchange -->
<g id="node11" class="node">
<title>ExchangeBuggyTests_MG_gTokenExchange</title>
<g id="a_node11"><a xlink:href="ExchangeBuggyTests.html#MG.gTokenExchange" xlink:title="gTokenExchange">
<ellipse fill="#f070d1" stroke="black" cx="2068" cy="-648.51" rx="89.08" ry="18"/>
<text text-anchor="middle" x="2068" y="-644.81" font-family="Times,serif" font-size="14.00">gTokenExchange</text>
</a>
</g>
</g>
<!-- ExchangeBuggyTests_MG_gExchangeAction&#45;&gt;ExchangeBuggyTests_MG_gTokenExchange -->
<g id="edge10" class="edge">
<title>ExchangeBuggyTests_MG_gExchangeAction&#45;&gt;ExchangeBuggyTests_MG_gTokenExchange</title>
<path fill="none" stroke="black" d="M2066.19,-815.29C2066.54,-783.47 2067.28,-715.2 2067.7,-676.94"/>
<polygon fill="black" stroke="black" points="2071.2,-676.58 2067.81,-666.55 2064.2,-676.51 2071.2,-676.58"/>
</g>
<!-- ExchangeBuggyTests_MG_gAddTokensToReserve&#45;&gt;ExchangeBuggyTests_TestInfo_accounts -->
<g id="edge11" class="edge">
<title>ExchangeBuggyTests_MG_gAddTokensToReserve&#45;&gt;ExchangeBuggyTests_TestInfo_accounts</title>
<path fill="none" stroke="black" d="M1890.13,-631.81C1953.8,-608.35 2074.2,-560.91 2169,-505.51 2181.8,-498.03 2195.06,-488.43 2206.17,-479.8"/>
<polygon fill="black" stroke="black" points="2208.54,-482.38 2214.2,-473.43 2204.19,-476.9 2208.54,-482.38"/>
</g>
<!-- ExchangeBuggyTests_MG_liftOptGen -->
<g id="node10" class="node">
<title>ExchangeBuggyTests_MG_liftOptGen</title>
<g id="a_node10"><a xlink:href="ExchangeBuggyTests.html#MG.liftOptGen" xlink:title="liftOptGen">
<ellipse fill="#f070d1" stroke="black" cx="1846" cy="-456.51" rx="59.59" ry="18"/>
<text text-anchor="middle" x="1846" y="-452.81" font-family="Times,serif" font-size="14.00">liftOptGen</text>
</a>
</g>
</g>
<!-- ExchangeBuggyTests_MG_gAddTokensToReserve&#45;&gt;ExchangeBuggyTests_MG_liftOptGen -->
<g id="edge12" class="edge">
<title>ExchangeBuggyTests_MG_gAddTokensToReserve&#45;&gt;ExchangeBuggyTests_MG_liftOptGen</title>
<path fill="none" stroke="black" d="M1846,-630.31C1846,-597.18 1846,-524.26 1846,-484.56"/>
<polygon fill="black" stroke="black" points="1849.5,-484.53 1846,-474.53 1842.5,-484.53 1849.5,-484.53"/>
</g>
<!-- ExchangeBuggyTests_MG_gTokenExchange&#45;&gt;ExchangeBuggyTests_TestInfo_exploit_contract_addr -->
<g id="edge13" class="edge">
<title>ExchangeBuggyTests_MG_gTokenExchange&#45;&gt;ExchangeBuggyTests_TestInfo_exploit_contract_addr</title>
<path fill="none" stroke="black" d="M2097.2,-631.47C2159.41,-597.31 2305.04,-517.34 2375.06,-478.89"/>
<polygon fill="black" stroke="black" points="2376.94,-481.86 2384.02,-473.97 2373.57,-475.72 2376.94,-481.86"/>
</g>
<!-- ExchangeBuggyTests_MG_gTokensToExchange -->
<g id="node12" class="node">
<title>ExchangeBuggyTests_MG_gTokensToExchange</title>
<g id="a_node12"><a xlink:href="ExchangeBuggyTests.html#MG.gTokensToExchange" xlink:title="gTokensToExchange">
<ellipse fill="#f070d1" stroke="black" cx="2052" cy="-456.51" rx="104.78" ry="18"/>
<text text-anchor="middle" x="2052" y="-452.81" font-family="Times,serif" font-size="14.00">gTokensToExchange</text>
</a>
</g>
</g>
<!-- ExchangeBuggyTests_MG_gTokenExchange&#45;&gt;ExchangeBuggyTests_MG_gTokensToExchange -->
<g id="edge14" class="edge">
<title>ExchangeBuggyTests_MG_gTokenExchange&#45;&gt;ExchangeBuggyTests_MG_gTokensToExchange</title>
<path fill="none" stroke="black" d="M2066.55,-630.31C2063.76,-597.18 2057.62,-524.26 2054.28,-484.56"/>
<polygon fill="black" stroke="black" points="2057.76,-484.2 2053.43,-474.53 2050.78,-484.79 2057.76,-484.2"/>
</g>
<!-- ExchangeBuggyTests_tokens_to_asset_correct -->
<g id="node13" class="node">
<title>ExchangeBuggyTests_tokens_to_asset_correct</title>
<g id="a_node13"><a xlink:href="ExchangeBuggyTests.html#tokens_to_asset_correct" xlink:title="tokens_to_asset_correct">
<ellipse fill="#f070d1" stroke="black" cx="1081" cy="-1038.51" rx="121.58" ry="18"/>
<ellipse fill="none" stroke="black" cx="1081" cy="-1038.51" rx="125.58" ry="22"/>
<ellipse fill="none" stroke="black" cx="1081" cy="-1038.51" rx="129.58" ry="26"/>
<text text-anchor="middle" x="1081" y="-1034.81" font-family="Times,serif" font-size="14.00">tokens_to_asset_correct</text>
</a>
</g>
</g>
<!-- ExchangeBuggyTests_tokens_to_asset_correct_P -->
<g id="node14" class="node">
<title>ExchangeBuggyTests_tokens_to_asset_correct_P</title>
<g id="a_node14"><a xlink:href="ExchangeBuggyTests.html#tokens_to_asset_correct_P" xlink:title="tokens_to_asset_correct_P">
<ellipse fill="#f070d1" stroke="black" cx="1081" cy="-833.51" rx="131.88" ry="18"/>
<text text-anchor="middle" x="1081" y="-829.81" font-family="Times,serif" font-size="14.00">tokens_to_asset_correct_P</text>
</a>
</g>
</g>
<!-- ExchangeBuggyTests_tokens_to_asset_correct&#45;&gt;ExchangeBuggyTests_tokens_to_asset_correct_P -->
<g id="edge15" class="edge">
<title>ExchangeBuggyTests_tokens_to_asset_correct&#45;&gt;ExchangeBuggyTests_tokens_to_asset_correct_P</title>
<path fill="none" stroke="black" d="M1081,-1012.21C1081,-973.84 1081,-901.22 1081,-861.73"/>
<polygon fill="black" stroke="black" points="1084.5,-861.53 1081,-851.53 1077.5,-861.53 1084.5,-861.53"/>
</g>
<!-- ExchangeBuggyTests_gExploitChainTraceList -->
<g id="node19" class="node">
<title>ExchangeBuggyTests_gExploitChainTraceList</title>
<g id="a_node19"><a xlink:href="ExchangeBuggyTests.html#gExploitChainTraceList" xlink:title="gExploitChainTraceList">
<ellipse fill="#f070d1" stroke="black" cx="1351" cy="-833.51" rx="120.48" ry="18"/>
<text text-anchor="middle" x="1351" y="-829.81" font-family="Times,serif" font-size="14.00">gExploitChainTraceList</text>
</a>
</g>
</g>
<!-- ExchangeBuggyTests_tokens_to_asset_correct&#45;&gt;ExchangeBuggyTests_gExploitChainTraceList -->
<g id="edge16" class="edge">
<title>ExchangeBuggyTests_tokens_to_asset_correct&#45;&gt;ExchangeBuggyTests_gExploitChainTraceList</title>
<path fill="none" stroke="black" d="M1113.3,-1013.22C1165.81,-973.75 1268.97,-896.19 1320.37,-857.54"/>
<polygon fill="black" stroke="black" points="1322.57,-860.26 1328.46,-851.46 1318.36,-854.67 1322.57,-860.26"/>
</g>
<!-- ExchangeBuggyTests_chain -->
<g id="node24" class="node">
<title>ExchangeBuggyTests_chain</title>
<g id="a_node24"><a xlink:href="ExchangeBuggyTests.html#chain" xlink:title="chain">
<ellipse fill="#f070d1" stroke="black" cx="658" cy="-833.51" rx="36" ry="18"/>
<text text-anchor="middle" x="658" y="-829.81" font-family="Times,serif" font-size="14.00">chain</text>
</a>
</g>
</g>
<!-- ExchangeBuggyTests_tokens_to_asset_correct&#45;&gt;ExchangeBuggyTests_chain -->
<g id="edge17" class="edge">
<title>ExchangeBuggyTests_tokens_to_asset_correct&#45;&gt;ExchangeBuggyTests_chain</title>
<path fill="none" stroke="black" d="M1032.48,-1014.22C946.08,-972.76 767.62,-887.12 692.51,-851.07"/>
<polygon fill="black" stroke="black" points="693.57,-847.7 683.04,-846.52 690.54,-854.01 693.57,-847.7"/>
</g>
<!-- ExchangeBuggyTests_tokens_to_asset_correct_P_opt -->
<g id="node15" class="node">
<title>ExchangeBuggyTests_tokens_to_asset_correct_P_opt</title>
<g id="a_node15"><a xlink:href="ExchangeBuggyTests.html#tokens_to_asset_correct_P_opt" xlink:title="tokens_to_asset_correct_P_opt">
<ellipse fill="#f070d1" stroke="black" cx="1124" cy="-648.51" rx="151.37" ry="18"/>
<text text-anchor="middle" x="1124" y="-644.81" font-family="Times,serif" font-size="14.00">tokens_to_asset_correct_P_opt</text>
</a>
</g>
</g>
<!-- ExchangeBuggyTests_tokens_to_asset_correct_P&#45;&gt;ExchangeBuggyTests_tokens_to_asset_correct_P_opt -->
<g id="edge18" class="edge">
<title>ExchangeBuggyTests_tokens_to_asset_correct_P&#45;&gt;ExchangeBuggyTests_tokens_to_asset_correct_P_opt</title>
<path fill="none" stroke="black" d="M1085.05,-815.29C1092.56,-783.33 1108.7,-714.61 1117.67,-676.44"/>
<polygon fill="black" stroke="black" points="1121.12,-677.08 1120,-666.55 1114.3,-675.48 1121.12,-677.08"/>
</g>
<!-- ExchangeBuggyTests_account_tokens -->
<g id="node16" class="node">
<title>ExchangeBuggyTests_account_tokens</title>
<g id="a_node16"><a xlink:href="ExchangeBuggyTests.html#account_tokens" xlink:title="account_tokens">
<ellipse fill="#f070d1" stroke="black" cx="994" cy="-456.51" rx="81.79" ry="18"/>
<text text-anchor="middle" x="994" y="-452.81" font-family="Times,serif" font-size="14.00">account_tokens</text>
</a>
</g>
</g>
<!-- ExchangeBuggyTests_tokens_to_asset_correct_P_opt&#45;&gt;ExchangeBuggyTests_account_tokens -->
<g id="edge19" class="edge">
<title>ExchangeBuggyTests_tokens_to_asset_correct_P_opt&#45;&gt;ExchangeBuggyTests_account_tokens</title>
<path fill="none" stroke="black" d="M1112.23,-630.31C1089.22,-596.68 1038.17,-522.07 1011.3,-482.8"/>
<polygon fill="black" stroke="black" points="1014.18,-480.81 1005.65,-474.53 1008.4,-484.76 1014.18,-480.81"/>
</g>
<!-- ExchangeBuggyTests_exchange_state -->
<g id="node23" class="node">
<title>ExchangeBuggyTests_exchange_state</title>
<g id="a_node23"><a xlink:href="ExchangeBuggyTests.html#exchange_state" xlink:title="exchange_state">
<ellipse fill="#f070d1" stroke="black" cx="1176" cy="-456.51" rx="82.59" ry="18"/>
<text text-anchor="middle" x="1176" y="-452.81" font-family="Times,serif" font-size="14.00">exchange_state</text>
</a>
</g>
</g>
<!-- ExchangeBuggyTests_tokens_to_asset_correct_P_opt&#45;&gt;ExchangeBuggyTests_exchange_state -->
<g id="edge20" class="edge">
<title>ExchangeBuggyTests_tokens_to_asset_correct_P_opt&#45;&gt;ExchangeBuggyTests_exchange_state</title>
<path fill="none" stroke="black" d="M1128.71,-630.31C1137.79,-597.11 1157.82,-523.94 1168.67,-484.3"/>
<polygon fill="black" stroke="black" points="1172.08,-485.1 1171.34,-474.53 1165.33,-483.25 1172.08,-485.1"/>
</g>
<!-- ExchangeBuggyTests_token_state -->
<g id="node22" class="node">
<title>ExchangeBuggyTests_token_state</title>
<g id="a_node22"><a xlink:href="ExchangeBuggyTests.html#token_state" xlink:title="token_state">
<ellipse fill="#f070d1" stroke="black" cx="1035" cy="-271.51" rx="64.19" ry="18"/>
<text text-anchor="middle" x="1035" y="-267.81" font-family="Times,serif" font-size="14.00">token_state</text>
</a>
</g>
</g>
<!-- ExchangeBuggyTests_account_tokens&#45;&gt;ExchangeBuggyTests_token_state -->
<g id="edge21" class="edge">
<title>ExchangeBuggyTests_account_tokens&#45;&gt;ExchangeBuggyTests_token_state</title>
<path fill="none" stroke="black" d="M997.86,-438.29C1005.02,-406.33 1020.41,-337.61 1028.97,-299.44"/>
<polygon fill="black" stroke="black" points="1032.41,-300.07 1031.18,-289.55 1025.58,-298.54 1032.41,-300.07"/>
</g>
<!-- ExchangeBuggyTests_exchange_token_id -->
<g id="node40" class="node">
<title>ExchangeBuggyTests_exchange_token_id</title>
<g id="a_node40"><a xlink:href="ExchangeBuggyTests.html#exchange_token_id" xlink:title="exchange_token_id">
<ellipse fill="#f070d1" stroke="black" cx="814" cy="-271.51" rx="98.28" ry="18"/>
<text text-anchor="middle" x="814" y="-267.81" font-family="Times,serif" font-size="14.00">exchange_token_id</text>
</a>
</g>
</g>
<!-- ExchangeBuggyTests_account_tokens&#45;&gt;ExchangeBuggyTests_exchange_token_id -->
<g id="edge22" class="edge">
<title>ExchangeBuggyTests_account_tokens&#45;&gt;ExchangeBuggyTests_exchange_token_id</title>
<path fill="none" stroke="black" d="M977.39,-438.62C945.38,-406.07 875.03,-334.56 837.95,-296.86"/>
<polygon fill="black" stroke="black" points="840.08,-294.03 830.57,-289.36 835.09,-298.94 840.08,-294.03"/>
</g>
<!-- ExchangeBuggyTests_exchange_liquidity -->
<g id="node17" class="node">
<title>ExchangeBuggyTests_exchange_liquidity</title>
<g id="a_node17"><a xlink:href="ExchangeBuggyTests.html#exchange_liquidity" xlink:title="exchange_liquidity">
<ellipse fill="#f070d1" stroke="black" cx="743" cy="-1038.51" rx="97.48" ry="18"/>
<ellipse fill="none" stroke="black" cx="743" cy="-1038.51" rx="101.48" ry="22"/>
<ellipse fill="none" stroke="black" cx="743" cy="-1038.51" rx="105.48" ry="26"/>
<text text-anchor="middle" x="743" y="-1034.81" font-family="Times,serif" font-size="14.00">exchange_liquidity</text>
</a>
</g>
</g>
<!-- ExchangeBuggyTests_exchange_liquidity&#45;&gt;ExchangeBuggyTests_chain -->
<g id="edge23" class="edge">
<title>ExchangeBuggyTests_exchange_liquidity&#45;&gt;ExchangeBuggyTests_chain</title>
<path fill="none" stroke="black" d="M732.58,-1012.62C716.43,-974.05 685.51,-900.2 669.01,-860.8"/>
<polygon fill="black" stroke="black" points="672.14,-859.21 665.05,-851.34 665.68,-861.91 672.14,-859.21"/>
</g>
<!-- ExchangeBuggyTests_person_1_initial_balance -->
<g id="node18" class="node">
<title>ExchangeBuggyTests_person_1_initial_balance</title>
<g id="a_node18"><a xlink:href="ExchangeBuggyTests.html#person_1_initial_balance" xlink:title="person_1_initial_balance">
<ellipse fill="#f070d1" stroke="black" cx="487" cy="-1038.51" rx="124.27" ry="18"/>
<ellipse fill="none" stroke="black" cx="487" cy="-1038.51" rx="128.27" ry="22"/>
<ellipse fill="none" stroke="black" cx="487" cy="-1038.51" rx="132.28" ry="26"/>
<text text-anchor="middle" x="487" y="-1034.81" font-family="Times,serif" font-size="14.00">person_1_initial_balance</text>
</a>
</g>
</g>
<!-- ExchangeBuggyTests_person_1_initial_balance&#45;&gt;ExchangeBuggyTests_chain -->
<g id="edge24" class="edge">
<title>ExchangeBuggyTests_person_1_initial_balance&#45;&gt;ExchangeBuggyTests_chain</title>
<path fill="none" stroke="black" d="M507.97,-1012.62C541.13,-973.25 605.27,-897.11 637.89,-858.38"/>
<polygon fill="black" stroke="black" points="640.96,-860.17 644.72,-850.27 635.6,-855.66 640.96,-860.17"/>
</g>
<!-- ExchangeBuggyTests_gExploitAction -->
<g id="node20" class="node">
<title>ExchangeBuggyTests_gExploitAction</title>
<g id="a_node20"><a xlink:href="ExchangeBuggyTests.html#gExploitAction" xlink:title="gExploitAction">
<ellipse fill="#f070d1" stroke="black" cx="1392" cy="-648.51" rx="79.09" ry="18"/>
<text text-anchor="middle" x="1392" y="-644.81" font-family="Times,serif" font-size="14.00">gExploitAction</text>
</a>
</g>
</g>
<!-- ExchangeBuggyTests_gExploitChainTraceList&#45;&gt;ExchangeBuggyTests_gExploitAction -->
<g id="edge25" class="edge">
<title>ExchangeBuggyTests_gExploitChainTraceList&#45;&gt;ExchangeBuggyTests_gExploitAction</title>
<path fill="none" stroke="black" d="M1354.86,-815.29C1362.02,-783.33 1377.41,-714.61 1385.97,-676.44"/>
<polygon fill="black" stroke="black" points="1389.41,-677.07 1388.18,-666.55 1382.58,-675.54 1389.41,-677.07"/>
</g>
<!-- ExchangeBuggyTests_call_exchange -->
<g id="node21" class="node">
<title>ExchangeBuggyTests_call_exchange</title>
<g id="a_node21"><a xlink:href="ExchangeBuggyTests.html#call_exchange" xlink:title="call_exchange">
<ellipse fill="#f070d1" stroke="black" cx="1352" cy="-456.51" rx="75.29" ry="18"/>
<text text-anchor="middle" x="1352" y="-452.81" font-family="Times,serif" font-size="14.00">call_exchange</text>
</a>
</g>
</g>
<!-- ExchangeBuggyTests_gExploitAction&#45;&gt;ExchangeBuggyTests_call_exchange -->
<g id="edge26" class="edge">
<title>ExchangeBuggyTests_gExploitAction&#45;&gt;ExchangeBuggyTests_call_exchange</title>
<path fill="none" stroke="black" d="M1388.38,-630.31C1381.4,-597.18 1366.05,-524.26 1357.69,-484.56"/>
<polygon fill="black" stroke="black" points="1361.07,-483.59 1355.58,-474.53 1354.22,-485.04 1361.07,-483.59"/>
</g>
<!-- ExchangeBuggyTests_call_exchange&#45;&gt;ExchangeBuggyTests_exploit_caddr -->
<g id="edge27" class="edge">
<title>ExchangeBuggyTests_call_exchange&#45;&gt;ExchangeBuggyTests_exploit_caddr</title>
<path fill="none" stroke="black" d="M1360.67,-438.62C1377.14,-406.56 1413.03,-336.7 1432.61,-298.59"/>
<polygon fill="black" stroke="black" points="1435.75,-300.12 1437.21,-289.62 1429.53,-296.92 1435.75,-300.12"/>
</g>
<!-- ExchangeBuggyTests_call_exchange&#45;&gt;ExchangeBuggyTests_exchange_caddr -->
<g id="edge28" class="edge">
<title>ExchangeBuggyTests_call_exchange&#45;&gt;ExchangeBuggyTests_exchange_caddr</title>
<path fill="none" stroke="black" d="M1340.93,-438.62C1319.82,-406.43 1273.7,-336.11 1248.78,-298.1"/>
<polygon fill="black" stroke="black" points="1251.63,-296.07 1243.22,-289.62 1245.78,-299.9 1251.63,-296.07"/>
</g>
<!-- ExchangeBuggyTests_call_exchange&#45;&gt;ExchangeBuggyTests_fa2_caddr -->
<g id="edge29" class="edge">
<title>ExchangeBuggyTests_call_exchange&#45;&gt;ExchangeBuggyTests_fa2_caddr</title>
<path fill="none" stroke="black" d="M1353.06,-438.38C1354.62,-402.39 1354.69,-316.98 1326,-253.51 1299.03,-193.83 1242.99,-139.97 1209.02,-110.98"/>
<polygon fill="black" stroke="black" points="1211.21,-108.24 1201.3,-104.49 1206.71,-113.6 1211.21,-108.24"/>
</g>
<!-- ExchangeBuggyTests_token_state&#45;&gt;ExchangeBuggyTests_fa2_caddr -->
<g id="edge30" class="edge">
<title>ExchangeBuggyTests_token_state&#45;&gt;ExchangeBuggyTests_fa2_caddr</title>
<path fill="none" stroke="black" d="M1048.47,-253.71C1074.4,-221.4 1131.31,-150.45 1161.42,-112.91"/>
<polygon fill="black" stroke="black" points="1164.24,-114.99 1167.77,-105 1158.78,-110.61 1164.24,-114.99"/>
</g>
<!-- ExchangeBuggyTests_exchange_state&#45;&gt;ExchangeBuggyTests_exchange_caddr -->
<g id="edge31" class="edge">
<title>ExchangeBuggyTests_exchange_state&#45;&gt;ExchangeBuggyTests_exchange_caddr</title>
<path fill="none" stroke="black" d="M1181.27,-438.29C1191.05,-406.33 1212.08,-337.61 1223.76,-299.44"/>
<polygon fill="black" stroke="black" points="1227.21,-300.13 1226.79,-289.55 1220.51,-298.08 1227.21,-300.13"/>
</g>
<!-- ExchangeBuggyTests_add_operator_all -->
<g id="node25" class="node">
<title>ExchangeBuggyTests_add_operator_all</title>
<g id="a_node25"><a xlink:href="ExchangeBuggyTests.html#add_operator_all" xlink:title="add_operator_all">
<ellipse fill="#f070d1" stroke="black" cx="292" cy="-648.51" rx="87.99" ry="18"/>
<text text-anchor="middle" x="292" y="-644.81" font-family="Times,serif" font-size="14.00">add_operator_all</text>
</a>
</g>
</g>
<!-- ExchangeBuggyTests_chain&#45;&gt;ExchangeBuggyTests_add_operator_all -->
<g id="edge32" class="edge">
<title>ExchangeBuggyTests_chain&#45;&gt;ExchangeBuggyTests_add_operator_all</title>
<path fill="none" stroke="black" d="M633.42,-820.22C571.71,-789.36 409.73,-708.37 333.19,-670.1"/>
<polygon fill="black" stroke="black" points="334.36,-666.78 323.85,-665.44 331.23,-673.04 334.36,-666.78"/>
</g>
<!-- ExchangeBuggyTests_exchange_other_msg -->
<g id="node26" class="node">
<title>ExchangeBuggyTests_exchange_other_msg</title>
<g id="a_node26"><a xlink:href="ExchangeBuggyTests.html#exchange_other_msg" xlink:title="exchange_other_msg">
<ellipse fill="#f070d1" stroke="black" cx="658" cy="-648.51" rx="107.78" ry="18"/>
<text text-anchor="middle" x="658" y="-644.81" font-family="Times,serif" font-size="14.00">exchange_other_msg</text>
</a>
</g>
</g>
<!-- ExchangeBuggyTests_chain&#45;&gt;ExchangeBuggyTests_exchange_other_msg -->
<g id="edge33" class="edge">
<title>ExchangeBuggyTests_chain&#45;&gt;ExchangeBuggyTests_exchange_other_msg</title>
<path fill="none" stroke="black" d="M658,-815.29C658,-783.47 658,-715.2 658,-676.94"/>
<polygon fill="black" stroke="black" points="661.5,-676.55 658,-666.55 654.5,-676.55 661.5,-676.55"/>
</g>
<!-- ExchangeBuggyTests_exchange_setup -->
<g id="node27" class="node">
<title>ExchangeBuggyTests_exchange_setup</title>
<g id="a_node27"><a xlink:href="ExchangeBuggyTests.html#exchange_setup" xlink:title="exchange_setup">
<ellipse fill="#f070d1" stroke="black" cx="869" cy="-648.51" rx="85.29" ry="18"/>
<text text-anchor="middle" x="869" y="-644.81" font-family="Times,serif" font-size="14.00">exchange_setup</text>
</a>
</g>
</g>
<!-- ExchangeBuggyTests_chain&#45;&gt;ExchangeBuggyTests_exchange_setup -->
<g id="edge34" class="edge">
<title>ExchangeBuggyTests_chain&#45;&gt;ExchangeBuggyTests_exchange_setup</title>
<path fill="none" stroke="black" d="M675.27,-817.53C711.96,-785.71 797.93,-711.15 841.96,-672.96"/>
<polygon fill="black" stroke="black" points="844.41,-675.47 849.67,-666.27 839.83,-670.18 844.41,-675.47"/>
</g>
<!-- ExchangeBuggyTests_token_setup -->
<g id="node28" class="node">
<title>ExchangeBuggyTests_token_setup</title>
<g id="a_node28"><a xlink:href="ExchangeBuggyTests.html#token_setup" xlink:title="token_setup">
<ellipse fill="#f070d1" stroke="black" cx="465" cy="-648.51" rx="66.89" ry="18"/>
<text text-anchor="middle" x="465" y="-644.81" font-family="Times,serif" font-size="14.00">token_setup</text>
</a>
</g>
</g>
<!-- ExchangeBuggyTests_chain&#45;&gt;ExchangeBuggyTests_token_setup -->
<g id="edge35" class="edge">
<title>ExchangeBuggyTests_chain&#45;&gt;ExchangeBuggyTests_token_setup</title>
<path fill="none" stroke="black" d="M641.88,-817.22C608.16,-785.25 530,-711.14 489.82,-673.04"/>
<polygon fill="black" stroke="black" points="491.98,-670.27 482.32,-665.93 487.17,-675.35 491.98,-670.27"/>
</g>
<!-- ExchangeBuggyTests_exploit_contract -->
<g id="node31" class="node">
<title>ExchangeBuggyTests_exploit_contract</title>
<g id="a_node31"><a xlink:href="ExchangeBuggyTests.html#exploit_contract" xlink:title="exploit_contract">
<ellipse fill="#f070d1" stroke="black" cx="101" cy="-648.51" rx="85.29" ry="18"/>
<text text-anchor="middle" x="101" y="-644.81" font-family="Times,serif" font-size="14.00">exploit_contract</text>
</a>
</g>
</g>
<!-- ExchangeBuggyTests_chain&#45;&gt;ExchangeBuggyTests_exploit_contract -->
<g id="edge36" class="edge">
<title>ExchangeBuggyTests_chain&#45;&gt;ExchangeBuggyTests_exploit_contract</title>
<path fill="none" stroke="black" d="M628.84,-822.93C539.77,-793.67 270.34,-705.15 154.69,-667.15"/>
<polygon fill="black" stroke="black" points="155.57,-663.75 144.97,-663.96 153.38,-670.4 155.57,-663.75"/>
</g>
<!-- ExchangeBuggyTests_chain&#45;&gt;ExchangeBuggyTests_exploit_caddr -->
<g id="edge37" class="edge">
<title>ExchangeBuggyTests_chain&#45;&gt;ExchangeBuggyTests_exploit_caddr</title>
<path fill="none" stroke="black" d="M693.69,-832.4C796.52,-830.29 1097.9,-811.38 1284,-666.51 1298.44,-655.27 1292.78,-644.97 1304,-630.51 1353.53,-566.67 1402.48,-579.03 1436,-505.51 1467.33,-436.79 1458.31,-344.5 1451.11,-299.48"/>
<polygon fill="black" stroke="black" points="1454.56,-298.87 1449.43,-289.6 1447.66,-300.04 1454.56,-298.87"/>
</g>
<!-- ExchangeBuggyTests_exchange_setup&#45;&gt;ExchangeBuggyTests_fa2_caddr -->
<g id="edge38" class="edge">
<title>ExchangeBuggyTests_exchange_setup&#45;&gt;ExchangeBuggyTests_fa2_caddr</title>
<path fill="none" stroke="black" d="M868.61,-630.28C868.12,-571.61 873.57,-376.48 962,-253.51 1010.3,-186.34 1093.96,-134.32 1142.7,-107.84"/>
<polygon fill="black" stroke="black" points="1144.51,-110.85 1151.67,-103.05 1141.2,-104.68 1144.51,-110.85"/>
</g>
<!-- ExchangeBuggyTests_token_metadata_0 -->
<g id="node29" class="node">
<title>ExchangeBuggyTests_token_metadata_0</title>
<g id="a_node29"><a xlink:href="ExchangeBuggyTests.html#token_metadata_0" xlink:title="token_metadata_0">
<ellipse fill="#f070d1" stroke="black" cx="591" cy="-456.51" rx="94.78" ry="18"/>
<text text-anchor="middle" x="591" y="-452.81" font-family="Times,serif" font-size="14.00">token_metadata_0</text>
</a>
</g>
</g>
<!-- ExchangeBuggyTests_token_setup&#45;&gt;ExchangeBuggyTests_token_metadata_0 -->
<g id="edge39" class="edge">
<title>ExchangeBuggyTests_token_setup&#45;&gt;ExchangeBuggyTests_token_metadata_0</title>
<path fill="none" stroke="black" d="M476.18,-630.65C498.26,-597.35 547.59,-522.97 573.82,-483.41"/>
<polygon fill="black" stroke="black" points="577.05,-484.87 579.66,-474.61 571.22,-481.01 577.05,-484.87"/>
</g>
<!-- ExchangeBuggyTests_policy_all -->
<g id="node30" class="node">
<title>ExchangeBuggyTests_policy_all</title>
<g id="a_node30"><a xlink:href="ExchangeBuggyTests.html#policy_all" xlink:title="policy_all">
<ellipse fill="#f070d1" stroke="black" cx="758" cy="-456.51" rx="53.89" ry="18"/>
<text text-anchor="middle" x="758" y="-452.81" font-family="Times,serif" font-size="14.00">policy_all</text>
</a>
</g>
</g>
<!-- ExchangeBuggyTests_token_setup&#45;&gt;ExchangeBuggyTests_policy_all -->
<g id="edge40" class="edge">
<title>ExchangeBuggyTests_token_setup&#45;&gt;ExchangeBuggyTests_policy_all</title>
<path fill="none" stroke="black" d="M492.1,-631.94C535.68,-606.66 623.64,-554.55 695,-505.51 706.83,-497.38 719.49,-487.9 730.33,-479.52"/>
<polygon fill="black" stroke="black" points="732.49,-482.28 738.23,-473.37 728.19,-476.75 732.49,-482.28"/>
</g>
<!-- ExchangeBuggyTests_token_metadata_0&#45;&gt;ExchangeBuggyTests_exchange_token_id -->
<g id="edge41" class="edge">
<title>ExchangeBuggyTests_token_metadata_0&#45;&gt;ExchangeBuggyTests_exchange_token_id</title>
<path fill="none" stroke="black" d="M611.58,-438.62C651.57,-405.8 739.85,-333.36 785.47,-295.92"/>
<polygon fill="black" stroke="black" points="787.96,-298.41 793.47,-289.36 783.52,-292.99 787.96,-298.41"/>
</g>
<!-- ExchangeBuggyTests_exploit_receive -->
<g id="node32" class="node">
<title>ExchangeBuggyTests_exploit_receive</title>
<g id="a_node32"><a xlink:href="ExchangeBuggyTests.html#exploit_receive" xlink:title="exploit_receive">
<ellipse fill="#f070d1" stroke="black" cx="398" cy="-456.51" rx="80.69" ry="18"/>
<text text-anchor="middle" x="398" y="-452.81" font-family="Times,serif" font-size="14.00">exploit_receive</text>
</a>
</g>
</g>
<!-- ExchangeBuggyTests_exploit_contract&#45;&gt;ExchangeBuggyTests_exploit_receive -->
<g id="edge42" class="edge">
<title>ExchangeBuggyTests_exploit_contract&#45;&gt;ExchangeBuggyTests_exploit_receive</title>
<path fill="none" stroke="black" d="M126.32,-631.31C179.69,-597.17 303.77,-517.79 363.99,-479.27"/>
<polygon fill="black" stroke="black" points="366.2,-482 372.74,-473.67 362.43,-476.11 366.2,-482"/>
</g>
<!-- ExchangeBuggyTests_exploit_init -->
<g id="node33" class="node">
<title>ExchangeBuggyTests_exploit_init</title>
<g id="a_node33"><a xlink:href="ExchangeBuggyTests.html#exploit_init" xlink:title="exploit_init">
<ellipse fill="#f070d1" stroke="black" cx="125" cy="-456.51" rx="62.29" ry="18"/>
<text text-anchor="middle" x="125" y="-452.81" font-family="Times,serif" font-size="14.00">exploit_init</text>
</a>
</g>
</g>
<!-- ExchangeBuggyTests_exploit_contract&#45;&gt;ExchangeBuggyTests_exploit_init -->
<g id="edge43" class="edge">
<title>ExchangeBuggyTests_exploit_contract&#45;&gt;ExchangeBuggyTests_exploit_init</title>
<path fill="none" stroke="black" d="M103.17,-630.31C107.36,-597.18 116.57,-524.26 121.58,-484.56"/>
<polygon fill="black" stroke="black" points="125.07,-484.89 122.85,-474.53 118.12,-484.01 125.07,-484.89"/>
</g>
<!-- ExchangeBuggyTests_ExploitContractState -->
<g id="node35" class="node">
<title>ExchangeBuggyTests_ExploitContractState</title>
<g id="a_node35"><a xlink:href="ExchangeBuggyTests.html#ExploitContractState" xlink:title="ExploitContractState">
<ellipse fill="#f070d1" stroke="black" cx="361" cy="-271.51" rx="109.38" ry="18"/>
<text text-anchor="middle" x="361" y="-267.81" font-family="Times,serif" font-size="14.00">ExploitContractState</text>
</a>
</g>
</g>
<!-- ExchangeBuggyTests_exploit_receive&#45;&gt;ExchangeBuggyTests_ExploitContractState -->
<g id="edge44" class="edge">
<title>ExchangeBuggyTests_exploit_receive&#45;&gt;ExchangeBuggyTests_ExploitContractState</title>
<path fill="none" stroke="black" d="M394.52,-438.29C388.06,-406.33 374.16,-337.61 366.45,-299.44"/>
<polygon fill="black" stroke="black" points="369.86,-298.65 364.44,-289.55 363,-300.04 369.86,-298.65"/>
</g>
<!-- ExchangeBuggyTests_ExploitContractMsg -->
<g id="node36" class="node">
<title>ExchangeBuggyTests_ExploitContractMsg</title>
<g id="a_node36"><a xlink:href="ExchangeBuggyTests.html#ExploitContractMsg" xlink:title="ExploitContractMsg">
<ellipse fill="#f070d1" stroke="black" cx="593" cy="-271.51" rx="104.78" ry="18"/>
<text text-anchor="middle" x="593" y="-267.81" font-family="Times,serif" font-size="14.00">ExploitContractMsg</text>
</a>
</g>
</g>
<!-- ExchangeBuggyTests_exploit_receive&#45;&gt;ExchangeBuggyTests_ExploitContractMsg -->
<g id="edge45" class="edge">
<title>ExchangeBuggyTests_exploit_receive&#45;&gt;ExchangeBuggyTests_ExploitContractMsg</title>
<path fill="none" stroke="black" d="M416,-438.62C450.82,-405.94 527.52,-333.96 567.55,-296.39"/>
<polygon fill="black" stroke="black" points="570.15,-298.75 575.05,-289.36 565.36,-293.65 570.15,-298.75"/>
</g>
<!-- ExchangeBuggyTests_exploit_receive&#45;&gt;ExchangeBuggyTests_exchange_caddr -->
<g id="edge46" class="edge">
<title>ExchangeBuggyTests_exploit_receive&#45;&gt;ExchangeBuggyTests_exchange_caddr</title>
<path fill="none" stroke="black" d="M444.96,-441.7C458.48,-437.9 473.29,-433.89 487,-430.51 732.87,-369.97 1027.8,-311.59 1160.8,-286.01"/>
<polygon fill="black" stroke="black" points="1161.7,-289.4 1170.86,-284.08 1160.38,-282.53 1161.7,-289.4"/>
</g>
<!-- ExchangeBuggyTests_exploit_receive&#45;&gt;ExchangeBuggyTests_exchange_token_id -->
<g id="edge47" class="edge">
<title>ExchangeBuggyTests_exploit_receive&#45;&gt;ExchangeBuggyTests_exchange_token_id</title>
<path fill="none" stroke="black" d="M432.75,-440.22C507.87,-407.18 685.32,-329.12 768.93,-292.34"/>
<polygon fill="black" stroke="black" points="770.42,-295.5 778.17,-288.27 767.61,-289.09 770.42,-295.5"/>
</g>
<!-- ExchangeBuggyTests_ExplotContractSetup -->
<g id="node34" class="node">
<title>ExchangeBuggyTests_ExplotContractSetup</title>
<g id="a_node34"><a xlink:href="ExchangeBuggyTests.html#ExplotContractSetup" xlink:title="ExplotContractSetup">
<ellipse fill="#f070d1" stroke="black" cx="125" cy="-271.51" rx="108.58" ry="18"/>
<text text-anchor="middle" x="125" y="-267.81" font-family="Times,serif" font-size="14.00">ExplotContractSetup</text>
</a>
</g>
</g>
<!-- ExchangeBuggyTests_exploit_init&#45;&gt;ExchangeBuggyTests_ExplotContractSetup -->
<g id="edge48" class="edge">
<title>ExchangeBuggyTests_exploit_init&#45;&gt;ExchangeBuggyTests_ExplotContractSetup</title>
<path fill="none" stroke="black" d="M125,-438.29C125,-406.47 125,-338.2 125,-299.94"/>
<polygon fill="black" stroke="black" points="128.5,-299.55 125,-289.55 121.5,-299.55 128.5,-299.55"/>
</g>
<!-- ExchangeBuggyTests_exploit_init&#45;&gt;ExchangeBuggyTests_ExploitContractState -->
<g id="edge49" class="edge">
<title>ExchangeBuggyTests_exploit_init&#45;&gt;ExchangeBuggyTests_ExploitContractState</title>
<path fill="none" stroke="black" d="M145.94,-439.27C188.07,-406.61 283.13,-332.89 331.51,-295.37"/>
<polygon fill="black" stroke="black" points="333.66,-298.13 339.42,-289.24 329.38,-292.6 333.66,-298.13"/>
</g>
</g>
</svg>
