<?xml version="1.0" encoding="UTF-8" standalone="no"?>
<!DOCTYPE svg PUBLIC "-//W3C//DTD SVG 1.1//EN"
 "http://www.w3.org/Graphics/SVG/1.1/DTD/svg11.dtd">
<!-- Generated by graphviz version 2.43.0 (0)
 -->
<!-- Title: Common Pages: 1 -->
<svg width="4287pt" height="2148pt"
 viewBox="0.00 0.00 4287.00 2147.50" xmlns="http://www.w3.org/2000/svg" xmlns:xlink="http://www.w3.org/1999/xlink">
<g id="graph0" class="graph" transform="scale(1 1) rotate(0) translate(4 2143.5)">
<title>Common</title>
<polygon fill="white" stroke="transparent" points="-4,4 -4,-2143.5 4283,-2143.5 4283,4 -4,4"/>
<g id="clust1" class="cluster">
<title>cluster_Common</title>
<polygon fill="#ffffc3" stroke="black" points="8,-68.19 8,-2071.31 4271,-2071.31 4271,-68.19 8,-68.19"/>
<text text-anchor="middle" x="48" y="-2056.11" font-family="Times,serif" font-size="14.00">Common</text>
</g>
<!-- Common_print_list -->
<g id="node1" class="node">
<title>Common_print_list</title>
<g id="a_node1"><a xlink:href="Common.html#print_list" xlink:title="print_list">
<ellipse fill="#f070d1" stroke="black" cx="4202" cy="-1585.19" rx="52.77" ry="18"/>
<ellipse fill="none" stroke="black" cx="4202" cy="-1585.19" rx="56.78" ry="22"/>
<ellipse fill="none" stroke="black" cx="4202" cy="-1585.19" rx="60.79" ry="26"/>
<text text-anchor="middle" x="4202" y="-1581.49" font-family="Times,serif" font-size="14.00">print_list</text>
</a>
</g>
</g>
<!-- Common_string_of_list_aux -->
<g id="node3" class="node">
<title>Common_string_of_list_aux</title>
<g id="a_node3"><a xlink:href="Common.html#string_of_list_aux" xlink:title="string_of_list_aux">
<ellipse fill="#f070d1" stroke="black" cx="4108" cy="-903.19" rx="91.78" ry="18"/>
<text text-anchor="middle" x="4108" y="-899.49" font-family="Times,serif" font-size="14.00">string_of_list_aux</text>
</a>
</g>
</g>
<!-- Common_print_list&#45;&gt;Common_string_of_list_aux -->
<g id="edge1" class="edge">
<title>Common_print_list&#45;&gt;Common_string_of_list_aux</title>
<path fill="none" stroke="black" d="M4198.54,-1559.18C4183.89,-1453.21 4126.99,-1041.58 4111.77,-931.43"/>
<polygon fill="black" stroke="black" points="4115.22,-930.88 4110.39,-921.45 4108.29,-931.84 4115.22,-930.88"/>
</g>
<!-- Common_string_of_list -->
<g id="node2" class="node">
<title>Common_string_of_list</title>
<g id="a_node2"><a xlink:href="Common.html#string_of_list" xlink:title="string_of_list">
<ellipse fill="#f070d1" stroke="black" cx="4045" cy="-1585.19" rx="70.7" ry="18"/>
<ellipse fill="none" stroke="black" cx="4045" cy="-1585.19" rx="74.7" ry="22"/>
<ellipse fill="none" stroke="black" cx="4045" cy="-1585.19" rx="78.69" ry="26"/>
<text text-anchor="middle" x="4045" y="-1581.49" font-family="Times,serif" font-size="14.00">string_of_list</text>
</a>
</g>
</g>
<!-- Common_string_of_list&#45;&gt;Common_string_of_list_aux -->
<g id="edge2" class="edge">
<title>Common_string_of_list&#45;&gt;Common_string_of_list_aux</title>
<path fill="none" stroke="black" d="M4047.32,-1559.18C4057.14,-1453.21 4095.27,-1041.58 4105.48,-931.43"/>
<polygon fill="black" stroke="black" points="4108.96,-931.73 4106.4,-921.45 4101.99,-931.09 4108.96,-931.73"/>
</g>
<!-- Common_nl -->
<g id="node4" class="node">
<title>Common_nl</title>
<g id="a_node4"><a xlink:href="Common.html#nl" xlink:title="nl">
<ellipse fill="#f070d1" stroke="black" cx="3913" cy="-1585.19" rx="27" ry="18"/>
<ellipse fill="none" stroke="black" cx="3913" cy="-1585.19" rx="31" ry="22"/>
<ellipse fill="none" stroke="black" cx="3913" cy="-1585.19" rx="35" ry="26"/>
<text text-anchor="middle" x="3913" y="-1581.49" font-family="Times,serif" font-size="14.00">nl</text>
</a>
</g>
</g>
<!-- Common_parens -->
<g id="node5" class="node">
<title>Common_parens</title>
<g id="a_node5"><a xlink:href="Common.html#parens" xlink:title="parens">
<ellipse fill="#f070d1" stroke="black" cx="3810" cy="-1585.19" rx="42.45" ry="18"/>
<ellipse fill="none" stroke="black" cx="3810" cy="-1585.19" rx="46.47" ry="22"/>
<ellipse fill="none" stroke="black" cx="3810" cy="-1585.19" rx="50.49" ry="26"/>
<text text-anchor="middle" x="3810" y="-1581.49" font-family="Times,serif" font-size="14.00">parens</text>
</a>
</g>
</g>
<!-- Common_Z_syn_to_Z -->
<g id="node6" class="node">
<title>Common_Z_syn_to_Z</title>
<g id="a_node6"><a xlink:href="Common.html#Z_syn_to_Z" xlink:title="Z_syn_to_Z">
<ellipse fill="#f070d1" stroke="black" cx="3672" cy="-1585.19" rx="61.96" ry="18"/>
<ellipse fill="none" stroke="black" cx="3672" cy="-1585.19" rx="65.98" ry="22"/>
<ellipse fill="none" stroke="black" cx="3672" cy="-1585.19" rx="69.99" ry="26"/>
<text text-anchor="middle" x="3672" y="-1581.49" font-family="Times,serif" font-size="14.00">Z_syn_to_Z</text>
</a>
</g>
</g>
<!-- Common_pos_syn_to_nat -->
<g id="node8" class="node">
<title>Common_pos_syn_to_nat</title>
<g id="a_node8"><a xlink:href="Common.html#pos_syn_to_nat" xlink:title="pos_syn_to_nat">
<ellipse fill="#f070d1" stroke="black" cx="3588" cy="-903.19" rx="80.69" ry="18"/>
<text text-anchor="middle" x="3588" y="-899.49" font-family="Times,serif" font-size="14.00">pos_syn_to_nat</text>
</a>
</g>
</g>
<!-- Common_Z_syn_to_Z&#45;&gt;Common_pos_syn_to_nat -->
<g id="edge3" class="edge">
<title>Common_Z_syn_to_Z&#45;&gt;Common_pos_syn_to_nat</title>
<path fill="none" stroke="black" d="M3668.91,-1559.18C3655.82,-1453.21 3604.97,-1041.58 3591.36,-931.43"/>
<polygon fill="black" stroke="black" points="3594.83,-930.95 3590.13,-921.45 3587.88,-931.81 3594.83,-930.95"/>
</g>
<!-- Common_N_syn_to_nat -->
<g id="node7" class="node">
<title>Common_N_syn_to_nat</title>
<g id="a_node7"><a xlink:href="Common.html#N_syn_to_nat" xlink:title="N_syn_to_nat">
<ellipse fill="#f070d1" stroke="black" cx="3504" cy="-1585.19" rx="72.27" ry="18"/>
<ellipse fill="none" stroke="black" cx="3504" cy="-1585.19" rx="76.28" ry="22"/>
<ellipse fill="none" stroke="black" cx="3504" cy="-1585.19" rx="80.29" ry="26"/>
<text text-anchor="middle" x="3504" y="-1581.49" font-family="Times,serif" font-size="14.00">N_syn_to_nat</text>
</a>
</g>
</g>
<!-- Common_N_syn_to_nat&#45;&gt;Common_pos_syn_to_nat -->
<g id="edge4" class="edge">
<title>Common_N_syn_to_nat&#45;&gt;Common_pos_syn_to_nat</title>
<path fill="none" stroke="black" d="M3507.09,-1559.18C3520.18,-1453.21 3571.03,-1041.58 3584.64,-931.43"/>
<polygon fill="black" stroke="black" points="3588.12,-931.81 3585.87,-921.45 3581.17,-930.95 3588.12,-931.81"/>
</g>
<!-- Common_pos_syn_to_nat_aux -->
<g id="node9" class="node">
<title>Common_pos_syn_to_nat_aux</title>
<g id="a_node9"><a xlink:href="Common.html#pos_syn_to_nat_aux" xlink:title="pos_syn_to_nat_aux">
<ellipse fill="#f070d1" stroke="black" cx="3588" cy="-290.19" rx="101.28" ry="18"/>
<text text-anchor="middle" x="3588" y="-286.49" font-family="Times,serif" font-size="14.00">pos_syn_to_nat_aux</text>
</a>
</g>
</g>
<!-- Common_pos_syn_to_nat&#45;&gt;Common_pos_syn_to_nat_aux -->
<g id="edge5" class="edge">
<title>Common_pos_syn_to_nat&#45;&gt;Common_pos_syn_to_nat_aux</title>
<path fill="none" stroke="black" d="M3588,-884.89C3588,-799.55 3588,-423.34 3588,-318.44"/>
<polygon fill="black" stroke="black" points="3591.5,-318.34 3588,-308.34 3584.5,-318.34 3591.5,-318.34"/>
</g>
<!-- Common__Zneg -->
<g id="node10" class="node">
<title>Common__Zneg</title>
<g id="a_node10"><a xlink:href="Common.html#_Zneg" xlink:title="_Zneg">
<ellipse fill="#f070d1" stroke="black" cx="3360" cy="-1585.19" rx="38.22" ry="18"/>
<ellipse fill="none" stroke="black" cx="3360" cy="-1585.19" rx="42.21" ry="22"/>
<ellipse fill="none" stroke="black" cx="3360" cy="-1585.19" rx="46.19" ry="26"/>
<text text-anchor="middle" x="3360" y="-1581.49" font-family="Times,serif" font-size="14.00">_Zneg</text>
</a>
</g>
</g>
<!-- Common__Zpos -->
<g id="node11" class="node">
<title>Common__Zpos</title>
<g id="a_node11"><a xlink:href="Common.html#_Zpos" xlink:title="_Zpos">
<ellipse fill="#f070d1" stroke="black" cx="3250" cy="-1585.19" rx="37.86" ry="18"/>
<ellipse fill="none" stroke="black" cx="3250" cy="-1585.19" rx="41.88" ry="22"/>
<ellipse fill="none" stroke="black" cx="3250" cy="-1585.19" rx="45.89" ry="26"/>
<text text-anchor="middle" x="3250" y="-1581.49" font-family="Times,serif" font-size="14.00">_Zpos</text>
</a>
</g>
</g>
<!-- Common__Z0 -->
<g id="node12" class="node">
<title>Common__Z0</title>
<g id="a_node12"><a xlink:href="Common.html#_Z0" xlink:title="_Z0">
<ellipse fill="#f070d1" stroke="black" cx="3151" cy="-1585.19" rx="27.14" ry="18"/>
<ellipse fill="none" stroke="black" cx="3151" cy="-1585.19" rx="31.12" ry="22"/>
<ellipse fill="none" stroke="black" cx="3151" cy="-1585.19" rx="35.1" ry="26"/>
<text text-anchor="middle" x="3151" y="-1581.49" font-family="Times,serif" font-size="14.00">_Z0</text>
</a>
</g>
</g>
<!-- Common__Npos -->
<g id="node13" class="node">
<title>Common__Npos</title>
<g id="a_node13"><a xlink:href="Common.html#_Npos" xlink:title="_Npos">
<ellipse fill="#f070d1" stroke="black" cx="3051" cy="-1585.19" rx="38.99" ry="18"/>
<ellipse fill="none" stroke="black" cx="3051" cy="-1585.19" rx="42.99" ry="22"/>
<ellipse fill="none" stroke="black" cx="3051" cy="-1585.19" rx="46.99" ry="26"/>
<text text-anchor="middle" x="3051" y="-1581.49" font-family="Times,serif" font-size="14.00">_Npos</text>
</a>
</g>
</g>
<!-- Common__N0 -->
<g id="node14" class="node">
<title>Common__N0</title>
<g id="a_node14"><a xlink:href="Common.html#_N0" xlink:title="_N0">
<ellipse fill="#f070d1" stroke="black" cx="2949" cy="-1585.19" rx="28.67" ry="18"/>
<ellipse fill="none" stroke="black" cx="2949" cy="-1585.19" rx="32.68" ry="22"/>
<ellipse fill="none" stroke="black" cx="2949" cy="-1585.19" rx="36.7" ry="26"/>
<text text-anchor="middle" x="2949" y="-1581.49" font-family="Times,serif" font-size="14.00">_N0</text>
</a>
</g>
</g>
<!-- Common__xH -->
<g id="node15" class="node">
<title>Common__xH</title>
<g id="a_node15"><a xlink:href="Common.html#_xH" xlink:title="_xH">
<ellipse fill="#f070d1" stroke="black" cx="2858" cy="-1585.19" rx="28.67" ry="18"/>
<ellipse fill="none" stroke="black" cx="2858" cy="-1585.19" rx="32.68" ry="22"/>
<ellipse fill="none" stroke="black" cx="2858" cy="-1585.19" rx="36.7" ry="26"/>
<text text-anchor="middle" x="2858" y="-1581.49" font-family="Times,serif" font-size="14.00">_xH</text>
</a>
</g>
</g>
<!-- Common__xO -->
<g id="node16" class="node">
<title>Common__xO</title>
<g id="a_node16"><a xlink:href="Common.html#_xO" xlink:title="_xO">
<ellipse fill="#f070d1" stroke="black" cx="2767" cy="-1585.19" rx="27.91" ry="18"/>
<ellipse fill="none" stroke="black" cx="2767" cy="-1585.19" rx="31.9" ry="22"/>
<ellipse fill="none" stroke="black" cx="2767" cy="-1585.19" rx="35.9" ry="26"/>
<text text-anchor="middle" x="2767" y="-1581.49" font-family="Times,serif" font-size="14.00">_xO</text>
</a>
</g>
</g>
<!-- Common__xI -->
<g id="node17" class="node">
<title>Common__xI</title>
<g id="a_node17"><a xlink:href="Common.html#_xI" xlink:title="_xI">
<ellipse fill="#f070d1" stroke="black" cx="2678" cy="-1585.19" rx="27" ry="18"/>
<ellipse fill="none" stroke="black" cx="2678" cy="-1585.19" rx="31" ry="22"/>
<ellipse fill="none" stroke="black" cx="2678" cy="-1585.19" rx="35" ry="26"/>
<text text-anchor="middle" x="2678" y="-1581.49" font-family="Times,serif" font-size="14.00">_xI</text>
</a>
</g>
</g>
<!-- Common_nat_syn_to_nat -->
<g id="node18" class="node">
<title>Common_nat_syn_to_nat</title>
<g id="a_node18"><a xlink:href="Common.html#nat_syn_to_nat" xlink:title="nat_syn_to_nat">
<ellipse fill="#f070d1" stroke="black" cx="2538" cy="-1585.19" rx="79.11" ry="18"/>
<ellipse fill="none" stroke="black" cx="2538" cy="-1585.19" rx="83.1" ry="22"/>
<ellipse fill="none" stroke="black" cx="2538" cy="-1585.19" rx="87.09" ry="26"/>
<text text-anchor="middle" x="2538" y="-1581.49" font-family="Times,serif" font-size="14.00">nat_syn_to_nat</text>
</a>
</g>
</g>
<!-- Common_iota_body -->
<g id="node19" class="node">
<title>Common_iota_body</title>
<g id="a_node19"><a xlink:href="Common.html#iota_body" xlink:title="iota_body">
<ellipse fill="#f070d1" stroke="black" cx="2369" cy="-1585.19" rx="55.46" ry="18"/>
<ellipse fill="none" stroke="black" cx="2369" cy="-1585.19" rx="59.48" ry="22"/>
<ellipse fill="none" stroke="black" cx="2369" cy="-1585.19" rx="63.49" ry="26"/>
<text text-anchor="middle" x="2369" y="-1581.49" font-family="Times,serif" font-size="14.00">iota_body</text>
</a>
</g>
</g>
<!-- Common_beta_body -->
<g id="node20" class="node">
<title>Common_beta_body</title>
<g id="a_node20"><a xlink:href="Common.html#beta_body" xlink:title="beta_body">
<ellipse fill="#f070d1" stroke="black" cx="2222" cy="-1585.19" rx="57.71" ry="18"/>
<ellipse fill="none" stroke="black" cx="2222" cy="-1585.19" rx="61.7" ry="22"/>
<ellipse fill="none" stroke="black" cx="2222" cy="-1585.19" rx="65.69" ry="26"/>
<text text-anchor="middle" x="2222" y="-1581.49" font-family="Times,serif" font-size="14.00">beta_body</text>
</a>
</g>
</g>
<!-- Common_map_subterms -->
<g id="node21" class="node">
<title>Common_map_subterms</title>
<g id="a_node21"><a xlink:href="Common.html#map_subterms" xlink:title="map_subterms">
<ellipse fill="#f070d1" stroke="black" cx="2051" cy="-1585.19" rx="79.11" ry="18"/>
<ellipse fill="none" stroke="black" cx="2051" cy="-1585.19" rx="83.1" ry="22"/>
<ellipse fill="none" stroke="black" cx="2051" cy="-1585.19" rx="87.09" ry="26"/>
<text text-anchor="middle" x="2051" y="-1581.49" font-family="Times,serif" font-size="14.00">map_subterms</text>
</a>
</g>
</g>
<!-- Common_quote_recursively_body -->
<g id="node22" class="node">
<title>Common_quote_recursively_body</title>
<g id="a_node22"><a xlink:href="Common.html#quote_recursively_body" xlink:title="quote_recursively_body">
<ellipse fill="#7fffd4" stroke="black" cx="1817" cy="-1585.19" rx="120.46" ry="18"/>
<ellipse fill="none" stroke="black" cx="1817" cy="-1585.19" rx="124.47" ry="22"/>
<ellipse fill="none" stroke="black" cx="1817" cy="-1585.19" rx="128.48" ry="26"/>
<text text-anchor="middle" x="1817" y="-1581.49" font-family="Times,serif" font-size="14.00">quote_recursively_body</text>
</a>
</g>
</g>
<!-- Common_remap -->
<g id="node23" class="node">
<title>Common_remap</title>
<g id="a_node23"><a xlink:href="Common.html#remap" xlink:title="remap">
<ellipse fill="#f070d1" stroke="black" cx="1622" cy="-1585.19" rx="40.13" ry="18"/>
<ellipse fill="none" stroke="black" cx="1622" cy="-1585.19" rx="44.11" ry="22"/>
<ellipse fill="none" stroke="black" cx="1622" cy="-1585.19" rx="48.09" ry="26"/>
<text text-anchor="middle" x="1622" y="-1581.49" font-family="Times,serif" font-size="14.00">remap</text>
</a>
</g>
</g>
<!-- Common_extract_def_name_exists -->
<g id="node24" class="node">
<title>Common_extract_def_name_exists</title>
<g id="a_node24"><a xlink:href="Common.html#extract_def_name_exists" xlink:title="extract_def_name_exists">
<ellipse fill="#7fffd4" stroke="black" cx="1424" cy="-1585.19" rx="124.27" ry="18"/>
<ellipse fill="none" stroke="black" cx="1424" cy="-1585.19" rx="128.27" ry="22"/>
<ellipse fill="none" stroke="black" cx="1424" cy="-1585.19" rx="132.28" ry="26"/>
<text text-anchor="middle" x="1424" y="-1581.49" font-family="Times,serif" font-size="14.00">extract_def_name_exists</text>
</a>
</g>
</g>
<!-- Common_extract_def_name -->
<g id="node25" class="node">
<title>Common_extract_def_name</title>
<g id="a_node25"><a xlink:href="Common.html#extract_def_name" xlink:title="extract_def_name">
<ellipse fill="#7fffd4" stroke="black" cx="1173" cy="-1585.19" rx="92.89" ry="18"/>
<ellipse fill="none" stroke="black" cx="1173" cy="-1585.19" rx="96.89" ry="22"/>
<ellipse fill="none" stroke="black" cx="1173" cy="-1585.19" rx="100.88" ry="26"/>
<text text-anchor="middle" x="1173" y="-1581.49" font-family="Times,serif" font-size="14.00">extract_def_name</text>
</a>
</g>
</g>
<!-- Common_to_string_name -->
<g id="node26" class="node">
<title>Common_to_string_name</title>
<g id="a_node26"><a xlink:href="Common.html#to_string_name" xlink:title="to_string_name">
<ellipse fill="#f070d1" stroke="black" cx="964" cy="-1585.19" rx="81.8" ry="18"/>
<ellipse fill="none" stroke="black" cx="964" cy="-1585.19" rx="85.79" ry="22"/>
<ellipse fill="none" stroke="black" cx="964" cy="-1585.19" rx="89.79" ry="26"/>
<text text-anchor="middle" x="964" y="-1581.49" font-family="Times,serif" font-size="14.00">to_string_name</text>
</a>
</g>
</g>
<!-- Common_to_kername -->
<g id="node31" class="node">
<title>Common_to_kername</title>
<g id="a_node31"><a xlink:href="Common.html#to_kername" xlink:title="to_kername">
<ellipse fill="#f070d1" stroke="black" cx="964" cy="-903.19" rx="64.99" ry="18"/>
<text text-anchor="middle" x="964" y="-899.49" font-family="Times,serif" font-size="14.00">to_kername</text>
</a>
</g>
</g>
<!-- Common_to_string_name&#45;&gt;Common_to_kername -->
<g id="edge6" class="edge">
<title>Common_to_string_name&#45;&gt;Common_to_kername</title>
<path fill="none" stroke="black" d="M964,-1559.18C964,-1453.32 964,-1042.41 964,-931.76"/>
<polygon fill="black" stroke="black" points="967.5,-931.45 964,-921.45 960.5,-931.45 967.5,-931.45"/>
</g>
<!-- Common_result_of_option -->
<g id="node27" class="node">
<title>Common_result_of_option</title>
<g id="a_node27"><a xlink:href="Common.html#result_of_option" xlink:title="result_of_option">
<ellipse fill="#f070d1" stroke="black" cx="763" cy="-1585.19" rx="85.27" ry="18"/>
<ellipse fill="none" stroke="black" cx="763" cy="-1585.19" rx="89.28" ry="22"/>
<ellipse fill="none" stroke="black" cx="763" cy="-1585.19" rx="93.29" ry="26"/>
<text text-anchor="middle" x="763" y="-1581.49" font-family="Times,serif" font-size="14.00">result_of_option</text>
</a>
</g>
</g>
<!-- Common_string_of_env_error -->
<g id="node28" class="node">
<title>Common_string_of_env_error</title>
<g id="a_node28"><a xlink:href="Common.html#string_of_env_error" xlink:title="string_of_env_error">
<ellipse fill="#f070d1" stroke="black" cx="543" cy="-1585.19" rx="100.96" ry="18"/>
<ellipse fill="none" stroke="black" cx="543" cy="-1585.19" rx="104.97" ry="22"/>
<ellipse fill="none" stroke="black" cx="543" cy="-1585.19" rx="108.98" ry="26"/>
<text text-anchor="middle" x="543" y="-1581.49" font-family="Times,serif" font-size="14.00">string_of_env_error</text>
</a>
</g>
</g>
<!-- Common_result_of_typing_result -->
<g id="node29" class="node">
<title>Common_result_of_typing_result</title>
<g id="a_node29"><a xlink:href="Common.html#result_of_typing_result" xlink:title="result_of_typing_result">
<ellipse fill="#f070d1" stroke="black" cx="291" cy="-1585.19" rx="116.98" ry="18"/>
<ellipse fill="none" stroke="black" cx="291" cy="-1585.19" rx="120.98" ry="22"/>
<ellipse fill="none" stroke="black" cx="291" cy="-1585.19" rx="124.98" ry="26"/>
<text text-anchor="middle" x="291" y="-1581.49" font-family="Times,serif" font-size="14.00">result_of_typing_result</text>
</a>
</g>
</g>
<!-- Common_to_globref -->
<g id="node30" class="node">
<title>Common_to_globref</title>
<g id="a_node30"><a xlink:href="Common.html#to_globref" xlink:title="to_globref">
<ellipse fill="#f070d1" stroke="black" cx="82" cy="-1585.19" rx="57.71" ry="18"/>
<ellipse fill="none" stroke="black" cx="82" cy="-1585.19" rx="61.7" ry="22"/>
<ellipse fill="none" stroke="black" cx="82" cy="-1585.19" rx="65.69" ry="26"/>
<text text-anchor="middle" x="82" y="-1581.49" font-family="Times,serif" font-size="14.00">to_globref</text>
</a>
</g>
</g>
</g>
</svg>
